<svg width="41" height="40" viewBox="0 0 41 40" fill="none" xmlns="http://www.w3.org/2000/svg">
<path d="M1.75 20C1.75 27.1875 5.8125 33.4375 11.75 36.5625V3.4375C5.8125 6.5625 1.75 12.8125 1.75 20Z" fill="#3E4347"/>
<path d="M39.25 20C39.25 12.8125 35.1875 6.5625 29.25 3.4375V36.625C35.1875 33.4375 39.25 27.1875 39.25 20Z" fill="#699635"/>
<path d="M20.5 1.25C17.3125 1.25 14.375 2.0625 11.75 3.4375V36.625C14.375 38 17.3125 38.8125 20.5 38.8125C23.6875 38.8125 26.625 38 29.25 36.625V3.4375C26.625 2.0625 23.6875 1.25 20.5 1.25Z" fill="#ED4C5C"/>
<path d="M22.875 23.125H22.1875C22.1875 23.4375 22.125 23.6875 21.9375 23.875H23.3125C23.0625 23.6875 22.875 23.375 22.875 23.125ZM22.9375 19.25L23.3125 18.8125H22.0625L21.4375 18.375L19.5 18.3125L18.9375 18.8125H17.6875L18.0625 19.25H22.9375ZM19.625 18.25H21.3125C21.5625 18.125 21.625 17.6875 21.625 17.5C21.625 16.8125 21.1875 16.5 20.75 16.5C20.6875 16.5 20.625 16.4375 20.5625 16.375C20.5 16.25 20.5 16.125 20.5 16.125C20.4375 16.125 20.5 16.1875 20.4375 16.375C20.4375 16.4375 20.375 16.5 20.25 16.5C19.6875 16.5 19.3125 16.9375 19.375 17.5C19.375 17.875 19.4375 18.125 19.625 18.25ZM22.0625 23.375L21.75 23.1875V22.8125L21.5625 22.6875V22.3125L21.25 22.1875V21.875L21 21.8125V21.5L20.625 21.375L20.4375 21.25V21H19.1875V20.8125C19.1875 20.1875 20 19.625 20.5 19.625C21.125 19.625 21.8125 20.1875 21.8125 20.8125V21.4375H21.875V20.8125C21.875 20.25 21.1875 19.5625 20.5625 19.5625H22.8125V19.5H18.0625V19.5625H20.3125C19.9375 19.5625 19 20 19 20.8125V23.0625H19.5V23.5H18.875C18.8125 23.5 18.75 23.375 18.75 23.25H18.125C18.125 23.5625 17.9375 23.8125 17.6875 24.0625H19.5625V23.5625H20.0625L20.1875 24.0625H20.625L20.4375 23.5625H20.875L21.1875 24.0625H21.8125L21.375 23.5625C21.375 23.375 22.0625 23.375 22.0625 23.375ZM19.5625 22.5625H19.9375L20 23H19.5625V22.5625ZM20.4375 23.375H20.0625L20 22.9375H20.3125L20.1875 22.5H20.375L20.625 22.9375H20.3125L20.4375 23.375ZM20.875 23.375L20.625 22.9375H21L21.375 23.375H20.875Z" fill="white"/>
<path d="M21.8125 21.6875H21.875V22.3125H21.8125V21.6875ZM18.1875 22.375H18.875V21.5625H18.1875V21.75L16.8125 19.375L16.875 19.25C16.875 19.125 16.8125 19.0625 16.6875 19.0625C16.5625 19.0625 16.5 19.125 16.5 19.25C16.5 19.375 16.5625 19.4375 16.6875 19.4375H16.75L16.8125 19.5C16.6875 19.5 16.5625 19.8125 16.25 20.0625C16.0625 20.1875 15.9375 20.625 15.875 20.875V21.4375C15.875 21.5625 15.75 21.8125 15.8125 21.875C16 22 16.25 22.375 16.375 22.5C16.4375 22.5625 16.5625 22.125 16.625 21.8125V21.75C16.6875 21.5 16.6875 21.1875 16.875 21L16.9375 20.9375C17.0625 20.8125 17.3125 20.6875 17.4375 20.5625L18.25 22L18.1875 22.375ZM18.1875 17.0625H18.8125V17.1875H18.1875V17.0625ZM18.1875 17.3125H18.8125V18.5625H18.1875V17.3125ZM18.5 16.375C18.375 16.375 18.125 16.625 18.1875 16.875H18.875C18.875 16.625 18.625 16.375 18.5 16.375ZM18.125 19.625H18.8125V20.625H18.125V19.625Z" fill="white"/>
<path d="M18.1875 21.1875H18.875V21.375H18.1875V21.1875ZM18.125 22.5H18.875V22.9375H18.125V22.5ZM18.1875 21H18.8125L18.9375 20.8125H18.125L18.1875 21ZM19.4375 19.6875H19V20.25C19.125 20 19.25 19.8125 19.4375 19.6875ZM25.1875 21.125V20.875C25.1875 20.625 25.0625 20.25 24.8125 20.0625C24.5 19.8125 24.3125 19.5 24.25 19.5L24.3125 19.4375H24.375C24.5 19.4375 24.5625 19.375 24.5625 19.25C24.5625 19.125 24.5 19.0625 24.375 19.0625C24.25 19.0625 24.1875 19.125 24.1875 19.25L24.25 19.375L22.9375 21.75V21.5625H22.25V22.375H22.9375V21.9375L23.75 20.5C23.8125 20.5625 24.125 20.6875 24.25 20.875L24.3125 20.9375C24.5 21.1875 24.4375 21.4375 24.5 21.6875V21.75C24.5625 22 24.625 22.5 24.75 22.4375C24.875 22.3125 25.125 22 25.3125 21.8125C25.375 21.75 25.25 21.5 25.25 21.375C25.125 21.3125 25.1875 21.25 25.1875 21.125ZM22.25 17.0625H22.875V17.1875H22.25V17.0625ZM22.25 17.3125H22.875V18.5625H22.25V17.3125ZM22.875 16.875C22.875 16.625 22.6875 16.375 22.5625 16.375C22.4375 16.375 22.1875 16.625 22.25 16.875H22.875ZM22.1875 19.625H22.875V20.625H22.1875V19.625Z" fill="white"/>
<path d="M22.1875 21.1875H22.875V21.375H22.1875V21.1875ZM22.1875 22.5H22.9375V22.9375H22.1875V22.5ZM22.0625 20.8125L22.1875 21H22.8125L22.9375 20.8125H22.0625ZM22 20.25V19.6875H21.5625C21.75 19.8125 21.875 20 22 20.25Z" fill="white"/>
<path d="M27.125 20.75C27.375 20.625 27.6875 20.4375 27.875 20.25C28.0625 19.9375 28 19.375 28 19.375C28 19.375 27.5625 19.5625 27.1875 19.75C27.1875 19.5 27.0625 19.1875 26.9375 18.9375C27.125 18.75 27.4375 18.5 27.5 18.3125C27.6875 17.9375 27.4375 17.4375 27.4375 17.4375C27.4375 17.4375 27.0625 17.6875 26.75 18C26.6875 17.75 26.5 17.5 26.3125 17.25C26.4375 17 26.6875 16.6875 26.6875 16.5C26.75 16.0625 26.375 15.625 26.375 15.625C26.375 15.625 26.0625 16 25.875 16.375C25.6875 16.125 25.375 15.8125 25.125 15.625C25.25 15.4375 25.25 15.25 25.25 15C25.25 13.625 23.125 12.5 20.4375 12.5C17.8125 12.5 15.625 13.625 15.625 15C15.625 15.1875 15.6875 15.4375 15.75 15.625C15.5 15.8125 15.1875 16.0625 15 16.375C14.8125 16 14.5 15.625 14.5 15.625C14.5 15.625 14.125 16.0625 14.1875 16.5C14.25 16.75 14.4375 17.0625 14.5625 17.25C14.375 17.5 14.1875 17.75 14.125 18C13.875 17.6875 13.4375 17.4375 13.4375 17.4375C13.4375 17.4375 13.1875 17.9375 13.375 18.3125C13.5 18.5625 13.75 18.8125 13.9375 18.9375C13.8125 19.1875 13.75 19.5 13.6875 19.75C13.5 19.5625 13 19.375 13 19.375C13 19.375 12.875 19.9375 13.125 20.25C13.25 20.4375 13.625 20.625 13.875 20.75C13.8125 21 13.8125 21.375 13.875 21.625C13.5 21.5 13 21.4375 13 21.4375C13 21.4375 13.0625 22 13.375 22.25C13.5625 22.375 13.9375 22.5 14.1875 22.5C14.25 22.75 14.3125 23.125 14.4375 23.3125C14.0625 23.25 13.5625 23.375 13.5625 23.375C13.5625 23.375 13.75 23.9375 14.125 24.0625C14.375 24.125 14.75 24.125 15 24.125C15.125 24.375 15.25 24.6875 15.4375 24.875C15.0625 24.9375 14.625 25.125 14.625 25.125C14.625 25.125 14.9375 25.625 15.375 25.625C15.625 25.625 16 25.5625 16.25 25.4375C16.4375 25.6875 16.625 25.875 16.875 26.0625C16.5 26.25 16.125 26.5625 16.125 26.5625C16.125 26.5625 16.5625 26.9375 17 26.875C17.125 26.875 17.1875 26.8125 17.3125 26.75L16.75 27.5H24.25L23.75 26.9375C23.875 27 23.9375 27 24.0625 27.0625C24.5 27.125 24.9375 26.75 24.9375 26.75C24.9375 26.75 24.5625 26.4375 24.1875 26.25C24.4375 26.125 24.625 25.875 24.8125 25.625C25.0625 25.75 25.4375 25.8125 25.6875 25.8125C26.125 25.75 26.4375 25.3125 26.4375 25.3125C26.4375 25.3125 26 25.125 25.625 25.0625C25.8125 24.875 25.9375 24.5625 26.0625 24.3125C26.3125 24.3125 26.6875 24.375 26.9375 24.25C27.3125 24.0625 27.5 23.5625 27.5 23.5625C27.5 23.5625 27 23.5 26.625 23.5C26.75 23.25 26.8125 22.9375 26.875 22.6875C27.125 22.625 27.5 22.5625 27.6875 22.4375C28 22.1875 28.0625 21.625 28.0625 21.625C28.0625 21.625 27.5625 21.6875 27.1875 21.8125C27.1875 21.375 27.125 21.0625 27.125 20.75ZM17.3125 25.5C17.125 25.375 16.875 25.25 16.625 25.1875C16.6875 25 16.8125 24.8125 16.875 24.625H17.4375C17.4375 24.8125 17.3125 25.1875 17.3125 25.5ZM22.875 25.25C22.8125 25.4375 22.8125 25.6875 22.875 25.9375L22.5 25.5H18.4375L18.0625 25.9375C18.125 25.6875 18.125 25.4375 18.0625 25.25C18 24.9375 17.6875 24.75 17.5 24.6875H23.375C23.25 24.75 23 24.9375 22.875 25.25ZM23.6875 25.5C23.6875 25.1875 23.5625 24.8125 23.5625 24.625H24.125C24.1875 24.8125 24.3125 25.0625 24.375 25.1875C24.125 25.3125 23.875 25.375 23.6875 25.5ZM26.25 21.5C25.9375 21.25 25.5 20.9375 25.5 20.9375C25.5 20.9375 25.3125 21.5 25.5 21.875C25.625 22.125 26 22.375 26.1875 22.5C26 22.6875 25.875 22.875 25.75 23.0625C25.5625 22.6875 25.1875 22.3125 25.1875 22.3125C25.1875 22.3125 24.875 22.8125 24.9375 23.1875C25 23.4375 25.25 23.75 25.4375 24C25.25 24.125 25 24.25 24.875 24.4375C24.75 24.0625 24.5 23.5625 24.5 23.5625C24.5 23.5625 24.0625 23.9375 24.0625 24.375C24.0625 24.4375 24.0625 24.5625 24.125 24.6875L23.5 24.125H17.5625L16.9375 24.6875C16.9375 24.5625 17 24.5 17 24.375C17 23.9375 16.5625 23.5625 16.5625 23.5625C16.5625 23.5625 16.3125 24 16.1875 24.4375C16.0625 24.25 15.8125 24.125 15.625 24C15.8125 23.8125 16.0625 23.5 16.125 23.1875C16.25 22.75 15.875 22.3125 15.875 22.3125C15.875 22.3125 15.5 22.6875 15.3125 23.0625C15.1875 22.875 15.0625 22.6875 14.875 22.5C15.125 22.375 15.4375 22.125 15.5625 21.875C15.75 21.5 15.5625 20.9375 15.5625 20.9375C15.5625 20.9375 15.0625 21.1875 14.8125 21.5C14.75 21.3125 14.6875 21.0625 14.5625 20.875C14.8125 20.8125 15.1875 20.625 15.375 20.4375C15.6875 20.125 15.625 19.5625 15.625 19.5625C15.625 19.5625 15.125 19.6875 14.75 19.875C14.75 19.6875 14.75 19.4375 14.6875 19.1875C14.9375 19.1875 15.375 19.125 15.625 19C16 18.75 16.0625 18.1875 16.0625 18.1875C16.0625 18.1875 15.5 18.1875 15.125 18.3125C15.1875 18.125 15.1875 17.875 15.25 17.625C15.5 17.6875 15.9375 17.75 16.1875 17.6875C16.625 17.5625 16.8125 17.0625 16.8125 17.0625C16.8125 17.0625 16.3125 16.9375 15.875 16.9375C16.1875 16.4375 16.3125 15.5 16.3125 15.5C16.3125 15.5 16.25 15.5 16.1875 15.5625C16.9375 14.6875 18.625 14.0625 20.5625 14.0625C22.5 14.0625 24.1875 14.6875 24.9375 15.5625C24.875 15.5 24.8125 15.5 24.8125 15.5C24.8125 15.5 24.9375 16.4375 25.25 16.9375C24.8125 16.9375 24.3125 17.0625 24.3125 17.0625C24.3125 17.0625 24.5625 17.5625 24.9375 17.6875C25.1875 17.75 25.625 17.6875 25.875 17.625C25.875 17.875 25.875 18.125 26 18.3125C25.625 18.1875 25.0625 18.1875 25.0625 18.1875C25.0625 18.1875 25.1875 18.75 25.5 19C25.75 19.125 26.125 19.1875 26.4375 19.1875C26.375 19.4375 26.3125 19.6875 26.375 19.875C26 19.6875 25.5 19.5625 25.5 19.5625C25.5 19.5625 25.4375 20.125 25.75 20.4375C25.9375 20.625 26.3125 20.75 26.5625 20.875C26.4375 21.0625 26.3125 21.25 26.25 21.5Z" fill="white"/>
</svg>
