<svg width="40" height="40" viewBox="0 0 40 40" fill="none" xmlns="http://www.w3.org/2000/svg">
<g id="emojione:flag-for-albania">
<path id="Vector" d="M20 38.75C30.3553 38.75 38.75 30.3553 38.75 20C38.75 9.64466 30.3553 1.25 20 1.25C9.64466 1.25 1.25 9.64466 1.25 20C1.25 30.3553 9.64466 38.75 20 38.75Z" fill="#F42F4C"/>
<path id="Vector_2" d="M30.5625 26.1875C30 25.1875 28.4375 25.9375 27.625 25.9375C28.0625 25.5625 29.1875 24.75 29.8125 24.75C29.375 24.375 28.5625 24.6875 28.25 25.0625C27.125 26.375 26.4375 25.6875 24.8125 25.1875C26.125 23.8125 21.0625 22.8125 22.6875 21.6875C23 21.4375 23.5625 23.625 24.4375 23.25C24.8125 23.125 23 21.6875 23.9375 21.375C24.25 21.25 25.5 24.9375 26.375 23.4375C26.6875 22.875 24.4375 22.375 25.0625 21.25C24.625 22.0625 30.5625 25.125 29.8125 23.125C29.4375 22.1875 25.8125 22.875 26.125 20.4375C26.0625 21.0625 30.3125 23.0625 29.875 21.25C29.75 20.8125 25.5625 21.125 26.3125 19.125C26.4375 18.8125 30 21.5625 29.875 19.5625C29.8125 18.8125 26.0625 19.375 26.4375 17.75C26.4375 17.6875 30.3125 19.375 29.875 17.625C29.8125 17.375 25.5625 17.875 26.375 16.375C26 17.0625 31.4375 16.75 29.8125 15.375C29.25 14.9375 26.875 17.0625 26.375 15.1875C26.4375 15.4375 31.0625 14.8125 29.75 13.5C29.4375 13.125 26.5 15.4375 26.4375 13.9375C26.4375 13.625 30.3125 11.8125 29.75 10.875C29.0625 9.75001 25.25 12.875 24.8125 13.0625C21.875 14.4375 24.8125 13.625 23.375 15.375C22.5 16.375 21.8125 14.8125 22.0625 14.125C22.5625 12.6875 25.5625 12.875 25.6875 11.9375C25.25 12.25 24.8125 12.1875 24.4375 11.9375C24.5 11.9375 27.625 11.5 26.5625 11.0625C26.4375 11 26.0625 11.25 25.6875 11.4375C25.75 9.93751 21.6875 11.0625 21.25 11.125C22.9375 12.5625 19.875 11.75 21.625 12.5C21.1875 12.5625 20.8125 12.75 20.4375 13.0625C21.25 13.125 20 14.0625 20 14.0625C20 14.0625 18.75 13.1875 19.5 13C19.1875 12.6875 18.75 12.5 18.3125 12.4375C20.0625 11.6875 17 12.5 18.6875 11.0625C18.3125 11.0625 14.1875 9.87501 14.25 11.375C13.875 11.1875 13.5 11 13.375 11C12.375 11.4375 15.4375 11.875 15.5 11.875C15.125 12.1875 14.6875 12.1875 14.25 11.875C14.375 12.8125 17.375 12.625 17.875 14.0625C18.125 14.75 17.4375 16.3125 16.5625 15.3125C15.0625 13.5625 18 14.375 15.125 13C14.6875 12.8125 10.875 9.68751 10.1875 10.8125C9.625 11.75 13.5 13.5625 13.5 13.875C13.375 15.375 10.5 13.0625 10.1875 13.4375C8.875 14.75 13.5 15.375 13.5625 15.125C13.125 17 10.6875 14.875 10.125 15.3125C8.5 16.625 13.9375 17 13.5625 16.3125C14.3125 17.75 10.125 17.3125 10.0625 17.5625C9.625 19.3125 13.5 17.625 13.5 17.6875C13.875 19.375 10.125 18.75 10.0625 19.5C9.9375 21.5 13.5 18.8125 13.625 19.0625C14.375 21.0625 10.1875 20.75 10.0625 21.1875C9.5625 23.0625 13.875 21.0625 13.8125 20.375C14.125 22.8125 10.5 22.125 10.125 23.0625C9.375 25.0625 15.3125 22 14.875 21.1875C15.5 22.3125 13.25 22.8125 13.5625 23.375C14.4375 24.875 15.6875 21.1875 16 21.3125C16.9375 21.625 15.125 23.0625 15.5 23.1875C16.375 23.5625 16.9375 21.375 17.25 21.625C18.875 22.75 13.8125 23.75 15.125 25.125C13.5 25.625 12.75 26.3125 11.6875 25C11.375 24.625 10.5 24.375 10.125 24.6875C10.75 24.6875 11.875 25.5625 12.3125 25.875C11.5 25.875 9.9375 25.125 9.375 26.125C10.0625 25.8125 11.625 26.125 12.3125 26.1875C11.5625 26.8125 10.1875 26.375 10.4375 27.9375C10.8125 26.6875 14.5625 25.75 15 27.5C15.4375 26.6875 13.6875 26.25 13.3125 26.125C13.5625 26.0625 16.5 26.0625 16.5 26.0625C16.5 26.0625 18.125 22.875 18.875 23.625C20.625 25.5 16 26.5625 15.8125 26.9375C15.3125 28.125 18.1875 27.0625 18.0625 27C18.8125 27.6875 16.1875 28.3125 16.1875 28.5C16.25 29.8125 18.375 28 18.5 28C19.5 28.25 17.0625 29.75 17.125 29.5625C16.9375 30.9375 19.25 29.125 19.1875 28.8125C19.4375 29.1875 19.4375 29.5 19.125 29.9375C18.3125 31.375 19.0625 31.5625 20 33.0625C20.9375 31.5625 21.6875 31.4375 20.875 29.9375C20.625 29.5625 20.625 29.1875 20.8125 28.8125C20.75 29.125 23.125 30.9375 22.875 29.5625C22.875 29.75 20.4375 28.1875 21.5 28C21.625 28 23.75 29.8125 23.8125 28.5C23.8125 28.25 21.125 27.6875 21.9375 27C21.875 27.0625 24.6875 28.1875 24.1875 26.9375C24.0625 26.5625 19.375 25.5625 21.125 23.625C21.875 22.8125 23.5 26.0625 23.5 26.0625C23.5 26.0625 26.4375 26.0625 26.6875 26.125C26.3125 26.25 24.5 26.6875 25 27.5C25.4375 25.6875 29.1875 26.6875 29.5625 27.9375C29.8125 26.375 28.4375 26.875 27.6875 26.1875C28.3125 26.1875 29.875 25.875 30.5625 26.1875ZM25.625 11.4375C25.25 11.625 24.875 11.75 24.625 11.6875C24.8125 11.375 25.3125 11.0625 25.625 11.4375ZM23.625 11.1875C24.25 11.3125 24.25 11.5 23.625 11.625C23 11.4375 23 11.3125 23.625 11.1875ZM14.375 11.4375C14.6875 11.0625 15.1875 11.375 15.375 11.6875C15.125 11.75 14.75 11.625 14.375 11.4375ZM16.375 11.625C15.75 11.4375 15.75 11.3125 16.375 11.1875C17 11.3125 17 11.4375 16.375 11.625Z" fill="#3E4347"/>
</g>
</svg>
