<svg width="40" height="40" viewBox="0 0 40 40" fill="none" xmlns="http://www.w3.org/2000/svg">
<g id="emojione:flag-for-algeria">
<path id="Vector" d="M38.75 20C38.75 9.625 30.375 1.25 20 1.25V38.75C30.375 38.75 38.75 30.375 38.75 20Z" fill="#F9F9F9"/>
<path id="Vector_2" d="M1.25 20C1.25 30.375 9.625 38.75 20 38.75V1.25C9.625 1.25 1.25 9.625 1.25 20Z" fill="#699635"/>
<g id="Group">
<path id="Vector_3" d="M25.4375 24.375L25.375 21L28.75 20L25.375 19L25.4375 15.625L23.375 18.3125L20 17.3125L22.0625 20L20 22.6875L23.375 21.6875L25.4375 24.375Z" fill="#ED4C5C"/>
<path id="Vector_4" d="M23.25 27.5C19.125 27.5 15.8125 24.125 15.8125 20C15.8125 15.875 19.125 12.5 23.25 12.5C24.8125 12.5 26.25 13 27.5 13.8125C25.8125 11.875 23.3125 10.625 20.5 10.625C15.375 10.625 11.25 14.8125 11.25 20C11.25 25.1875 15.375 29.375 20.5 29.375C23.3125 29.375 25.8125 28.125 27.5 26.1875C26.3125 27 24.875 27.5 23.25 27.5Z" fill="#ED4C5C"/>
</g>
</g>
</svg>
