<svg width="41" height="40" viewBox="0 0 41 40" fill="none" xmlns="http://www.w3.org/2000/svg">
<g id="emojione:flag-for-andorra">
<path id="Vector" d="M1.75 20C1.75 27.1875 5.8125 33.4375 11.75 36.5625V3.4375C5.8125 6.5625 1.75 12.8125 1.75 20Z" fill="#2A5F9E"/>
<path id="Vector_2" d="M39.25 20C39.25 12.8125 35.1875 6.5625 29.25 3.4375V36.625C35.1875 33.4375 39.25 27.1875 39.25 20Z" fill="#C94747"/>
<path id="Vector_3" d="M20.5 1.25C17.3125 1.25 14.375 2.0625 11.75 3.4375V36.625C14.375 38 17.3125 38.8125 20.5 38.8125C23.6875 38.8125 26.625 38 29.25 36.625V3.4375C26.625 2.0625 23.6875 1.25 20.5 1.25Z" fill="#FFE62E"/>
<path id="Vector_4" d="M18.75 10.625C19.5 10.625 20 11.375 20.8125 11.1875C21.4375 11.0625 22.375 10.125 22.875 11C23.0625 11.3125 23 11.6875 22.875 12.0625C22.75 12.375 22.4375 12.8125 22.75 13.0625C23.1875 13.4375 24.125 13.3125 24.5625 12.875C24.1875 12.875 23.9375 12.4375 24.25 12.1875C24.375 12.0625 24.5 12.125 24.625 12.0625C24.6875 12.0625 24.75 11.9375 24.8125 11.875C24.875 11.8125 24.9375 11.8125 25.0625 11.8125C25.1875 11.8125 25.3125 11.9375 25.375 11.9375C25.5 11.9375 25.75 11.75 25.875 12C25.9375 12.125 26.0625 12.0625 26.1875 12C26.375 11.9375 26.5625 12.0625 26.6875 12.1875C26.8125 12.3125 26.875 12.3125 27.0625 12.375C27.1875 12.4375 27.25 12.6875 27.375 12.6875C27.8125 12.875 27.8125 13.1875 27.625 13.625C27.375 14.1875 26.0625 14.875 26.5625 15.625C26.5 15.125 27.25 15.375 27.0625 15.8125C28.0625 15.1875 29.125 16.5625 29.125 17.4375C29.125 18.3125 28.75 19 27.875 19.1875C28.125 19.3125 28.375 19.5625 28.1875 19.875C28.125 20 28 20.0625 27.8125 20.0625C27.5625 20.0625 27.5 19.875 27.375 20.125C27.0625 20.625 27.25 21.4375 27.6875 21.8125C27.8125 21.625 28.125 21.4375 28.3125 21.6875C28.4375 21.8125 28.4375 22.125 28.5625 22.25C28.6875 22.4375 28.8125 22.625 28.625 22.875C28.4375 23.125 28.25 23 28 23.0625C28.5625 23.625 28.8125 24.1875 28.5625 25C28.375 25.75 27.75 26.3125 27 26.625C26.25 26.875 25.4375 26.9375 24.625 26.9375C23.8125 27 23 27 22.4375 27.5625C22.6875 27.75 22.875 28 22.75 28.3125C22.6875 28.4375 22.625 28.5 22.5 28.625C22.375 28.6875 22.1875 28.6875 22.0625 28.8125C21.875 29.125 21.375 29 21.1875 28.8125C21.0625 28.6875 21 28.875 20.875 29C20.75 29.125 20.5625 29.3125 20.4375 29.3125C20.3125 29.3125 20.125 29.1875 20.0625 29.0625C19.9375 28.9375 19.8125 28.75 19.625 28.8125C19.375 28.9375 18.9375 29.0625 18.75 28.8125C18.75 28.75 18.625 28.8125 18.5 28.75C18.375 28.6875 18.25 28.5625 18.1875 28.375C18.0625 28.0625 18.25 27.75 18.5625 27.625C18 27.0625 17.25 27.0625 16.5 27C15.6875 26.9375 14.75 27 14 26.625C13.375 26.3125 12.8125 25.875 12.5 25.25C12.1875 24.5 12.3125 23.75 12.9375 23.1875C12.6875 23.125 12.4375 23.125 12.3125 22.875C12.1875 22.5625 12.4375 22.4375 12.4375 22.1875C12.4375 22 12.6875 21.75 12.8125 21.6875C12.9375 21.625 13.125 21.6875 13.1875 21.8125C13.3125 21.9375 13.375 21.8125 13.5 21.6875C13.75 21.25 13.9375 20.5 13.5 20.0625C13 20.5 12.375 19.5 13 19.1875C12.8125 19.0625 12.5625 19 12.4375 18.8125C12.3125 18.6875 12.1875 18.5 12.0625 18.3125C11.8125 17.875 11.8125 17.375 11.9375 16.9375C12.0625 16.5 12.3125 16.0625 12.6875 15.8125C13.125 15.5625 13.4375 15.625 13.875 15.75C13.8125 15.75 13.9375 15.375 14 15.3125C14.1875 15.125 14.375 15.3125 14.4375 15.5C14.8125 14.8125 13.5 14.125 13.25 13.5625C13.125 13.3125 13.0625 12.6875 13.5 12.6875C13.625 12.6875 13.6875 12.5 13.8125 12.375C13.875 12.3125 14 12.3125 14.125 12.25L14.3125 12.0625C14.4375 11.9375 14.625 11.9375 14.75 11.9375C15 11.9375 14.875 12 15.0625 11.9375C15.25 11.875 15.375 11.9375 15.5 11.9375C15.625 11.9375 15.6875 11.75 15.9375 11.8125C16.125 11.875 16.125 12 16.25 12.0625C16.375 12.125 16.5 12.125 16.625 12.25C16.9375 12.5625 16.6875 12.875 16.375 13C16.6875 13.25 17.0625 13.375 17.5 13.3125C17.8125 13.3125 18.375 13.125 18.25 12.6875C18.125 12.1875 17.875 11.875 17.9375 11.375C18.0625 10.875 18.375 10.625 18.75 10.625Z" fill="#C7B37F"/>
<path id="Vector_5" d="M15.5 14.9375H20.25V19.6875H15.5V14.9375Z" fill="#C94747"/>
<path id="Vector_6" d="M17.6875 18.6875C17.6875 18.6875 17.6875 18.875 17.625 19C17.5625 19.1875 17.5625 19.1875 17.5 19.25C17.4375 19.375 17.375 19.4375 17.25 19.5C17.125 19.5625 17 19.625 16.875 19.625C16.5625 19.625 16.4375 19.25 16.3125 19C16.25 18.6875 16 18.5625 15.875 18.625C15.8125 18.6875 15.8125 18.8125 15.875 18.875C15.9375 19 16.125 19.0625 16.125 19.0625L15.9375 19.25C15.9375 19.25 15.5625 19.1875 15.5 18.8125C15.5 18.6875 15.5625 18.375 15.8125 18.3125C16.125 18.1875 16.3125 18.4375 16.4375 18.625C16.5625 18.875 16.625 19.375 17 19.25C17.1875 19.1875 17.3125 18.9375 17.3125 18.8125L17.4375 18.6875H17.6875ZM18 18.6875C18 18.6875 18 18.875 18.0625 19C18.125 19.1875 18.125 19.1875 18.1875 19.25C18.25 19.375 18.3125 19.4375 18.4375 19.5C18.5625 19.5625 18.6875 19.625 18.8125 19.625C19.125 19.625 19.25 19.25 19.375 19C19.4375 18.6875 19.6875 18.5625 19.8125 18.625C19.875 18.6875 19.875 18.8125 19.8125 18.875C19.75 19 19.5625 19.0625 19.5625 19.0625L19.75 19.25C19.75 19.25 20.125 19.1875 20.1875 18.8125C20.1875 18.6875 20.125 18.375 19.875 18.3125C19.5625 18.1875 19.375 18.4375 19.25 18.625C19.125 18.875 19.0625 19.375 18.6875 19.25C18.5 19.1875 18.375 18.9375 18.375 18.8125L18.25 18.6875H18Z" fill="white"/>
<path id="Vector_7" d="M18.3125 16.6874C18.5 16.4999 19.0625 16.1249 19 15.8124C18.6875 15.7499 19 15.6874 19.0625 15.4999H18.875C18.9375 15.2499 19.5 15.0624 19.8125 15.1249C20.4375 15.3749 20 16.3749 19.5 15.9374C19.5625 15.6874 19.9375 15.8124 19.875 15.5624C19.875 15.3749 19.625 15.2499 19.4375 15.3124C19.1875 15.4999 19.375 15.8749 19.125 16.0624C18.9375 16.3749 18.5625 16.6874 18.3125 16.9374C17.5625 17.7499 16.75 18.6249 16 19.4374C15.5625 19.1874 16.6875 18.3124 16.875 18.1249C17.3125 17.7499 17.8125 17.1874 18.3125 16.6874Z" fill="#FFCE31"/>
<path id="Vector_8" d="M16.4375 16.9375C16.4375 16.9375 16.5625 17.6875 17.125 18.875C17.375 18.75 17.5625 18.6875 17.8125 18.6875C18.0625 18.6875 18.25 18.75 18.5 18.875C19.0625 17.6875 19.1875 16.9375 19.1875 16.9375L17.8125 15.125L16.4375 16.9375Z" fill="white"/>
<path id="Vector_9" d="M18 15.75L19 17C19 17 18.875 17.625 18.5 18.5C18.375 18.4375 18.1875 18.4375 18.0625 18.4375L18 15.75ZM17.6875 15.75L16.6875 17C16.6875 17 16.8125 17.625 17.1875 18.5C17.3125 18.4375 17.5 18.4375 17.625 18.4375L17.6875 15.75ZM20.75 14.9375H25.5V19.6875H20.75V14.9375Z" fill="#FFCE31"/>
<path id="Vector_10" d="M21.4375 14.9375H22.125V19.6875H21.4375V14.9375ZM22.75 14.9375H23.4375V19.6875H22.75V14.9375ZM24.125 14.9375H24.8125V19.6875H24.125V14.9375Z" fill="#C94747"/>
<path id="Vector_11" d="M15.5 23.875C15.5 23.9375 15.5625 24.125 15.625 24.25C15.6875 24.375 15.6875 24.375 15.875 24.625C16 24.75 16.125 24.8125 16.25 24.875C16.375 24.9375 16.4375 25 16.625 25C17 25.125 17.25 25.125 17.5625 25.0625C17.8125 25.0625 18 25 18.1875 25C18.4375 25 18.5625 24.9375 18.8125 24.9375H19.1875C19.3125 24.9375 19.4375 24.9375 19.625 25C19.9375 25.0625 20.25 25.1875 20.25 25.1875V20.1875H15.5V23.875Z" fill="#FFCE31"/>
<path id="Vector_12" d="M16.0625 24.75L16.25 24.875L16.5625 24.9375V20.25H16.0625V24.75ZM18.6875 24.9375V20.25H18.1875V25C18.1875 25 18.5 24.9375 18.6875 24.9375ZM19.75 20.25H19.25V25C19.4375 25 19.625 25.0625 19.75 25.125V20.25ZM17.625 20.25V25.0625H17.0625V20.25H17.625Z" fill="#C94747"/>
<path id="Vector_13" d="M25.5 23.875C25.5 23.9375 25.4375 24.125 25.375 24.25C25.3125 24.375 25.3125 24.375 25.125 24.625C25 24.75 24.875 24.8125 24.75 24.875C24.625 24.9375 24.5625 25 24.375 25C24 25.125 23.75 25.125 23.4375 25.0625C23.1875 25.0625 23 25 22.8125 25C22.5625 25 22.4375 24.9375 22.1875 24.9375H21.8125C21.6875 24.9375 21.5625 24.9375 21.375 25C21.0625 25.0625 20.75 25.1875 20.75 25.1875V20.1875H25.5V23.875Z" fill="#FFCE31"/>
<path id="Vector_14" d="M21.9375 20.625C21.75 20.75 21.6875 20.9375 21.5 21.0625C21.625 21.3125 21.875 21.25 22.0625 21.375C22.1875 21.375 22.3125 21.75 22.3125 21.8125C22.125 22 22.375 22.5625 22.4375 22.375C22.5 22.1875 22.1875 21.8125 22.625 21.9375C22.75 22 22.8125 22.4375 22.6875 22.5625C22.75 22.75 22.9375 22.625 22.9375 22.4375C22.875 22.125 22.9375 21.9375 23.25 21.9375C23.625 21.9375 23.5625 22.0625 23.75 22.0625H23.9375L24.0625 21.9375C24.0625 22.125 23.8125 22.375 23.6875 22.5C23.9375 22.625 24.3125 22.125 24.3125 21.9375C24.5625 22.0625 24.375 22.5 24.25 22.625C24.875 22.75 24.3125 21.5 24.5 21.375C25.0625 21.0625 24.1875 20.875 23.9375 20.875C23.4375 20.875 22.75 21.125 22.3125 20.9375C22.4375 20.875 22.4375 20.8125 22.5 20.75C22.375 20.625 22.125 20.75 21.9375 20.625ZM21.9375 22.75C21.75 22.875 21.6875 23.0625 21.5 23.1875C21.625 23.4375 21.875 23.375 22.0625 23.5C22.1875 23.5 22.3125 23.875 22.3125 23.9375C22.125 24.125 22.375 24.6875 22.4375 24.5C22.5 24.3125 22.1875 23.9375 22.625 24.0625C22.75 24.125 22.8125 24.5625 22.6875 24.6875C22.75 24.875 22.9375 24.75 22.9375 24.5625C22.875 24.25 22.9375 24.0625 23.25 24.0625C23.625 24.0625 23.5625 24.1875 23.75 24.1875H23.9375L24.0625 24.0625C24.0625 24.25 23.8125 24.5 23.6875 24.625C23.9375 24.75 24.3125 24.25 24.3125 24.0625C24.5625 24.1875 24.375 24.625 24.25 24.75C24.875 24.875 24.3125 23.625 24.5 23.5C25.0625 23.1875 24.1875 23 23.9375 23C23.4375 23 22.75 23.25 22.3125 23.0625C22.4375 23 22.4375 22.9375 22.5 22.875C22.375 22.75 22.125 22.875 21.9375 22.75Z" fill="#C94747"/>
</g>
</svg>
