<svg width="40" height="40" viewBox="0 0 40 40" fill="none" xmlns="http://www.w3.org/2000/svg">
<g id="emojione:flag-for-angola">
<path id="Vector" d="M20 38.75C30.375 38.75 38.75 30.375 38.75 20H1.25C1.25 30.375 9.625 38.75 20 38.75Z" fill="#3E4347"/>
<path id="Vector_2" d="M20 1.25C9.625 1.25 1.25 9.625 1.25 20H38.75C38.75 9.625 30.375 1.25 20 1.25Z" fill="#ED4C5C"/>
<g id="Group">
<path id="Vector_3" d="M17.1875 15.3125L16.375 17.8125L18.5 16.25L20.6875 17.8125L19.875 15.3125L22 13.75H19.3125L18.5 11.1875L17.6875 13.75H15L17.1875 15.3125ZM30 30.375C29.6875 29.875 29.3125 29.5 28.8125 29.0625C28.3125 28.625 27.625 28.125 27.0625 27.625L26.0625 28.75C26 28.8125 26.0625 28.9375 26.0625 28.9375C27.1875 29.125 27.5 29.5 27.9375 29.875C28.5625 30.5 28.75 31.1875 29.1875 31.5C29.9375 31.9375 30.5 31.125 30 30.375ZM21.125 26.0625C20.0625 26.4375 18.875 26.5625 17.6875 26.4375C16.125 26.25 14.6875 25.6875 13.5 24.6875L12.3125 26.125C12.8125 26.5625 13.375 26.875 13.875 27.1875L13.5 27.9375C14.125 28.25 14.75 28.5625 15.4375 28.75L15.6875 28C16.3125 28.1875 16.9375 28.3125 17.5625 28.375L17.5 29.125C18.1875 29.1875 18.875 29.1875 19.5625 29.125L19.5 28.3125C20.125 28.25 20.75 28.125 21.375 27.9375L21.625 28.6875C21.9375 28.5625 22.25 28.5 22.625 28.3125L22.1875 26.625L21.125 26.0625Z" fill="#FFE62E"/>
<path id="Vector_4" d="M26.4375 19.375C26.1875 21.5 25.1875 23.3125 23.6875 24.625L25.9375 26.1875C26.25 25.875 26.5 25.625 26.75 25.3125L26.125 24.8125C26.5625 24.3125 26.875 23.75 27.1875 23.25L27.9375 23.625C28.25 23 28.5625 22.375 28.75 21.6875L28 21.4375C28.1875 20.8125 28.3125 20.1875 28.375 19.5625L29.1875 19.625C29.25 18.9375 29.25 18.25 29.1875 17.5625L28.375 17.625C28.3125 17 28.1875 16.375 28 15.75L28.75 15.5C28.5625 14.8125 28.3125 14.1875 27.9375 13.5625L27.1875 13.9375C26.875 13.375 26.5625 12.8125 26.125 12.3125L26.75 11.8125C26.3125 11.25 25.8125 10.8125 25.25 10.3125L24.75 10.9375C24.25 10.5 23.75 10.1875 23.1875 9.875L23.5625 9.125C22.9375 8.8125 22.3125 8.5 21.625 8.3125L21.375 9.125C20.8125 8.9375 20.1875 8.8125 19.5625 8.75L19.375 10.625C23.6875 11.0625 26.875 15 26.4375 19.375ZM23.3125 25.75C21.1875 24.25 19.0625 22.75 17.1875 21L17.3125 20.875C19.125 22.5625 21.3125 24.125 23.375 25.5625C24.4375 26.3125 25.5 27.0625 26.5 27.8125L26.875 27.5C23.375 25 15.125 19.25 15 17.1875C13.375 20.375 15.4375 22.25 16.75 23.0625C20.125 25 22.375 26.25 25.9375 28.625L26.4375 28.0625C25.4375 27.1875 24.375 26.4375 23.3125 25.75Z" fill="#FFE62E"/>
</g>
</g>
</svg>
