<svg width="41" height="40" viewBox="0 0 41 40" fill="none" xmlns="http://www.w3.org/2000/svg">
<g id="emojione:flag-for-anguilla">
<path id="Vector" d="M8 7.5H20.75V20.25H8V7.5Z" fill="#2A5F9E"/>
<path id="Vector_2" d="M12.3125 5.0625V8.75H7.75L16.75 20H20.5V15.3125L12.3125 5.0625Z" fill="white"/>
<path id="Vector_3" d="M20.5 1.25V20H1.75C1.75 30.375 10.125 38.75 20.5 38.75C30.875 38.75 39.25 30.375 39.25 20C39.25 9.625 30.875 1.25 20.5 1.25Z" fill="#2A5F9E"/>
<path id="Vector_4" d="M7.375 11.8125H3.625C2.4375 14.3125 1.75 17.0625 1.75 20H9.25V8.6875H7.375V11.8125Z" fill="white"/>
<path id="Vector_5" d="M20.5 16.9375L12.375 6.875H8.625L19.25 20H20.5V16.9375Z" fill="#ED4C5C"/>
<path id="Vector_6" d="M12.3125 3.125V6.875H7.375V8.75H20.5V1.25C17.5625 1.25 14.8125 1.9375 12.3125 3.125Z" fill="white"/>
<path id="Vector_7" d="M20.5 3.125H12.3125C8.5625 4.9375 5.4375 8.0625 3.625 11.8125V20H7.375V6.875H20.5V3.125Z" fill="#ED4C5C"/>
<path id="Vector_8" d="M31.75 20.875C30.75 20.875 29.875 20 29.875 20C29.875 20 29 20.875 28 20.875C27.0625 20.875 25.5 20 25.5 20C25.5 20 25.75 25.5 26.75 27.375C27.875 29.375 29.875 31.25 29.875 31.25C29.875 31.25 31.875 29.375 33 27.375C34 25.5 34.25 20 34.25 20C34.25 20 32.6875 20.875 31.75 20.875Z" fill="white"/>
<path id="Vector_9" d="M27.3125 27.0625C28.0625 28.375 29.25 29.75 29.875 30.375C30.5 29.75 31.6875 28.375 32.4375 27.0625H27.3125Z" fill="#B4D7EE"/>
<g id="Group">
<path id="Vector_10" d="M29.875 22.1875C29.3125 22.8125 29.625 24.4375 29.0625 23.875C28.5 23.25 28.5 22.3125 29.0625 21.6875C29.625 21.0625 30.5625 21.0625 31.125 21.6875C31.6875 22.3125 30.4375 21.625 29.875 22.1875ZM28.5 25C29.3125 25.1875 30.5 24.0625 30.3125 24.875C30.125 25.6875 29.3125 26.1875 28.5 25.9375C27.6875 25.75 27.25 24.875 27.4375 24.0625C27.625 23.25 27.6875 24.75 28.5 25Z" fill="#FF8736"/>
<path id="Vector_11" d="M31.5 24.8126C31.3125 24.0001 29.75 23.5001 30.5 23.2501C31.3125 23.0626 32.125 23.5001 32.3125 24.3126C32.5 25.1251 32.0625 25.9376 31.25 26.1876C30.5 26.4376 31.6875 25.6251 31.5 24.8126Z" fill="#FF8736"/>
</g>
</g>
</svg>
