<svg width="27" height="30" viewBox="0 0 27 30" fill="none" xmlns="http://www.w3.org/2000/svg">
<path d="M24.0703 13.125C24.4805 13.125 24.8613 13.1982 25.2129 13.3447C25.5645 13.4912 25.877 13.6963 26.1504 13.96C26.4238 14.2236 26.6289 14.5312 26.7656 14.8828C26.9023 15.2344 26.9805 15.6152 27 16.0254C27 16.4062 26.9268 16.7773 26.7803 17.1387C26.6338 17.5 26.4238 17.8174 26.1504 18.0908L15.6475 28.623L10.125 30L11.502 24.4775L22.0049 13.96C22.2783 13.6865 22.5957 13.4814 22.957 13.3447C23.3184 13.208 23.6895 13.1348 24.0703 13.125ZM24.8174 16.7725C25.0225 16.5674 25.125 16.3184 25.125 16.0254C25.125 15.7227 25.0273 15.4785 24.832 15.293C24.6367 15.1074 24.3828 15.0098 24.0703 15C23.9336 15 23.8018 15.0195 23.6748 15.0586C23.5479 15.0977 23.4355 15.1709 23.3379 15.2783L13.2012 25.4443L12.7031 27.4219L14.6807 26.9238L24.8174 16.7725ZM6.375 13.125H4.5V11.25H6.375V13.125ZM19.5 13.125H8.25V11.25H19.5V13.125ZM4.5 16.875H6.375V18.75H4.5V16.875ZM6.375 7.5H4.5V5.625H6.375V7.5ZM19.5 7.5H8.25V5.625H19.5V7.5ZM2.625 24.375H9.11426L8.64551 26.25H0.75V0H23.25V10.8838C22.5957 10.9814 21.9707 11.1963 21.375 11.5283V1.875H2.625V24.375ZM8.25 16.875H15.7793L13.9043 18.75H8.25V16.875Z" fill="#020014" fill-opacity="0.6"/>
</svg>
