<svg width="41" height="40" viewBox="0 0 41 40" fill="none" xmlns="http://www.w3.org/2000/svg">
<g id="emojione:flag-for-argentina">
<path id="Vector" d="M1.75 20C1.75 23.6875 2.8125 27.125 4.625 30H36.3125C38.125 27.125 39.1875 23.6875 39.1875 20C39.1875 16.3125 38.125 12.875 36.3125 10H4.625C2.8125 12.875 1.75 16.3125 1.75 20Z" fill="#F9F9F9"/>
<path id="Vector_2" d="M36.375 10C33.0625 4.75 27.1875 1.25 20.5 1.25C13.8125 1.25 7.9375 4.75 4.625 10H36.375ZM4.625 30C7.9375 35.25 13.8125 38.75 20.5 38.75C27.1875 38.75 33.0625 35.25 36.375 30H4.625Z" fill="#B4D7EE"/>
<path id="Vector_3" d="M29.0625 19.875L23.9375 19.6875V19.625C24.75 19.5 25.375 19 26.25 19.0625C27.3125 19.1875 27.9375 18.5625 28.3125 18.4375C28.75 18.3125 29 18.5625 29 18.4375C29.0625 18.3125 28.75 18.0625 28.125 18.125C27.5625 18.1875 27.375 18.6875 26.0625 18.5625C24.9375 18.5 24.5625 18.9375 23.75 18.9375V18.875L28.375 16.75C28.375 16.75 28.5 16.6875 28.5 16.5625C28.4375 16.4375 28.3125 16.5 28.3125 16.5L23.625 18.375V18.3125C24.3125 17.875 24.6875 17.1875 25.5625 16.9375C26.5625 16.625 26.9375 15.875 27.25 15.5625C27.5625 15.25 27.9375 15.4375 27.9375 15.3125C27.9375 15.1875 27.5625 15.0625 27.0625 15.375C26.5625 15.6875 26.5625 16.1875 25.3125 16.5625C24.25 16.875 24.0625 17.4375 23.3125 17.8125L23.25 17.75L26.75 14C26.75 14 26.875 13.875 26.8125 13.8125C26.75 13.75 26.625 13.875 26.625 13.875L22.875 17.375L22.8125 17.3125C23.3125 16.625 23.375 15.875 24.0625 15.3125C24.875 14.625 24.875 13.8125 25.0625 13.4375C25.25 13.0625 25.625 13.0625 25.5625 12.9375C25.5 12.8125 25.125 12.875 24.75 13.3125C24.375 13.8125 24.5625 14.25 23.625 15.0625C22.8125 15.75 22.8125 16.375 22.3125 16.9375C22.3125 16.9375 22.25 16.9375 22.25 16.875L24 12.0625C24 12.0625 24.0625 11.9375 23.9375 11.875C23.8125 11.8125 23.75 12 23.75 12L21.625 16.625H21.5625C21.75 15.8125 21.5625 15.0625 21.9375 14.3125C22.4375 13.375 22.125 12.5625 22.125 12.1875C22.1875 11.75 22.5 11.625 22.4375 11.5625C22.375 11.4375 22 11.6875 21.8125 12.25C21.6875 12.8125 22 13.1875 21.4375 14.3125C20.9375 15.3125 21.1875 15.8125 20.9375 16.5625H20.875L20.6875 11.4375C20.6875 11.4375 20.6875 11.25 20.5625 11.25C20.4375 11.25 20.4375 11.4375 20.4375 11.4375L20.25 16.5625H20.1875C20.0625 15.75 19.5625 15.125 19.625 14.25C19.75 13.1875 19.125 12.5625 19 12.1875C18.875 11.8125 19.125 11.5 19 11.5C18.875 11.4375 18.625 11.75 18.6875 12.375C18.75 12.9375 19.25 13.125 19.125 14.4375C19.0625 15.5625 19.5 15.9375 19.5 16.75H19.4375L17.3125 12.125C17.3125 12.125 17.25 12 17.125 12C17 12.0625 17.0625 12.1875 17.0625 12.1875L18.8125 17H18.75C18.3125 16.3125 17.625 15.9375 17.375 15.0625C17.0625 14.0625 16.3125 13.6875 16 13.375C15.6875 13.0625 15.875 12.6875 15.75 12.6875C15.625 12.6875 15.5 13.0625 15.8125 13.5625C16.125 14.0625 16.625 14.0625 17 15.3125C17.3125 16.375 17.875 16.5625 18.25 17.3125L18.1875 17.375L14.4375 13.875C14.4375 13.875 14.3125 13.75 14.25 13.8125C14.1875 13.875 14.3125 14 14.3125 14L17.8125 17.75L17.75 17.8125C17.0625 17.3125 16.3125 17.25 15.75 16.5625C15.0625 15.75 14.25 15.75 13.875 15.5625C13.5 15.375 13.5 15 13.375 15.0625C13.25 15.125 13.3125 15.5 13.75 15.875C14.25 16.25 14.6875 16.0625 15.5 17C16.1875 17.8125 16.8125 17.8125 17.375 18.3125C17.375 18.3125 17.375 18.375 17.3125 18.375L12.5 16.625C12.5 16.625 12.375 16.5625 12.3125 16.6875C12.25 16.8125 12.4375 16.875 12.4375 16.875L17.0625 19V19.0625C16.25 18.875 15.5 19.0625 14.75 18.6875C13.8125 18.1875 13 18.5 12.625 18.5C12.1875 18.4375 12.0625 18.125 12 18.1875C11.875 18.25 12.125 18.625 12.6875 18.8125C13.25 18.9375 13.625 18.625 14.75 19.1875C15.75 19.6875 16.25 19.4375 17 19.6875V19.75L11.875 19.9375C11.875 19.9375 11.6875 19.9375 11.6875 20.0625C11.6875 20.1875 11.875 20.1875 11.875 20.1875L17 20.375V20.4375C16.1875 20.5625 15.5625 21.0625 14.6875 21C13.625 20.875 13 21.5 12.625 21.625C12.1875 21.75 11.9375 21.5 11.9375 21.625C11.875 21.75 12.1875 22 12.8125 21.9375C13.4375 21.875 13.5625 21.4375 14.875 21.5C16 21.5625 16.375 21.125 17.1875 21.125V21.1875L12.5625 23.3125C12.5625 23.3125 12.4375 23.375 12.4375 23.5C12.4375 23.625 12.625 23.5625 12.625 23.5625L17.4375 21.8125V21.875C16.75 22.3125 16.375 23 15.5 23.25C14.5 23.5625 14.125 24.3125 13.8125 24.625C13.5 24.9375 13.125 24.75 13.125 24.875C13.125 25 13.5 25.125 14 24.8125C14.5 24.5 14.5 24 15.75 23.625C16.8125 23.3125 17 22.75 17.75 22.375L17.8125 22.4375L14.3125 26.1875C14.3125 26.1875 14.1875 26.3125 14.25 26.375C14.3125 26.4375 14.4375 26.3125 14.4375 26.3125L18.1875 22.8125L18.25 22.875C17.75 23.5625 17.6875 24.3125 17 24.875C16.1875 25.5625 16.1875 26.375 16 26.75C15.8125 27.125 15.4375 27.125 15.5 27.25C15.5625 27.375 15.9375 27.3125 16.3125 26.875C16.6875 26.4375 16.5 25.9375 17.4375 25.125C18.25 24.4375 18.25 23.8125 18.75 23.25C18.75 23.25 18.8125 23.25 18.8125 23.3125L17.0625 28.125C17.0625 28.125 17 28.25 17.125 28.3125C17.25 28.375 17.3125 28.1875 17.3125 28.1875L19.4375 23.5625H19.5C19.3125 24.375 19.5 25.125 19.125 25.875C18.625 26.8125 18.9375 27.625 18.875 28C18.8125 28.4375 18.5 28.5625 18.5625 28.625C18.625 28.75 19 28.5 19.1875 27.9375C19.3125 27.375 19 27.0625 19.5625 25.875C20.0625 24.875 19.8125 24.375 20.0625 23.625H20.125L20.3125 28.75C20.3125 28.75 20.3125 28.9375 20.4375 28.9375C20.5625 28.9375 20.5625 28.75 20.5625 28.75L20.75 23.625H20.8125C20.9375 24.4375 21.4375 25.0625 21.375 25.9375C21.25 27 21.875 27.625 22 28C22.125 28.4375 21.875 28.6875 22 28.6875C22.125 28.75 22.375 28.4375 22.3125 27.8125C22.25 27.25 21.75 27.0625 21.875 25.75C21.9375 24.625 21.5 24.25 21.5 23.4375H21.5625L23.6875 28.0625C23.6875 28.0625 23.75 28.1875 23.875 28.1875C24 28.125 23.9375 28 23.9375 28L22.125 23.125H22.1875C22.625 23.8125 23.3125 24.1875 23.5625 25.0625C23.875 26.0625 24.625 26.4375 24.9375 26.75C25.25 27.0625 25.0625 27.4375 25.1875 27.4375C25.3125 27.4375 25.4375 27.0625 25.125 26.5625C24.8125 26.0625 24.3125 26.0625 23.9375 24.8125C23.625 23.75 23.0625 23.5625 22.6875 22.8125L22.75 22.75L26.5 26.25C26.5 26.25 26.625 26.375 26.6875 26.3125C26.75 26.25 26.625 26.125 26.625 26.125L23.125 22.375L23.1875 22.3125C23.875 22.8125 24.625 22.875 25.1875 23.5625C25.875 24.375 26.6875 24.375 27.0625 24.5625C27.4375 24.75 27.4375 25.125 27.5625 25.0625C27.6875 25 27.625 24.625 27.1875 24.25C26.6875 23.875 26.25 24.0625 25.4375 23.125C24.75 22.3125 24.125 22.3125 23.5625 21.75C23.5625 21.75 23.5625 21.6875 23.625 21.6875L28.4375 23.4375C28.4375 23.4375 28.5625 23.5 28.625 23.375C28.6875 23.25 28.5 23.1875 28.5 23.1875L23.875 21.0625V21C24.6875 21.1875 25.4375 21 26.1875 21.375C27.125 21.875 27.9375 21.5625 28.3125 21.5625C28.75 21.625 28.875 21.9375 28.9375 21.875C29.0625 21.8125 28.8125 21.4375 28.25 21.25C27.6875 21.125 27.3125 21.4375 26.1875 20.875C25.1875 20.375 24.6875 20.625 23.9375 20.375V20.3125L29.0625 20.125C29.0625 20.125 29.25 20.125 29.25 20C29.25 19.875 29.0625 19.875 29.0625 19.875Z" fill="#F6B40E"/>
<g id="Group">
<path id="Vector_4" d="M22.375 19.5625C22.1875 19.375 21.9375 19.25 21.6875 19.25C21.4375 19.25 21.25 19.375 21.0625 19.5625C21.375 19.8125 21.9375 19.8125 22.375 19.5625ZM22.1875 19.5C22.0625 19.625 21.9375 19.6875 21.8125 19.6875C21.875 19.625 21.9375 19.5625 21.9375 19.5C21.9375 19.4375 21.875 19.375 21.8125 19.3125C22 19.375 22.125 19.4375 22.1875 19.5ZM21.5 19.3125C21.4375 19.375 21.4375 19.4375 21.4375 19.5C21.4375 19.5625 21.5 19.6875 21.5625 19.6875C21.4375 19.6875 21.3125 19.625 21.1875 19.5C21.3125 19.4375 21.375 19.375 21.5 19.3125Z" fill="#85340A"/>
<path id="Vector_5" d="M21.75 19.0625C21.375 19.0625 21.3125 19.125 21.1875 19.25C21 19.375 20.9375 19.375 20.9375 19.375C20.9375 19.375 20.9375 19.5 21 19.4375C21.0625 19.4375 21.1875 19.375 21.3125 19.25C21.5 19.125 21.625 19.125 21.8125 19.125C22.3125 19.125 22.5625 19.5 22.625 19.5C22.6875 19.5 22.25 19.0625 21.75 19.0625Z" fill="#85340A"/>
<path id="Vector_6" d="M20.6875 19.0001C20.625 19.1251 20.625 19.1876 20.625 19.3126C20.5625 19.6876 20.625 20.1251 20.875 20.5626C20.875 20.5626 20.9375 20.5001 21 20.5001C20.75 20.1876 20.6875 19.8126 20.6875 19.5001C20.6875 19.3126 20.8125 19.1876 20.875 19.0626C21.3125 18.6876 22.0625 18.7501 22.6875 19.2501C22.125 18.4376 21.3125 18.5001 20.6875 19.0001Z" fill="#85340A"/>
<path id="Vector_7" d="M21.3125 19.8125C21.125 19.6875 21.0625 19.625 21 19.625C20.9375 19.625 20.9375 19.6875 21.1875 19.8125C21.4375 19.9375 21.9375 20 22.375 19.625C21.875 19.875 21.5 19.875 21.3125 19.8125ZM21 20.8125C20.9375 20.8125 20.875 20.75 20.8125 20.6875C20.8125 20.75 20.6875 20.875 20.5 20.875C20.3125 20.875 20.1875 20.6875 20.1875 20.6875C20.1875 20.75 20.125 20.8125 20 20.8125C19.9375 20.8125 19.8125 20.75 19.8125 20.625C19.8125 20.5625 19.875 20.5 19.9375 20.5C19.8125 20.5 19.75 20.625 19.75 20.75C19.75 20.875 19.875 21 20 21C20.0625 21 20.125 20.9375 20.1875 20.875C20.25 20.9375 20.4375 20.9375 20.5 20.9375H20.5625C20.625 20.9375 20.75 20.9375 20.875 20.875C20.9375 20.9375 21 21 21.0625 21C21.1875 21 21.3125 20.875 21.3125 20.75C21.3125 20.625 21.25 20.5625 21.125 20.5C21.1875 20.5 21.25 20.5625 21.25 20.625C21.1875 20.75 21.125 20.8125 21 20.8125ZM20.5 21.375C20.625 21.375 20.75 21.25 20.9375 21.375C21.125 21.5 21.25 21.5625 21.375 21.625C21.125 21.4375 21 21.25 20.75 21.25C20.6875 21.25 20.5625 21.25 20.5 21.3125C20.375 21.25 20.3125 21.25 20.25 21.25C20 21.25 19.875 21.5 19.625 21.625C19.75 21.5625 19.875 21.4375 20.0625 21.375C20.25 21.3125 20.375 21.375 20.5 21.375Z" fill="#85340A"/>
<path id="Vector_8" d="M20.5 21.5626C20.375 21.5626 20.3125 21.5001 20.125 21.5626C20 21.5626 19.875 21.5626 19.6875 21.6251H19.625C20.1875 21.6876 19.9375 22.0001 20.5 22.0001C21.0625 22.0001 20.8125 21.6876 21.375 21.6251H21.25C20.75 21.4376 20.6875 21.5626 20.5 21.5626ZM20.5 21.8751C20.0625 21.8751 20.1875 21.5626 19.6875 21.5626C20.1875 21.4376 20.25 21.6251 20.5 21.6251C20.6875 21.6251 20.8125 21.5001 21.3125 21.5626C20.8125 21.6251 20.9375 21.8751 20.5 21.8751ZM20.5 22.0001C20.25 22.0001 20 22.1876 20 22.5001C20.0625 22.2501 20.25 22.1251 20.5 22.1251C20.75 22.1251 20.9375 22.3126 21 22.5001C21 22.1876 20.75 22.0001 20.5 22.0001ZM20.125 19.0626C20.25 19.1876 20.3125 19.3751 20.3125 19.5001C20.375 19.8126 20.25 20.1251 20 20.5001C20 20.5001 20.0625 20.5001 20.125 20.5626C20.3125 20.1251 20.4375 19.7501 20.375 19.3126C20.375 19.1876 20.3125 19.1251 20.3125 19.0001C19.75 18.5001 18.9375 18.4376 18.3125 19.2501C18.9375 18.6876 19.75 18.6251 20.125 19.0626Z" fill="#85340A"/>
<path id="Vector_9" d="M19.75 19.3125C19.9375 19.4375 20 19.5 20.0625 19.5C20.125 19.5 20.125 19.4375 20.125 19.4375C20.125 19.4375 20 19.4375 19.875 19.3125C19.6875 19.1875 19.625 19.125 19.3125 19.125C18.75 19.125 18.4375 19.5625 18.5 19.5625C18.5625 19.5625 18.8125 19.1875 19.3125 19.1875C19.4375 19.1875 19.625 19.1875 19.75 19.3125Z" fill="#85340A"/>
<path id="Vector_10" d="M18.6875 19.5625C18.8125 19.6875 19.0625 19.75 19.3125 19.75C19.5 19.75 19.75 19.6875 19.9375 19.5625C19.75 19.375 19.5 19.25 19.25 19.25C19.0625 19.25 18.8125 19.375 18.6875 19.5625ZM18.8125 19.5625C18.9375 19.4375 19.0625 19.3125 19.1875 19.3125C19.125 19.375 19.0625 19.4375 19.0625 19.5C19.0625 19.625 19.125 19.6875 19.1875 19.6875C19.0625 19.75 18.875 19.6875 18.8125 19.5625ZM19.75 19.5C19.6875 19.5625 19.5625 19.625 19.4375 19.6875C19.5 19.625 19.5 19.5625 19.5 19.5C19.5 19.4375 19.4375 19.375 19.4375 19.3125C19.625 19.375 19.75 19.4375 19.75 19.5Z" fill="#85340A"/>
<path id="Vector_11" d="M20.0625 19.625C20 19.625 19.9375 19.6875 19.75 19.8125C19.5625 19.9375 19.1875 19.9375 18.6875 19.6875C19.125 20.0625 19.625 20 19.875 19.875C20.125 19.6875 20.125 19.625 20.0625 19.625Z" fill="#85340A"/>
</g>
</g>
</svg>
