<svg width="40" height="40" viewBox="0 0 40 40" fill="none" xmlns="http://www.w3.org/2000/svg">
<g id="emojione:flag-for-aruba">
<path id="Vector" d="M37.1875 27.5V25H38.0625C38.5 23.4375 38.75 21.75 38.75 20C38.75 9.625 30.375 1.25 20 1.25C9.625 1.25 1.25 9.625 1.25 20C1.25 21.75 1.5 23.4375 1.9375 25H2.8125V27.5C3.375 28.8125 4.125 30.125 5 31.25H7.25V33.75C10.625 36.875 15.0625 38.75 20 38.75C24.9375 38.75 29.375 36.875 32.75 33.75V31.25H35C35.875 30.125 36.625 28.8125 37.1875 27.5Z" fill="#42ADE2"/>
<path id="Vector_2" d="M2.8125 27.5H37.1875C37.5625 26.6875 37.8125 25.875 38.0625 25H1.9375C2.1875 25.875 2.4375 26.6875 2.8125 27.5ZM5 31.25C5.6875 32.125 6.4375 33 7.25 33.75H32.75C33.5625 33 34.3125 32.125 35 31.25H5Z" fill="#FFE62E"/>
<path id="Vector_3" d="M13.75 21.0625L11.4375 14.8125L5.1875 12.5L11.4375 10.1875L13.75 3.9375L16.0625 10.1875L22.3125 12.5L16.0625 14.8125L13.75 21.0625Z" fill="white"/>
<path id="Vector_4" d="M12.375 11.125L13.75 7.5L15.125 11.125L18.75 12.5L15.125 13.875L13.75 17.5L12.375 13.875L8.75 12.5L12.375 11.125Z" fill="#C94747"/>
</g>
</svg>
