<svg width="25" height="25" viewBox="0 0 25 25" fill="none" xmlns="http://www.w3.org/2000/svg">
<path d="M12.5007 2.0835C18.2538 2.0835 22.9173 6.74704 22.9173 12.5002C22.9173 18.2533 18.2538 22.9168 12.5007 22.9168C6.74753 22.9168 2.08398 18.2533 2.08398 12.5002C2.08398 6.74704 6.74753 2.0835 12.5007 2.0835ZM12.5007 16.6668C12.2244 16.6668 11.9594 16.7766 11.7641 16.9719C11.5687 17.1673 11.459 17.4322 11.459 17.7085C11.459 17.9848 11.5687 18.2497 11.7641 18.4451C11.9594 18.6404 12.2244 18.7502 12.5007 18.7502C12.7769 18.7502 13.0419 18.6404 13.2372 18.4451C13.4326 18.2497 13.5423 17.9848 13.5423 17.7085C13.5423 17.4322 13.4326 17.1673 13.2372 16.9719C13.0419 16.7766 12.7769 16.6668 12.5007 16.6668ZM12.5007 6.771C11.4992 6.771 10.5387 7.16883 9.83059 7.87697C9.12244 8.58512 8.72461 9.54557 8.72461 10.547C8.72461 10.8233 8.83436 11.0883 9.02971 11.2836C9.22506 11.479 9.49001 11.5887 9.76628 11.5887C10.0425 11.5887 10.3075 11.479 10.5028 11.2836C10.6982 11.0883 10.8079 10.8233 10.8079 10.547C10.8083 10.2398 10.8923 9.93842 11.0508 9.67525C11.2094 9.41209 11.4367 9.19706 11.7082 9.05321C11.9797 8.90935 12.2852 8.84211 12.592 8.8587C12.8988 8.87528 13.1953 8.97505 13.4497 9.14732C13.7041 9.3196 13.9069 9.55787 14.0362 9.83659C14.1655 10.1153 14.2165 10.424 14.1837 10.7295C14.1509 11.035 14.0356 11.3258 13.8502 11.5708C13.6647 11.8157 13.416 12.0056 13.1309 12.12C12.4267 12.4012 11.459 13.122 11.459 14.3231V14.5835C11.459 14.8598 11.5687 15.1247 11.7641 15.3201C11.9594 15.5154 12.2244 15.6252 12.5007 15.6252C12.7769 15.6252 13.0419 15.5154 13.2372 15.3201C13.4326 15.1247 13.5423 14.8598 13.5423 14.5835C13.5423 14.3293 13.5944 14.2022 13.8142 14.0939L13.9048 14.0522C14.7182 13.7251 15.3924 13.1251 15.8118 12.3553C16.2313 11.5855 16.3699 10.6937 16.2039 9.83286C16.0379 8.97202 15.5776 8.19575 14.9019 7.63711C14.2263 7.07847 13.3773 6.77227 12.5007 6.771Z" fill="white"/>
</svg>
