<svg width="40" height="40" viewBox="0 0 40 40" fill="none" xmlns="http://www.w3.org/2000/svg">
<g id="emojione:flag-for-australia">
<path id="Vector" d="M20 1.25V7.5H7.5V20H1.25C1.25 30.375 9.625 38.75 20 38.75C30.375 38.75 38.75 30.375 38.75 20C38.75 9.625 30.375 1.25 20 1.25Z" fill="#2A5F9E"/>
<path id="Vector_2" d="M20 1.25C17.0625 1.25 14.3125 1.9375 11.8125 3.125V6.875H6.875V11.8125H3.125C1.9375 14.3125 1.25 17.0625 1.25 20H8.75V10.625L16.25 20H20V15.3125L14.75 8.75H20V1.25Z" fill="white"/>
<g id="Group">
<path id="Vector_3" d="M9.625 8.75L18.75 20H20V16.9375L13.375 8.75H9.625Z" fill="#ED4C5C"/>
<path id="Vector_4" d="M20 3.125H11.8125C8.0625 4.9375 4.9375 8.0625 3.125 11.8125V20H6.875V6.875H20V3.125Z" fill="#ED4C5C"/>
</g>
<path id="Vector_5" d="M5 22.3125L6.375 20.625L5.9375 22.8125L8.125 22.875L6.1875 23.875L7.5 25.625L5.5625 24.75L5 26.875L4.4375 24.75L2.5 25.625L3.8125 23.875L1.875 22.875L4.0625 22.8125L3.625 20.625L5 22.3125ZM32.5 12.625L33.625 11.25L33.25 13L35 13.0625L33.4375 13.875L34.5 15.25L32.9375 14.5L32.5 16.25L32.0625 14.5L30.5 15.25L31.5625 13.875L30 13.0625L31.75 13L31.375 11.25L32.5 12.625ZM32.5 25.125L33.625 23.75L33.25 25.5L35 25.5625L33.4375 26.375L34.5 27.75L32.9375 27L32.5 28.75L32.0625 27L30.5 27.75L31.5625 26.375L30 25.5625L31.75 25.5L31.375 23.75L32.5 25.125ZM26.25 16.375L27.375 15L27 16.75L28.75 16.8125L27.1875 17.625L28.25 19L26.6875 18.25L26.25 20L25.8125 18.25L24.25 19L25.3125 17.625L23.75 16.8125L25.5 16.75L25.125 15L26.25 16.375Z" fill="white"/>
</g>
</svg>
