<svg width="41" height="40" viewBox="0 0 41 40" fill="none" xmlns="http://www.w3.org/2000/svg">
<g id="emojione:flag-for-azerbaijan">
<path id="Vector" d="M20.5 1.25C12.3125 1.25 5.375 6.5 2.8125 13.75H38.1875C35.625 6.5 28.6875 1.25 20.5 1.25Z" fill="#428BC1"/>
<path id="Vector_2" d="M20.5 38.75C28.6875 38.75 35.625 33.5625 38.1875 26.25H2.8125C5.375 33.5625 12.3125 38.75 20.5 38.75Z" fill="#83BF4F"/>
<path id="Vector_3" d="M2.8125 13.75C2.125 15.6875 1.75 17.8125 1.75 20C1.75 22.1875 2.125 24.3125 2.8125 26.25H38.1875C38.875 24.3125 39.25 22.1875 39.25 20C39.25 17.8125 38.875 15.6875 38.1875 13.75H2.8125Z" fill="#ED4C5C"/>
<path id="Vector_4" d="M20.25 25.125C17.4375 25.125 15.125 22.8125 15.125 20C15.125 17.1875 17.4375 14.875 20.25 14.875C20.9375 14.875 21.5625 15 22.125 15.25C21.125 14.5 19.875 14 18.5 14C15.1875 14 12.5625 16.6875 12.5625 20C12.5625 23.3125 15.25 26 18.5 26C19.875 26 21.125 25.5625 22.125 24.75C21.5625 25 20.9375 25.125 20.25 25.125ZM25.75 20.875L24.375 21.8125L25.25 20.375L23.625 20L25.25 19.625L24.3125 18.25L25.75 19.125L26.125 17.5L26.5 19.125L27.875 18.1875L27 19.625L28.625 20L27 20.375L27.9375 21.75L26.5 20.875L26.125 22.5L25.75 20.875Z" fill="white"/>
</g>
</svg>
