<svg width="40" height="40" viewBox="0 0 40 40" fill="none" xmlns="http://www.w3.org/2000/svg">
<g id="emojione:flag-for-bahamas">
<path id="Vector" d="M37.5 26.25C34.0625 26.25 31.25 23.4375 31.25 20H6.75V33.25C10.125 36.625 14.8125 38.75 20 38.75C28.1875 38.75 35.125 33.5 37.6875 26.25H37.5ZM37.5 13.75H37.6875C35.125 6.5 28.1875 1.25 20 1.25C14.8125 1.25 10.125 3.375 6.75 6.75V20H31.25C31.25 16.5625 34.0625 13.75 37.5 13.75Z" fill="#42ADE2"/>
<path id="Vector_2" d="M37.6875 13.75H6.75V26.25H37.6875C38.375 24.3125 38.75 22.1875 38.75 20C38.75 17.8125 38.375 15.6875 37.6875 13.75Z" fill="#FFE62E"/>
<path id="Vector_3" d="M6.75 6.75C3.375 10.125 1.25 14.8125 1.25 20C1.25 25.1875 3.375 29.875 6.75 33.25L20 20L6.75 6.75Z" fill="#3E4347"/>
</g>
</svg>
