<svg width="35" height="35" viewBox="0 0 35 35" fill="none" xmlns="http://www.w3.org/2000/svg">
<g clip-path="url(#clip0_5140_3894)">
<path d="M31.25 6.25H3.75C3.08696 6.25 2.45107 6.51339 1.98223 6.98223C1.51339 7.45107 1.25 8.08696 1.25 8.75V26.25C1.25 26.913 1.51339 27.5489 1.98223 28.0178C2.45107 28.4866 3.08696 28.75 3.75 28.75H31.25C31.913 28.75 32.5489 28.4866 33.0178 28.0178C33.4866 27.5489 33.75 26.913 33.75 26.25V8.75C33.75 8.08696 33.4866 7.45107 33.0178 6.98223C32.5489 6.51339 31.913 6.25 31.25 6.25Z" stroke="white" stroke-width="3" stroke-linecap="round" stroke-linejoin="round"/>
<path d="M17.5 22.5C18.8261 22.5 20.0979 21.9732 21.0355 21.0355C21.9732 20.0979 22.5 18.8261 22.5 17.5C22.5 16.1739 21.9732 14.9021 21.0355 13.9645C20.0979 13.0268 18.8261 12.5 17.5 12.5C16.1739 12.5 14.9021 13.0268 13.9645 13.9645C13.0268 14.9021 12.5 16.1739 12.5 17.5C12.5 18.8261 13.0268 20.0979 13.9645 21.0355C14.9021 21.9732 16.1739 22.5 17.5 22.5ZM6.9375 18.125C6.77174 18.125 6.61277 18.0592 6.49556 17.9419C6.37835 17.8247 6.3125 17.6658 6.3125 17.5C6.3125 17.3342 6.37835 17.1753 6.49556 17.0581C6.61277 16.9408 6.77174 16.875 6.9375 16.875M6.9375 18.125C7.10326 18.125 7.26223 18.0592 7.37944 17.9419C7.49665 17.8247 7.5625 17.6658 7.5625 17.5C7.5625 17.3342 7.49665 17.1753 7.37944 17.0581C7.26223 16.9408 7.10326 16.875 6.9375 16.875M28.0625 18.125C27.8967 18.125 27.7378 18.0592 27.6206 17.9419C27.5033 17.8247 27.4375 17.6658 27.4375 17.5C27.4375 17.3342 27.5033 17.1753 27.6206 17.0581C27.7378 16.9408 27.8967 16.875 28.0625 16.875M28.0625 18.125C28.2283 18.125 28.3872 18.0592 28.5044 17.9419C28.6216 17.8247 28.6875 17.6658 28.6875 17.5C28.6875 17.3342 28.6216 17.1753 28.5044 17.0581C28.3872 16.9408 28.2283 16.875 28.0625 16.875" stroke="white" stroke-width="3" stroke-linecap="round" stroke-linejoin="round"/>
</g>
<defs>
<clipPath id="clip0_5140_3894">
<rect width="35" height="35" fill="white"/>
</clipPath>
</defs>
</svg>
