<svg width="31" height="30" viewBox="0 0 31 30" fill="none" xmlns="http://www.w3.org/2000/svg">
<g clip-path="url(#clip0_2_6006)">
<path d="M15.9209 12.1319C15.9792 12.1737 16.0467 12.1945 16.1142 12.1945C16.1972 12.1945 16.2801 12.1632 16.3434 12.1016L18.6715 9.84395C18.7413 9.77612 18.7775 9.68095 18.7706 9.58381C18.7637 9.487 18.7143 9.39776 18.6356 9.34079L13.7353 5.79261C13.6059 5.69876 13.4278 5.71161 13.3128 5.82291L10.9847 8.08057C10.9149 8.1484 10.8787 8.24357 10.8856 8.34071C10.8925 8.43753 10.9422 8.52677 11.0209 8.58373L15.9209 12.1319ZM13.573 6.48809L17.9312 9.64407L16.0832 11.4361L11.725 8.28012L13.573 6.48809Z" fill="#000" fill-opacity="1"/>
<path d="M23.3189 13.5443C23.3775 13.5865 23.445 13.6069 23.5118 13.6069C23.6139 13.6069 23.7143 13.5595 23.7789 13.4706C23.8856 13.3234 23.853 13.1176 23.7055 13.0109L20.6045 10.7654C20.4566 10.6584 20.2511 10.6916 20.1448 10.8392C20.0381 10.9864 20.0707 11.1922 20.2182 11.2989L23.3189 13.5443Z" fill="#000" fill-opacity="1"/>
<path d="M18.2744 13.0232C18.1262 12.9162 17.921 12.9494 17.8147 13.097C17.708 13.2442 17.7406 13.45 17.8881 13.5567L20.9891 15.8021C21.0477 15.8446 21.1152 15.8647 21.1821 15.8647C21.2842 15.8647 21.3846 15.8173 21.4491 15.7287C21.5558 15.5815 21.5232 15.3754 21.3757 15.2687L18.2744 13.0232Z" fill="#000" fill-opacity="1"/>
<path d="M18.6608 18.0596C18.7195 18.1021 18.787 18.1222 18.8538 18.1222C18.9559 18.1222 19.0563 18.0748 19.1209 17.9862C19.2276 17.839 19.195 17.6329 19.0474 17.5265L9.07896 10.3076C8.93143 10.201 8.72595 10.2342 8.61926 10.3814C8.51257 10.5286 8.5455 10.7344 8.69302 10.8411L18.6608 18.0596Z" fill="#000" fill-opacity="1"/>
<path d="M29.8371 15.0848C29.2562 14.6646 28.3467 14.7779 27.7645 15.3423L18.69 24.1418C18.5596 24.2686 18.5563 24.477 18.6831 24.6074C18.8102 24.7381 19.0183 24.7411 19.1487 24.6143L28.2228 15.8149C28.5699 15.4783 29.1324 15.3874 29.4508 15.6186C29.5654 15.7016 29.6312 15.8172 29.6408 15.9522C29.6543 16.1405 29.5614 16.346 29.3859 16.5166L19.1685 26.4242C18.3706 27.1983 17.0946 27.44 16.324 26.9649C15.972 26.7472 15.7636 26.4274 15.7211 26.0402C15.6681 25.5522 15.8884 25.0289 16.326 24.6045L28.0694 13.217C28.1392 13.1492 28.1754 13.054 28.1685 12.9569C28.1616 12.8601 28.1122 12.7708 28.0335 12.7139L13.4588 2.15991C13.3291 2.06606 13.1513 2.07857 13.0363 2.19021L1.61171 13.2691C0.957394 13.9036 0.614266 14.7127 0.669917 15.4898C0.716678 16.1409 1.03972 16.7145 1.57976 17.1054L15.8465 27.4367C15.8518 27.4407 15.8581 27.442 15.8637 27.4453C15.9015 27.4723 15.9381 27.5 15.9783 27.5247C16.3514 27.7552 16.8002 27.8658 17.2698 27.8658C18.093 27.8658 18.9785 27.5256 19.6272 26.8967L29.8443 16.9891C30.1598 16.6832 30.3251 16.2881 30.2977 15.9051C30.274 15.5745 30.1104 15.283 29.8371 15.0848ZM1.32686 15.4428C1.28504 14.8606 1.55606 14.2408 2.07042 13.7419L13.2968 2.85539L27.3298 13.0172L15.868 24.1316C15.2986 24.6835 15.0098 25.3823 15.0645 26.0573L1.9657 16.5722C1.58075 16.2933 1.35979 15.9028 1.32686 15.4428Z" fill="#000" fill-opacity="1"/>
<path d="M16.8542 20.0272C16.8472 19.9301 16.7978 19.8412 16.7191 19.7842L13.6181 17.5387C13.4887 17.4449 13.3103 17.4577 13.1957 17.569L10.8675 19.8267C10.7977 19.8945 10.7615 19.9893 10.7684 20.0865C10.7753 20.1836 10.8251 20.2725 10.9038 20.3295L14.0047 22.575C14.0627 22.6171 14.1302 22.6375 14.1977 22.6375C14.281 22.6375 14.3637 22.6059 14.4272 22.5447L16.7554 20.287C16.8248 20.2192 16.8611 20.1243 16.8542 20.0272ZM14.1668 21.8795L11.6075 20.0262L13.4555 18.2342L16.0151 20.0875L14.1668 21.8795Z" fill="#000" fill-opacity="1"/>
<path d="M11.1677 16.5769C11.226 16.6193 11.2935 16.6394 11.3603 16.6394C11.4624 16.6394 11.5628 16.592 11.6274 16.5034C11.7341 16.3562 11.7012 16.1501 11.5536 16.0437L6.75083 12.5654C6.60364 12.4587 6.39783 12.4923 6.29114 12.6391C6.18444 12.7863 6.21737 12.9921 6.3649 13.0988L11.1677 16.5769Z" fill="#000" fill-opacity="1"/>
<path d="M4.42271 14.8232C4.27551 14.7165 4.0697 14.7501 3.96301 14.8969C3.85632 15.0441 3.88925 15.2499 4.03677 15.3566L8.8399 18.8347C8.89818 18.8771 8.96569 18.8972 9.03254 18.8972C9.13462 18.8972 9.23505 18.8498 9.2996 18.7612C9.40629 18.614 9.37336 18.4079 9.22583 18.3015L4.42271 14.8232Z" fill="#000" fill-opacity="1"/>
</g>
<defs>
<clipPath id="clip0_2_6006">
<rect width="30" height="30" fill="white" transform="translate(0.5)"/>
</clipPath>
</defs>
</svg>
