<svg xmlns="http://www.w3.org/2000/svg" width="24" height="24" viewBox="0 0 24 24" fill="none">
  <g clip-path="url(#clip0_122_15633)">
    <path d="M1.5 4.24207C2.8275 3.68707 4.731 3.08857 6.582 2.90257C8.577 2.70157 10.269 2.99707 11.25 4.03057V18.6496C9.8475 17.8546 8.07 17.7451 6.4305 17.9101C4.6605 18.0901 2.8755 18.6016 1.5 19.1266V4.24207ZM12.75 4.03057C13.731 2.99707 15.423 2.70157 17.418 2.90257C19.269 3.08857 21.1725 3.68707 22.5 4.24207V19.1266C21.123 18.6016 19.3395 18.0886 17.5695 17.9116C15.9285 17.7451 14.1525 17.8531 12.75 18.6496V4.03057ZM12 2.67457C10.5225 1.40407 8.3805 1.21507 6.4305 1.41007C4.1595 1.63957 1.8675 2.41807 0.4395 3.06757C0.308474 3.12716 0.197363 3.22319 0.119432 3.34421C0.0415 3.46523 3.98571e-05 3.60612 0 3.75007L0 20.2501C3.4743e-05 20.3756 0.0315557 20.499 0.0916756 20.6092C0.151796 20.7193 0.238593 20.8126 0.344116 20.8805C0.44964 20.9484 0.570517 20.9888 0.695675 20.9979C0.820833 21.007 0.946271 20.9845 1.0605 20.9326C2.3835 20.3326 4.515 19.6111 6.5805 19.4026C8.694 19.1896 10.4655 19.5331 11.415 20.7181C11.4853 20.8057 11.5743 20.8764 11.6756 20.9249C11.7768 20.9735 11.8877 20.9987 12 20.9987C12.1123 20.9987 12.2232 20.9735 12.3244 20.9249C12.4257 20.8764 12.5147 20.8057 12.585 20.7181C13.5345 19.5331 15.306 19.1896 17.418 19.4026C19.485 19.6111 21.618 20.3326 22.9395 20.9326C23.0537 20.9845 23.1792 21.007 23.3043 20.9979C23.4295 20.9888 23.5504 20.9484 23.6559 20.8805C23.7614 20.8126 23.8482 20.7193 23.9083 20.6092C23.9684 20.499 24 20.3756 24 20.2501V3.75007C24 3.60612 23.9585 3.46523 23.8806 3.34421C23.8026 3.22319 23.6915 3.12716 23.5605 3.06757C22.1325 2.41807 19.8405 1.63957 17.5695 1.41007C15.6195 1.21357 13.4775 1.40407 12 2.67457Z" fill="#020014" fill-opacity="0.4"/>
  </g>
  <defs>
    <clipPath id="clip0_122_15633">
      <rect width="24" height="24" fill="white"/>
    </clipPath>
  </defs>
</svg>