<svg width="29" height="29" viewBox="0 0 29 29" fill="none" xmlns="http://www.w3.org/2000/svg">
<g id="solar:calendar-broken">
<g id="Group">
<path id="Vector" d="M16.9165 26.5835H12.0832C7.52655 26.5835 5.24763 26.5835 3.83267 25.1673C2.4165 23.7524 2.4165 21.4735 2.4165 16.9168V14.5002C2.4165 9.94354 2.4165 7.66462 3.83267 6.24966C5.24763 4.8335 7.52655 4.8335 12.0832 4.8335H16.9165C21.4731 4.8335 23.752 4.8335 25.167 6.24966C26.5832 7.66462 26.5832 9.94354 26.5832 14.5002V16.9168C26.5832 21.4735 26.5832 23.7524 25.167 25.1673C24.378 25.9576 23.3207 26.3068 21.7498 26.4602M8.45817 4.8335V3.021M20.5415 4.8335V3.021M25.979 10.8752H12.9894M2.4165 10.8752H7.0988" stroke="#428BC1" stroke-width="1.5" stroke-linecap="round"/>
<path id="Vector_2" d="M21.75 20.5417C21.75 20.8621 21.6227 21.1695 21.3961 21.3961C21.1695 21.6227 20.8621 21.75 20.5417 21.75C20.2212 21.75 19.9139 21.6227 19.6872 21.3961C19.4606 21.1695 19.3333 20.8621 19.3333 20.5417C19.3333 20.2212 19.4606 19.9139 19.6872 19.6872C19.9139 19.4606 20.2212 19.3333 20.5417 19.3333C20.8621 19.3333 21.1695 19.4606 21.3961 19.6872C21.6227 19.9139 21.75 20.2212 21.75 20.5417ZM21.75 15.7083C21.75 16.0288 21.6227 16.3361 21.3961 16.5628C21.1695 16.7894 20.8621 16.9167 20.5417 16.9167C20.2212 16.9167 19.9139 16.7894 19.6872 16.5628C19.4606 16.3361 19.3333 16.0288 19.3333 15.7083C19.3333 15.3879 19.4606 15.0805 19.6872 14.8539C19.9139 14.6273 20.2212 14.5 20.5417 14.5C20.8621 14.5 21.1695 14.6273 21.3961 14.8539C21.6227 15.0805 21.75 15.3879 21.75 15.7083ZM15.7083 20.5417C15.7083 20.8621 15.581 21.1695 15.3544 21.3961C15.1278 21.6227 14.8205 21.75 14.5 21.75C14.1795 21.75 13.8722 21.6227 13.6456 21.3961C13.419 21.1695 13.2917 20.8621 13.2917 20.5417C13.2917 20.2212 13.419 19.9139 13.6456 19.6872C13.8722 19.4606 14.1795 19.3333 14.5 19.3333C14.8205 19.3333 15.1278 19.4606 15.3544 19.6872C15.581 19.9139 15.7083 20.2212 15.7083 20.5417ZM15.7083 15.7083C15.7083 16.0288 15.581 16.3361 15.3544 16.5628C15.1278 16.7894 14.8205 16.9167 14.5 16.9167C14.1795 16.9167 13.8722 16.7894 13.6456 16.5628C13.419 16.3361 13.2917 16.0288 13.2917 15.7083C13.2917 15.3879 13.419 15.0805 13.6456 14.8539C13.8722 14.6273 14.1795 14.5 14.5 14.5C14.8205 14.5 15.1278 14.6273 15.3544 14.8539C15.581 15.0805 15.7083 15.3879 15.7083 15.7083ZM9.66667 20.5417C9.66667 20.8621 9.53936 21.1695 9.31275 21.3961C9.08615 21.6227 8.7788 21.75 8.45833 21.75C8.13786 21.75 7.83052 21.6227 7.60391 21.3961C7.37731 21.1695 7.25 20.8621 7.25 20.5417C7.25 20.2212 7.37731 19.9139 7.60391 19.6872C7.83052 19.4606 8.13786 19.3333 8.45833 19.3333C8.7788 19.3333 9.08615 19.4606 9.31275 19.6872C9.53936 19.9139 9.66667 20.2212 9.66667 20.5417ZM9.66667 15.7083C9.66667 16.0288 9.53936 16.3361 9.31275 16.5628C9.08615 16.7894 8.7788 16.9167 8.45833 16.9167C8.13786 16.9167 7.83052 16.7894 7.60391 16.5628C7.37731 16.3361 7.25 16.0288 7.25 15.7083C7.25 15.3879 7.37731 15.0805 7.60391 14.8539C7.83052 14.6273 8.13786 14.5 8.45833 14.5C8.7788 14.5 9.08615 14.6273 9.31275 14.8539C9.53936 15.0805 9.66667 15.3879 9.66667 15.7083Z" fill="#428BC1"/>
</g>
</g>
</svg>
