<svg width="21" height="20" viewBox="0 0 21 20" fill="none" xmlns="http://www.w3.org/2000/svg">
<g clip-path="url(#clip0_24_2091)">
<path d="M13.0003 2.5C13.4208 2.49987 13.8258 2.65867 14.1341 2.94458C14.4424 3.23049 14.6313 3.62237 14.6628 4.04167L14.667 4.16667C14.667 4.37078 14.742 4.56778 14.8776 4.72031C15.0132 4.87284 15.2001 4.97029 15.4028 4.99417L15.5003 5H16.3337C16.9713 4.99996 17.5849 5.2436 18.0489 5.68107C18.5128 6.11854 18.7921 6.71676 18.8295 7.35333L18.8337 7.5V15C18.8337 15.6377 18.5901 16.2513 18.1526 16.7152C17.7151 17.1792 17.1169 17.4584 16.4803 17.4958L16.3337 17.5H4.66699C4.02932 17.5 3.41573 17.2564 2.95177 16.8189C2.48782 16.3815 2.20857 15.7832 2.17116 15.1467L2.16699 15V7.5C2.16696 6.86232 2.4106 6.24874 2.84806 5.78478C3.28553 5.32083 3.88375 5.04158 4.52032 5.00417L4.66699 5H5.50032C5.72134 5 5.9333 4.9122 6.08958 4.75592C6.24586 4.59964 6.33366 4.38768 6.33366 4.16667C6.33353 3.74619 6.49233 3.34119 6.77824 3.03288C7.06415 2.72456 7.45603 2.5357 7.87532 2.50417L8.00032 2.5H13.0003ZM10.5003 8.33333C9.88082 8.33328 9.28336 8.56325 8.82377 8.97866C8.36418 9.39406 8.07519 9.96531 8.01283 10.5817L8.00366 10.7083L8.00032 10.8333L8.00366 10.9583C8.02811 11.4469 8.19534 11.9175 8.48463 12.3119C8.77392 12.7063 9.17256 13.0072 9.63117 13.1773C10.0898 13.3474 10.5882 13.3792 11.0647 13.2688C11.5413 13.1584 11.9749 12.9107 12.312 12.5563C12.6491 12.2018 12.8748 11.7563 12.9612 11.2749C13.0476 10.7934 12.9909 10.2972 12.798 9.84767C12.6052 9.39816 12.2847 9.01509 11.8763 8.74592C11.4679 8.47674 10.9895 8.33329 10.5003 8.33333Z" fill="white"/>
</g>
<defs>
<clipPath id="clip0_24_2091">
<rect width="20" height="20" fill="white" transform="translate(0.5)"/>
</clipPath>
</defs>
</svg>
