<svg width="31" height="30" viewBox="0 0 31 30" fill="none" xmlns="http://www.w3.org/2000/svg">
<g clip-path="url(#clip0_2_6001)">
<path d="M27.8985 4.78837L30.1611 2.08912C30.2431 1.99099 30.2612 1.85433 30.2072 1.73842C30.1532 1.62251 30.0366 1.54842 29.9088 1.54842H22.0064V0.494336C22.0064 0.312564 21.8592 0.165039 21.6771 0.165039C21.495 0.165039 21.3478 0.312564 21.3478 0.494336V1.87771V7.69935V13.1505H17.5529C17.3708 13.1505 17.2237 13.2981 17.2237 13.4798V18.4614H9.30538C9.12361 18.4614 8.97608 18.6086 8.97608 18.7907V23.7723H1.05781C0.876041 23.7723 0.728516 23.9195 0.728516 24.1016V29.4725C0.728516 29.6546 0.876041 29.8018 1.05781 29.8018H9.30538H17.5529H25.8005C25.9826 29.8018 26.1298 29.6546 26.1298 29.4725V13.4798C26.1298 13.2981 25.9826 13.1505 25.8005 13.1505H22.0064V8.02865H29.9088C30.0369 8.02865 30.1532 7.95456 30.2072 7.83864C30.2612 7.72273 30.2431 7.58574 30.1611 7.48794L27.8985 4.78837ZM1.38711 24.4306H8.97608V29.1432H1.38711V24.4306ZM9.63468 24.1013V19.12H17.2237V29.1432H9.63468V24.1013ZM25.4712 29.1432H17.8822V18.7907V13.8091H25.4712V29.1432ZM22.0064 7.37005V2.20701H29.2031L27.2165 4.57696C27.1138 4.69946 27.1138 4.87761 27.2165 5.0001L29.2031 7.37005H22.0064Z" fill="#000" fill-opacity="1"/>
</g>
<defs>
<clipPath id="clip0_2_6001">
<rect width="30" height="30" fill="white" transform="translate(0.5)"/>
</clipPath>
</defs>
</svg>
