<svg xmlns="http://www.w3.org/2000/svg" width="25" height="26" viewBox="0 0 25 26" fill="none">
  <path d="M12.5 16.7109C13.234 16.7109 13.9514 16.4933 14.5617 16.0855C15.1719 15.6778 15.6476 15.0982 15.9285 14.4201C16.2093 13.742 16.2828 12.9959 16.1396 12.276C15.9964 11.5562 15.643 10.895 15.124 10.376C14.605 9.85699 13.9438 9.50355 13.224 9.36037C12.5041 9.21718 11.758 9.29067 11.0799 9.57154C10.4018 9.85241 9.82223 10.3281 9.41447 10.9383C9.00671 11.5486 8.78906 12.266 8.78906 13C8.78906 13.9842 9.18004 14.9281 9.87597 15.624C10.5719 16.32 11.5158 16.7109 12.5 16.7109ZM12.5 10.4609C13.0022 10.4609 13.4931 10.6099 13.9106 10.8888C14.3282 11.1678 14.6536 11.5644 14.8458 12.0283C15.038 12.4923 15.0882 13.0028 14.9903 13.4953C14.8923 13.9879 14.6505 14.4403 14.2954 14.7954C13.9403 15.1505 13.4879 15.3923 12.9953 15.4903C12.5028 15.5882 11.9923 15.538 11.5283 15.3458C11.0644 15.1536 10.6678 14.8282 10.3888 14.4106C10.1099 13.9931 9.96094 13.5022 9.96094 13C9.96094 12.3266 10.2284 11.6808 10.7046 11.2046C11.1808 10.7284 11.8266 10.4609 12.5 10.4609ZM23.4375 6.16406H1.5625C1.4071 6.16406 1.25806 6.22579 1.14818 6.33568C1.0383 6.44556 0.976562 6.5946 0.976562 6.75V19.25C0.976562 19.4054 1.0383 19.5544 1.14818 19.6643C1.25806 19.7742 1.4071 19.8359 1.5625 19.8359H23.4375C23.5929 19.8359 23.7419 19.7742 23.8518 19.6643C23.9617 19.5544 24.0234 19.4054 24.0234 19.25V6.75C24.0234 6.5946 23.9617 6.44556 23.8518 6.33568C23.7419 6.22579 23.5929 6.16406 23.4375 6.16406ZM2.14844 11.127C3.05824 10.8849 3.88796 10.4069 4.55367 9.74117C5.21937 9.07546 5.69742 8.24574 5.93945 7.33594H19.0605C19.3026 8.24574 19.7806 9.07546 20.4463 9.74117C21.112 10.4069 21.9418 10.8849 22.8516 11.127V14.873C21.9418 15.1151 21.112 15.5931 20.4463 16.2588C19.7806 16.9245 19.3026 17.7543 19.0605 18.6641H5.93945C5.69742 17.7543 5.21937 16.9245 4.55367 16.2588C3.88796 15.5931 3.05824 15.1151 2.14844 14.873V11.127ZM22.8516 9.90332C22.2581 9.696 21.719 9.35748 21.2745 8.91297C20.83 8.46846 20.4915 7.9294 20.2842 7.33594H22.8516V9.90332ZM4.71582 7.33594C4.5085 7.9294 4.16998 8.46846 3.72547 8.91297C3.28095 9.35748 2.7419 9.696 2.14844 9.90332V7.33594H4.71582ZM2.14844 16.0967C2.7419 16.304 3.28095 16.6425 3.72547 17.087C4.16998 17.5315 4.5085 18.0706 4.71582 18.6641H2.14844V16.0967ZM20.2842 18.6641C20.4915 18.0706 20.83 17.5315 21.2745 17.087C21.719 16.6425 22.2581 16.304 22.8516 16.0967V18.6641H20.2842Z" fill="black"/>
</svg>