<svg width="23" height="14" viewBox="0 0 23 14" fill="none" xmlns="http://www.w3.org/2000/svg">
<path id="Vector" d="M11.3281 10.5156C12.0234 10.5156 12.7032 10.3094 13.2813 9.92314C13.8594 9.53683 14.31 8.98777 14.5761 8.34537C14.8422 7.70297 14.9118 6.9961 14.7762 6.31414C14.6405 5.63217 14.3057 5.00575 13.814 4.51408C13.3224 4.02241 12.696 3.68758 12.014 3.55193C11.332 3.41628 10.6251 3.4859 9.98275 3.75199C9.34036 4.01807 8.79129 4.46868 8.40499 5.04682C8.01869 5.62497 7.8125 6.30468 7.8125 7C7.8125 7.9324 8.1829 8.82661 8.8422 9.48592C9.50151 10.1452 10.3957 10.5156 11.3281 10.5156ZM11.3281 4.26562C11.8689 4.26562 12.3976 4.42599 12.8473 4.72645C13.2969 5.02691 13.6474 5.45396 13.8544 5.9536C14.0613 6.45324 14.1155 7.00303 14.01 7.53345C13.9045 8.06387 13.644 8.55109 13.2616 8.9335C12.8792 9.3159 12.392 9.57633 11.8616 9.68184C11.3312 9.78734 10.7814 9.73319 10.2817 9.52623C9.78208 9.31927 9.35503 8.9688 9.05457 8.51914C8.75412 8.06947 8.59375 7.54081 8.59375 7C8.59375 6.2748 8.88183 5.5793 9.39463 5.0665C9.90742 4.55371 10.6029 4.26562 11.3281 4.26562ZM22.2656 0.359375H0.390625C0.287025 0.359375 0.187668 0.40053 0.114411 0.473786C0.041155 0.547043 0 0.6464 0 0.75V13.25C0 13.3536 0.041155 13.453 0.114411 13.5262C0.187668 13.5995 0.287025 13.6406 0.390625 13.6406H22.2656C22.3692 13.6406 22.4686 13.5995 22.5418 13.5262C22.6151 13.453 22.6562 13.3536 22.6562 13.25V0.75C22.6562 0.6464 22.6151 0.547043 22.5418 0.473786C22.4686 0.40053 22.3692 0.359375 22.2656 0.359375ZM0.78125 4.97461C1.71356 4.75515 2.56622 4.28012 3.24348 3.60286C3.92074 2.9256 4.39578 2.07293 4.61523 1.14062H18.041C18.2605 2.07293 18.7355 2.9256 19.4128 3.60286C20.09 4.28012 20.9427 4.75515 21.875 4.97461V9.02539C20.9427 9.24485 20.09 9.71988 19.4128 10.3971C18.7355 11.0744 18.2605 11.9271 18.041 12.8594H4.61523C4.39578 11.9271 3.92074 11.0744 3.24348 10.3971C2.56622 9.71988 1.71356 9.24485 0.78125 9.02539V4.97461ZM21.875 4.16797C21.1533 3.96502 20.4958 3.58003 19.9657 3.04991C19.4356 2.51979 19.0506 1.86234 18.8477 1.14062H21.875V4.16797ZM3.80859 1.14062C3.60565 1.86234 3.22065 2.51979 2.69053 3.04991C2.16041 3.58003 1.50296 3.96502 0.78125 4.16797V1.14062H3.80859ZM0.78125 9.83203C1.50296 10.035 2.16041 10.42 2.69053 10.9501C3.22065 11.4802 3.60565 12.1377 3.80859 12.8594H0.78125V9.83203ZM18.8477 12.8594C19.0506 12.1377 19.4356 11.4802 19.9657 10.9501C20.4958 10.42 21.1533 10.035 21.875 9.83203V12.8594H18.8477Z" fill="black" fill-opacity="0.5"/>
</svg>
