<svg width="21" height="21" viewBox="0 0 21 21" fill="none" xmlns="http://www.w3.org/2000/svg">
<path fill-rule="evenodd" clip-rule="evenodd" d="M10.2913 20.5C15.975 20.5 20.5825 16.0228 20.5825 10.5C20.5825 4.97715 15.975 0.5 10.2913 0.5C4.60755 0.5 0 4.97715 0 10.5C0 16.0228 4.60755 20.5 10.2913 20.5ZM13.8774 8.88064C14.1159 8.64885 14.1214 8.26758 13.8896 8.02905C13.6578 7.79051 13.2766 7.78504 13.038 8.01682L9.23567 11.7116L7.54433 10.0681C7.30579 9.83632 6.92452 9.84179 6.69274 10.0803C6.46095 10.3189 6.46642 10.7001 6.70496 10.9319L8.81599 12.9832C9.0497 13.2103 9.42165 13.2103 9.65535 12.9832L13.8774 8.88064Z" fill="#050038"/>
</svg>
