<svg width="20" height="21" viewBox="0 0 20 21" fill="none" xmlns="http://www.w3.org/2000/svg">
<g clip-path="url(#clip0_24_2149)">
<path d="M10.0003 2.1665C14.6028 2.1665 18.3337 5.89734 18.3337 10.4998C18.3337 15.1023 14.6028 18.8332 10.0003 18.8332C5.39783 18.8332 1.66699 15.1023 1.66699 10.4998C1.66699 5.89734 5.39783 2.1665 10.0003 2.1665ZM10.0003 13.8332C9.77931 13.8332 9.56735 13.921 9.41107 14.0772C9.25479 14.2335 9.16699 14.4455 9.16699 14.6665C9.16699 14.8875 9.25479 15.0995 9.41107 15.2558C9.56735 15.412 9.77931 15.4998 10.0003 15.4998C10.2213 15.4998 10.4333 15.412 10.5896 15.2558C10.7459 15.0995 10.8337 14.8875 10.8337 14.6665C10.8337 14.4455 10.7459 14.2335 10.5896 14.0772C10.4333 13.921 10.2213 13.8332 10.0003 13.8332ZM10.0003 5.9165C9.19915 5.9165 8.43079 6.23477 7.86427 6.80128C7.29776 7.3678 6.97949 8.13616 6.97949 8.93734C6.97949 9.15835 7.06729 9.37031 7.22357 9.52659C7.37985 9.68287 7.59181 9.77067 7.81282 9.77067C8.03384 9.77067 8.2458 9.68287 8.40208 9.52659C8.55836 9.37031 8.64616 9.15835 8.64616 8.93734C8.64643 8.69153 8.71361 8.45044 8.84048 8.23991C8.96735 8.02938 9.14913 7.85735 9.36633 7.74227C9.58353 7.62719 9.82795 7.5734 10.0734 7.58666C10.3188 7.59993 10.5561 7.67975 10.7596 7.81756C10.9631 7.95538 11.1253 8.146 11.2287 8.36898C11.3322 8.59195 11.373 8.83888 11.3468 9.08328C11.3205 9.32769 11.2283 9.56034 11.0799 9.75631C10.9315 9.95227 10.7326 10.1042 10.5045 10.1957C9.94116 10.4207 9.16699 10.9973 9.16699 11.9582V12.1665C9.16699 12.3875 9.25479 12.5995 9.41107 12.7558C9.56735 12.912 9.77931 12.9998 10.0003 12.9998C10.2213 12.9998 10.4333 12.912 10.5896 12.7558C10.7459 12.5995 10.8337 12.3875 10.8337 12.1665C10.8337 11.9632 10.8753 11.8615 11.0512 11.7748L11.1237 11.7415C11.7743 11.4797 12.3137 10.9998 12.6493 10.3839C12.9848 9.76807 13.0957 9.05466 12.9629 8.36599C12.8301 7.67732 12.4619 7.0563 11.9214 6.6094C11.3808 6.16249 10.7017 5.91752 10.0003 5.9165Z" fill="white"/>
</g>
<defs>
<clipPath id="clip0_24_2149">
<rect width="20" height="20" fill="white" transform="translate(0 0.5)"/>
</clipPath>
</defs>
</svg>
