<svg width="21" height="20" viewBox="0 0 21 20" fill="none" xmlns="http://www.w3.org/2000/svg">
<g id="circum:pen">
<path id="Vector" d="M17.3616 9.40353C17.0285 9.08443 16.5914 8.8962 16.1306 8.8734C15.6699 8.85059 15.2163 8.99473 14.8533 9.27937L13.3691 4.78687C13.2452 4.40704 13.0141 4.07117 12.7036 3.81979C12.393 3.56842 12.0164 3.41227 11.6191 3.3702L4.46828 2.5952C4.28294 2.57576 4.0956 2.59801 3.91997 2.66031C3.74434 2.72262 3.58486 2.82341 3.4532 2.9553C3.32155 3.08719 3.22105 3.24686 3.15907 3.4226C3.09708 3.59835 3.07517 3.78573 3.09495 3.97103L3.86995 11.1202C3.91151 11.5177 4.06747 11.8945 4.31892 12.2052C4.57037 12.5158 4.90652 12.7468 5.28662 12.8702L9.77828 14.3452C9.50332 14.6815 9.35316 15.1025 9.35328 15.5369C9.35482 16.0337 9.55286 16.5097 9.90416 16.861C10.2555 17.2123 10.7315 17.4103 11.2283 17.4119C11.7256 17.4102 12.2021 17.2123 12.5541 16.861L17.3625 12.0535C17.5365 11.8795 17.6746 11.6729 17.7689 11.4454C17.8631 11.218 17.9116 10.9743 17.9116 10.7281C17.9116 10.482 17.8631 10.2382 17.7689 10.0108C17.6746 9.78337 17.5365 9.57674 17.3625 9.4027L17.3616 9.40353ZM5.54495 12.0785C5.31757 12.0033 5.11658 11.8644 4.96589 11.6782C4.8152 11.4921 4.72116 11.2666 4.69495 11.0285L3.94495 4.03686L7.28662 7.37853C7.22697 7.55311 7.21728 7.74088 7.25866 7.92066C7.30004 8.10045 7.39082 8.26509 7.52078 8.39603C7.61039 8.4895 7.71777 8.56413 7.8366 8.61554C7.95544 8.66696 8.08335 8.69412 8.21283 8.69545C8.3423 8.69677 8.47074 8.67222 8.5906 8.62325C8.71046 8.57427 8.81934 8.50185 8.91084 8.41024C9.00235 8.31863 9.07463 8.20966 9.12346 8.08974C9.17229 7.96982 9.19668 7.84135 9.1952 7.71188C9.19372 7.5824 9.1664 7.45453 9.11484 7.33575C9.06328 7.21698 8.98852 7.1097 8.89495 7.0202C8.76631 6.88998 8.60287 6.79958 8.42419 6.75982C8.24552 6.72007 8.05917 6.73264 7.88745 6.79603L4.53745 3.44603L11.5291 4.19603C11.7678 4.21995 11.9944 4.31316 12.1808 4.46419C12.3672 4.61522 12.5054 4.81747 12.5783 5.04603L14.1875 9.92937L10.4291 13.6877L5.54495 12.0785ZM15.3025 9.98687C15.4487 9.84194 15.6345 9.74358 15.8366 9.70421C16.0387 9.66484 16.2479 9.68623 16.4378 9.76568C16.6277 9.84512 16.7898 9.97906 16.9037 10.1506C17.0175 10.3221 17.078 10.5235 17.0775 10.7294C17.0773 10.8659 17.05 11.001 16.9973 11.1269C16.9445 11.2528 16.8672 11.3669 16.77 11.4627L11.9608 16.271C11.7626 16.4614 11.4985 16.5676 11.2237 16.5676C10.9489 16.5676 10.6848 16.4614 10.4866 16.271C10.2938 16.0756 10.1858 15.8122 10.1858 15.5377C10.1858 15.2632 10.2938 14.9998 10.4866 14.8044L15.3025 9.98687Z" fill="#020014"/>
</g>
</svg>
