<svg width="30" height="30" viewBox="0 0 30 30" fill="none" xmlns="http://www.w3.org/2000/svg">
<path d="M29.4715 26.225H0.493359C0.311588 26.225 0.164062 26.0778 0.164062 25.8957C0.164062 25.7136 0.311588 25.5664 0.493359 25.5664H29.4715C29.6536 25.5664 29.8008 25.7136 29.8008 25.8957C29.8008 26.0778 29.6536 26.225 29.4715 26.225Z" fill="#1268F5"/>
<path d="M14.9816 8.69893C14.7999 8.69893 14.6523 8.55141 14.6523 8.36964V4.071C14.6523 3.88922 14.7999 3.7417 14.9816 3.7417C15.1634 3.7417 15.3109 3.88922 15.3109 4.071V8.36964C15.3109 8.55141 15.1634 8.69893 14.9816 8.69893Z" fill="#1268F5"/>
<path d="M19.8918 26.2248C19.7097 26.2248 19.5625 26.0776 19.5625 25.8955V11.5375L14.9826 8.75494L10.4027 11.5375V25.8955C10.4027 26.0776 10.2552 26.2248 10.0734 26.2248C9.89167 26.2248 9.74414 26.0776 9.74414 25.8955V11.3521C9.74414 11.2372 9.80407 11.1305 9.90253 11.0709L14.8117 8.08844C14.9164 8.02456 15.0488 8.02456 15.1535 8.08844L20.063 11.0709C20.1611 11.1305 20.2211 11.2372 20.2211 11.3521V25.8955C20.2211 26.0773 20.0739 26.2248 19.8918 26.2248Z" fill="#1268F5"/>
<path d="M17.1938 26.2249C17.0117 26.2249 16.8645 26.0777 16.8645 25.8956V20.724H13.102V25.8956C13.102 26.0777 12.9544 26.2249 12.7727 26.2249C12.5909 26.2249 12.4434 26.0777 12.4434 25.8956V20.3947C12.4434 20.2126 12.5909 20.0654 12.7727 20.0654H17.1938C17.3759 20.0654 17.5231 20.2126 17.5231 20.3947V25.8956C17.5231 26.0774 17.3759 26.2249 17.1938 26.2249Z" fill="#1268F5"/>
<path d="M1.91719 26.2249C1.73542 26.2249 1.58789 26.0777 1.58789 25.8956V15.7019C1.58789 15.5198 1.73542 15.3726 1.91719 15.3726H10.0729C10.2547 15.3726 10.4022 15.5198 10.4022 15.7019C10.4022 15.884 10.2547 16.0312 10.0729 16.0312H2.24648V25.8956C2.24648 26.0773 2.09896 26.2249 1.91719 26.2249Z" fill="#1268F5"/>
<path d="M28.0475 26.2249C27.8654 26.2249 27.7182 26.0777 27.7182 25.8956V16.0312H19.8918C19.7097 16.0312 19.5625 15.884 19.5625 15.7019C19.5625 15.5198 19.7097 15.3726 19.8918 15.3726H28.0475C28.2296 15.3726 28.3768 15.5198 28.3768 15.7019V25.8956C28.3768 26.0773 28.2296 26.2249 28.0475 26.2249Z" fill="#1268F5"/>
<path d="M14.9832 18.1417C13.5827 18.1417 12.4434 17.0024 12.4434 15.6019C12.4434 14.2014 13.5827 13.062 14.9832 13.062C16.3837 13.062 17.5231 14.2014 17.5231 15.6019C17.5231 17.0024 16.3837 18.1417 14.9832 18.1417ZM14.9832 13.7206C13.9459 13.7206 13.102 14.5646 13.102 15.6019C13.102 16.6392 13.9459 17.4832 14.9832 17.4832C16.0205 17.4832 16.8645 16.6392 16.8645 15.6019C16.8645 14.5646 16.0205 13.7206 14.9832 13.7206Z" fill="#1268F5"/>
<path d="M18.9958 7.29547H14.9816C14.7999 7.29547 14.6523 7.14795 14.6523 6.96617V4.071C14.6523 3.88922 14.7999 3.7417 14.9816 3.7417H18.9958C19.1146 3.7417 19.2243 3.80591 19.2826 3.90931C19.3412 4.01304 19.3389 4.14015 19.2773 4.24157L18.5028 5.51826L19.2773 6.79494C19.3389 6.89669 19.3409 7.02347 19.2826 7.1272C19.2246 7.23126 19.115 7.29547 18.9958 7.29547ZM15.3109 6.63688H18.4109L17.8363 5.68949C17.7731 5.58444 17.7731 5.45305 17.8363 5.34801L18.4109 4.40062H15.3109V6.63688Z" fill="#1268F5"/>
<path d="M28.0475 16.0311H19.8918C19.7097 16.0311 19.5625 15.8839 19.5625 15.7018V12.3977C19.5625 12.2159 19.7097 12.0684 19.8918 12.0684H23.657C23.7284 12.0684 23.7979 12.0914 23.8552 12.1345L28.2457 15.4387C28.359 15.524 28.4048 15.6719 28.36 15.8062C28.3149 15.9402 28.1888 16.0311 28.0475 16.0311ZM20.2211 15.3725H27.0619L23.5467 12.727H20.2208L20.2211 15.3725Z" fill="#1268F5"/>
<path d="M10.0729 16.0311H1.91718C1.77558 16.0311 1.64979 15.9406 1.60501 15.8062C1.55989 15.6719 1.606 15.524 1.71927 15.4387L6.10979 12.1345C6.16676 12.0914 6.23624 12.0684 6.3077 12.0684H10.0725C10.2543 12.0684 10.4018 12.2159 10.4018 12.3977V15.7018C10.4022 15.8836 10.2546 16.0311 10.0729 16.0311ZM2.90244 15.3725H9.74325V12.727H6.41801L2.90244 15.3725Z" fill="#1268F5"/>
<path d="M7.31172 20.1402C7.12995 20.1402 6.98242 19.993 6.98242 19.8109V18.4226C6.98242 18.2405 7.12995 18.0933 7.31172 18.0933C7.49349 18.0933 7.64102 18.2405 7.64102 18.4226V19.8109C7.64102 19.993 7.49382 20.1402 7.31172 20.1402Z" fill="#1268F5"/>
<path d="M7.31172 23.7622C7.12995 23.7622 6.98242 23.615 6.98242 23.4329V22.0446C6.98242 21.8625 7.12995 21.7153 7.31172 21.7153C7.49349 21.7153 7.64102 21.8625 7.64102 22.0446V23.4329C7.64102 23.615 7.49382 23.7622 7.31172 23.7622Z" fill="#1268F5"/>
<path d="M4.67891 20.1402C4.49713 20.1402 4.34961 19.993 4.34961 19.8109V18.4226C4.34961 18.2405 4.49713 18.0933 4.67891 18.0933C4.86068 18.0933 5.0082 18.2405 5.0082 18.4226V19.8109C5.0082 19.993 4.86101 20.1402 4.67891 20.1402Z" fill="#1268F5"/>
<path d="M4.67891 23.7622C4.49713 23.7622 4.34961 23.615 4.34961 23.4329V22.0446C4.34961 21.8625 4.49713 21.7153 4.67891 21.7153C4.86068 21.7153 5.0082 21.8625 5.0082 22.0446V23.4329C5.0082 23.615 4.86101 23.7622 4.67891 23.7622Z" fill="#1268F5"/>
<path d="M25.2863 20.1402C25.1042 20.1402 24.957 19.993 24.957 19.8109V18.4226C24.957 18.2405 25.1042 18.0933 25.2863 18.0933C25.4684 18.0933 25.6156 18.2405 25.6156 18.4226V19.8109C25.6156 19.993 25.4684 20.1402 25.2863 20.1402Z" fill="#1268F5"/>
<path d="M25.2863 23.7622C25.1042 23.7622 24.957 23.615 24.957 23.4329V22.0446C24.957 21.8625 25.1042 21.7153 25.2863 21.7153C25.4684 21.7153 25.6156 21.8625 25.6156 22.0446V23.4329C25.6156 23.615 25.4684 23.7622 25.2863 23.7622Z" fill="#1268F5"/>
<path d="M22.6516 20.1402C22.4695 20.1402 22.3223 19.993 22.3223 19.8109V18.4226C22.3223 18.2405 22.4695 18.0933 22.6516 18.0933C22.8337 18.0933 22.9809 18.2405 22.9809 18.4226V19.8109C22.9809 19.993 22.8337 20.1402 22.6516 20.1402Z" fill="#1268F5"/>
<path d="M22.6516 23.7622C22.4695 23.7622 22.3223 23.615 22.3223 23.4329V22.0446C22.3223 21.8625 22.4695 21.7153 22.6516 21.7153C22.8337 21.7153 22.9809 21.8625 22.9809 22.0446V23.4329C22.9809 23.615 22.8337 23.7622 22.6516 23.7622Z" fill="#1268F5"/>
</svg>
