<svg width="30" height="30" viewBox="0 0 30 30" fill="none" xmlns="http://www.w3.org/2000/svg">
<path d="M23.95 15.1744C23.7679 15.1744 23.6207 15.3216 23.6207 15.5037V26.1008L17.0081 26.0797C16.6195 26.0955 16.2899 26.1973 16.0308 26.381C15.8358 26.5157 15.6768 26.5117 15.5296 26.3672C15.3297 26.1699 15.2279 25.7465 15.3883 25.5077C15.7041 25.079 16.0696 24.8136 16.9162 24.8136H22.2064C22.3885 24.8136 22.5357 24.6664 22.5357 24.4843V14.1354C22.5357 13.9537 22.3885 13.8062 22.2064 13.8062H16.9162C15.8905 13.8062 15.3096 14.1213 14.9816 14.5006C14.6536 14.1213 14.0728 13.8062 13.047 13.8062H7.75685C7.57507 13.8062 7.42755 13.9537 7.42755 14.1354V24.4836C7.42755 24.6657 7.57507 24.8129 7.75685 24.8129H13.047C13.893 24.8129 14.2588 25.0786 14.5667 25.4959C14.7353 25.7461 14.6336 26.1696 14.4337 26.3669C14.2868 26.5114 14.1274 26.5164 13.9348 26.3823C13.673 26.1969 13.3434 26.0952 12.9403 26.079L6.34219 26.1005V15.5037C6.34219 15.3216 6.19466 15.1744 6.01289 15.1744C5.83112 15.1744 5.68359 15.3216 5.68359 15.5037V26.4311C5.68359 26.5187 5.7185 26.6026 5.78041 26.6642C5.84232 26.7261 5.92563 26.7604 6.01289 26.7604H6.01388L12.9278 26.7376C13.187 26.7482 13.3977 26.8098 13.5564 26.922C13.7632 27.0659 13.9829 27.1367 14.1956 27.1367C14.4491 27.1367 14.6932 27.0357 14.8957 26.8361C14.9263 26.8058 14.9533 26.7699 14.9813 26.7353C15.0093 26.7696 15.0363 26.8058 15.0669 26.8361C15.2691 27.0357 15.5128 27.1364 15.7663 27.1364C15.9797 27.1364 16.2 27.0646 16.4088 26.9204C16.5649 26.8098 16.7753 26.7485 17.0203 26.738L23.9487 26.7604H23.9497C24.037 26.7604 24.1206 26.7261 24.1822 26.6642C24.2441 26.6023 24.279 26.5187 24.279 26.4311V15.5037C24.2793 15.3216 24.1321 15.1744 23.95 15.1744ZM13.047 24.1546H8.08614V14.4647H13.047C14.2914 14.4647 14.5637 14.9758 14.6523 15.208V23.6258C14.6523 23.8079 14.7998 23.9551 14.9816 23.9551C15.1634 23.9551 15.3109 23.8079 15.3109 23.6258V15.2076C15.4002 14.9752 15.6738 14.4651 16.9162 14.4651H21.8771V24.1546H16.9162C15.8625 24.1546 15.3478 24.5202 14.9819 24.9608C14.6214 24.5248 14.107 24.1546 13.047 24.1546Z" fill="#000" fill-opacity="1"/>
<path d="M26.0797 12.9617C25.9385 10.0751 23.5458 7.77037 20.6249 7.77037H20.5989C19.0687 4.76126 15.9318 2.82861 12.5479 2.82861C7.57094 2.82861 3.52157 6.87765 3.52157 11.855C3.52157 12.2409 3.54759 12.6334 3.59863 13.0253C1.59091 13.5611 0.164062 15.3949 0.164062 17.5004C0.164062 20.0555 2.24291 22.134 4.7976 22.134C4.97937 22.134 5.1269 21.9868 5.1269 21.8047C5.1269 21.6226 4.97937 21.4754 4.7976 21.4754C2.6058 21.4754 0.822656 19.6922 0.822656 17.5004C0.822656 15.6037 2.17244 13.9638 4.03198 13.6009C4.20684 13.5667 4.32275 13.4 4.29378 13.2242C4.21837 12.7665 4.18017 12.3054 4.18017 11.8546C4.18017 7.24053 7.93382 3.48688 12.5479 3.48688C15.7494 3.48688 18.7124 5.35333 20.0974 8.2416C20.1521 8.35586 20.2676 8.42864 20.3941 8.42864H20.6246C23.2731 8.42864 25.4277 10.5832 25.4274 13.2407C25.4274 13.4053 25.5489 13.5446 25.7119 13.567C27.6673 13.836 29.1422 15.5266 29.1422 17.5004C29.1422 19.6922 27.359 21.4754 25.1672 21.4754C24.9851 21.4754 24.8379 21.6226 24.8379 21.8047C24.8379 21.9868 24.9851 22.134 25.1672 22.134C27.7223 22.134 29.8008 20.0551 29.8008 17.5004C29.8008 15.2938 28.2202 13.3908 26.0797 12.9617Z" fill="#000" fill-opacity="1"/>
<path d="M6.16803 11.8546C6.16803 8.39304 8.98451 5.57656 12.4461 5.57656C14.8476 5.57656 17.071 6.97673 18.1103 9.14384C18.1887 9.30783 18.3846 9.37731 18.5496 9.29861C18.7136 9.2199 18.7827 9.02331 18.704 8.85932C17.5564 6.46501 15.0999 4.91797 12.4464 4.91797C8.62129 4.91797 5.50977 8.02982 5.50977 11.8546C5.50977 12.0364 5.65729 12.1839 5.83906 12.1839C6.02083 12.1839 6.16803 12.0367 6.16803 11.8546Z" fill="#000" fill-opacity="1"/>
</svg>
