<svg xmlns="http://www.w3.org/2000/svg" width="19" height="19" viewBox="0 0 19 19" fill="none">
  <g clip-path="url(#clip0_2_15247)">
    <path d="M10.45 19C9.94609 19 9.46282 18.7998 9.1065 18.4435C8.75018 18.0872 8.55 17.6039 8.55 17.1V11.4H1.9C1.39609 11.4 0.912816 11.1998 0.556497 10.8435C0.200178 10.4872 0 10.0039 0 9.5V7.6L2.185 1.786C2.40279 1.27825 2.75859 0.841746 3.21199 0.526045C3.66539 0.210343 4.19823 0.028097 4.75 0L12.35 0C12.8539 0 13.3372 0.200178 13.6935 0.556497C14.0498 0.912816 14.25 1.39609 14.25 1.9V9.5L11.4 16.15V19H10.45ZM16.15 9.5V0H19V9.5H16.15Z" fill="#020014" fill-opacity="0.5"/>
  </g>
  <defs>
    <clipPath id="clip0_2_15247">
      <rect width="19" height="19" fill="white"/>
    </clipPath>
  </defs>
</svg>