<svg xmlns="http://www.w3.org/2000/svg" width="14" height="7" viewBox="0 0 14 7" fill="none">
  <path d="M7 5.84421L13.1054 0.994198C13.1546 0.954267 13.213 0.922699 13.2772 0.901319C13.3415 0.879939 13.4103 0.869173 13.4797 0.869644C13.549 0.870114 13.6176 0.881812 13.6814 0.90406C13.7452 0.926308 13.803 0.958665 13.8514 0.999257C13.8997 1.03985 13.9378 1.08787 13.9633 1.14055C13.9888 1.19322 14.0012 1.2495 13.9999 1.30613C13.9986 1.36276 13.9835 1.41861 13.9556 1.47045C13.9276 1.52229 13.8874 1.5691 13.8372 1.60816L7.36589 6.7483C7.26794 6.8261 7.13666 6.86963 7 6.86963C6.86334 6.86963 6.73207 6.8261 6.63411 6.7483L0.162843 1.60816C0.112602 1.5691 0.0723505 1.52229 0.0444155 1.47045C0.0164795 1.41861 0.00141621 1.36276 9.53674e-05 1.30613C-0.00122547 1.2495 0.0112228 1.19322 0.0367212 1.14055C0.0622196 1.08787 0.10026 1.03985 0.148642 0.999257C0.197024 0.958665 0.254787 0.926308 0.318589 0.90406C0.38239 0.881812 0.450963 0.870114 0.520339 0.869644C0.589714 0.869173 0.658515 0.879939 0.72276 0.901319C0.787005 0.922699 0.84542 0.954267 0.894621 0.994198L7 5.84421Z" fill="white"/>
</svg>