<svg width="16" height="9" viewBox="0 0 16 9" fill="none" xmlns="http://www.w3.org/2000/svg">
<path d="M8.67687 8.13982L8.67686 8.13983C8.48214 8.29449 8.23847 8.36963 8 8.36963C7.76153 8.36963 7.51786 8.29449 7.32314 8.13983L7.32313 8.13982L0.853512 3.00099C0.753877 2.92303 0.667243 2.82454 0.604248 2.70763M8.67687 8.13982L0.604248 2.70763M8.67687 8.13982L15.1465 3.00102C15.2461 2.92306 15.3327 2.82455 15.3958 2.70763C15.4596 2.58922 15.4965 2.45641 15.4998 2.31779C15.503 2.1791 15.4722 2.04438 15.4133 1.92269C15.3547 1.80158 15.2708 1.69853 15.1727 1.61622C15.0748 1.53403 14.963 1.47274 14.846 1.43194C14.729 1.39113 14.6058 1.37049 14.4831 1.36966C14.3603 1.36882 14.2369 1.38779 14.1194 1.4269C14.0028 1.46567 13.8912 1.52458 13.7927 1.60403L8 6.20564L2.2073 1.60402C2.10878 1.52457 1.99715 1.46567 1.88064 1.4269C1.76312 1.38779 1.63975 1.36882 1.51695 1.36966C1.39415 1.37049 1.271 1.39113 1.15396 1.43194C1.03697 1.47274 0.925229 1.53403 0.827272 1.61621L1.14864 1.99926L0.827269 1.61622C0.729158 1.69853 0.645304 1.80158 0.586679 1.92269C0.527771 2.04438 0.496997 2.17911 0.500232 2.31779C0.503465 2.45641 0.54044 2.58921 0.604248 2.70763M8.67687 8.13982L0.604248 2.70763" fill="white" stroke="white"/>
</svg>
