<svg xmlns="http://www.w3.org/2000/svg" width="14" height="12" viewBox="0 0 14 12" fill="none">
  <path d="M7 4.97458L13.1054 0.124569C13.1546 0.0846382 13.213 0.0530697 13.2772 0.03169C13.3415 0.0103103 13.4103 -0.000455723 13.4797 1.47817e-05C13.549 0.000485286 13.6176 0.0121827 13.6814 0.0344308C13.7452 0.0566788 13.803 0.0890358 13.8514 0.129629C13.8997 0.170221 13.9378 0.218244 13.9633 0.270918C13.9888 0.323592 14.0012 0.379871 13.9999 0.436499C13.9986 0.493126 13.9835 0.548977 13.9556 0.600821C13.9276 0.652664 13.8874 0.69947 13.8372 0.73853L7.36589 5.87867C7.26794 5.95647 7.13666 6 7 6C6.86334 6 6.73207 5.95647 6.63411 5.87867L0.162843 0.73853C0.112602 0.69947 0.0723505 0.652664 0.0444155 0.600821C0.0164795 0.548977 0.00141621 0.493126 9.53674e-05 0.436499C-0.00122547 0.379871 0.0112228 0.323592 0.0367212 0.270918C0.0622196 0.218244 0.10026 0.170221 0.148642 0.129629C0.197024 0.0890358 0.254787 0.0566788 0.318589 0.0344308C0.38239 0.0121827 0.450963 0.000485286 0.520339 1.47817e-05C0.589714 -0.000455723 0.658515 0.0103103 0.72276 0.03169C0.787005 0.0530697 0.84542 0.0846382 0.894621 0.124569L7 4.97458Z" fill="white"/>
  <path d="M7 10.9746L13.1054 6.12457C13.1546 6.08464 13.213 6.05307 13.2772 6.03169C13.3415 6.01031 13.4103 5.99954 13.4797 6.00001C13.549 6.00049 13.6176 6.01218 13.6814 6.03443C13.7452 6.05668 13.803 6.08904 13.8514 6.12963C13.8997 6.17022 13.9378 6.21824 13.9633 6.27092C13.9888 6.32359 14.0012 6.37987 13.9999 6.4365C13.9986 6.49313 13.9835 6.54898 13.9556 6.60082C13.9276 6.65266 13.8874 6.69947 13.8372 6.73853L7.36589 11.8787C7.26794 11.9565 7.13666 12 7 12C6.86334 12 6.73207 11.9565 6.63411 11.8787L0.162843 6.73853C0.112602 6.69947 0.0723505 6.65266 0.0444155 6.60082C0.0164795 6.54898 0.00141621 6.49313 9.53674e-05 6.4365C-0.00122547 6.37987 0.0112228 6.32359 0.0367212 6.27092C0.0622196 6.21824 0.10026 6.17022 0.148642 6.12963C0.197024 6.08904 0.254787 6.05668 0.318589 6.03443C0.38239 6.01218 0.450963 6.00049 0.520339 6.00001C0.589714 5.99954 0.658515 6.01031 0.72276 6.03169C0.787005 6.05307 0.84542 6.08464 0.894621 6.12457L7 10.9746Z" fill="white"/>
</svg>