<svg width="14" height="6" viewBox="0 0 14 6" fill="none" xmlns="http://www.w3.org/2000/svg">
<path d="M7 4.97458L13.1054 0.124569C13.1546 0.0846382 13.213 0.0530697 13.2772 0.03169C13.3415 0.0103103 13.4103 -0.000455723 13.4797 1.47817e-05C13.549 0.000485286 13.6176 0.0121827 13.6814 0.0344308C13.7452 0.0566788 13.803 0.0890358 13.8514 0.129629C13.8997 0.170221 13.9378 0.218244 13.9633 0.270918C13.9888 0.323592 14.0012 0.379871 13.9999 0.436499C13.9986 0.493126 13.9835 0.548977 13.9556 0.600821C13.9276 0.652664 13.8874 0.69947 13.8372 0.73853L7.36589 5.87867C7.26794 5.95647 7.13666 6 7 6C6.86334 6 6.73207 5.95647 6.63411 5.87867L0.162843 0.73853C0.112602 0.69947 0.0723505 0.652664 0.0444155 0.600821C0.0164795 0.548977 0.00141621 0.493126 9.53674e-05 0.436499C-0.00122547 0.379871 0.0112228 0.323592 0.0367212 0.270918C0.0622196 0.218244 0.10026 0.170221 0.148642 0.129629C0.197024 0.0890358 0.254787 0.0566788 0.318589 0.0344308C0.38239 0.0121827 0.450963 0.000485286 0.520339 1.47817e-05C0.589714 -0.000455723 0.658515 0.0103103 0.72276 0.03169C0.787005 0.0530697 0.84542 0.0846382 0.894621 0.124569L7 4.97458Z" fill="#020014"/>
</svg>
