<svg xmlns="http://www.w3.org/2000/svg" width="25" height="25" viewBox="0 0 25 25" fill="none">
  <g clip-path="url(#clip0_122_10949)">
    <path d="M12.4861 24.8345C9.21237 24.8345 6.13097 23.5637 3.80943 21.2559C1.35809 18.8197 0.0708105 15.572 0.184692 12.1113C0.390777 5.85744 5.43753 0.64495 11.6741 0.244305C13.207 0.146339 14.7168 0.324983 16.1616 0.776394C16.3062 0.821672 16.3869 0.975619 16.3416 1.12023C16.2964 1.26458 16.1416 1.34498 15.9981 1.30025C14.6175 0.868597 13.1744 0.697363 11.7093 0.791761C5.75146 1.17457 0.930001 6.15464 0.733246 12.1292C0.624578 15.4359 1.85423 18.5387 4.19635 20.8668C6.41444 23.0714 9.35863 24.2857 12.4861 24.2857C15.8587 24.2857 19.0737 22.8343 21.3069 20.3034C23.202 18.1556 24.2456 15.3936 24.2456 12.5263C24.2456 11.3397 24.0694 10.169 23.7226 9.04696C23.6778 8.90234 23.7588 8.74867 23.9034 8.70367C24.0488 8.65894 24.202 8.74016 24.2467 8.88478C24.61 10.0595 24.7944 11.2848 24.7944 12.5263C24.7944 15.5275 23.7023 18.4185 21.7185 20.6665C19.3811 23.3154 16.0159 24.8345 12.4861 24.8345Z" fill="#1268F5"/>
    <path d="M12.1268 15.4505C12.0459 15.4505 11.9655 15.4145 11.9111 15.3459C11.4276 14.7331 11.1719 13.9955 11.1719 13.2129V12.1956C11.1719 11.1446 12.0269 10.2896 13.078 10.2896H17.631C17.7828 10.2896 17.9054 10.4125 17.9054 10.564C17.9054 10.7154 17.7828 10.8384 17.631 10.8384H13.078C12.3296 10.8384 11.7207 11.4473 11.7207 12.1956V13.2129C11.7207 13.8709 11.9356 14.4911 12.342 15.0062C12.4358 15.1253 12.4155 15.2979 12.2964 15.3915C12.2462 15.431 12.1864 15.4505 12.1268 15.4505Z" fill="#1268F5"/>
    <path d="M15.7097 7.57481H13.783C12.732 7.57481 11.877 6.71973 11.877 5.66873V4.96321C11.877 3.9122 12.732 3.05713 13.783 3.05713H15.1452C15.297 3.05713 15.4196 3.18007 15.4196 3.33154C15.4196 3.48302 15.297 3.60596 15.1452 3.60596H13.783C13.0344 3.60596 12.4258 4.21488 12.4258 4.96321V5.66873C12.4258 6.41733 13.0344 7.02598 13.783 7.02598H15.7097C15.8614 7.02598 15.9841 7.14892 15.9841 7.30039C15.9841 7.45187 15.8614 7.57481 15.7097 7.57481Z" fill="#1268F5"/>
    <path d="M18.8003 23.0426C18.6486 23.0426 18.5259 22.9199 18.5259 22.7682V19.7365C18.5259 18.1525 17.3437 16.8392 15.7763 16.6759C15.6701 16.6649 15.563 16.6592 15.4541 16.6592C15.3024 16.6592 15.1797 16.5365 15.1797 16.3848C15.1797 16.233 15.3024 16.1104 15.4541 16.1104C15.5806 16.1104 15.7082 16.1169 15.8333 16.1301C17.681 16.3225 19.0747 17.8704 19.0747 19.7307V22.7682C19.0747 22.9197 18.9518 23.0426 18.8003 23.0426Z" fill="#1268F5"/>
    <path d="M5.81543 22.8171C5.66395 22.8171 5.54102 22.6944 5.54102 22.5427V21.1558C5.54102 20.3723 6.17848 19.7349 6.96193 19.7349C7.11341 19.7349 7.23635 19.8575 7.23635 20.0093C7.23635 20.161 7.11341 20.2837 6.96193 20.2837C6.48116 20.2837 6.08984 20.675 6.08984 21.1558V22.5427C6.08984 22.6944 5.96718 22.8171 5.81543 22.8171Z" fill="#1268F5"/>
    <path d="M2.29803 16.5796H1.06152C0.910047 16.5796 0.787109 16.4569 0.787109 16.3052C0.787109 16.1534 0.910047 16.0308 1.06152 16.0308H2.29803C2.44951 16.0308 2.57245 16.1534 2.57245 16.3052C2.57245 16.4569 2.44951 16.5796 2.29803 16.5796Z" fill="#1268F5"/>
    <path d="M1.32264 13.894H0.504883C0.353406 13.894 0.230469 13.7714 0.230469 13.6196C0.230469 13.4679 0.353406 13.3452 0.504883 13.3452H1.32264C1.47411 13.3452 1.59705 13.4679 1.59705 13.6196C1.59705 13.7714 1.47439 13.894 1.32264 13.894Z" fill="#1268F5"/>
    <path d="M3.95982 9.03874C3.91455 9.03874 3.86844 9.02749 3.82618 9.00389C3.69392 8.9298 3.64644 8.76295 3.72054 8.63041C4.01059 8.11122 4.55997 7.78851 5.15435 7.78851C5.75669 7.78851 6.24679 7.2984 6.24679 6.69606V2.08838C6.24679 1.9369 6.36973 1.81396 6.52121 1.81396C6.67268 1.81396 6.79562 1.9369 6.79562 2.08838V6.69579C6.79562 7.60081 6.05937 8.33706 5.15435 8.33706C4.75864 8.33706 4.39285 8.55193 4.19966 8.89769C4.14944 8.98797 4.05587 9.03874 3.95982 9.03874Z" fill="#1268F5"/>
    <path d="M20.5158 12.6604C20.4187 12.6604 20.3287 12.6091 20.2796 12.5254L19.6484 11.4576C18.3905 9.3309 17.0895 7.13147 16.6694 6.2882C16.3829 5.70123 16.2383 5.07172 16.2383 4.41505C16.238 2.05619 18.157 0.137207 20.5158 0.137207C22.875 0.137207 24.794 2.05619 24.794 4.41505C24.794 5.07062 24.6493 5.70013 24.3642 6.286C23.9419 7.13285 22.6379 9.33721 21.377 11.4686L20.7524 12.5251C20.7027 12.6091 20.6127 12.6604 20.5158 12.6604ZM20.5158 0.686035C18.4597 0.686035 16.7868 2.35886 16.7868 4.41505C16.7868 4.9872 16.9128 5.53576 17.1611 6.04562C17.5717 6.86859 18.8666 9.05786 20.1188 11.175L20.5156 11.8465L20.9022 11.1923C22.159 9.06774 23.4587 6.87078 23.8708 6.04342C24.1186 5.53548 24.2446 4.98693 24.2446 4.41505C24.2451 2.35886 22.572 0.686035 20.5158 0.686035Z" fill="#1268F5"/>
    <path d="M20.5164 6.18781C19.4497 6.18781 18.582 5.31984 18.582 4.25319C18.582 3.18655 19.4497 2.31885 20.5164 2.31885C21.5833 2.31885 22.451 3.18655 22.451 4.25319C22.451 5.31984 21.583 6.18781 20.5164 6.18781ZM20.5164 2.86768C19.7524 2.86768 19.1309 3.48922 19.1309 4.25319C19.1309 5.01744 19.7524 5.63898 20.5164 5.63898C21.2803 5.63898 21.9022 5.01744 21.9022 4.25319C21.9022 3.48922 21.2803 2.86768 20.5164 2.86768Z" fill="#1268F5"/>
    <path d="M5.72535 19.0715C5.62821 19.0715 5.53848 19.0202 5.48908 18.9367L5.00858 18.1234C4.02234 16.456 3.0907 14.8812 2.77485 14.2467C2.5545 13.7956 2.44336 13.3126 2.44336 12.8091C2.44336 10.9996 3.91559 9.52734 5.72508 9.52734C7.53484 9.52734 9.00707 10.9996 9.00707 12.8091C9.00707 13.3123 8.89621 13.7956 8.67722 14.2445C8.35973 14.8814 7.42699 16.4582 6.43965 18.1275L5.96162 18.9365C5.91223 19.0204 5.82222 19.0715 5.72535 19.0715ZM5.72535 10.0759C4.21827 10.0759 2.99246 11.302 2.99246 12.8088C2.99246 13.2281 3.08467 13.6304 3.26688 14.0041C3.57285 14.6177 4.54208 16.2565 5.47948 17.841L5.72563 18.2576L5.96601 17.8506C6.90588 16.262 7.87758 14.6194 8.1852 14.0017C8.36631 13.6304 8.45879 13.2286 8.45879 12.8088C8.45852 11.302 7.23243 10.0759 5.72535 10.0759Z" fill="#1268F5"/>
    <path d="M5.72448 14.2092C4.88559 14.2092 4.20312 13.5267 4.20312 12.6879C4.20312 11.849 4.88559 11.1665 5.72448 11.1665C6.56363 11.1665 7.2461 11.849 7.2461 12.6879C7.2461 13.5267 6.56336 14.2092 5.72448 14.2092ZM5.72448 11.7151C5.188 11.7151 4.75195 12.1514 4.75195 12.6876C4.75195 13.2238 5.18827 13.6601 5.72448 13.6601C6.26068 13.6601 6.69727 13.2238 6.69727 12.6876C6.69727 12.1514 6.26068 11.7151 5.72448 11.7151Z" fill="#1268F5"/>
    <path d="M7.44438 19.1604C7.42243 19.1604 7.40047 19.1577 7.37825 19.1525C7.28467 19.1294 7.19192 19.1039 7.09944 19.0762C6.95428 19.0326 6.87223 18.8794 6.91613 18.7343C6.96004 18.5894 7.11261 18.5068 7.25833 18.551C7.34175 18.5762 7.42545 18.599 7.50996 18.6199C7.65705 18.6561 7.74678 18.8051 7.71056 18.9522C7.67955 19.077 7.56759 19.1604 7.44438 19.1604Z" fill="#1268F5"/>
    <path d="M8.81336 19.3252C8.71731 19.3252 8.62127 19.323 8.52522 19.3187C8.37375 19.3115 8.25685 19.1831 8.26398 19.0316C8.27112 18.8801 8.40119 18.7654 8.55102 18.7704C8.72692 18.7783 8.90337 18.7781 9.07927 18.7704C9.22992 18.7608 9.35917 18.8804 9.36603 19.0319C9.37289 19.1834 9.25599 19.3118 9.10451 19.3187C9.00764 19.323 8.9105 19.3252 8.81336 19.3252ZM10.1882 19.1675C10.0633 19.1675 9.95026 19.0816 9.92089 18.9548C9.88687 18.8071 9.9788 18.6598 10.1267 18.6258C10.299 18.586 10.4708 18.5385 10.6374 18.4842C10.7817 18.4372 10.9362 18.5165 10.9832 18.6603C11.0298 18.8044 10.951 18.9594 10.807 19.0064C10.6256 19.0654 10.4382 19.1172 10.2502 19.1609C10.2293 19.1653 10.2088 19.1675 10.1882 19.1675ZM11.7408 18.586C11.6428 18.586 11.5479 18.5336 11.4985 18.4411C11.4272 18.3074 11.4774 18.1411 11.6113 18.0695C11.7652 17.9872 11.9181 17.8961 12.066 17.7992C12.1928 17.7161 12.3629 17.7512 12.4461 17.878C12.5292 18.0048 12.4941 18.1746 12.3673 18.258C12.2057 18.3642 12.0385 18.4636 11.8698 18.5536C11.8286 18.5753 11.7844 18.586 11.7408 18.586ZM13.0797 17.6102C13.0081 17.6102 12.9367 17.5824 12.8829 17.527C12.7773 17.4183 12.7795 17.2449 12.8884 17.139C13.0141 17.0169 13.1346 16.8871 13.2468 16.7537C13.3445 16.6376 13.5174 16.6228 13.6334 16.7202C13.7495 16.8176 13.7646 16.9908 13.6669 17.1069C13.5429 17.2542 13.4098 17.3975 13.2712 17.5325C13.2177 17.5841 13.1488 17.6102 13.0797 17.6102ZM14.0925 16.2985C14.0437 16.2985 13.9946 16.2856 13.9496 16.2584C13.8203 16.1794 13.7794 16.0106 13.8585 15.8811C13.9537 15.7255 14.0459 15.5674 14.1375 15.4096C14.2133 15.2785 14.3809 15.2335 14.5127 15.31C14.6438 15.386 14.6886 15.5542 14.6123 15.6851C14.5184 15.8468 14.424 16.0078 14.3269 16.1673C14.2753 16.2518 14.185 16.2985 14.0925 16.2985ZM14.9495 14.8737C14.8974 14.8737 14.8442 14.8586 14.7972 14.8276C14.6713 14.7431 14.6372 14.5729 14.7215 14.4467C14.8335 14.2793 14.9476 14.1221 15.0604 13.9799C15.1545 13.8617 15.3277 13.8416 15.4459 13.9357C15.5648 14.0301 15.5845 14.2028 15.4901 14.3213C15.3864 14.4519 15.2813 14.5965 15.1778 14.7516C15.1249 14.8309 15.0382 14.8737 14.9495 14.8737ZM16.0642 13.652C15.9791 13.652 15.8954 13.6125 15.8417 13.5387C15.7527 13.416 15.7799 13.2445 15.9028 13.1556C16.0557 13.045 16.2151 12.9484 16.3768 12.8694L16.4251 12.8466C16.5625 12.7827 16.7258 12.8428 16.7892 12.9802C16.8529 13.1177 16.793 13.281 16.6556 13.3444L16.6182 13.3619C16.4849 13.4273 16.3523 13.5071 16.225 13.5996C16.1762 13.6353 16.1199 13.652 16.0642 13.652ZM17.6001 13.0576C17.47 13.0576 17.3545 12.9649 17.3306 12.8326C17.3032 12.6836 17.4022 12.5406 17.5513 12.5132L17.6437 12.4962C17.799 12.4685 17.9538 12.444 18.1091 12.4221C18.2584 12.399 18.3978 12.5058 18.4189 12.6559C18.4401 12.8057 18.3353 12.9446 18.1851 12.9657C18.0367 12.9863 17.8885 13.0099 17.7409 13.0362L17.6498 13.053C17.633 13.0563 17.6163 13.0576 17.6001 13.0576Z" fill="#1268F5"/>
    <path d="M19.2545 12.8609C19.1099 12.8609 18.9886 12.7476 18.9809 12.6013C18.9726 12.4501 19.0887 12.3206 19.2399 12.3124C19.3332 12.3072 19.4268 12.3033 19.5201 12.3003C19.5231 12.3003 19.5259 12.3003 19.5292 12.3003C19.6765 12.3003 19.7984 12.4175 19.803 12.5659C19.8082 12.7174 19.6891 12.8442 19.5377 12.8488C19.4479 12.8519 19.3587 12.8557 19.269 12.8606C19.2646 12.8606 19.2597 12.8609 19.2545 12.8609Z" fill="#1268F5"/>
  </g>
  <defs>
    <clipPath id="clip0_122_10949">
      <rect width="25" height="25" fill="white"/>
    </clipPath>
  </defs>
</svg>