<svg xmlns="http://www.w3.org/2000/svg" width="20" height="25" viewBox="0 0 20 25" fill="none">
  <path d="M19.4541 15.9289C19.3024 15.9289 19.1797 16.0516 19.1797 16.2033V23.4816C19.1797 23.9248 18.8194 24.2856 18.376 24.2856H2.04009C1.59691 24.2856 1.23633 23.9251 1.23633 23.4816V1.48979C1.23633 1.04662 1.59691 0.686035 2.04009 0.686035H18.376C18.8191 0.686035 19.1797 1.04662 19.1797 1.48979V4.18866C19.1797 4.34013 19.3024 4.46307 19.4541 4.46307C19.6059 4.46307 19.7285 4.34013 19.7285 4.18866V1.48979C19.7285 0.743937 19.1218 0.137207 18.376 0.137207H2.04009C1.29423 0.137207 0.6875 0.743937 0.6875 1.48979V23.4816C0.6875 24.2275 1.29423 24.8345 2.04009 24.8345H18.376C19.1218 24.8345 19.7285 24.2275 19.7285 23.4816V16.2033C19.7285 16.0516 19.6056 15.9289 19.4541 15.9289Z" fill="#1268F5"/>
</svg>