<svg width="30" height="30" viewBox="0 0 30 30" fill="none" xmlns="http://www.w3.org/2000/svg">
<g clip-path="url(#clip0_2_5979)">
<path d="M23.3442 19.1151C23.1621 19.1151 23.0149 19.2623 23.0149 19.4444V28.1783C23.0149 28.7101 22.5825 29.1432 22.0504 29.1432H2.44732C1.91551 29.1432 1.48281 28.7105 1.48281 28.1783V1.78814C1.48281 1.25633 1.91551 0.823633 2.44732 0.823633H22.0504C22.5822 0.823633 23.0149 1.25633 23.0149 1.78814V5.02678C23.0149 5.20855 23.1621 5.35608 23.3442 5.35608C23.5263 5.35608 23.6735 5.20855 23.6735 5.02678V1.78814C23.6735 0.893114 22.9454 0.165039 22.0504 0.165039H2.44732C1.55229 0.165039 0.824219 0.893114 0.824219 1.78814V28.1783C0.824219 29.0734 1.55229 29.8018 2.44732 29.8018H22.0504C22.9454 29.8018 23.6735 29.0734 23.6735 28.1783V19.4444C23.6735 19.2623 23.5259 19.1151 23.3442 19.1151Z" fill="#020014" fill-opacity="0.6"/>
<path d="M10.2878 14.1183C10.1534 13.9958 9.94463 14.0063 9.82246 14.1403L7.21574 17.0062L6.47252 15.8379C6.37472 15.6847 6.17154 15.6396 6.01776 15.7368C5.86431 15.8346 5.8192 16.0381 5.91667 16.1915L6.89139 17.7231C6.94638 17.8097 7.03891 17.8657 7.14099 17.8742C7.15021 17.8752 7.15976 17.8755 7.16898 17.8755C7.26119 17.8755 7.34977 17.8367 7.41266 17.7679L10.3095 14.5832C10.432 14.4486 10.4221 14.2404 10.2878 14.1183Z" fill="#020014" fill-opacity="0.6"/>
<path d="M8.14568 14.7577C8.32745 14.7577 8.47497 14.6102 8.47497 14.4284C8.47497 14.2466 8.32745 14.0991 8.14568 14.0991H4.74141C4.55963 14.0991 4.41211 14.2466 4.41211 14.4284V18.8983C4.41211 19.0804 4.55963 19.2276 4.74141 19.2276H9.51885C9.70062 19.2276 9.84814 19.0804 9.84814 18.8983V17.1356C9.84814 16.9535 9.70062 16.8063 9.51885 16.8063C9.33707 16.8063 9.18955 16.9535 9.18955 17.1356V18.569H5.0707V14.7577H8.14568Z" fill="#020014" fill-opacity="0.6"/>
<path d="M16.1347 15.5529C16.1347 15.3708 15.9876 15.2236 15.8055 15.2236H11.7531C11.5714 15.2236 11.4238 15.3708 11.4238 15.5529C11.4238 15.735 11.5714 15.8822 11.7531 15.8822H15.8055C15.9876 15.8822 16.1347 15.735 16.1347 15.5529Z" fill="#020014" fill-opacity="0.6"/>
<path d="M11.7531 17.3774C11.5714 17.3774 11.4238 17.5246 11.4238 17.7067C11.4238 17.8888 11.5714 18.036 11.7531 18.036H13.7177C13.8995 18.036 14.047 17.8888 14.047 17.7067C14.047 17.5246 13.8995 17.3774 13.7177 17.3774H11.7531Z" fill="#020014" fill-opacity="0.6"/>
<path d="M10.2878 21.2144C10.1534 21.0915 9.94463 21.1017 9.82246 21.2361L7.21574 24.102L6.47252 22.934C6.37472 22.7808 6.17154 22.7354 6.01776 22.8329C5.86431 22.9307 5.8192 23.1342 5.91667 23.2876L6.89139 24.8188C6.94638 24.9055 7.03891 24.9614 7.14099 24.97C7.15021 24.971 7.15976 24.9713 7.16898 24.9713C7.26119 24.9713 7.34977 24.9325 7.41266 24.8636L10.3095 21.679C10.432 21.545 10.4221 21.3365 10.2878 21.2144Z" fill="#020014" fill-opacity="0.6"/>
<path d="M4.41211 25.9943C4.41211 26.1764 4.55963 26.3236 4.74141 26.3236H9.51885C9.70062 26.3236 9.84814 26.1764 9.84814 25.9943V24.2313C9.84814 24.0492 9.70062 23.902 9.51885 23.902C9.33707 23.902 9.18955 24.0492 9.18955 24.2313V25.665H5.0707V21.8534H8.14568C8.32745 21.8534 8.47497 21.7062 8.47497 21.5241C8.47497 21.342 8.32745 21.1948 8.14568 21.1948H4.74141C4.55963 21.1948 4.41211 21.342 4.41211 21.5241V25.9943Z" fill="#020014" fill-opacity="0.6"/>
<path d="M28.5936 6.10965L26.8697 4.94197C26.2994 4.5557 25.5223 4.70586 25.1363 5.27521L23.8251 7.21115L14.5577 20.8934C14.555 20.8974 14.555 20.902 14.5524 20.9059C14.532 20.9389 14.5155 20.9741 14.5076 21.013V21.0136V21.0143L13.5065 25.985C13.4802 26.1151 13.5349 26.2481 13.6445 26.3226C13.7002 26.3601 13.7647 26.3792 13.8293 26.3792C13.8918 26.3792 13.9547 26.3614 14.0094 26.3255L18.2557 23.5518L18.256 23.5515C18.257 23.5509 18.2576 23.5499 18.259 23.5492C18.2906 23.5278 18.3163 23.5005 18.3383 23.4708C18.3409 23.4672 18.3456 23.4649 18.3482 23.461L28.9272 7.84274C29.3131 7.27306 29.1636 6.49559 28.5936 6.10965ZM26.5006 5.48728L28.2245 6.65497C28.4932 6.8374 28.564 7.20456 28.3819 7.4736L27.255 9.13688L24.5551 7.30796L25.682 5.64469C25.8641 5.37532 26.2309 5.30485 26.5006 5.48728ZM24.1856 7.85328L26.8855 9.68219L17.9873 22.8192L15.782 21.3255L15.2871 20.9902L24.1856 7.85328ZM14.3071 25.3445L15.0549 21.6284L15.7929 22.1283L17.4808 23.2716L14.3071 25.3445Z" fill="#020014" fill-opacity="0.6"/>
<path d="M17.3186 20.8986C17.3753 20.9368 17.4392 20.9552 17.503 20.9552C17.6084 20.9552 17.7125 20.9048 17.776 20.8107L24.8892 10.3094C24.9913 10.1586 24.9514 9.95407 24.8009 9.85199C24.6508 9.75023 24.4456 9.78942 24.3435 9.93991L17.2304 20.4412C17.1286 20.5917 17.1678 20.7965 17.3186 20.8986Z" fill="#020014" fill-opacity="0.6"/>
<path d="M19.6135 10.2126C19.6135 10.0308 19.4663 9.8833 19.2842 9.8833H4.93672C4.75495 9.8833 4.60742 10.0308 4.60742 10.2126C4.60742 10.3944 4.75495 10.5419 4.93672 10.5419H19.2845C19.4663 10.5419 19.6135 10.3944 19.6135 10.2126Z" fill="#020014" fill-opacity="0.6"/>
<path d="M5.13226 8.75V4.49194H8.21613V5.08548H5.82258V6.31129H7.69355V6.89194H5.82258V8.15645H8.30645V8.75H5.13226ZM13.0854 8.75H12.2725L11.2209 7.11129L10.1758 8.75H9.38221L10.8596 6.58871L9.49834 4.49194H10.3112L11.2854 6.04032L12.2725 4.49194H13.0274L11.6467 6.5629L13.0854 8.75ZM17.9344 8.75H17.2053L16.7989 7.63387H15.0118L14.6053 8.75H13.8957L15.5021 4.49194H16.3279L17.9344 8.75ZM15.2053 7.07258H16.6053L15.9086 5.08548L15.2053 7.07258ZM9.4871 11.4919V15.75H8.84839V13.2855L8.9 12.1113H8.89355L7.59677 15.75H7.02258L5.72581 12.1113H5.71935L5.77097 13.2855V15.75H5.13226V11.4919H6.15806L7.01613 13.9565L7.3129 14.9694H7.32581L7.62903 13.9565L8.48064 11.4919H9.4871Z" fill="#020014" fill-opacity="0.6"/>
</g>
<defs>
<clipPath id="clip0_2_5979">
<rect width="30" height="30" fill="white"/>
</clipPath>
</defs>
</svg>
