<svg width="30" height="30" viewBox="0 0 30 30" fill="none" xmlns="http://www.w3.org/2000/svg">
<path d="M23.3442 19.1151C23.1621 19.1151 23.0149 19.2623 23.0149 19.4444V28.1783C23.0149 28.7101 22.5825 29.1432 22.0504 29.1432H2.44732C1.91551 29.1432 1.48281 28.7105 1.48281 28.1783V1.78814C1.48281 1.25633 1.91551 0.823633 2.44732 0.823633H22.0504C22.5822 0.823633 23.0149 1.25633 23.0149 1.78814V5.02678C23.0149 5.20855 23.1621 5.35608 23.3442 5.35608C23.5263 5.35608 23.6735 5.20855 23.6735 5.02678V1.78814C23.6735 0.893114 22.9454 0.165039 22.0504 0.165039H2.44732C1.55229 0.165039 0.824219 0.893114 0.824219 1.78814V28.1783C0.824219 29.0734 1.55229 29.8018 2.44732 29.8018H22.0504C22.9454 29.8018 23.6735 29.0734 23.6735 28.1783V19.4444C23.6735 19.2623 23.5259 19.1151 23.3442 19.1151Z" fill="#000" fill-opacity="1"/>
<path d="M10.2887 14.1188C10.1544 13.9963 9.9456 14.0068 9.82343 14.1408L7.21672 17.0067L6.4735 15.8383C6.3757 15.6852 6.17252 15.6401 6.01874 15.7372C5.86529 15.8351 5.82017 16.0386 5.91764 16.192L6.89236 17.7236C6.94736 17.8102 7.03989 17.8662 7.14197 17.8747C7.15119 17.8757 7.16074 17.876 7.16996 17.876C7.26216 17.876 7.35074 17.8372 7.41364 17.7684L10.3105 14.5837C10.433 14.449 10.4231 14.2409 10.2887 14.1188Z" fill="#000" fill-opacity="1"/>
<path d="M8.1447 14.7572C8.32647 14.7572 8.474 14.6097 8.474 14.4279C8.474 14.2462 8.32647 14.0986 8.1447 14.0986H4.74043C4.55866 14.0986 4.41113 14.2462 4.41113 14.4279V18.8978C4.41113 19.0799 4.55866 19.2271 4.74043 19.2271H9.51787C9.69964 19.2271 9.84717 19.0799 9.84717 18.8978V17.1351C9.84717 16.953 9.69964 16.8058 9.51787 16.8058C9.3361 16.8058 9.18857 16.953 9.18857 17.1351V18.5685H5.06973V14.7572H8.1447Z" fill="#000" fill-opacity="1"/>
<path d="M16.1347 15.5529C16.1347 15.3708 15.9876 15.2236 15.8055 15.2236H11.7531C11.5714 15.2236 11.4238 15.3708 11.4238 15.5529C11.4238 15.735 11.5714 15.8822 11.7531 15.8822H15.8055C15.9876 15.8822 16.1347 15.735 16.1347 15.5529Z" fill="#000" fill-opacity="1"/>
<path d="M11.7531 17.377C11.5714 17.377 11.4238 17.5241 11.4238 17.7062C11.4238 17.8884 11.5714 18.0355 11.7531 18.0355H13.7177C13.8995 18.0355 14.047 17.8884 14.047 17.7062C14.047 17.5241 13.8995 17.377 13.7177 17.377H11.7531Z" fill="#000" fill-opacity="1"/>
<path d="M10.2887 21.2139C10.1544 21.091 9.9456 21.1013 9.82343 21.2356L7.21672 24.1015L6.4735 22.9335C6.3757 22.7803 6.17252 22.7349 6.01874 22.8324C5.86529 22.9302 5.82017 23.1337 5.91764 23.2871L6.89236 24.8184C6.94736 24.905 7.03989 24.9609 7.14197 24.9695C7.15119 24.9705 7.16074 24.9708 7.16996 24.9708C7.26216 24.9708 7.35074 24.932 7.41364 24.8631L10.3105 21.6785C10.433 21.5445 10.4231 21.336 10.2887 21.2139Z" fill="#000" fill-opacity="1"/>
<path d="M4.41113 25.9948C4.41113 26.1769 4.55866 26.3241 4.74043 26.3241H9.51787C9.69964 26.3241 9.84717 26.1769 9.84717 25.9948V24.2318C9.84717 24.0497 9.69964 23.9025 9.51787 23.9025C9.3361 23.9025 9.18857 24.0497 9.18857 24.2318V25.6655H5.06973V21.8539H8.1447C8.32647 21.8539 8.474 21.7067 8.474 21.5246C8.474 21.3425 8.32647 21.1953 8.1447 21.1953H4.74043C4.55866 21.1953 4.41113 21.3425 4.41113 21.5246V25.9948Z" fill="#000" fill-opacity="1"/>
<path d="M28.5936 6.10965L26.8697 4.94197C26.2994 4.5557 25.5223 4.70586 25.1363 5.27521L23.8251 7.21115L14.5577 20.8934C14.555 20.8974 14.555 20.902 14.5524 20.9059C14.532 20.9389 14.5155 20.9741 14.5076 21.013V21.0136V21.0143L13.5065 25.985C13.4802 26.1151 13.5349 26.2481 13.6445 26.3226C13.7002 26.3601 13.7647 26.3792 13.8293 26.3792C13.8918 26.3792 13.9547 26.3614 14.0094 26.3255L18.2557 23.5518L18.256 23.5515C18.257 23.5509 18.2576 23.5499 18.259 23.5492C18.2906 23.5278 18.3163 23.5005 18.3383 23.4708C18.3409 23.4672 18.3456 23.4649 18.3482 23.461L28.9272 7.84274C29.3131 7.27306 29.1636 6.49559 28.5936 6.10965ZM26.5006 5.48728L28.2245 6.65497C28.4932 6.8374 28.564 7.20456 28.3819 7.4736L27.255 9.13688L24.5551 7.30796L25.682 5.64469C25.8641 5.37532 26.2309 5.30485 26.5006 5.48728ZM24.1856 7.85328L26.8855 9.68219L17.9873 22.8192L15.782 21.3255L15.2871 20.9902L24.1856 7.85328ZM14.3071 25.3445L15.0549 21.6284L15.7929 22.1283L17.4808 23.2716L14.3071 25.3445Z" fill="#000" fill-opacity="1"/>
<path d="M17.3186 20.8981C17.3753 20.9363 17.4392 20.9547 17.503 20.9547C17.6084 20.9547 17.7125 20.9043 17.776 20.8102L24.8892 10.3089C24.9913 10.1581 24.9514 9.95358 24.8009 9.8515C24.6508 9.74975 24.4456 9.78893 24.3435 9.93942L17.2304 20.4407C17.1286 20.5912 17.1678 20.796 17.3186 20.8981Z" fill="#000" fill-opacity="1"/>
<path d="M19.6135 10.2121C19.6135 10.0303 19.4663 9.88281 19.2842 9.88281H4.93672C4.75495 9.88281 4.60742 10.0303 4.60742 10.2121C4.60742 10.3939 4.75495 10.5414 4.93672 10.5414H19.2845C19.4663 10.5414 19.6135 10.3939 19.6135 10.2121Z" fill="#000" fill-opacity="1"/>
<path d="M5.13226 8.75V4.49194H8.21613V5.08548H5.82258V6.31129H7.69355V6.89194H5.82258V8.15645H8.30645V8.75H5.13226ZM13.0854 8.75H12.2725L11.2209 7.11129L10.1758 8.75H9.38221L10.8596 6.58871L9.49834 4.49194H10.3112L11.2854 6.04032L12.2725 4.49194H13.0274L11.6467 6.5629L13.0854 8.75ZM17.9344 8.75H17.2053L16.7989 7.63387H15.0118L14.6053 8.75H13.8957L15.5021 4.49194H16.3279L17.9344 8.75ZM15.2053 7.07258H16.6053L15.9086 5.08548L15.2053 7.07258ZM9.4871 11.4919V15.75H8.84839V13.2855L8.9 12.1113H8.89355L7.59677 15.75H7.02258L5.72581 12.1113H5.71935L5.77097 13.2855V15.75H5.13226V11.4919H6.15806L7.01613 13.9565L7.3129 14.9694H7.32581L7.62903 13.9565L8.48064 11.4919H9.4871Z" fill="#000" fill-opacity="1"/>
</svg>
