<svg width="19" height="20" viewBox="0 0 19 20" fill="none" xmlns="http://www.w3.org/2000/svg">
<g filter="url(#filter0_d_2_3543)">
<path d="M9.06587 0.770943C9.31595 0.556169 9.68539 0.556169 9.93547 0.770943L11.0433 1.72238C11.2376 1.88925 11.4997 1.95384 11.7493 1.89638L13.1724 1.56876C13.4936 1.49481 13.8207 1.66649 13.9423 1.97289L14.4811 3.33018C14.5756 3.56823 14.7776 3.7472 15.0254 3.81232L16.4377 4.18358C16.7565 4.26738 16.9664 4.57142 16.9317 4.89924L16.778 6.35145C16.751 6.60615 16.8467 6.85851 17.0358 7.03128L18.1139 8.01636C18.3572 8.23873 18.4017 8.60547 18.2187 8.87962L17.4077 10.0941C17.2655 10.3071 17.2329 10.575 17.3201 10.8158L17.8168 12.1891C17.929 12.4991 17.798 12.8445 17.5085 13.0022L16.226 13.7006C16.0011 13.8231 15.8478 14.0452 15.813 14.299L15.6147 15.7458C15.5699 16.0724 15.2934 16.3174 14.9638 16.3224L13.5036 16.3449C13.2475 16.3489 13.0086 16.4743 12.8598 16.6828L12.0119 17.8717C11.8205 18.1401 11.4618 18.2285 11.1676 18.0798L9.86421 17.4212C9.63561 17.3056 9.36572 17.3056 9.13713 17.4212L7.83379 18.0798C7.53958 18.2285 7.18088 18.1401 6.98946 17.8717L6.14151 16.6828C5.99278 16.4743 5.75381 16.3489 5.49771 16.3449L4.03756 16.3224C3.70795 16.3174 3.43143 16.0724 3.38666 15.7458L3.18835 14.299C3.15357 14.0452 3.00025 13.8231 2.77532 13.7006L1.49287 13.0022C1.20337 12.8445 1.07237 12.4991 1.18451 12.1891L1.68127 10.8158C1.7684 10.575 1.73586 10.3071 1.59363 10.0941L0.782668 8.87962C0.599604 8.60547 0.644134 8.23873 0.887486 8.01636L1.96552 7.03128C2.15459 6.85851 2.2503 6.60615 2.22334 6.35145L2.06965 4.89924C2.03496 4.57142 2.24482 4.26738 2.56364 4.18358L3.97598 3.81232C4.22369 3.7472 4.42571 3.56823 4.52021 3.33018L5.059 1.97289C5.18062 1.66649 5.50774 1.49481 5.82898 1.56876L7.25208 1.89638C7.50168 1.95384 7.76373 1.88925 7.95803 1.72238L9.06587 0.770943Z" fill="url(#paint0_linear_2_3543)" stroke="#665000" stroke-width="0.138645"/>
<circle cx="9.44106" cy="9.44057" r="6.50746" fill="#785E03"/>
<mask id="mask0_2_3543" style="mask-type:alpha" maskUnits="userSpaceOnUse" x="3" y="3" width="13" height="14">
<circle cx="9.79609" cy="10.0895" r="6.13593" fill="#C28B37"/>
</mask>
<g mask="url(#mask0_2_3543)">
<circle cx="9.44106" cy="9.44057" r="6.50746" fill="#8A6B1B"/>
</g>
<circle cx="9.62092" cy="9.38068" r="5.25373" fill="#B3881C"/>
<path d="M9.69406 5.47169L9.57005 5.22367L9.44604 5.47169L8.27619 7.81139L5.94374 8.10295L5.68131 8.13575L5.85757 8.33293L7.46922 10.1358L7.0273 12.7286L6.98135 12.9982L7.22598 12.8759L9.57005 11.7039L11.9141 12.8759L12.1583 12.998L12.1128 12.7288L11.6748 10.1358L13.2826 8.3328L13.4584 8.13571L13.1964 8.10295L10.8639 7.81139L9.69406 5.47169Z" fill="url(#paint1_linear_2_3543)" stroke="#AE8620" stroke-width="0.277289"/>
</g>
<defs>
<filter id="filter0_d_2_3543" x="0.0469845" y="0.540527" width="18.908" height="18.7893" filterUnits="userSpaceOnUse" color-interpolation-filters="sRGB">
<feFlood flood-opacity="0" result="BackgroundImageFix"/>
<feColorMatrix in="SourceAlpha" type="matrix" values="0 0 0 0 0 0 0 0 0 0 0 0 0 0 0 0 0 0 127 0" result="hardAlpha"/>
<feOffset dy="0.554578"/>
<feGaussianBlur stdDeviation="0.277289"/>
<feComposite in2="hardAlpha" operator="out"/>
<feColorMatrix type="matrix" values="0 0 0 0 0 0 0 0 0 0 0 0 0 0 0 0 0 0 0.25 0"/>
<feBlend mode="normal" in2="BackgroundImageFix" result="effect1_dropShadow_2_3543"/>
<feBlend mode="normal" in="SourceGraphic" in2="effect1_dropShadow_2_3543" result="shape"/>
</filter>
<linearGradient id="paint0_linear_2_3543" x1="9.50067" y1="0.306152" x2="9.50067" y2="18.6942" gradientUnits="userSpaceOnUse">
<stop stop-color="#FFE175"/>
<stop offset="1" stop-color="#FFD12E"/>
</linearGradient>
<linearGradient id="paint1_linear_2_3543" x1="9.57005" y1="5.53369" x2="9.57005" y2="12.7519" gradientUnits="userSpaceOnUse">
<stop stop-color="white"/>
<stop offset="1" stop-color="#FFE86D"/>
</linearGradient>
</defs>
</svg>
