<svg width="30" height="30" viewBox="0 0 30 30" fill="none" xmlns="http://www.w3.org/2000/svg">
<path d="M27.0703 13.125C27.4805 13.125 27.8613 13.1982 28.2129 13.3447C28.5645 13.4912 28.877 13.6963 29.1504 13.96C29.4238 14.2236 29.6289 14.5312 29.7656 14.8828C29.9023 15.2344 29.9805 15.6152 30 16.0254C30 16.4062 29.9268 16.7773 29.7803 17.1387C29.6338 17.5 29.4238 17.8174 29.1504 18.0908L18.6475 28.623L13.125 30L14.502 24.4775L25.0049 13.96C25.2783 13.6865 25.5957 13.4814 25.957 13.3447C26.3184 13.208 26.6895 13.1348 27.0703 13.125ZM27.8174 16.7725C28.0225 16.5674 28.125 16.3184 28.125 16.0254C28.125 15.7227 28.0273 15.4785 27.832 15.293C27.6367 15.1074 27.3828 15.0098 27.0703 15C26.9336 15 26.8018 15.0195 26.6748 15.0586C26.5479 15.0977 26.4355 15.1709 26.3379 15.2783L16.2012 25.4443L15.7031 27.4219L17.6807 26.9238L27.8174 16.7725ZM9.375 13.125H7.5V11.25H9.375V13.125ZM22.5 13.125H11.25V11.25H22.5V13.125ZM7.5 16.875H9.375V18.75H7.5V16.875ZM9.375 7.5H7.5V5.625H9.375V7.5ZM22.5 7.5H11.25V5.625H22.5V7.5ZM5.625 24.375H12.1143L11.6455 26.25H3.75V0H26.25V10.8838C25.5957 10.9814 24.9707 11.1963 24.375 11.5283V1.875H5.625V24.375ZM11.25 16.875H18.7793L16.9043 18.75H11.25V16.875Z" fill="white"/>
</svg>
