<svg width="18" height="10" viewBox="0 0 18 10" fill="none" xmlns="http://www.w3.org/2000/svg">
<path fill-rule="evenodd" clip-rule="evenodd" d="M17.9577 0.833496C17.9577 0.999256 17.8918 1.15823 17.7746 1.27544C17.6574 1.39265 17.4984 1.4585 17.3327 1.4585H0.666016C0.500255 1.4585 0.341284 1.39265 0.224074 1.27544C0.106864 1.15823 0.0410156 0.999256 0.0410156 0.833496C0.0410156 0.667736 0.106864 0.508764 0.224074 0.391554C0.341284 0.274344 0.500255 0.208496 0.666016 0.208496H17.3327C17.4984 0.208496 17.6574 0.274344 17.7746 0.391554C17.8918 0.508764 17.9577 0.667736 17.9577 0.833496ZM15.4577 5.00016C15.4577 5.16592 15.3918 5.32489 15.2746 5.4421C15.1574 5.55931 14.9984 5.62516 14.8327 5.62516H3.16602C3.00025 5.62516 2.84128 5.55931 2.72407 5.4421C2.60686 5.32489 2.54102 5.16592 2.54102 5.00016C2.54102 4.8344 2.60686 4.67543 2.72407 4.55822C2.84128 4.44101 3.00025 4.37516 3.16602 4.37516H14.8327C14.9984 4.37516 15.1574 4.44101 15.2746 4.55822C15.3918 4.67543 15.4577 4.8344 15.4577 5.00016ZM12.9577 9.16683C12.9577 9.33259 12.8918 9.49156 12.7746 9.60877C12.6574 9.72598 12.4984 9.79183 12.3327 9.79183H5.66601C5.50025 9.79183 5.34128 9.72598 5.22407 9.60877C5.10686 9.49156 5.04101 9.33259 5.04101 9.16683C5.04101 9.00107 5.10686 8.8421 5.22407 8.72489C5.34128 8.60768 5.50025 8.54183 5.66601 8.54183H12.3327C12.4984 8.54183 12.6574 8.60768 12.7746 8.72489C12.8918 8.8421 12.9577 9.00107 12.9577 9.16683Z" fill="#020014" fill-opacity="0.5"/>
</svg>
