<svg xmlns="http://www.w3.org/2000/svg" width="25" height="25" viewBox="0 0 25 25" fill="none">
  <path d="M9.37488 2.34375C9.37488 2.13655 9.45719 1.93784 9.60371 1.79132C9.75022 1.64481 9.94893 1.5625 10.1561 1.5625C10.3633 1.5625 10.562 1.64481 10.7086 1.79132C10.8551 1.93784 10.9374 2.13655 10.9374 2.34375V21.5516C10.9374 21.706 10.8916 21.8569 10.8058 21.9853C10.7201 22.1137 10.5982 22.2138 10.4556 22.273C10.313 22.3322 10.156 22.3478 10.0046 22.3178C9.85311 22.2879 9.71392 22.2137 9.60457 22.1047L2.34207 14.8438C2.26932 14.7712 2.21159 14.685 2.17221 14.5901C2.13282 14.4951 2.11255 14.3934 2.11255 14.2906C2.11255 14.1879 2.13282 14.0861 2.17221 13.9912C2.21159 13.8963 2.26932 13.8101 2.34207 13.7375H2.3452C2.49164 13.5915 2.68998 13.5095 2.89676 13.5095C3.10353 13.5095 3.30188 13.5915 3.44832 13.7375L9.37488 19.6688V2.34375ZM14.0624 3.44844C14.0627 3.29417 14.1087 3.14346 14.1946 3.0153C14.2805 2.88714 14.4024 2.78727 14.5449 2.72829C14.6874 2.6693 14.8443 2.65383 14.9956 2.68383C15.1469 2.71383 15.2859 2.78796 15.3952 2.89687L22.6577 10.1562C22.7305 10.2288 22.7882 10.315 22.8276 10.4099C22.8669 10.5049 22.8872 10.6066 22.8872 10.7094C22.8872 10.8121 22.8669 10.9139 22.8276 11.0088C22.7882 11.1037 22.7305 11.1899 22.6577 11.2625H22.6546C22.5081 11.4085 22.3098 11.4905 22.103 11.4905C21.8962 11.4905 21.6979 11.4085 21.5514 11.2625L15.6249 5.33438V22.6562C15.6249 22.8635 15.5426 23.0622 15.3961 23.2087C15.2495 23.3552 15.0508 23.4375 14.8436 23.4375C14.6364 23.4375 14.4377 23.3552 14.2912 23.2087C14.1447 23.0622 14.0624 22.8635 14.0624 22.6562V3.44844Z" fill="black"/>
</svg>