<svg width="14" height="20" viewBox="0 0 14 20" fill="none" xmlns="http://www.w3.org/2000/svg">
<path d="M1.16699 18.3332V11.6665M1.16699 11.6665V3.33317M1.16699 11.6665L3.22533 11.2548C4.60095 10.9795 6.02696 11.1104 7.32949 11.6315C8.74082 12.1959 10.2941 12.3011 11.7687 11.9323L11.947 11.8882C12.2002 11.825 12.425 11.6789 12.5857 11.4733C12.7463 11.2676 12.8336 11.0141 12.8337 10.7532V4.614C12.8336 4.46214 12.799 4.31229 12.7324 4.17581C12.6658 4.03933 12.569 3.91981 12.4493 3.82632C12.3296 3.73283 12.1902 3.66783 12.0417 3.63624C11.8931 3.60465 11.7394 3.6073 11.592 3.644C10.2325 3.9837 8.80049 3.88631 7.49949 3.36567L7.32949 3.29817C6.0272 2.7773 4.60152 2.64643 3.22616 2.9215L1.16699 3.33317M1.16699 3.33317V1.6665" stroke="black" stroke-opacity="0.5" stroke-width="1.5" stroke-linecap="round"/>
</svg>
