<svg width="20" height="21" viewBox="0 0 20 21" fill="none" xmlns="http://www.w3.org/2000/svg">
<path d="M4.16699 18.8332V12.1665M4.16699 12.1665V3.83317M4.16699 12.1665L6.22533 11.7548C7.60095 11.4795 9.02696 11.6104 10.3295 12.1315C11.7408 12.6959 13.2941 12.8011 14.7687 12.4323L14.947 12.3882C15.2002 12.325 15.425 12.1789 15.5857 11.9733C15.7463 11.7676 15.8336 11.5141 15.8337 11.2532V5.114C15.8336 4.96214 15.799 4.81229 15.7324 4.67581C15.6658 4.53933 15.569 4.41981 15.4493 4.32632C15.3296 4.23283 15.1902 4.16783 15.0417 4.13624C14.8931 4.10465 14.7394 4.1073 14.592 4.144C13.2325 4.4837 11.8005 4.38631 10.4995 3.86567L10.3295 3.79817C9.0272 3.2773 7.60152 3.14643 6.22616 3.4215L4.16699 3.83317M4.16699 3.83317V2.1665" stroke="white" stroke-width="1.5" stroke-linecap="round"/>
</svg>
