<svg width="15" height="15" viewBox="0 0 15 15" fill="none" xmlns="http://www.w3.org/2000/svg">
<path d="M10.5938 1H13.44L13.5025 1.00875L13.5644 1.02625L13.6019 1.0425C13.6519 1.06375 13.6975 1.09562 13.7388 1.13625L13.7638 1.16375L13.7913 1.19938L13.825 1.25562L13.8494 1.31188L13.8613 1.35187L13.87 1.39188L13.8757 1.45125V4.28375C13.8756 4.40251 13.8305 4.51684 13.7494 4.60362C13.6683 4.6904 13.5574 4.74317 13.4389 4.75127C13.3204 4.75936 13.2032 4.72218 13.1111 4.64723C13.019 4.57228 12.9587 4.46516 12.9425 4.3475L12.9382 4.28375V2.59938L8.91316 6.62437C8.83379 6.70376 8.72857 6.75203 8.61663 6.7604C8.50469 6.76877 8.39346 6.7367 8.30316 6.67L8.25066 6.625L6.35691 4.80625L2.80066 8.36188C2.71702 8.44575 2.60473 8.49484 2.48637 8.49929C2.368 8.50374 2.25234 8.46322 2.16264 8.38587C2.07293 8.30852 2.01584 8.20007 2.00283 8.08234C1.98983 7.96461 2.02188 7.84632 2.09254 7.75125L2.13816 7.69875L6.02566 3.81125C6.10511 3.73196 6.21037 3.68381 6.32231 3.67555C6.43425 3.66729 6.54544 3.69947 6.63566 3.76625L6.68816 3.81125L8.58191 5.63L12.2744 1.9375H10.5932C10.48 1.93734 10.3707 1.89625 10.2855 1.82182C10.2002 1.74738 10.1448 1.64461 10.1294 1.5325L10.125 1.46875C10.125 1.35548 10.1661 1.24604 10.2405 1.16067C10.315 1.0753 10.4178 1.01978 10.53 1.00437L10.5938 1ZM2.46941 10.375C2.59373 10.375 2.71296 10.4244 2.80087 10.5123C2.88878 10.6002 2.93816 10.7194 2.93816 10.8438V13.0312C2.93816 13.1556 2.88878 13.2748 2.80087 13.3627C2.71296 13.4506 2.59373 13.5 2.46941 13.5C2.34509 13.5 2.22586 13.4506 2.13796 13.3627C2.05005 13.2748 2.00066 13.1556 2.00066 13.0312V10.8438C2.00066 10.7194 2.05005 10.6002 2.13796 10.5123C2.22586 10.4244 2.34509 10.375 2.46941 10.375ZM6.06316 8.34375C6.06316 8.21943 6.01378 8.1002 5.92587 8.01229C5.83796 7.92439 5.71873 7.875 5.59441 7.875C5.47009 7.875 5.35086 7.92439 5.26296 8.01229C5.17505 8.1002 5.12566 8.21943 5.12566 8.34375V13.0312C5.12566 13.1556 5.17505 13.2748 5.26296 13.3627C5.35086 13.4506 5.47009 13.5 5.59441 13.5C5.71873 13.5 5.83796 13.4506 5.92587 13.3627C6.01378 13.2748 6.06316 13.1556 6.06316 13.0312V8.34375ZM8.71941 9.125C8.84373 9.125 8.96296 9.17439 9.05087 9.26229C9.13878 9.3502 9.18816 9.46943 9.18816 9.59375V13.0312C9.18816 13.1556 9.13878 13.2748 9.05087 13.3627C8.96296 13.4506 8.84373 13.5 8.71941 13.5C8.59509 13.5 8.47586 13.4506 8.38796 13.3627C8.30005 13.2748 8.25066 13.1556 8.25066 13.0312V9.59375C8.25066 9.46943 8.30005 9.3502 8.38796 9.26229C8.47586 9.17439 8.59509 9.125 8.71941 9.125ZM12.3132 6.46875C12.3132 6.34443 12.2638 6.2252 12.1759 6.13729C12.088 6.04939 11.9687 6 11.8444 6C11.7201 6 11.6009 6.04939 11.513 6.13729C11.425 6.2252 11.3757 6.34443 11.3757 6.46875V13.0312C11.3757 13.1556 11.425 13.2748 11.513 13.3627C11.6009 13.4506 11.7201 13.5 11.8444 13.5C11.9687 13.5 12.088 13.4506 12.1759 13.3627C12.2638 13.2748 12.3132 13.1556 12.3132 13.0312V6.46875Z" fill="#19B144"/>
</svg>
