<svg width="24" height="24" viewBox="0 0 24 24" fill="none" xmlns="http://www.w3.org/2000/svg">
<g id="material-symbols-light:golf-course">
<path id="Vector" d="M19.502 20.5001C19.2253 20.5001 18.989 20.4031 18.793 20.2091C18.5977 20.0151 18.5 19.7794 18.5 19.5021C18.5 19.2254 18.597 18.9891 18.791 18.7931C18.985 18.5978 19.2207 18.5001 19.498 18.5001C19.7747 18.5001 20.011 18.5971 20.207 18.7911C20.4023 18.9851 20.5 19.2208 20.5 19.4981C20.5 19.7748 20.403 20.0111 20.209 20.2071C20.015 20.4024 19.7793 20.5001 19.502 20.5001ZM10.002 21.5001C8.47533 21.5001 7.17667 21.3554 6.106 21.0661C5.03533 20.7774 4.5 20.4221 4.5 20.0001C4.5 19.6768 4.86467 19.3884 5.594 19.1351C6.32333 18.8818 7.11267 18.7151 7.962 18.6351V20.1151H9.5V2.80811L15.885 5.90011L10.5 8.69211V18.5121C11.9333 18.5954 13.125 18.7708 14.075 19.0381C15.025 19.3054 15.5 19.6261 15.5 20.0001C15.5 20.4221 14.9653 20.7774 13.896 21.0661C12.8273 21.3554 11.5293 21.5001 10.002 21.5001Z" fill="black" fill-opacity="0.5"/>
</g>
</svg>
