<svg xmlns="http://www.w3.org/2000/svg" width="24" height="25" viewBox="0 0 24 25" fill="none">
  <g clip-path="url(#clip0_122_11086)">
    <path d="M11.9246 1.61963C7.04961 1.61963 2.88711 4.76963 1.34961 9.11963H22.5746C20.9996 4.76963 16.8371 1.61963 11.9246 1.61963Z" fill="#F2B200"/>
    <path d="M11.9246 24.1196C16.8371 24.1196 20.9996 21.0071 22.5371 16.6196H1.34961C2.88711 21.0071 7.04961 24.1196 11.9246 24.1196Z" fill="#83BF4F"/>
    <path d="M1.35039 9.11963C0.937891 10.2821 0.712891 11.5571 0.712891 12.8696C0.712891 14.1821 0.937891 15.4571 1.35039 16.6196H22.5754C22.9879 15.4571 23.2129 14.1821 23.2129 12.8696C23.2129 11.5571 22.9879 10.2821 22.5754 9.11963H1.35039Z" fill="white"/>
    <path d="M11.9258 15.8696C13.5826 15.8696 14.9258 14.5265 14.9258 12.8696C14.9258 11.2128 13.5826 9.86963 11.9258 9.86963C10.2689 9.86963 8.92578 11.2128 8.92578 12.8696C8.92578 14.5265 10.2689 15.8696 11.9258 15.8696Z" fill="#428BC1"/>
    <path d="M11.9258 15.4946C13.3755 15.4946 14.5508 14.3194 14.5508 12.8696C14.5508 11.4199 13.3755 10.2446 11.9258 10.2446C10.476 10.2446 9.30078 11.4199 9.30078 12.8696C9.30078 14.3194 10.476 15.4946 11.9258 15.4946Z" fill="white"/>
    <path d="M10.9512 10.6196C11.0547 10.6196 11.1387 10.5357 11.1387 10.4321C11.1387 10.3286 11.0547 10.2446 10.9512 10.2446C10.8476 10.2446 10.7637 10.3286 10.7637 10.4321C10.7637 10.5357 10.8476 10.6196 10.9512 10.6196Z" fill="#428BC1"/>
    <path d="M10.3496 10.957C10.4532 10.957 10.5371 10.8731 10.5371 10.7695C10.5371 10.666 10.4532 10.582 10.3496 10.582C10.2461 10.582 10.1621 10.666 10.1621 10.7695C10.1621 10.8731 10.2461 10.957 10.3496 10.957Z" fill="#428BC1"/>
    <path d="M9.86328 11.4448C9.96683 11.4448 10.0508 11.3609 10.0508 11.2573C10.0508 11.1538 9.96683 11.0698 9.86328 11.0698C9.75973 11.0698 9.67578 11.1538 9.67578 11.2573C9.67578 11.3609 9.75973 11.4448 9.86328 11.4448Z" fill="#428BC1"/>
    <path d="M9.52539 12.0444C9.62894 12.0444 9.71289 11.9605 9.71289 11.8569C9.71289 11.7534 9.62894 11.6694 9.52539 11.6694C9.42184 11.6694 9.33789 11.7534 9.33789 11.8569C9.33789 11.9605 9.42184 12.0444 9.52539 12.0444Z" fill="#428BC1"/>
    <path d="M9.33789 12.7197C9.44144 12.7197 9.52539 12.6358 9.52539 12.5322C9.52539 12.4287 9.44144 12.3447 9.33789 12.3447C9.23434 12.3447 9.15039 12.4287 9.15039 12.5322C9.15039 12.6358 9.23434 12.7197 9.33789 12.7197Z" fill="#428BC1"/>
    <path d="M9.33789 13.3945C9.44144 13.3945 9.52539 13.3106 9.52539 13.207C9.52539 13.1035 9.44144 13.0195 9.33789 13.0195C9.23434 13.0195 9.15039 13.1035 9.15039 13.207C9.15039 13.3106 9.23434 13.3945 9.33789 13.3945Z" fill="#428BC1"/>
    <path d="M9.52539 14.0698C9.62894 14.0698 9.71289 13.9859 9.71289 13.8823C9.71289 13.7788 9.62894 13.6948 9.52539 13.6948C9.42184 13.6948 9.33789 13.7788 9.33789 13.8823C9.33789 13.9859 9.42184 14.0698 9.52539 14.0698Z" fill="#428BC1"/>
    <path d="M9.86328 14.6694C9.96683 14.6694 10.0508 14.5855 10.0508 14.4819C10.0508 14.3784 9.96683 14.2944 9.86328 14.2944C9.75973 14.2944 9.67578 14.3784 9.67578 14.4819C9.67578 14.5855 9.75973 14.6694 9.86328 14.6694Z" fill="#428BC1"/>
    <path d="M10.3496 15.1572C10.4532 15.1572 10.5371 15.0733 10.5371 14.9697C10.5371 14.8662 10.4532 14.7822 10.3496 14.7822C10.2461 14.7822 10.1621 14.8662 10.1621 14.9697C10.1621 15.0733 10.2461 15.1572 10.3496 15.1572Z" fill="#428BC1"/>
    <path d="M10.9512 15.4946C11.0547 15.4946 11.1387 15.4107 11.1387 15.3071C11.1387 15.2036 11.0547 15.1196 10.9512 15.1196C10.8476 15.1196 10.7637 15.2036 10.7637 15.3071C10.7637 15.4107 10.8476 15.4946 10.9512 15.4946Z" fill="#428BC1"/>
    <path d="M11.5879 15.6445C11.6914 15.6445 11.7754 15.5606 11.7754 15.457C11.7754 15.3535 11.6914 15.2695 11.5879 15.2695C11.4843 15.2695 11.4004 15.3535 11.4004 15.457C11.4004 15.5606 11.4843 15.6445 11.5879 15.6445Z" fill="#428BC1"/>
    <path d="M12.1133 15.4945C12.1133 15.382 12.1883 15.307 12.2633 15.2695C12.3758 15.2695 12.4508 15.3445 12.4883 15.4195C12.4883 15.532 12.4133 15.607 12.3383 15.6445C12.1883 15.682 12.1133 15.607 12.1133 15.4945Z" fill="#428BC1"/>
    <path d="M12.9375 15.4946C13.0411 15.4946 13.125 15.4107 13.125 15.3071C13.125 15.2036 13.0411 15.1196 12.9375 15.1196C12.8339 15.1196 12.75 15.2036 12.75 15.3071C12.75 15.4107 12.8339 15.4946 12.9375 15.4946Z" fill="#428BC1"/>
    <path d="M13.5371 15.1572C13.6407 15.1572 13.7246 15.0733 13.7246 14.9697C13.7246 14.8662 13.6407 14.7822 13.5371 14.7822C13.4336 14.7822 13.3496 14.8662 13.3496 14.9697C13.3496 15.0733 13.4336 15.1572 13.5371 15.1572Z" fill="#428BC1"/>
    <path d="M14.0254 14.6694C14.1289 14.6694 14.2129 14.5855 14.2129 14.4819C14.2129 14.3784 14.1289 14.2944 14.0254 14.2944C13.9218 14.2944 13.8379 14.3784 13.8379 14.4819C13.8379 14.5855 13.9218 14.6694 14.0254 14.6694Z" fill="#428BC1"/>
    <path d="M14.3633 14.0698C14.4668 14.0698 14.5508 13.9859 14.5508 13.8823C14.5508 13.7788 14.4668 13.6948 14.3633 13.6948C14.2597 13.6948 14.1758 13.7788 14.1758 13.8823C14.1758 13.9859 14.2597 14.0698 14.3633 14.0698Z" fill="#428BC1"/>
    <path d="M14.5508 13.3945C14.6543 13.3945 14.7383 13.3106 14.7383 13.207C14.7383 13.1035 14.6543 13.0195 14.5508 13.0195C14.4472 13.0195 14.3633 13.1035 14.3633 13.207C14.3633 13.3106 14.4472 13.3945 14.5508 13.3945Z" fill="#428BC1"/>
    <path d="M14.5512 12.7197C14.4387 12.7197 14.3637 12.6447 14.3262 12.5697C14.3262 12.4572 14.4012 12.3822 14.4762 12.3447C14.5887 12.3447 14.6637 12.4197 14.7012 12.4947C14.7387 12.6072 14.6637 12.6822 14.5512 12.7197Z" fill="#428BC1"/>
    <path d="M14.3633 12.0444C14.4668 12.0444 14.5508 11.9605 14.5508 11.8569C14.5508 11.7534 14.4668 11.6694 14.3633 11.6694C14.2597 11.6694 14.1758 11.7534 14.1758 11.8569C14.1758 11.9605 14.2597 12.0444 14.3633 12.0444Z" fill="#428BC1"/>
    <path d="M14.0254 11.4448C14.1289 11.4448 14.2129 11.3609 14.2129 11.2573C14.2129 11.1538 14.1289 11.0698 14.0254 11.0698C13.9218 11.0698 13.8379 11.1538 13.8379 11.2573C13.8379 11.3609 13.9218 11.4448 14.0254 11.4448Z" fill="#428BC1"/>
    <path d="M13.5371 10.957C13.6407 10.957 13.7246 10.8731 13.7246 10.7695C13.7246 10.666 13.6407 10.582 13.5371 10.582C13.4336 10.582 13.3496 10.666 13.3496 10.7695C13.3496 10.8731 13.4336 10.957 13.5371 10.957Z" fill="#428BC1"/>
    <path d="M13.1254 10.5071C13.0879 10.6196 12.9754 10.6571 12.8629 10.6196C12.7504 10.5821 12.7129 10.4696 12.7504 10.3571C12.7879 10.2446 12.9004 10.2071 13.0129 10.2446C13.1254 10.3196 13.1629 10.4321 13.1254 10.5071ZM12.4504 10.2821C12.4504 10.3946 12.3379 10.4696 12.2254 10.4321C12.1129 10.4321 12.0379 10.3196 12.0754 10.2071C12.0754 10.0946 12.1879 10.0196 12.3004 10.0571C12.4129 10.0946 12.4879 10.2071 12.4504 10.2821ZM11.7754 10.2446C11.7754 10.3571 11.7004 10.4321 11.6254 10.4696C11.5129 10.4696 11.4379 10.3946 11.4004 10.3196C11.4004 10.2071 11.4754 10.1321 11.5504 10.0946C11.6629 10.0571 11.7754 10.1321 11.7754 10.2446Z" fill="#428BC1"/>
    <path d="M11.9258 13.4321C12.2364 13.4321 12.4883 13.1803 12.4883 12.8696C12.4883 12.559 12.2364 12.3071 11.9258 12.3071C11.6151 12.3071 11.3633 12.559 11.3633 12.8696C11.3633 13.1803 11.6151 13.4321 11.9258 13.4321Z" fill="#428BC1"/>
    <path d="M11.925 10.2446L11.85 11.8571L11.925 12.8696L12.0375 11.8571L11.925 10.2446ZM11.25 10.3196L11.5875 11.9321L11.925 12.8696L11.775 11.8571L11.25 10.3196Z" fill="#428BC1"/>
    <path d="M10.6129 10.582L11.3629 12.0445L11.9254 12.8695L11.5129 11.932L10.6129 10.582ZM10.0879 10.9945L11.1754 12.232L11.9254 12.8695L11.2879 12.082L10.0879 10.9945Z" fill="#428BC1"/>
    <path d="M9.67578 11.5571L11.0258 12.4571L11.9258 12.8696L11.1008 12.2696L9.67578 11.5571Z" fill="#428BC1"/>
    <path d="M9.41328 12.1948L10.9508 12.6823L11.9258 12.8698L10.9883 12.5323L9.41328 12.1948ZM9.30078 12.8698L10.9508 12.9448L11.9258 12.8698L10.9508 12.7948L9.30078 12.8698Z" fill="#428BC1"/>
    <path d="M9.41211 13.5446L10.9871 13.2071L11.9246 12.8696L10.9496 13.0571L9.41211 13.5446ZM9.67461 14.1821L11.0996 13.4696L11.9246 12.8696L11.0246 13.2821L9.67461 14.1821Z" fill="#428BC1"/>
    <path d="M10.0879 14.7071L11.2879 13.6571L11.9254 12.8696L11.1754 13.5071L10.0879 14.7071ZM10.6129 15.1571L11.5129 13.7696L11.9254 12.8696L11.3629 13.6946L10.6129 15.1571Z" fill="#428BC1"/>
    <path d="M11.25 15.4196L11.775 13.8821L11.925 12.8696L11.5875 13.8071L11.25 15.4196ZM11.925 15.4946L12.0375 13.8821L11.925 12.8696L11.85 13.8821L11.925 15.4946ZM12.6 15.4196L12.3 13.8071L11.925 12.8696L12.1125 13.8821L12.6 15.4196Z" fill="#428BC1"/>
    <path d="M13.2383 15.1571L12.5258 13.6946L11.9258 12.8696L12.3758 13.8071L13.2383 15.1571ZM13.8008 14.7071L12.7133 13.5071L11.9258 12.8696L12.6008 13.6571L13.8008 14.7071Z" fill="#428BC1"/>
    <path d="M14.2133 14.1823L12.8633 13.2823L11.9258 12.8698L12.7508 13.4698L14.2133 14.1823ZM14.4758 13.5448L12.9383 13.0573L11.9258 12.8698L12.9008 13.2073L14.4758 13.5448ZM14.5508 12.8698L12.9383 12.7573L11.9258 12.8698L12.9383 12.9448L14.5508 12.8698ZM14.4758 12.1948L12.9008 12.5323L11.9258 12.8698L12.9383 12.6823L14.4758 12.1948Z" fill="#428BC1"/>
    <path d="M14.2133 11.5572L12.7508 12.2697L11.9258 12.8697L12.8633 12.4572L14.2133 11.5572ZM13.8008 11.0322L12.6008 12.0822L11.9258 12.8697L12.7133 12.2322L13.8008 11.0322Z" fill="#428BC1"/>
    <path d="M13.2383 10.582L12.3758 11.9695L11.9258 12.8695L12.5258 12.0445L13.2383 10.582Z" fill="#428BC1"/>
    <path d="M12.6383 10.3198L12.1133 11.8573L11.9258 12.8698L12.3008 11.9323L12.6383 10.3198Z" fill="#428BC1"/>
  </g>
  <defs>
    <clipPath id="clip0_122_11086">
      <rect width="24" height="24" fill="white" transform="translate(0 0.869629)"/>
    </clipPath>
  </defs>
</svg>