<svg width="13" height="21" viewBox="0 0 13 21" fill="none" xmlns="http://www.w3.org/2000/svg">
<path d="M3.18755 10.5L11.2709 18.7859C11.3375 18.8526 11.3901 18.9319 11.4257 19.0191C11.4613 19.1063 11.4793 19.1997 11.4785 19.2938C11.4777 19.388 11.4582 19.481 11.4211 19.5676C11.3841 19.6542 11.3301 19.7326 11.2625 19.7983C11.1948 19.8639 11.1148 19.9156 11.027 19.9502C10.9392 19.9848 10.8454 20.0017 10.751 19.9999C10.6566 19.9981 10.5636 19.9776 10.4771 19.9397C10.3907 19.9018 10.3127 19.8472 10.2476 19.779L1.68073 10.9966C1.55106 10.8636 1.47852 10.6855 1.47852 10.5C1.47852 10.3145 1.55106 10.1364 1.68073 10.0034L10.2476 1.221C10.3127 1.15282 10.3907 1.09819 10.4771 1.06028C10.5636 1.02236 10.6566 1.00192 10.751 1.00013C10.8454 0.998337 10.9392 1.01523 11.027 1.04984C11.1148 1.08444 11.1948 1.13607 11.2625 1.20173C11.3301 1.26739 11.3841 1.34578 11.4211 1.43237C11.4582 1.51896 11.4777 1.61202 11.4785 1.70617C11.4793 1.80033 11.4613 1.8937 11.4257 1.98089C11.3901 2.06808 11.3375 2.14735 11.2709 2.21413L3.18755 10.5Z" fill="#020014" fill-opacity="0.5"/>
<path d="M1.46559 11.2064L1.4656 11.2064L10.0315 19.9878C10.1238 20.0841 10.2342 20.1613 10.3564 20.2149C10.4791 20.2688 10.6113 20.2978 10.7453 20.3003C10.8793 20.3029 11.0125 20.2789 11.1372 20.2298C11.2619 20.1806 11.3756 20.1073 11.4718 20.0139C11.5679 19.9206 11.6446 19.8091 11.6974 19.6859C11.7501 19.5628 11.7779 19.4303 11.779 19.2963C11.7801 19.1623 11.7546 19.0295 11.7039 18.9054C11.6534 18.7819 11.579 18.6696 11.485 18.575L3.60741 10.5L11.4838 2.42628C11.4842 2.42585 11.4846 2.42542 11.4851 2.42498C11.579 2.33033 11.6534 2.21806 11.7039 2.09458C11.7546 1.97054 11.7801 1.83767 11.779 1.70367C11.7779 1.56968 11.7502 1.43725 11.6974 1.31406C11.6446 1.19088 11.5679 1.0794 11.4718 0.986067C11.3756 0.892733 11.2619 0.819389 11.1372 0.770241C11.0125 0.72109 10.8793 0.697107 10.7453 0.69965C10.6113 0.702196 10.4791 0.73122 10.3564 0.785072C10.2342 0.838684 10.1238 0.915855 10.0315 1.01219C10.0311 1.01261 10.0307 1.01304 10.0303 1.01346L1.4656 9.79358L1.46559 9.79359C1.28125 9.98258 1.17798 10.236 1.17798 10.5C1.17798 10.764 1.28125 11.0174 1.46559 11.2064Z" stroke="#020014" stroke-opacity="0.5" stroke-width="0.601064"/>
</svg>
