<svg xmlns="http://www.w3.org/2000/svg" width="25" height="25" viewBox="0 0 25 25" fill="none">
  <g clip-path="url(#clip0_1688_1917)">
    <path d="M5.46875 1.75781V23.2422C5.46875 24.5703 7.8125 24.5703 7.8125 23.2422V1.75781C7.8125 0.46875 5.46875 0.46875 5.46875 1.75781Z" fill="#333333"/>
    <path d="M2.57812 16.4062H10.7031C11.6797 16.4062 12.5 15.5078 12.5 14.4531C12.5 13.3984 11.6797 12.5 10.7031 12.5H2.57812C1.60156 12.5 0.78125 13.3984 0.78125 14.4531C0.78125 15.5078 1.60156 16.4062 2.57812 16.4062Z" fill="#6D7275"/>
    <path d="M2.69531 15.4687H10.5859C11.5234 15.4687 12.3438 14.8047 12.3438 13.9844C12.3438 13.1641 11.5625 12.5 10.5859 12.5H2.69531C1.75781 12.5 0.9375 13.1641 0.9375 13.9844C0.9375 14.8047 1.71875 15.4687 2.69531 15.4687Z" fill="#94989B"/>
    <path d="M23.0469 3.90625H15.2344C13.6719 3.90625 13.6719 1.5625 15.2344 1.5625H23.0469C24.6094 1.5625 24.6094 3.90625 23.0469 3.90625ZM22.2656 7.8125H15.2344C13.6719 7.8125 13.6719 5.46875 15.2344 5.46875H22.2656C23.8281 5.46875 23.8281 7.8125 22.2656 7.8125ZM21.4844 11.7188H15.2344C13.6719 11.7188 13.6719 9.375 15.2344 9.375H21.4844C23.0469 9.375 23.0469 11.7188 21.4844 11.7188Z" fill="#5B636B"/>
    <path d="M20.7031 15.625H15.2344C13.6719 15.625 13.6719 13.2812 15.2344 13.2812H20.7031C22.2656 13.2812 22.2656 15.625 20.7031 15.625ZM19.9219 19.5312H15.2344C13.6719 19.5312 13.6719 17.1875 15.2344 17.1875H19.9219C21.4844 17.1875 21.4844 19.5312 19.9219 19.5312ZM19.1406 23.4375H15.2344C13.6719 23.4375 13.6719 21.0938 15.2344 21.0938H19.1406C20.7031 21.0938 20.7031 23.4375 19.1406 23.4375Z" fill="#428BC1"/>
  </g>
  <defs>
    <clipPath id="clip0_1688_1917">
      <rect width="25" height="25" fill="white"/>
    </clipPath>
  </defs>
</svg>