<svg xmlns="http://www.w3.org/2000/svg" width="20" height="21" viewBox="0 0 20 21" fill="none">
  <path d="M1.25 10.5H4.375V19.25H1.25V10.5ZM14.375 19.25H5.625V9.99812L7.52625 7.14625L8.05438 3.44813C8.0982 3.1507 8.24723 2.87885 8.47441 2.68194C8.7016 2.48503 8.99186 2.37613 9.2925 2.375H9.375C9.87213 2.3755 10.3488 2.5732 10.7003 2.92472C11.0518 3.27625 11.2495 3.75287 11.25 4.25V8H16.25C16.9128 8.00083 17.5482 8.26448 18.0169 8.73315C18.4855 9.20181 18.7492 9.83721 18.75 10.5V14.875C18.7487 16.0349 18.2873 17.1469 17.4671 17.9671C16.6469 18.7873 15.5349 19.2487 14.375 19.25Z" fill="#020014" fill-opacity="0.5"/>
</svg>