<svg xmlns="http://www.w3.org/2000/svg" width="20" height="20" viewBox="0 0 20 20" fill="none">
  <path d="M9.99993 1.60693C11.847 1.60693 13.6184 2.34067 14.9244 3.64673C16.2305 4.95278 16.9642 6.72418 16.9642 8.57122C16.9642 11.5141 14.8964 14.7212 10.8142 18.2269C10.5872 18.4219 10.2978 18.529 9.99859 18.5288C9.69936 18.5285 9.41014 18.4209 9.1835 18.2255L8.9135 17.9912C5.01207 14.5769 3.03564 11.4484 3.03564 8.57122C3.03564 6.72418 3.76938 4.95278 5.07544 3.64673C6.38149 2.34067 8.15289 1.60693 9.99993 1.60693ZM9.99993 2.67836C8.43705 2.67836 6.93818 3.29921 5.83305 4.40434C4.72793 5.50947 4.10707 7.00834 4.10707 8.57122C4.10707 11.0726 5.92707 13.9548 9.61707 17.1834L9.8835 17.4141C9.9159 17.4419 9.9572 17.4573 9.99993 17.4573C10.0427 17.4573 10.084 17.4419 10.1164 17.4141C13.9849 14.0912 15.8928 11.1319 15.8928 8.57122C15.8928 7.79736 15.7404 7.03108 15.4442 6.31612C15.1481 5.60117 14.714 4.95154 14.1668 4.40434C13.6196 3.85714 12.97 3.42307 12.255 3.12693C11.5401 2.83079 10.7738 2.67836 9.99993 2.67836ZM9.99993 5.89265C10.7103 5.89265 11.3916 6.17485 11.894 6.67718C12.3963 7.17951 12.6785 7.86082 12.6785 8.57122C12.6785 9.28162 12.3963 9.96293 11.894 10.4653C11.3916 10.9676 10.7103 11.2498 9.99993 11.2498C9.28953 11.2498 8.60822 10.9676 8.10589 10.4653C7.60356 9.96293 7.32136 9.28162 7.32136 8.57122C7.32136 7.86082 7.60356 7.17951 8.10589 6.67718C8.60822 6.17485 9.28953 5.89265 9.99993 5.89265ZM9.99993 6.96408C9.57369 6.96408 9.16491 7.1334 8.86351 7.4348C8.56211 7.7362 8.39279 8.14498 8.39279 8.57122C8.39279 8.99746 8.56211 9.40624 8.86351 9.70764C9.16491 10.009 9.57369 10.1784 9.99993 10.1784C10.4262 10.1784 10.835 10.009 11.1364 9.70764C11.4377 9.40624 11.6071 8.99746 11.6071 8.57122C11.6071 8.14498 11.4377 7.7362 11.1364 7.4348C10.835 7.1334 10.4262 6.96408 9.99993 6.96408Z" fill="black" fill-opacity="0.5"/>
</svg>