<svg xmlns="http://www.w3.org/2000/svg" width="20" height="21" viewBox="0 0 20 21" fill="none">
  <path d="M10.0003 10.0832C9.44779 10.0832 8.91789 9.86368 8.52719 9.47298C8.13649 9.08227 7.91699 8.55237 7.91699 7.99984C7.91699 7.4473 8.13649 6.9174 8.52719 6.5267C8.91789 6.136 9.44779 5.9165 10.0003 5.9165C10.5529 5.9165 11.0828 6.136 11.4735 6.5267C11.8642 6.9174 12.0837 7.4473 12.0837 7.99984C12.0837 8.27342 12.0298 8.54433 11.9251 8.79709C11.8204 9.04986 11.6669 9.27952 11.4735 9.47298C11.28 9.66643 11.0503 9.81989 10.7976 9.92459C10.5448 10.0293 10.2739 10.0832 10.0003 10.0832ZM10.0003 2.1665C8.45323 2.1665 6.9695 2.78109 5.87554 3.87505C4.78157 4.96901 4.16699 6.45274 4.16699 7.99984C4.16699 12.3748 10.0003 18.8332 10.0003 18.8332C10.0003 18.8332 15.8337 12.3748 15.8337 7.99984C15.8337 6.45274 15.2191 4.96901 14.1251 3.87505C13.0312 2.78109 11.5474 2.1665 10.0003 2.1665Z" fill="white"/>
</svg>