<svg width="25" height="26" viewBox="0 0 25 26" fill="none" xmlns="http://www.w3.org/2000/svg">
<path d="M12.4854 0.637207C5.66534 0.637207 0.136719 6.16583 0.136719 12.9858C0.136719 19.8059 5.66534 25.3345 12.4854 25.3345C19.3054 25.3345 24.834 19.8059 24.834 12.9858C24.834 6.16583 19.3054 0.637207 12.4854 0.637207ZM12.4854 6.67624C14.9274 6.67624 16.9144 8.66327 16.9144 11.1053C16.9144 13.5476 14.9274 15.5343 12.4854 15.5343C10.0431 15.5343 8.05631 13.5476 8.05631 11.1053C8.05631 8.66327 10.0431 6.67624 12.4854 6.67624ZM12.4854 23.6449C9.42975 23.6449 6.6889 22.3044 4.81356 20.181C5.68537 18.6031 7.04839 17.3062 8.66908 16.52C9.22037 16.2527 9.86387 16.2571 10.4349 16.5313C11.0779 16.8403 11.7678 16.9967 12.4856 16.9967C13.2032 16.9967 13.8934 16.84 14.5363 16.5313C15.1079 16.2569 15.7514 16.2527 16.3022 16.52C17.9229 17.3059 19.2856 18.6031 20.1574 20.181C18.2818 22.3041 15.541 23.6449 12.4854 23.6449Z" fill="#428BC1"/>
</svg>
