<svg xmlns="http://www.w3.org/2000/svg" width="24" height="24" viewBox="0 0 24 24" fill="none">
  <path d="M11.8802 14.5088H11.9327C13.0577 14.5388 13.9577 15.4538 13.9577 16.5788C13.9577 17.5388 13.3052 18.3413 12.4202 18.5813V19.4213C12.4202 19.7213 12.1802 19.9613 11.8802 19.9613C11.5802 19.9613 11.3402 19.7213 11.3402 19.4213V18.5813C10.8995 18.4628 10.5102 18.2024 10.2323 17.8405C9.95435 17.4785 9.8034 17.0351 9.80273 16.5788C9.80273 16.2788 10.0427 16.0388 10.3427 16.0388C10.6427 16.0388 10.8827 16.2788 10.8827 16.5788C10.8827 17.1338 11.3252 17.5763 11.8727 17.5763C12.4202 17.5763 12.8702 17.1263 12.8702 16.5788C12.8702 16.0313 12.4202 15.5813 11.8727 15.5813H11.8202C11.2807 15.5666 10.7681 15.3422 10.3914 14.9557C10.0147 14.5692 9.80351 14.051 9.80273 13.5113C9.80273 12.5513 10.4552 11.7488 11.3402 11.5088V10.6688C11.3402 10.3688 11.5802 10.1288 11.8802 10.1288C12.1802 10.1288 12.4202 10.3688 12.4202 10.6688V11.5088C13.3052 11.7488 13.9577 12.5513 13.9577 13.5113C13.9577 13.8113 13.7177 14.0513 13.4177 14.0513C13.1177 14.0513 12.8777 13.8113 12.8777 13.5113C12.8777 12.9638 12.4277 12.5138 11.8802 12.5138C11.3327 12.5138 10.8827 12.9638 10.8827 13.5113C10.8827 14.0588 11.3327 14.5088 11.8802 14.5088Z" fill="#020014" fill-opacity="0.4"/>
  <path d="M7.899 3.82563L9.9885 6.27063L9.76275 6.52263C5.46225 7.48713 2.25 11.3279 2.25 15.9194C2.25 19.9559 5.526 23.2319 9.5625 23.2319H14.19C18.2265 23.2319 21.5025 19.9566 21.5025 15.9201C21.51 11.3279 18.2977 7.48713 13.9972 6.52263C14.0147 6.36414 13.9861 6.20398 13.9147 6.06138L15.6922 4.02663L15.807 3.84963C15.941 3.55737 15.9753 3.22919 15.9046 2.91556C15.8338 2.60193 15.6621 2.32021 15.4156 2.11373C15.1692 1.90725 14.8617 1.78745 14.5405 1.77276C14.2194 1.75806 13.9023 1.84927 13.638 2.03238L13.0057 1.28238C12.8639 1.12366 12.6902 0.996616 12.496 0.909514C12.3018 0.822412 12.0914 0.777211 11.8786 0.776858C11.6657 0.776504 11.4552 0.821005 11.2607 0.90746C11.0662 0.993916 10.8921 1.12039 10.7497 1.27863L10.0875 2.01813C9.82391 1.83122 9.50608 1.73636 9.18317 1.74824C8.86025 1.76012 8.55025 1.87806 8.3011 2.08383C8.05196 2.2896 7.87755 2.57173 7.80487 2.88659C7.73218 3.20144 7.76527 3.53147 7.899 3.82563ZM10.7483 4.86438L9.47625 3.39438C9.77176 3.53677 10.1061 3.57721 10.4271 3.50935C10.748 3.4415 11.0374 3.26919 11.25 3.01938L11.85 2.24088L12.516 3.02988C12.7237 3.27136 13.0038 3.43928 13.3146 3.50862C13.6255 3.57795 13.9504 3.54498 14.241 3.41463L12.975 4.86438H10.7483ZM3.75 15.9194C3.75 11.4284 7.389 7.78938 11.88 7.78938C16.371 7.78938 20.01 11.4284 20.0025 15.9179V15.9194C20.0019 17.4608 19.3893 18.9389 18.2994 20.0288C17.2095 21.1187 15.7314 21.7313 14.19 21.7319H9.5625C8.02111 21.7313 6.54303 21.1187 5.4531 20.0288C4.36317 18.9389 3.7506 17.4608 3.75 15.9194Z" fill="#020014" fill-opacity="0.4"/>
</svg>