<svg width="25" height="25" viewBox="0 0 25 25" fill="none" xmlns="http://www.w3.org/2000/svg">
<g clip-path="url(#clip0_2_6027)">
<path d="M10.0908 11.3338H1.37899C0.694054 11.3338 0.136719 10.7765 0.136719 10.0913V1.37948C0.136719 0.694542 0.694054 0.137207 1.37899 0.137207H10.0908C10.776 0.137207 11.3331 0.694542 11.3331 1.37948V10.0913C11.3334 10.7765 10.776 11.3338 10.0908 11.3338ZM1.37899 0.686035C0.996732 0.686035 0.685547 0.997221 0.685547 1.37948V10.0913C0.685547 10.4738 0.996732 10.7847 1.37899 10.7847H10.0908C10.4733 10.7847 10.7843 10.4736 10.7843 10.0913V1.37948C10.7845 0.997221 10.4733 0.686035 10.0908 0.686035H1.37899Z" fill="#000" fill-opacity="1"/>
<path d="M23.5908 11.3338H14.879C14.1941 11.3338 13.6367 10.7765 13.6367 10.0916V1.37948C13.6364 0.694542 14.1938 0.137207 14.879 0.137207H23.5908C24.2758 0.137207 24.8331 0.694542 24.8331 1.37948V10.0913C24.8331 10.7765 24.2758 11.3338 23.5908 11.3338ZM14.879 0.686035C14.4965 0.686035 14.1855 0.997221 14.1855 1.37948V10.0913C14.1855 10.4738 14.4967 10.7847 14.879 10.7847H23.5908C23.9733 10.7847 24.2843 10.4736 24.2843 10.0913V1.37948C24.2843 0.997221 23.9731 0.686035 23.5908 0.686035H14.879Z" fill="#000" fill-opacity="1"/>
<path d="M10.0908 24.8345H1.37899C0.694054 24.8345 0.136719 24.2772 0.136719 23.5923V14.8805C0.136719 14.1955 0.694054 13.6382 1.37899 13.6382H10.0908C10.776 13.6382 11.3331 14.1955 11.3331 14.8805V23.5923C11.3334 24.2772 10.776 24.8345 10.0908 24.8345ZM1.37899 14.1867C0.996732 14.1867 0.685547 14.4979 0.685547 14.8805V23.5923C0.685547 23.9745 0.996732 24.2857 1.37899 24.2857H10.0908C10.4733 24.2857 10.7843 23.9745 10.7843 23.5923V14.8805C10.7843 14.4979 10.4731 14.187 10.0908 14.187L1.37899 14.1867Z" fill="#000" fill-opacity="1"/>
<path d="M23.5908 24.8345H14.879C14.1941 24.8345 13.6367 24.2772 13.6367 23.5923V14.8805C13.6367 14.1955 14.1941 13.6382 14.879 13.6382H23.5908C24.2758 13.6382 24.8331 14.1955 24.8331 14.8805V23.5923C24.8331 24.2772 24.2758 24.8345 23.5908 24.8345ZM14.879 14.1867C14.4965 14.1867 14.1855 14.4979 14.1855 14.8802V23.592C14.1855 23.9745 14.4967 24.2854 14.879 24.2854H23.5908C23.9731 24.2857 24.2843 23.9745 24.2843 23.5923V14.8805C24.2843 14.4979 23.9731 14.187 23.5908 14.187L14.879 14.1867Z" fill="#000" fill-opacity="1"/>
</g>
<defs>
<clipPath id="clip0_2_6027">
<rect width="25" height="25" fill="white"/>
</clipPath>
</defs>
</svg>
