<svg width="30" height="30" viewBox="0 0 30 30" fill="none" xmlns="http://www.w3.org/2000/svg">
<g clip-path="url(#clip0_2_6018)">
<path d="M9.81543 17.0405C9.71302 17.0405 9.61456 16.9928 9.551 16.9075L7.57852 14.2514V16.7112C7.57852 16.8933 7.43099 17.0405 7.24922 17.0405C7.06745 17.0405 6.91992 16.8933 6.91992 16.7112V13.2556C6.91992 13.1136 7.01081 12.9875 7.14582 12.9431C7.27984 12.8989 7.42869 12.9454 7.51364 13.0593L9.48613 15.7154V13.2556C9.48613 13.0738 9.63366 12.9263 9.81543 12.9263C9.9972 12.9263 10.1447 13.0738 10.1447 13.2556V16.7112C10.1447 16.8535 10.0538 16.9793 9.91883 17.0237C9.88491 17.0349 9.85001 17.0405 9.81543 17.0405Z" fill="#000" fill-opacity="1"/>
<path d="M13.3887 15.3127C13.5704 15.3127 13.718 15.1652 13.718 14.9834C13.718 14.8016 13.5704 14.6541 13.3887 14.6541H11.975V13.5849H13.3887C13.5704 13.5849 13.718 13.4373 13.718 13.2556C13.718 13.0738 13.5704 12.9263 13.3887 12.9263H11.6457C11.4639 12.9263 11.3164 13.0738 11.3164 13.2556V16.7112C11.3164 16.8933 11.4639 17.0405 11.6457 17.0405H13.3887C13.5704 17.0405 13.718 16.8933 13.718 16.7112C13.718 16.5291 13.5704 16.3819 13.3887 16.3819H11.975V15.3127H13.3887Z" fill="#000" fill-opacity="1"/>
<path d="M18.0894 17.0404C17.9478 17.0404 17.8213 16.9498 17.7765 16.8142L16.95 14.3069L16.1238 16.8142C16.0774 16.9541 15.9545 17.049 15.7961 17.0401C15.6489 17.0335 15.5238 16.9298 15.4902 16.7862L14.6844 13.3302C14.6433 13.153 14.7529 12.9759 14.9304 12.9347C15.1072 12.8929 15.2847 13.0035 15.3259 13.1807L15.8656 15.4943L16.6375 13.1524C16.6823 13.0174 16.8084 12.9262 16.9503 12.9262C17.0922 12.9262 17.2184 13.0174 17.2632 13.1524L18.0354 15.4947L18.5751 13.1807C18.6162 13.0035 18.7911 12.8926 18.9706 12.9347C19.1474 12.9759 19.2577 13.153 19.2162 13.3302L18.4104 16.7862C18.3768 16.9298 18.252 17.0335 18.1045 17.0401C18.0992 17.0404 18.0943 17.0404 18.0894 17.0404Z" fill="#000" fill-opacity="1"/>
<path d="M21.5228 17.0403H20.2336C20.0515 17.0403 19.9043 16.8932 19.9043 16.711C19.9043 16.5289 20.0515 16.3818 20.2336 16.3818H21.5228C21.8178 16.3818 22.0576 16.1417 22.0576 15.8473C22.0576 15.5523 21.8175 15.3125 21.5228 15.3125H21.0977C20.4397 15.3125 19.9043 14.7774 19.9043 14.1192C19.9043 13.4609 20.4397 12.9258 21.0977 12.9258H22.0931C22.2752 12.9258 22.4224 13.0733 22.4224 13.2551C22.4224 13.4369 22.2752 13.5844 22.0931 13.5844H21.0977C20.8026 13.5844 20.5629 13.8244 20.5629 14.1192C20.5629 14.4139 20.8029 14.6539 21.0977 14.6539H21.5228C22.1807 14.6539 22.7162 15.189 22.7162 15.8473C22.7162 16.5052 22.1807 17.0403 21.5228 17.0403Z" fill="#000" fill-opacity="1"/>
<path d="M28.7177 10.8341C26.903 4.81913 21.2871 0.635742 14.9824 0.635742C8.6777 0.635742 3.06188 4.81913 1.24712 10.8341C0.6287 10.9714 0.164062 11.5223 0.164062 12.1816V17.7849C0.164062 18.4441 0.6287 18.995 1.24712 19.1323C3.06188 25.1473 8.6777 29.3307 14.9824 29.3307C21.2871 29.3307 26.903 25.1473 28.7177 19.1323C29.3361 18.995 29.8008 18.4441 29.8008 17.7849V12.1816C29.8008 11.5223 29.3361 10.9714 28.7177 10.8341ZM1.94655 10.7995C2.41514 9.3384 3.1195 7.99421 4.01091 6.80545H8.53973C8.09419 8.00244 7.74349 9.344 7.50508 10.7995H1.94655ZM9.25628 6.80545H14.6531V10.7995H8.17223C8.41921 9.3384 8.78901 7.99421 9.25628 6.80545ZM15.3117 1.31014C17.3201 1.48994 19.1668 3.30469 20.4323 6.14685H15.3117V1.31014ZM14.6531 6.14685H9.53256C10.7984 3.30469 12.6454 1.48994 14.6531 1.31014V6.14685ZM15.3117 6.80545H20.7089C21.1758 7.99454 21.5456 9.33873 21.7926 10.7995H15.3117V6.80545ZM22.4594 10.7995C22.221 9.35025 21.8631 8.00738 21.4073 6.80545H25.9539C26.8453 7.99421 27.5494 9.33873 28.018 10.7995H22.4594ZM25.4254 6.14685H21.1409C20.2663 4.10126 19.0993 2.51767 17.7716 1.58412C20.7741 2.21472 23.4664 3.84408 25.4254 6.14685ZM12.1268 1.59926C10.8083 2.53019 9.66197 4.10027 8.80218 6.14653H4.5391C6.4836 3.86121 9.1509 2.24008 12.1268 1.59926ZM28.018 19.1669C27.5494 20.628 26.8453 21.9722 25.9539 23.1613H21.4251C21.8707 21.9643 22.2214 20.6227 22.4598 19.1669H28.018ZM20.7089 23.1613H15.3117V19.1669H21.7926C21.5456 20.628 21.1758 21.9722 20.7089 23.1613ZM14.6531 28.6563C12.6454 28.4765 10.7987 26.6617 9.53256 23.8199H14.6531V28.6563ZM15.3117 23.8199H20.4323C19.1665 26.6617 17.3194 28.4765 15.3117 28.6563V23.8199ZM14.6531 23.1613H9.25628C8.78901 21.9722 8.41954 20.628 8.17223 19.1669H14.6531V23.1613ZM7.50475 19.1669C7.74349 20.6227 8.09419 21.9643 8.5394 23.1613H4.01091C3.1195 21.9722 2.41547 20.628 1.94655 19.1669H7.50475ZM4.5391 23.8199H8.80185C9.66164 25.8661 10.8079 27.4362 12.1264 28.3671C9.1509 27.7263 6.4836 26.1055 4.5391 23.8199ZM17.8381 28.3671C19.1566 27.4362 20.3029 25.8661 21.1627 23.8199H25.4254C23.4809 26.1055 20.8139 27.7263 17.8381 28.3671ZM29.1422 17.7849C29.1422 18.184 28.8178 18.5083 28.4187 18.5083H1.54612C1.14701 18.5083 0.822656 18.184 0.822656 17.7849V12.1816C0.822656 11.7828 1.14701 11.4581 1.54612 11.4581H28.4187C28.8178 11.4581 29.1422 11.7828 29.1422 12.1816V17.7849Z" fill="#000" fill-opacity="1"/>
</g>
<defs>
<clipPath id="clip0_2_6018">
<rect width="30" height="30" fill="white"/>
</clipPath>
</defs>
</svg>
