<svg width="20" height="15" viewBox="0 0 20 15" fill="none" xmlns="http://www.w3.org/2000/svg">
<path d="M1.29185 6.59473C0.739569 6.59346 0.290825 7.04014 0.289553 7.59242C0.288282 8.14471 0.734966 8.59345 1.28725 8.59472L1.29185 6.59473ZM18.995 8.34259C19.3864 7.95296 19.3879 7.3198 18.9982 6.92838L12.6489 0.549787C12.2593 0.158365 11.6262 0.156907 11.2347 0.546532C10.8433 0.936156 10.8419 1.56932 11.2315 1.96074L16.8753 7.6306L11.2054 13.2744C10.814 13.664 10.8126 14.2972 11.2022 14.6886C11.5918 15.0801 12.225 15.0815 12.6164 14.6919L18.995 8.34259ZM1.28725 8.59472L18.2872 8.63385L18.2918 6.63386L1.29185 6.59473L1.28725 8.59472Z" fill="white"/>
</svg>
