<svg width="13" height="21" viewBox="0 0 13 21" fill="none" xmlns="http://www.w3.org/2000/svg">
<path d="M11.5344 9.79359L11.5344 9.79358L2.96852 1.0122C2.87622 0.915863 2.7658 0.838688 2.64361 0.785072C2.52088 0.731223 2.38869 0.702196 2.25469 0.699651C2.12069 0.697107 1.98749 0.721093 1.86281 0.770241C1.73812 0.81939 1.62439 0.892735 1.52822 0.986069C1.43206 1.0794 1.35536 1.19088 1.3026 1.31406C1.24985 1.43725 1.2221 1.56968 1.22099 1.70367C1.21987 1.83767 1.24541 1.97054 1.2961 2.09458C1.34658 2.21809 1.42098 2.33038 1.51501 2.42505L9.39259 10.5L1.51624 18.5737C1.51581 18.5742 1.51538 18.5746 1.51495 18.575C1.42095 18.6697 1.34657 18.7819 1.2961 18.9054C1.24541 19.0295 1.21987 19.1623 1.22099 19.2963C1.2221 19.4303 1.24985 19.5628 1.3026 19.6859C1.35536 19.8091 1.43205 19.9206 1.52822 20.0139C1.62439 20.1073 1.73812 20.1806 1.8628 20.2298C1.98749 20.2789 2.12069 20.3029 2.25468 20.3004C2.38869 20.2978 2.52088 20.2688 2.64361 20.2149C2.76579 20.1613 2.87622 20.0841 2.96852 19.9878C2.96892 19.9874 2.96933 19.987 2.96973 19.9865L11.5344 11.2064L11.5344 11.2064C11.7187 11.0174 11.822 10.764 11.822 10.5C11.822 10.236 11.7187 9.98258 11.5344 9.79359Z" fill="#1268F5" stroke="#1268F5" stroke-width="0.601064"/>
</svg>
