<svg width="29" height="31" viewBox="0 0 29 31" fill="none" xmlns="http://www.w3.org/2000/svg">
<g clip-path="url(#clip0_5073_1716)">
<path fill-rule="evenodd" clip-rule="evenodd" d="M29 1.95484L29.0489 0.449219L27.5935 0.499844L25.2209 0.586094C22.3455 0.688549 19.5276 1.44852 16.9698 2.81141C14.4119 4.1743 12.1776 6.10629 10.4273 8.46859H6.64644C5.48041 8.46855 4.35127 8.8914 3.45548 9.66358C2.55968 10.4358 1.95393 11.5084 1.74362 12.6948L0.293625 20.8698L0 22.5311H4.87562L7.70312 25.4561V30.4998L9.30719 30.1961L17.2097 28.6961C18.3569 28.4789 19.3942 27.8525 20.141 26.9257C20.8878 25.999 21.2968 24.8307 21.2969 23.6242V19.713C23.5804 17.9023 25.448 15.591 26.7655 12.9449C28.0829 10.2989 28.8176 7.38386 28.9166 4.40922L29 1.95297V1.95484ZM16.9432 19.2273L9.33075 23.1648L7.09231 20.8473L10.8986 12.9723C12.2472 10.1827 14.2981 7.8209 16.8352 6.13571C19.3724 4.45052 22.3019 3.50431 25.3152 3.39672L26.2323 3.36297L26.1997 4.31172C26.096 7.42925 25.1815 10.4602 23.5524 13.0851C21.9234 15.7101 19.6402 17.832 16.9432 19.2273ZM10.4219 27.1248V25.7448L18.1576 21.7417L18.5781 21.5242V23.6242C18.5783 24.1728 18.3925 24.704 18.053 25.1254C17.7135 25.5468 17.2419 25.8317 16.7203 25.9305L10.4219 27.1248ZM4.5965 19.7186L8.46619 11.7161L8.67462 11.2811H6.64462C6.11466 11.2813 5.60156 11.4738 5.19457 11.8249C4.78758 12.1761 4.51245 12.6637 4.41706 13.203L3.2625 19.7186H4.5965ZM19.0312 11.7498C19.0312 11.9985 18.9358 12.2369 18.7658 12.4128C18.5959 12.5886 18.3654 12.6873 18.125 12.6873C17.8846 12.6873 17.6541 12.5886 17.4842 12.4128C17.3142 12.2369 17.2187 11.9985 17.2187 11.7498C17.2187 11.5012 17.3142 11.2627 17.4842 11.0869C17.6541 10.9111 17.8846 10.8123 18.125 10.8123C18.3654 10.8123 18.5959 10.9111 18.7658 11.0869C18.9358 11.2627 19.0312 11.5012 19.0312 11.7498ZM21.75 11.7498C21.75 12.7444 21.3681 13.6982 20.6883 14.4015C20.0084 15.1048 19.0864 15.4998 18.125 15.4998C17.1636 15.4998 16.2416 15.1048 15.5617 14.4015C14.8819 13.6982 14.5 12.7444 14.5 11.7498C14.5 10.7553 14.8819 9.80145 15.5617 9.09819C16.2416 8.39493 17.1636 7.99984 18.125 7.99984C19.0864 7.99984 20.0084 8.39493 20.6883 9.09819C21.3681 9.80145 21.75 10.7553 21.75 11.7498Z" fill="white"/>
</g>
<defs>
<clipPath id="clip0_5073_1716">
<rect width="29" height="30" fill="white" transform="translate(0 0.5)"/>
</clipPath>
</defs>
</svg>
