<svg xmlns="http://www.w3.org/2000/svg" width="25" height="25" viewBox="0 0 25 25" fill="none">
  <path d="M12.5113 3.10305L12.4993 3.09652L12.4874 3.10305L1.02904 9.35305L0.988791 9.37501L1.02905 9.39695L5.18268 11.6607V17.8958V17.9107L5.19571 17.9178L12.4874 21.8969L12.4993 21.9035L12.5113 21.8969L19.803 17.9178L19.816 17.9107V17.8958V11.6607L21.8493 10.5525V17.7083V17.7333H21.8743H23.9577H23.9827V17.7083V9.375V9.36016L23.9697 9.35305L12.5113 3.10305ZM7.31602 16.6518V12.8234L12.4874 15.6469L12.4993 15.6535L12.5113 15.6469L17.6827 12.8234V16.6518L12.4993 19.4715L7.31602 16.6518ZM12.4993 5.52848L19.5513 9.375L12.4993 13.2215L5.44739 9.375L12.4993 5.52848Z" fill="#428BC1" stroke="#428BC1" stroke-width="0.05"/>
</svg>