<svg width="17" height="17" viewBox="0 0 17 17" fill="none" xmlns="http://www.w3.org/2000/svg">
<path d="M2.02072 11.5C3.17467 12.6556 4.71136 13.3493 6.3413 13.4505C7.97125 13.5516 9.58192 13.0532 10.8699 12.0492L15.3016 16.4809C15.4587 16.6327 15.6692 16.7167 15.8877 16.7148C16.1062 16.7129 16.3152 16.6252 16.4697 16.4707C16.6242 16.3162 16.7119 16.1072 16.7138 15.8887C16.7157 15.6702 16.6317 15.4597 16.4799 15.3025L12.0482 10.8709C13.0968 9.52516 13.5926 7.83015 13.4344 6.1315C13.2762 4.43285 12.476 2.85852 11.197 1.72958C9.91793 0.600637 8.25642 0.0021199 6.55127 0.0560913C4.84613 0.110063 3.22579 0.812457 2.02072 2.02003C1.39805 2.64238 0.904105 3.38132 0.567101 4.19462C0.230097 5.00793 0.0566406 5.87966 0.0566406 6.76003C0.0566406 7.64039 0.230097 8.51213 0.567101 9.32543C0.904105 10.1387 1.39805 10.8777 2.02072 11.5ZM3.19905 3.20003C4.02286 2.37623 5.10682 1.86356 6.26624 1.74936C7.42566 1.63515 8.58882 1.92648 9.55752 2.57371C10.5262 3.22094 11.2406 4.18402 11.5788 5.29887C11.9171 6.41372 11.8583 7.61136 11.4125 8.68774C10.9668 9.76412 10.1616 10.6526 9.13416 11.2019C8.10674 11.7512 6.92066 11.9273 5.77799 11.7001C4.63532 11.473 3.60676 10.8566 2.86755 9.95614C2.12834 9.05566 1.72423 7.92672 1.72405 6.76169C1.72177 6.09967 1.85097 5.44379 2.10418 4.83209C2.35738 4.2204 2.72954 3.66508 3.19905 3.19836V3.20003Z" fill="#A3A3A3"/>
</svg>
