<svg width="25" height="25" viewBox="0 0 25 25" fill="none" xmlns="http://www.w3.org/2000/svg">
<path d="M21.8752 21.8752L17.3513 17.3513M17.3513 17.3513C18.1251 16.5774 18.7389 15.6587 19.1577 14.6477C19.5765 13.6366 19.7921 12.5529 19.7921 11.4585C19.7921 10.3642 19.5765 9.28051 19.1577 8.26944C18.7389 7.25836 18.1251 6.33968 17.3513 5.56584C16.5774 4.792 15.6587 4.17815 14.6477 3.75935C13.6366 3.34055 12.5529 3.125 11.4585 3.125C10.3642 3.125 9.28051 3.34055 8.26944 3.75935C7.25836 4.17815 6.33968 4.792 5.56584 5.56584C4.003 7.12868 3.125 9.24835 3.125 11.4585C3.125 13.6687 4.003 15.7884 5.56584 17.3513C7.12868 18.9141 9.24835 19.7921 11.4585 19.7921C13.6687 19.7921 15.7884 18.9141 17.3513 17.3513Z" stroke="white" stroke-width="1.5" stroke-linecap="round" stroke-linejoin="round"/>
</svg>
