<svg xmlns="http://www.w3.org/2000/svg" width="18" height="19" viewBox="0 0 18 19" fill="none">
  <path d="M5.89608 7.08521L6.15621 7.04741L6.27255 6.81169L8.29075 2.72235L7.84239 2.50106L8.29075 2.72235C8.29882 2.70601 8.30697 2.69958 8.31308 2.69596C8.32096 2.69128 8.33262 2.6875 8.3468 2.6875C8.36098 2.6875 8.37264 2.69128 8.38053 2.69596C8.38663 2.69958 8.39479 2.70601 8.40285 2.72235L8.40285 2.72235L10.4211 6.81169L10.5374 7.04741L10.7976 7.08521L15.3104 7.74097L15.3823 7.24617L15.3104 7.74097C15.3284 7.74359 15.337 7.74936 15.3424 7.75405C15.3493 7.76011 15.3565 7.77003 15.3609 7.78351C15.3652 7.797 15.3652 7.80925 15.3632 7.81818C15.3617 7.82509 15.3581 7.83483 15.345 7.84755L15.345 7.84757L12.0795 11.0307L11.8912 11.2142L11.9357 11.4733L12.7065 15.9679L12.7065 15.968C12.7096 15.9859 12.7068 15.9958 12.704 16.0023C12.7004 16.0108 12.6932 16.0207 12.6817 16.029C12.6702 16.0373 12.6586 16.0411 12.6494 16.042C12.6424 16.0426 12.632 16.0422 12.6159 16.0338C12.6159 16.0338 12.6159 16.0338 12.6159 16.0338L8.57947 13.9117L8.3468 13.7894L8.11413 13.9117L4.07776 16.0338C4.07774 16.0338 4.07772 16.0338 4.07771 16.0338C4.06162 16.0422 4.05126 16.0426 4.04419 16.042C4.03504 16.0411 4.02338 16.0373 4.01189 16.029C4.00041 16.0206 3.9932 16.0107 3.98957 16.0023C3.98676 15.9958 3.98394 15.9858 3.98702 15.9679L3.49422 15.8834L3.98702 15.9679L4.75791 11.4733L4.80235 11.2142L4.61412 11.0307L1.34858 7.84757C1.33553 7.83485 1.33194 7.82511 1.33039 7.81819C1.32837 7.80924 1.32838 7.79698 1.33276 7.7835C1.33714 7.77001 1.34434 7.7601 1.35123 7.75404C1.35655 7.74936 1.36518 7.74359 1.38321 7.74097L5.89608 7.08521ZM7.84676 13.1563L7.84675 13.6563H8.34676C8.35704 13.6563 8.36693 13.6587 8.37585 13.6634L8.37588 13.6634L11.6653 15.3927L12.562 15.8642L12.3907 14.8657L11.7625 11.203C11.7625 11.203 11.7625 11.2029 11.7625 11.2029C11.7591 11.1825 11.7658 11.1619 11.7804 11.1477L11.7805 11.1476L14.4416 8.55362L15.167 7.84646L14.1645 7.70077L10.4869 7.16639C10.4869 7.16639 10.4869 7.16639 10.4869 7.16639C10.4665 7.16342 10.449 7.15063 10.4399 7.1322L9.99148 7.35348L10.4399 7.1322L8.79517 3.79972L7.8468 4.021L7.84676 13.1563Z" fill="#F2A742" stroke="#C45500"/>
</svg>