<svg width="106" height="18" viewBox="0 0 106 18" fill="none" xmlns="http://www.w3.org/2000/svg">
<path d="M16.0097 7.4769L16 7.52544V7.52844L15.9817 7.53761L15.9258 7.59206L12.8508 10.5921L12.6619 10.7764L12.7075 11.0364L13.4571 15.3088C13.4824 15.4655 13.392 15.5857 13.2861 15.625H13.2859H13.2857H13.2854H13.2852H13.285H13.2848H13.2845H13.2843H13.2841H13.2839H13.2836H13.2834H13.2832H13.283H13.2827H13.2825H13.2823H13.2821H13.2818H13.2816H13.2814H13.2812H13.281H13.2807H13.2805H13.2803H13.2801H13.2798H13.2796H13.2794H13.2792H13.279H13.2787H13.2785H13.2783H13.2781H13.2779H13.2776H13.2774H13.2772H13.277H13.2768H13.2765H13.2763H13.2761H13.2759H13.2757H13.2754H13.2752H13.275H13.2748H13.2746H13.2743H13.2741H13.2739H13.2737H13.2735H13.2732H13.273H13.2728H13.2726H13.2724H13.2721H13.2719H13.2717H13.2715H13.2713H13.271H13.2708H13.2706H13.2704H13.2702H13.2699H13.2697H13.2695H13.2693H13.269H13.2688H13.2686H13.2684H13.2682H13.2679H13.2677H13.2675H13.2673H13.267H13.2668H13.2666H13.2664H13.2661H13.2659H13.2657H13.2655H13.2652H13.265H13.2648H13.2646H13.2643H13.2641H13.2639H13.2636H13.2634H13.2632H13.263H13.2627H13.2625H13.2623H13.262H13.2618H13.2616H13.2613H13.2611H13.2609H13.2606H13.2604H13.2602H13.2599H13.2597H13.2595H13.2592H13.259H13.2588H13.2585H13.2583H13.258H13.2578H13.2576H13.2573H13.2571H13.2568H13.2566H13.2564H13.2561H13.2559H13.2556H13.2554H13.2551H13.2549H13.2547H13.2544H13.2542H13.2539H13.2537H13.2534H13.2532H13.2529H13.2527H13.2524H13.2522H13.2519H13.2517H13.2514H13.2511H13.2509H13.2506H13.2504H13.2501H13.2499H13.2496H13.2493H13.2491H13.2488H13.2486H13.2483H13.248H13.2478H13.2475H13.2472H13.247H13.2467H13.2464H13.2462H13.2459H13.2456H13.2454H13.2451H13.2448H13.2445H13.2443H13.244H13.2437H13.2434H13.2431H13.2429H13.2426H13.2423H13.242H13.2417H13.2415H13.2412H13.2409H13.2406H13.2403H13.24H13.2397H13.2394H13.2392H13.2389H13.2386H13.2383H13.238H13.2377H13.2374H13.2371H13.2368H13.2365H13.2362H13.2359H13.2356H13.2353H13.235H13.2347H13.2343H13.234H13.2337H13.2334H13.2331H13.2328H13.2325H13.2322H13.2318H13.2315H13.2312H13.2309H13.2306H13.2302H13.2299H13.2296H13.2293H13.2289H13.2286H13.2283H13.2279H13.2276H13.2273H13.2269H13.2266H13.2263H13.2259H13.2256H13.2252H13.2249H13.2246H13.2242H13.2239H13.2235H13.2232H13.2228H13.2225H13.2221H13.2218H13.2214H13.221H13.2207H13.2203H13.22H13.2196H13.2192H13.2189H13.2185H13.2181H13.2178H13.2174H13.217H13.2167H13.2163H13.2159H13.2155H13.2151H13.2148H13.2144H13.214H13.2136H13.2132H13.2128H13.2124H13.212H13.2117H13.2113H13.2109H13.2105H13.2101H13.2097H13.2093H13.2089H13.2085H13.208H13.2076H13.2072H13.2068H13.2064H13.206H13.2056H13.2052H13.2047H13.2043H13.2039H13.2035H13.203H13.2026H13.2022H13.2017H13.2013H13.2009H13.2004H13.2C13.161 15.625 13.1317 15.6249 13.1048 15.624C13.0985 15.6238 13.0929 15.6236 13.0878 15.6233L13.0589 15.6081L9.23394 13.5831L9 13.4592L8.76606 13.5831L4.94106 15.6081L4.92923 15.6143L4.91775 15.6212C4.8546 15.6591 4.79439 15.6631 4.73742 15.646C4.68076 15.629 4.61646 15.5868 4.56581 15.5117C4.55638 15.486 4.55122 15.4472 4.55019 15.3424L5.29248 11.1114L5.33809 10.8514L5.14916 10.6671L2.07685 7.66969C1.97382 7.56521 1.97439 7.43268 2.07855 7.32851L2.13593 7.27113L2.14605 7.25089C2.15416 7.25032 2.16377 7.24995 2.175 7.24995H2.20992L2.24449 7.2451L6.51949 6.6451L6.78462 6.60789L6.90063 6.3666L8.76371 2.49139C8.81468 2.41431 8.87997 2.3711 8.93742 2.35387C8.99439 2.33678 9.0546 2.34081 9.11775 2.3787L9.13422 2.38858L9.15139 2.39717C9.18474 2.41384 9.19684 2.42303 9.19958 2.42537C9.20192 2.42811 9.21111 2.4402 9.22779 2.47356L11.1778 6.37356L11.2953 6.60858L11.5555 6.6451L15.8305 7.2451L15.8651 7.24995H15.8948C15.9001 7.25171 15.9261 7.26184 15.9603 7.31017C15.9814 7.34007 15.997 7.37453 16.0052 7.4077C16.0134 7.44089 16.0122 7.46442 16.0097 7.4769Z" fill="#F2A742" stroke="#C45500"/>
<path d="M38.0097 7.4769L38 7.52544V7.52844L37.9817 7.53761L37.9258 7.59206L34.8508 10.5921L34.6619 10.7764L34.7075 11.0364L35.4571 15.3088C35.4824 15.4655 35.392 15.5857 35.2861 15.625H35.2859H35.2857H35.2854H35.2852H35.285H35.2848H35.2845H35.2843H35.2841H35.2839H35.2836H35.2834H35.2832H35.283H35.2827H35.2825H35.2823H35.2821H35.2818H35.2816H35.2814H35.2812H35.281H35.2807H35.2805H35.2803H35.2801H35.2798H35.2796H35.2794H35.2792H35.279H35.2787H35.2785H35.2783H35.2781H35.2779H35.2776H35.2774H35.2772H35.277H35.2768H35.2765H35.2763H35.2761H35.2759H35.2757H35.2754H35.2752H35.275H35.2748H35.2746H35.2743H35.2741H35.2739H35.2737H35.2735H35.2732H35.273H35.2728H35.2726H35.2724H35.2721H35.2719H35.2717H35.2715H35.2713H35.271H35.2708H35.2706H35.2704H35.2702H35.2699H35.2697H35.2695H35.2693H35.269H35.2688H35.2686H35.2684H35.2682H35.2679H35.2677H35.2675H35.2673H35.267H35.2668H35.2666H35.2664H35.2661H35.2659H35.2657H35.2655H35.2652H35.265H35.2648H35.2646H35.2643H35.2641H35.2639H35.2636H35.2634H35.2632H35.263H35.2627H35.2625H35.2623H35.262H35.2618H35.2616H35.2613H35.2611H35.2609H35.2606H35.2604H35.2602H35.2599H35.2597H35.2595H35.2592H35.259H35.2588H35.2585H35.2583H35.258H35.2578H35.2576H35.2573H35.2571H35.2568H35.2566H35.2564H35.2561H35.2559H35.2556H35.2554H35.2551H35.2549H35.2547H35.2544H35.2542H35.2539H35.2537H35.2534H35.2532H35.2529H35.2527H35.2524H35.2522H35.2519H35.2517H35.2514H35.2511H35.2509H35.2506H35.2504H35.2501H35.2499H35.2496H35.2493H35.2491H35.2488H35.2486H35.2483H35.248H35.2478H35.2475H35.2472H35.247H35.2467H35.2464H35.2462H35.2459H35.2456H35.2454H35.2451H35.2448H35.2445H35.2443H35.244H35.2437H35.2434H35.2431H35.2429H35.2426H35.2423H35.242H35.2417H35.2415H35.2412H35.2409H35.2406H35.2403H35.24H35.2397H35.2394H35.2392H35.2389H35.2386H35.2383H35.238H35.2377H35.2374H35.2371H35.2368H35.2365H35.2362H35.2359H35.2356H35.2353H35.235H35.2347H35.2343H35.234H35.2337H35.2334H35.2331H35.2328H35.2325H35.2322H35.2318H35.2315H35.2312H35.2309H35.2306H35.2302H35.2299H35.2296H35.2293H35.2289H35.2286H35.2283H35.2279H35.2276H35.2273H35.2269H35.2266H35.2263H35.2259H35.2256H35.2252H35.2249H35.2246H35.2242H35.2239H35.2235H35.2232H35.2228H35.2225H35.2221H35.2218H35.2214H35.221H35.2207H35.2203H35.22H35.2196H35.2192H35.2189H35.2185H35.2181H35.2178H35.2174H35.217H35.2167H35.2163H35.2159H35.2155H35.2151H35.2148H35.2144H35.214H35.2136H35.2132H35.2128H35.2124H35.212H35.2117H35.2113H35.2109H35.2105H35.2101H35.2097H35.2093H35.2089H35.2085H35.208H35.2076H35.2072H35.2068H35.2064H35.206H35.2056H35.2052H35.2047H35.2043H35.2039H35.2035H35.203H35.2026H35.2022H35.2017H35.2013H35.2009H35.2004H35.2C35.161 15.625 35.1317 15.6249 35.1048 15.624C35.0985 15.6238 35.0929 15.6236 35.0878 15.6233L35.0589 15.6081L31.2339 13.5831L31 13.4592L30.7661 13.5831L26.9411 15.6081L26.9292 15.6143L26.9178 15.6212C26.8546 15.6591 26.7944 15.6631 26.7374 15.646C26.6808 15.629 26.6165 15.5868 26.5658 15.5117C26.5564 15.486 26.5512 15.4472 26.5502 15.3424L27.2925 11.1114L27.3381 10.8514L27.1492 10.6671L24.0769 7.66969C23.9738 7.56521 23.9744 7.43268 24.0786 7.32851L24.1359 7.27113L24.1461 7.25089C24.1542 7.25032 24.1638 7.24995 24.175 7.24995H24.2099L24.2445 7.2451L28.5195 6.6451L28.7846 6.60789L28.9006 6.3666L30.7637 2.49139C30.8147 2.41431 30.88 2.3711 30.9374 2.35387C30.9944 2.33678 31.0546 2.34081 31.1178 2.3787L31.1342 2.38858L31.1514 2.39717C31.1847 2.41384 31.1968 2.42303 31.1996 2.42537C31.2019 2.42811 31.2111 2.4402 31.2278 2.47356L33.1778 6.37356L33.2953 6.60858L33.5555 6.6451L37.8305 7.2451L37.8651 7.24995H37.8948C37.9001 7.25171 37.9261 7.26184 37.9603 7.31017C37.9814 7.34007 37.997 7.37453 38.0052 7.4077C38.0134 7.44089 38.0122 7.46442 38.0097 7.4769Z" fill="#F2A742" stroke="#C45500"/>
<path d="M60.0097 7.4769L60 7.52544V7.52844L59.9817 7.53761L59.9258 7.59206L56.8508 10.5921L56.6619 10.7764L56.7075 11.0364L57.4571 15.3088C57.4824 15.4655 57.392 15.5857 57.2861 15.625H57.2859H57.2857H57.2854H57.2852H57.285H57.2848H57.2845H57.2843H57.2841H57.2839H57.2836H57.2834H57.2832H57.283H57.2827H57.2825H57.2823H57.2821H57.2818H57.2816H57.2814H57.2812H57.281H57.2807H57.2805H57.2803H57.2801H57.2798H57.2796H57.2794H57.2792H57.279H57.2787H57.2785H57.2783H57.2781H57.2779H57.2776H57.2774H57.2772H57.277H57.2768H57.2765H57.2763H57.2761H57.2759H57.2757H57.2754H57.2752H57.275H57.2748H57.2746H57.2743H57.2741H57.2739H57.2737H57.2735H57.2732H57.273H57.2728H57.2726H57.2724H57.2721H57.2719H57.2717H57.2715H57.2713H57.271H57.2708H57.2706H57.2704H57.2702H57.2699H57.2697H57.2695H57.2693H57.269H57.2688H57.2686H57.2684H57.2682H57.2679H57.2677H57.2675H57.2673H57.267H57.2668H57.2666H57.2664H57.2661H57.2659H57.2657H57.2655H57.2652H57.265H57.2648H57.2646H57.2643H57.2641H57.2639H57.2636H57.2634H57.2632H57.263H57.2627H57.2625H57.2623H57.262H57.2618H57.2616H57.2613H57.2611H57.2609H57.2606H57.2604H57.2602H57.2599H57.2597H57.2595H57.2592H57.259H57.2588H57.2585H57.2583H57.258H57.2578H57.2576H57.2573H57.2571H57.2568H57.2566H57.2564H57.2561H57.2559H57.2556H57.2554H57.2551H57.2549H57.2547H57.2544H57.2542H57.2539H57.2537H57.2534H57.2532H57.2529H57.2527H57.2524H57.2522H57.2519H57.2517H57.2514H57.2511H57.2509H57.2506H57.2504H57.2501H57.2499H57.2496H57.2493H57.2491H57.2488H57.2486H57.2483H57.248H57.2478H57.2475H57.2472H57.247H57.2467H57.2464H57.2462H57.2459H57.2456H57.2454H57.2451H57.2448H57.2445H57.2443H57.244H57.2437H57.2434H57.2431H57.2429H57.2426H57.2423H57.242H57.2417H57.2415H57.2412H57.2409H57.2406H57.2403H57.24H57.2397H57.2394H57.2392H57.2389H57.2386H57.2383H57.238H57.2377H57.2374H57.2371H57.2368H57.2365H57.2362H57.2359H57.2356H57.2353H57.235H57.2347H57.2343H57.234H57.2337H57.2334H57.2331H57.2328H57.2325H57.2322H57.2318H57.2315H57.2312H57.2309H57.2306H57.2302H57.2299H57.2296H57.2293H57.2289H57.2286H57.2283H57.2279H57.2276H57.2273H57.2269H57.2266H57.2263H57.2259H57.2256H57.2252H57.2249H57.2246H57.2242H57.2239H57.2235H57.2232H57.2228H57.2225H57.2221H57.2218H57.2214H57.221H57.2207H57.2203H57.22H57.2196H57.2192H57.2189H57.2185H57.2181H57.2178H57.2174H57.217H57.2167H57.2163H57.2159H57.2155H57.2151H57.2148H57.2144H57.214H57.2136H57.2132H57.2128H57.2124H57.212H57.2117H57.2113H57.2109H57.2105H57.2101H57.2097H57.2093H57.2089H57.2085H57.208H57.2076H57.2072H57.2068H57.2064H57.206H57.2056H57.2052H57.2047H57.2043H57.2039H57.2035H57.203H57.2026H57.2022H57.2017H57.2013H57.2009H57.2004H57.2C57.161 15.625 57.1317 15.6249 57.1048 15.624C57.0985 15.6238 57.0929 15.6236 57.0878 15.6233L57.0589 15.6081L53.2339 13.5831L53 13.4592L52.7661 13.5831L48.9411 15.6081L48.9292 15.6143L48.9178 15.6212C48.8546 15.6591 48.7944 15.6631 48.7374 15.646C48.6808 15.629 48.6165 15.5868 48.5658 15.5117C48.5564 15.486 48.5512 15.4472 48.5502 15.3424L49.2925 11.1114L49.3381 10.8514L49.1492 10.6671L46.0769 7.66969C45.9738 7.56521 45.9744 7.43268 46.0786 7.32851L46.1359 7.27113L46.1461 7.25089C46.1542 7.25032 46.1638 7.24995 46.175 7.24995H46.2099L46.2445 7.2451L50.5195 6.6451L50.7846 6.60789L50.9006 6.3666L52.7637 2.49139C52.8147 2.41431 52.88 2.3711 52.9374 2.35387C52.9944 2.33678 53.0546 2.34081 53.1178 2.3787L53.1342 2.38858L53.1514 2.39717C53.1847 2.41384 53.1968 2.42303 53.1996 2.42537C53.2019 2.42811 53.2111 2.4402 53.2278 2.47356L55.1778 6.37356L55.2953 6.60858L55.5555 6.6451L59.8305 7.2451L59.8651 7.24995H59.8948C59.9001 7.25171 59.9261 7.26184 59.9603 7.31017C59.9814 7.34007 59.997 7.37453 60.0052 7.4077C60.0134 7.44089 60.0122 7.46442 60.0097 7.4769Z" fill="#F2A742" stroke="#C45500"/>
<path d="M71.8971 6.58521L72.1572 6.54741L72.2735 6.31169L74.2917 2.22235L73.8434 2.00106L74.2917 2.22235C74.2998 2.20601 74.3079 2.19958 74.3141 2.19596C74.3219 2.19128 74.3336 2.1875 74.3478 2.1875C74.362 2.1875 74.3736 2.19128 74.3815 2.19596C74.3876 2.19958 74.3958 2.20601 74.4038 2.22235L74.4038 2.22235L76.4221 6.31169L76.5384 6.54741L76.7985 6.58521L81.3114 7.24097L81.3833 6.74617L81.3114 7.24097C81.3294 7.24359 81.338 7.24936 81.3434 7.25405C81.3502 7.26011 81.3574 7.27003 81.3618 7.28351C81.3662 7.297 81.3662 7.30925 81.3642 7.31818C81.3626 7.32509 81.3591 7.33483 81.346 7.34755L81.346 7.34757L78.0805 10.5307L77.8922 10.7142L77.9367 10.9733L78.7075 15.4679L78.7075 15.468C78.7106 15.4859 78.7078 15.4958 78.705 15.5023C78.7013 15.5108 78.6941 15.5207 78.6827 15.529C78.6712 15.5373 78.6595 15.5411 78.6504 15.542C78.6433 15.5426 78.633 15.5422 78.6169 15.5338C78.6169 15.5338 78.6169 15.5338 78.6169 15.5338L74.5804 13.4117L74.3478 13.2894L74.1151 13.4117L70.0787 15.5338C70.0787 15.5338 70.0787 15.5338 70.0787 15.5338C70.0626 15.5422 70.0522 15.5426 70.0452 15.542C70.036 15.5411 70.0244 15.5373 70.0129 15.529C70.0014 15.5206 69.9942 15.5107 69.9905 15.5023C69.9877 15.4958 69.9849 15.4858 69.988 15.4679L69.4952 15.3834L69.988 15.4679L70.7589 10.9733L70.8033 10.7142L70.6151 10.5307L67.3496 7.34757C67.3365 7.33485 67.3329 7.32511 67.3314 7.31819C67.3294 7.30924 67.3294 7.29698 67.3337 7.2835C67.3381 7.27001 67.3453 7.2601 67.3522 7.25404C67.3575 7.24936 67.3662 7.24359 67.3842 7.24097L71.8971 6.58521ZM73.8477 12.6563L73.8477 13.1563H74.3477C74.358 13.1563 74.3679 13.1587 74.3768 13.1634L74.3769 13.1634L77.6662 14.8927L78.563 15.3642L78.3917 14.3657L77.7635 10.703C77.7635 10.703 77.7635 10.7029 77.7635 10.7029C77.76 10.6825 77.7668 10.6619 77.7814 10.6477L77.7815 10.6476L80.4426 8.05362L81.168 7.34646L80.1655 7.20077L76.4879 6.66639C76.4879 6.66639 76.4879 6.66639 76.4879 6.66639C76.4675 6.66342 76.4499 6.65063 76.4408 6.6322L75.9925 6.85348L76.4408 6.6322L74.7961 3.29972L73.8478 3.521L73.8477 12.6563Z" fill="#F2A742" stroke="#C45500"/>
<path d="M104.01 7.4769L104 7.52544V7.52844L103.982 7.53761L103.926 7.59206L100.851 10.5921L100.662 10.7764L100.708 11.0364L101.457 15.3088C101.482 15.4655 101.392 15.5857 101.286 15.625H101.286H101.286H101.285H101.285H101.285H101.285H101.285H101.284H101.284H101.284H101.284H101.283H101.283H101.283H101.283H101.283H101.282H101.282H101.282H101.282H101.281H101.281H101.281H101.281H101.281H101.28H101.28H101.28H101.28H101.279H101.279H101.279H101.279H101.279H101.278H101.278H101.278H101.278H101.277H101.277H101.277H101.277H101.277H101.276H101.276H101.276H101.276H101.275H101.275H101.275H101.275H101.275H101.274H101.274H101.274H101.274H101.273H101.273H101.273H101.273H101.273H101.272H101.272H101.272H101.272H101.271H101.271H101.271H101.271H101.271H101.27H101.27H101.27H101.27H101.269H101.269H101.269H101.269H101.269H101.268H101.268H101.268H101.268H101.267H101.267H101.267H101.267H101.267H101.266H101.266H101.266H101.266H101.265H101.265H101.265H101.265H101.265H101.264H101.264H101.264H101.264H101.263H101.263H101.263H101.263H101.262H101.262H101.262H101.262H101.262H101.261H101.261H101.261H101.261H101.26H101.26H101.26H101.26H101.259H101.259H101.259H101.259H101.259H101.258H101.258H101.258H101.258H101.257H101.257H101.257H101.257H101.256H101.256H101.256H101.256H101.255H101.255H101.255H101.255H101.254H101.254H101.254H101.254H101.253H101.253H101.253H101.253H101.252H101.252H101.252H101.252H101.251H101.251H101.251H101.251H101.25H101.25H101.25H101.25H101.249H101.249H101.249H101.249H101.248H101.248H101.248H101.248H101.247H101.247H101.247H101.246H101.246H101.246H101.246H101.245H101.245H101.245H101.245H101.244H101.244H101.244H101.243H101.243H101.243H101.243H101.242H101.242H101.242H101.241H101.241H101.241H101.241H101.24H101.24H101.24H101.239H101.239H101.239H101.239H101.238H101.238H101.238H101.237H101.237H101.237H101.236H101.236H101.236H101.236H101.235H101.235H101.235H101.234H101.234H101.234H101.233H101.233H101.233H101.232H101.232H101.232H101.232H101.231H101.231H101.231H101.23H101.23H101.23H101.229H101.229H101.229H101.228H101.228H101.228H101.227H101.227H101.227H101.226H101.226H101.226H101.225H101.225H101.225H101.224H101.224H101.224H101.223H101.223H101.222H101.222H101.222H101.221H101.221H101.221H101.22H101.22H101.22H101.219H101.219H101.219H101.218H101.218H101.217H101.217H101.217H101.216H101.216H101.216H101.215H101.215H101.214H101.214H101.214H101.213H101.213H101.212H101.212H101.212H101.211H101.211H101.21H101.21H101.21H101.209H101.209H101.208H101.208H101.208H101.207H101.207H101.206H101.206H101.206H101.205H101.205H101.204H101.204H101.203H101.203H101.203H101.202H101.202H101.201H101.201H101.2H101.2C101.161 15.625 101.132 15.6249 101.105 15.624C101.099 15.6238 101.093 15.6236 101.088 15.6233L101.059 15.6081L97.2339 13.5831L97 13.4592L96.7661 13.5831L92.9411 15.6081L92.9292 15.6143L92.9178 15.6212C92.8546 15.6591 92.7944 15.6631 92.7374 15.646C92.6808 15.629 92.6165 15.5868 92.5658 15.5117C92.5564 15.486 92.5512 15.4472 92.5502 15.3424L93.2925 11.1114L93.3381 10.8514L93.1492 10.6671L90.0769 7.66969C89.9738 7.56521 89.9744 7.43268 90.0786 7.32851L90.1359 7.27113L90.1461 7.25089C90.1542 7.25032 90.1638 7.24995 90.175 7.24995H90.2099L90.2445 7.2451L94.5195 6.6451L94.7846 6.60789L94.9006 6.3666L96.7637 2.49139C96.8147 2.41431 96.88 2.3711 96.9374 2.35387C96.9944 2.33678 97.0546 2.34081 97.1178 2.3787L97.1342 2.38858L97.1514 2.39717C97.1847 2.41384 97.1968 2.42303 97.1996 2.42537C97.2019 2.42811 97.2111 2.4402 97.2278 2.47356L99.1778 6.37356L99.2953 6.60858L99.5555 6.6451L103.831 7.2451L103.865 7.24995H103.895C103.9 7.25171 103.926 7.26184 103.96 7.31017C103.981 7.34007 103.997 7.37453 104.005 7.4077C104.013 7.44089 104.012 7.46442 104.01 7.4769Z" stroke="#C45500"/>
</svg>
