<svg xmlns="http://www.w3.org/2000/svg" width="25" height="25" viewBox="0 0 25 25" fill="none">
  <path d="M23.12 14.9043H1.85098C0.905627 14.9043 0.136719 15.6732 0.136719 16.6186V22.156C0.136719 23.101 0.905627 23.8702 1.85098 23.8702H23.12C24.0651 23.8702 24.834 23.101 24.834 22.156V16.6186C24.834 15.6732 24.0651 14.9043 23.12 14.9043ZM0.685547 22.1557V16.6186C0.685547 15.9759 1.20831 15.4531 1.85098 15.4531H17.1545V23.3214H1.85098C1.20831 23.3211 0.685547 22.7984 0.685547 22.1557ZM24.2852 22.1557C24.2852 22.7984 23.7624 23.3211 23.12 23.3211H17.7033V15.4531H23.12C23.7624 15.4531 24.2852 15.9759 24.2852 16.6186V22.1557Z" fill="#1268F5"/>
  <path d="M1.94112 13.5777C1.96362 13.7119 2.0797 13.8069 2.21142 13.8069C2.22651 13.8069 2.2416 13.8058 2.25725 13.803C2.40653 13.7778 2.50751 13.6365 2.48254 13.4872C2.40323 13.0146 2.35878 12.5402 2.34561 12.0715H6.81526C6.82212 12.5638 6.84298 13.0613 6.88634 13.5563C6.89868 13.6993 7.0186 13.8069 7.15938 13.8069C7.16734 13.8069 7.17529 13.8066 7.18353 13.8058C7.33445 13.7926 7.44614 13.6598 7.43297 13.5086C7.39126 13.0295 7.37095 12.5481 7.36409 12.0715H12.2113V13.5325C12.2113 13.6842 12.3343 13.8069 12.4858 13.8069C12.6372 13.8069 12.7602 13.6842 12.7602 13.5325V12.0715H17.6074C17.6006 12.5479 17.5803 13.0292 17.5388 13.5086C17.5256 13.6598 17.6373 13.7926 17.7883 13.8058C17.9436 13.822 18.0725 13.7075 18.0854 13.5563C18.1283 13.0607 18.1494 12.5635 18.1562 12.0715H22.6259C22.6127 12.5394 22.5683 13.0141 22.489 13.4872C22.464 13.6367 22.5647 13.7781 22.7143 13.803C22.8638 13.828 23.0051 13.7273 23.0301 13.5777C23.1297 12.9823 23.1805 12.3832 23.1805 11.7971C23.1805 9.18162 22.2354 6.78379 20.6707 4.92354C20.6649 4.91503 20.6627 4.90488 20.6559 4.89692C20.6485 4.88814 20.638 4.88403 20.6298 4.87634C18.6667 2.56934 15.7452 1.10205 12.4858 1.10205C9.22681 1.10205 6.30568 2.56907 4.34252 4.87524C4.33374 4.8832 4.32304 4.88759 4.31535 4.89665C4.30822 4.90516 4.30602 4.91558 4.29998 4.92436C2.73582 6.78462 1.79102 9.1819 1.79102 11.7971C1.79074 12.3838 1.84151 12.9831 1.94112 13.5777ZM4.56836 5.46276C5.38804 6.11916 6.34382 6.66195 7.394 7.07522C7.04056 8.42287 6.8342 9.92995 6.81279 11.5226H2.34671C2.4079 9.23431 3.22922 7.1334 4.56836 5.46276ZM7.36135 11.5226C7.38193 9.99471 7.57374 8.55075 7.90057 7.26182C9.23532 7.72202 10.7004 7.97914 12.2111 8.00713V11.5226H7.36135ZM12.7602 1.6657C14.5403 1.8523 16.0814 3.84509 16.9258 6.73138C15.6396 7.17895 14.2233 7.43004 12.7602 7.4583V1.6657ZM12.2113 7.4583C10.7479 7.43031 9.33164 7.17895 8.04546 6.73166C8.89011 3.84509 10.4312 1.85257 12.2113 1.6657V7.4583ZM12.7602 8.00713C14.2708 7.97914 15.7362 7.72202 17.0707 7.26182C17.3975 8.55047 17.5893 9.99471 17.6099 11.5226H12.7602V8.00713ZM22.6248 11.5226H18.1587C18.1373 9.92995 17.931 8.42287 17.5775 7.07522C18.6277 6.66223 19.5835 6.11916 20.4031 5.46276C21.7423 7.1334 22.5636 9.23431 22.6248 11.5226ZM20.0492 5.04346C19.2879 5.65129 18.4013 6.15593 17.4277 6.54423C16.796 4.44359 15.7988 2.78393 14.5993 1.87398C16.7433 2.33005 18.6384 3.4653 20.0492 5.04346ZM10.3722 1.87398C9.17275 2.78421 8.17526 4.44359 7.54383 6.54423C6.57021 6.15593 5.68385 5.65129 4.92236 5.04346C6.33312 3.4653 8.22822 2.33005 10.3722 1.87398Z" fill="#1268F5"/>
  <path d="M22.2452 20.1379C22.5169 19.7829 22.6659 19.3517 22.6659 18.8968C22.6659 18.3493 22.4529 17.8348 22.0655 17.4476C21.678 17.0604 21.1637 16.8472 20.6163 16.8472C20.0685 16.8472 19.554 17.0601 19.1668 17.4476C18.7796 17.8345 18.5664 18.3493 18.5664 18.8968C18.5664 19.4445 18.7796 19.9593 19.1668 20.3462C19.5537 20.7334 20.0685 20.9466 20.6163 20.9466C21.071 20.9466 21.5021 20.7976 21.8572 20.5257L23.1777 21.8464C23.2312 21.9 23.3014 21.9268 23.3717 21.9268C23.4419 21.9268 23.5122 21.9 23.5657 21.8464C23.673 21.7391 23.673 21.5657 23.5657 21.4584L22.2452 20.1379ZM19.5548 19.9582C19.2714 19.6747 19.115 19.298 19.115 18.8968C19.115 18.4958 19.2711 18.1191 19.5548 17.8356C19.8386 17.5521 20.2151 17.396 20.6163 17.396C21.0172 17.396 21.394 17.5519 21.6774 17.8356C21.9609 18.1194 22.1171 18.4958 22.1171 18.8968C22.1171 19.298 21.9612 19.6747 21.6774 19.9582C21.3937 20.2417 21.0172 20.3981 20.6163 20.3981C20.2151 20.3981 19.8383 20.2419 19.5548 19.9582Z" fill="#1268F5"/>
  <path d="M4.02483 16.6582C3.10773 16.6582 2.36133 17.4043 2.36133 18.3217V21.8419C2.36133 21.9936 2.48427 22.1163 2.63574 22.1163C2.78722 22.1163 2.91016 21.9936 2.91016 21.8419V19.9901H5.1395V21.8419C5.1395 21.9936 5.26243 22.1163 5.41391 22.1163C5.56539 22.1163 5.68833 21.9936 5.68833 21.8419V18.3217C5.68833 17.4043 4.94219 16.6582 4.02483 16.6582ZM2.91016 19.4413V18.3217C2.91016 17.7073 3.41014 17.207 4.02483 17.207C4.63951 17.207 5.1395 17.707 5.1395 18.3217V19.4413H2.91016Z" fill="#1268F5"/>
  <path d="M14.744 20.2629C14.5922 20.2629 14.4696 20.3856 14.4696 20.5373C14.4696 21.1517 13.9696 21.652 13.3549 21.652C12.7402 21.652 12.2402 21.152 12.2402 20.5373V19.7157V19.1433V18.3217C12.2402 17.7073 12.7402 17.207 13.3549 17.207C13.9693 17.207 14.4696 17.707 14.4696 18.3217C14.4696 18.4735 14.5922 18.5961 14.744 18.5961C14.8957 18.5961 15.0184 18.4735 15.0184 18.3217C15.0184 17.4043 14.2723 16.6582 13.3549 16.6582C12.4378 16.6582 11.6914 17.4043 11.6914 18.3217V19.1433V19.7157V20.5373C11.6914 21.4547 12.4375 22.2008 13.3549 22.2008C14.2723 22.2008 15.0184 21.4547 15.0184 20.5373C15.0184 20.3856 14.8957 20.2629 14.744 20.2629Z" fill="#1268F5"/>
  <path d="M9.11728 16.6582H7.30176C7.15028 16.6582 7.02734 16.7809 7.02734 16.9326V21.8419C7.02734 21.9936 7.15028 22.1163 7.30176 22.1163H9.11728C9.7992 22.1163 10.3541 21.5617 10.3541 20.8795V20.1496C10.3541 19.848 10.2245 19.576 10.0185 19.3864C10.2245 19.1952 10.3541 18.9197 10.3541 18.6101V17.8953C10.3541 17.2131 9.7992 16.6582 9.11728 16.6582ZM9.80524 20.8795C9.80524 21.2588 9.49652 21.5675 9.11728 21.5675H7.57617V19.6617H9.3176C9.58653 19.6617 9.80551 19.8806 9.80551 20.1496L9.80524 20.8795ZM9.80524 18.6249C9.80524 18.8939 9.58653 19.1126 9.31733 19.1126H7.5759V17.207H9.11701C9.49625 17.207 9.80496 17.5157 9.80496 17.895L9.80524 18.6249Z" fill="#1268F5"/>
</svg>