<svg width="30" height="30" viewBox="0 0 30 30" fill="none" xmlns="http://www.w3.org/2000/svg">
<path d="M14.9831 6.7959C8.64055 6.7959 3.48047 11.9557 3.48047 18.2982C3.48047 24.6408 8.64055 29.8009 14.9831 29.8009C21.3257 29.8009 26.4858 24.6412 26.4858 18.2982C26.4858 11.9557 21.3257 6.7959 14.9831 6.7959ZM15.3124 14.269C16.9105 14.2357 18.4608 13.9647 19.8758 13.4813C20.217 14.8409 20.4179 16.3613 20.4422 17.9689H15.3124V14.269ZM15.3124 13.6107V7.4759C17.1855 7.69817 18.8059 9.80139 19.7023 12.8448C18.3453 13.313 16.8535 13.5774 15.3124 13.6107ZM14.6538 7.4759V13.6104C13.1127 13.5771 11.621 13.313 10.264 12.8448C11.1603 9.80139 12.7808 7.69817 14.6538 7.4759ZM14.6538 14.269V17.9689H9.52406C9.54842 16.3613 9.74929 14.8409 10.0904 13.4813C11.5054 13.9647 13.0558 14.236 14.6538 14.269ZM8.86579 17.9689H4.14762C4.2204 15.5499 5.0881 13.3282 6.49946 11.5562C7.36716 12.2464 8.37613 12.8184 9.48223 13.2564C9.10914 14.6865 8.89115 16.2829 8.86579 17.9689ZM8.86579 18.6275C8.89115 20.3135 9.10947 21.91 9.48223 23.3404C8.37613 23.7787 7.36749 24.3507 6.49946 25.0406C5.0881 23.2683 4.22007 21.0465 4.14762 18.6275H8.86579ZM9.52406 18.6275H14.6538V22.3275C13.0558 22.3608 11.5054 22.6318 10.0904 23.1152C9.74929 21.7559 9.54842 20.2352 9.52406 18.6275ZM14.6538 22.9861V29.1206C12.7808 28.8983 11.1603 26.7951 10.264 23.7517C11.621 23.2835 13.1127 23.0194 14.6538 22.9861ZM15.3124 29.1206V22.9861C16.8539 23.0194 18.3453 23.2835 19.7023 23.7517C18.8059 26.7951 17.1851 28.8983 15.3124 29.1206ZM15.3124 22.3275V18.6275H20.4422C20.4179 20.2352 20.217 21.7559 19.8758 23.1152C18.4608 22.6318 16.9105 22.3608 15.3124 22.3275ZM21.1005 18.6275H25.819C25.7462 21.0469 24.8785 23.2683 23.4668 25.0406C22.5991 24.3504 21.5905 23.7784 20.484 23.3401C20.8568 21.91 21.0751 20.3135 21.1005 18.6275ZM21.1005 17.9689C21.0751 16.2829 20.8568 14.6865 20.484 13.2564C21.5902 12.8184 22.5991 12.2461 23.4668 11.5562C24.8782 13.3285 25.7459 15.5499 25.8187 17.9689H21.1005ZM23.0427 11.0524C22.2445 11.6846 21.3185 12.2112 20.3036 12.6195C19.6457 10.4518 18.6245 8.72228 17.3956 7.72814C19.6114 8.23394 21.5714 9.41776 23.0427 11.0524ZM12.5707 7.72847C11.3418 8.72228 10.3206 10.4521 9.66269 12.6195C8.6478 12.2112 7.72181 11.6846 6.9236 11.0524C8.39457 9.41809 10.3545 8.23394 12.5707 7.72847ZM6.9236 25.5441C7.72181 24.9118 8.64747 24.3853 9.66269 23.977C10.3206 26.1447 11.3418 27.8742 12.5707 28.8683C10.3545 28.3625 8.39457 27.1787 6.9236 25.5441ZM17.3956 28.8683C18.6245 27.8745 19.6457 26.1447 20.3036 23.977C21.3188 24.3853 22.2445 24.9118 23.0427 25.5441C21.5714 27.1787 19.6114 28.3625 17.3956 28.8683Z" fill="#000" fill-opacity="1"/>
<path d="M7.25866 8.43723C7.44043 8.43723 7.58795 8.28971 7.58795 8.10794V3.72928L10.5632 4.70663V5.92437C10.5632 6.10614 10.7107 6.25367 10.8924 6.25367C11.0742 6.25367 11.2217 6.10614 11.2217 5.92437V3.84354C12.4718 3.59888 13.7359 3.46979 14.984 3.46946C15.1661 3.46946 15.3133 3.32194 15.3133 3.14017C15.3133 2.95806 15.1657 2.81087 14.984 2.81087C13.6035 2.8112 12.204 2.95773 10.8249 3.24686C10.8141 3.24916 10.8062 3.25608 10.796 3.25937C10.7742 3.26629 10.7545 3.27452 10.735 3.28571C10.7166 3.29592 10.6998 3.30679 10.684 3.31996C10.6679 3.33346 10.654 3.34828 10.6405 3.36475C10.6274 3.38121 10.6158 3.39768 10.606 3.41645C10.5961 3.43489 10.5888 3.45333 10.5826 3.47374C10.576 3.49482 10.5717 3.51556 10.5697 3.53796C10.5687 3.54882 10.5635 3.55837 10.5635 3.56924V4.01346L7.75524 3.09077L14.3428 0.926302C14.762 0.788327 15.2056 0.787998 15.6248 0.926302L22.2124 3.09077L19.414 4.01017V3.56924C19.414 3.55804 19.4087 3.54849 19.4077 3.53763C19.4054 3.51523 19.4015 3.49482 19.3949 3.47374C19.3886 3.45333 19.3814 3.43423 19.3712 3.41579C19.3613 3.39735 19.3501 3.38121 19.3369 3.36507C19.3234 3.34828 19.3093 3.33346 19.2928 3.31963C19.277 3.30646 19.2605 3.29592 19.2424 3.28571C19.2227 3.27485 19.2029 3.26629 19.1808 3.25937C19.1706 3.25608 19.1627 3.24916 19.1519 3.24686C18.4231 3.09406 17.6839 2.98013 16.9548 2.90801C16.7668 2.88792 16.6123 3.02261 16.5946 3.20339C16.5764 3.38417 16.7088 3.54553 16.8896 3.56331C17.5084 3.62456 18.134 3.72203 18.7547 3.84354V5.92404C18.7547 6.10581 18.9019 6.25334 19.084 6.25334C19.2661 6.25334 19.4133 6.10581 19.4133 5.92404V4.70334L22.6368 3.64432C22.8765 3.56562 23.0376 3.34301 23.0376 3.09077C23.0376 2.8382 22.8765 2.61592 22.6368 2.53689L15.8306 0.300638C15.2767 0.118537 14.6909 0.118537 14.1373 0.300638L7.33011 2.53722C7.09071 2.61592 6.93002 2.8382 6.92969 3.09011V3.09077V8.10794C6.92936 8.28971 7.07688 8.43723 7.25866 8.43723Z" fill="#000" fill-opacity="1.0"/>
</svg>
