<svg width="30" height="31" viewBox="0 0 30 31" fill="none" xmlns="http://www.w3.org/2000/svg">
<g clip-path="url(#clip0_5140_3890)">
<path fill-rule="evenodd" clip-rule="evenodd" d="M14.9721 3.71347C14.0764 3.69729 13.1862 3.85793 12.3525 4.18617C11.5189 4.51442 10.7582 5.00384 10.1139 5.62642C9.46961 6.249 8.95443 6.99252 8.59783 7.81444C8.24124 8.63635 8.05022 9.52051 8.03571 10.4163V19.7849C8.03571 20.3532 7.80995 20.8983 7.40809 21.3001C7.00622 21.702 6.46118 21.9278 5.89286 21.9278H3.21429C2.3618 21.9278 1.54424 21.5891 0.941442 20.9863C0.338647 20.3835 0 19.566 0 18.7135L0 14.4278C0 13.5753 0.338647 12.7577 0.941442 12.1549C1.54424 11.5521 2.3618 11.2135 3.21429 11.2135H4.82143V10.3778C4.84098 9.06074 5.11978 7.76048 5.64191 6.55123C6.16404 5.34198 6.91927 4.24743 7.86447 3.33009C8.80967 2.41275 9.92632 1.69059 11.1506 1.20486C12.375 0.719129 13.683 0.479339 15 0.499185C16.317 0.479339 17.625 0.719129 18.8494 1.20486C20.0737 1.69059 21.1903 2.41275 22.1355 3.33009C23.0807 4.24743 23.836 5.34198 24.3581 6.55123C24.8802 7.76048 25.159 9.06074 25.1786 10.3778V11.2135H26.7857C27.6382 11.2135 28.4558 11.5521 29.0586 12.1549C29.6614 12.7577 30 13.5753 30 14.4278V18.7135C30 19.566 29.6614 20.3835 29.0586 20.9863C28.4558 21.5891 27.6382 21.9278 26.7857 21.9278H25.1786V22.9992C25.1788 24.4472 24.6459 25.8447 23.6816 26.9249C22.7172 28.0051 21.3888 28.6924 19.95 28.8556C19.6706 29.3545 19.2631 29.7698 18.7697 30.0587C18.2762 30.3476 17.7147 30.4997 17.1429 30.4992H13.9286C13.0761 30.4992 12.2585 30.1605 11.6557 29.5577C11.0529 28.9549 10.7143 28.1374 10.7143 27.2849C10.7143 26.4324 11.0529 25.6149 11.6557 25.0121C12.2585 24.4093 13.0761 24.0706 13.9286 24.0706H17.1429C18.3043 24.0706 19.3221 24.6856 19.8857 25.6092C20.4763 25.4734 21.0035 25.1414 21.381 24.6673C21.7586 24.1933 21.9642 23.6052 21.9643 22.9992V10.4142C21.9496 9.51375 21.7566 8.62517 21.3963 7.7998C21.0361 6.97442 20.5159 6.22864 19.8657 5.60555C19.2155 4.98246 18.4483 4.49442 17.6083 4.16966C16.7684 3.8449 15.8724 3.68985 14.9721 3.71347Z" fill="white"/>
</g>
<defs>
<clipPath id="clip0_5140_3890">
<rect width="30" height="30" fill="white" transform="translate(0 0.5)"/>
</clipPath>
</defs>
</svg>
