<svg width="30" height="30" viewBox="0 0 30 30" fill="none" xmlns="http://www.w3.org/2000/svg">
<g clip-path="url(#clip0_5084_12964)">
<path fill-rule="evenodd" clip-rule="evenodd" d="M14.9721 3.21445C14.0764 3.19827 13.1862 3.3589 12.3525 3.68715C11.5189 4.0154 10.7582 4.50482 10.1139 5.1274C9.46961 5.74998 8.95443 6.4935 8.59783 7.31541C8.24124 8.13732 8.05022 9.02149 8.03571 9.9173V19.2859C8.03571 19.8542 7.80995 20.3992 7.40809 20.8011C7.00622 21.203 6.46118 21.4287 5.89286 21.4287H3.21429C2.3618 21.4287 1.54424 21.0901 0.941442 20.4873C0.338647 19.8845 0 19.0669 0 18.2144L0 13.9287C0 13.0763 0.338647 12.2587 0.941442 11.6559C1.54424 11.0531 2.3618 10.7144 3.21429 10.7144H4.82143V9.87873C4.84098 8.56172 5.11978 7.26146 5.64191 6.0522C6.16404 4.84295 6.91927 3.7484 7.86447 2.83106C8.80967 1.91372 9.92632 1.19157 11.1506 0.705836C12.375 0.220105 13.683 -0.0196843 15 0.000161967C16.317 -0.0196843 17.625 0.220105 18.8494 0.705836C20.0737 1.19157 21.1903 1.91372 22.1355 2.83106C23.0807 3.7484 23.836 4.84295 24.3581 6.0522C24.8802 7.26146 25.159 8.56172 25.1786 9.87873V10.7144H26.7857C27.6382 10.7144 28.4558 11.0531 29.0586 11.6559C29.6614 12.2587 30 13.0763 30 13.9287V18.2144C30 19.0669 29.6614 19.8845 29.0586 20.4873C28.4558 21.0901 27.6382 21.4287 26.7857 21.4287H25.1786V22.5002C25.1788 23.9482 24.6459 25.3457 23.6816 26.4259C22.7172 27.5061 21.3888 28.1934 19.95 28.3566C19.6706 28.8555 19.2631 29.2708 18.7697 29.5597C18.2762 29.8486 17.7147 30.0007 17.1429 30.0002H13.9286C13.0761 30.0002 12.2585 29.6615 11.6557 29.0587C11.0529 28.4559 10.7143 27.6384 10.7143 26.7859C10.7143 25.9334 11.0529 25.1158 11.6557 24.513C12.2585 23.9102 13.0761 23.5716 13.9286 23.5716H17.1429C18.3043 23.5716 19.3221 24.1866 19.8857 25.1102C20.4763 24.9744 21.0035 24.6424 21.381 24.1683C21.7586 23.6943 21.9642 23.1062 21.9643 22.5002V9.91516C21.9496 9.01473 21.7566 8.12615 21.3963 7.30077C21.0361 6.4754 20.5159 5.72961 19.8657 5.10652C19.2155 4.48343 18.4483 3.9954 17.6083 3.67064C16.7684 3.34587 15.8724 3.19082 14.9721 3.21445Z" fill="#676672"/>
</g>
<defs>
<clipPath id="clip0_5084_12964">
<rect width="30" height="30" fill="white"/>
</clipPath>
</defs>
</svg>
