<svg xmlns="http://www.w3.org/2000/svg" width="25" height="24" viewBox="0 0 25 24" fill="none">
  <path d="M4.70209 14.25C4.09171 14.25 3.50632 14.0129 3.07472 13.591C2.64311 13.169 2.40063 12.5967 2.40063 12C2.40063 11.4033 2.64311 10.831 3.07472 10.409C3.50632 9.98705 4.09171 9.75 4.70209 9.75C5.31247 9.75 5.89786 9.98705 6.32947 10.409C6.76107 10.831 7.00355 11.4033 7.00355 12C7.00355 12.5967 6.76107 13.169 6.32947 13.591C5.89786 14.0129 5.31247 14.25 4.70209 14.25ZM12.3736 14.25C11.7632 14.25 11.1778 14.0129 10.7462 13.591C10.3146 13.169 10.0722 12.5967 10.0722 12C10.0722 11.4033 10.3146 10.831 10.7462 10.409C11.1778 9.98705 11.7632 9.75 12.3736 9.75C12.984 9.75 13.5694 9.98705 14.001 10.409C14.4326 10.831 14.6751 11.4033 14.6751 12C14.6751 12.5967 14.4326 13.169 14.001 13.591C13.5694 14.0129 12.984 14.25 12.3736 14.25ZM20.0451 14.25C19.4347 14.25 18.8494 14.0129 18.4178 13.591C17.9861 13.169 17.7437 12.5967 17.7437 12C17.7437 11.4033 17.9861 10.831 18.4178 10.409C18.8494 9.98705 19.4347 9.75 20.0451 9.75C20.6555 9.75 21.2409 9.98705 21.6725 10.409C22.1041 10.831 22.3466 11.4033 22.3466 12C22.3466 12.5967 22.1041 13.169 21.6725 13.591C21.2409 14.0129 20.6555 14.25 20.0451 14.25Z" fill="#020014"/>
</svg>