<svg width="32" height="32" viewBox="0 0 32 32" fill="none" xmlns="http://www.w3.org/2000/svg">
<rect width="32" height="31.9997" rx="15.9998" fill="#B12704" fill-opacity="0.1"/>
<path d="M24 10.666H8M22.4311 12.8882L21.9981 19.0216C21.8315 21.3807 21.7487 22.5602 20.9346 23.2794C20.1205 23.9994 18.8678 23.9993 16.3642 23.9993H15.6358C13.1322 23.9993 11.8795 23.9994 11.0654 23.2794C10.2513 22.5602 10.1675 21.3807 10.0019 19.0216L9.56894 12.8882" stroke="#B12704" stroke-width="1.5" stroke-linecap="round"/>
<path d="M10.8232 10.6667H10.9268C11.3055 10.6575 11.6726 10.5406 11.9799 10.3313C12.2872 10.122 12.5204 9.8299 12.6491 9.49333L12.6811 9.40178L12.7724 9.14311C12.8505 8.92178 12.8901 8.81156 12.9418 8.71733C13.0437 8.53279 13.1898 8.37333 13.3686 8.2517C13.5474 8.13007 13.7539 8.04965 13.9715 8.01689C14.0816 8 14.2049 8 14.4515 8H17.5479C17.7945 8 17.9178 8 18.0279 8.01689C18.2455 8.04965 18.452 8.13007 18.6308 8.2517C18.8096 8.37333 18.9558 8.53279 19.0576 8.71733C19.1094 8.81156 19.1489 8.92178 19.227 9.14311L19.3183 9.40178C19.4376 9.77624 19.6842 10.1031 20.0201 10.3318C20.356 10.5605 20.7623 10.6782 21.1762 10.6667" stroke="#B12704" stroke-width="1.5"/>
</svg>
