<svg width="35" height="35" viewBox="0 0 35 35" fill="none" xmlns="http://www.w3.org/2000/svg">
<path d="M22.9679 3.2813C18.1225 3.2813 14.2179 7.18599 14.2179 12.0313C14.2179 12.2883 14.2583 12.6361 14.2868 12.9544L4.92098 22.3191C4.40939 22.8274 4.00339 23.4318 3.72633 24.0976C3.44927 24.7635 3.30664 25.4775 3.30664 26.1986C3.30664 26.9198 3.44927 27.6338 3.72633 28.2997C4.00339 28.9655 4.40939 29.5699 4.92098 30.0782C5.42926 30.5898 6.0337 30.9958 6.69951 31.2728C7.36532 31.5499 8.07936 31.6925 8.80051 31.6925C9.52167 31.6925 10.2357 31.5499 10.9015 31.2728C11.5673 30.9958 12.1718 30.5898 12.68 30.0782L22.0447 20.7124C22.3619 20.7408 22.7119 20.7813 22.9679 20.7813C27.8132 20.7813 31.7179 16.8766 31.7179 12.0313C31.7236 10.6215 31.3706 9.23333 30.6919 7.99755L30.0083 6.73318L28.9835 7.75912L24.2661 12.4404L22.5577 10.7319L27.239 6.01568L28.2671 4.98974L27.0016 4.30615C25.7654 3.62882 24.3775 3.27621 22.9679 3.2813ZM22.9679 5.4688C23.4994 5.4688 23.8954 5.69849 24.3679 5.81115L20.2335 9.94552L19.446 10.733L20.2335 11.4844L23.5147 14.7657L24.2672 15.5532L25.0525 14.7657L29.1891 10.6313C29.3018 11.1038 29.5304 11.4997 29.5304 12.0313C29.5304 15.7172 26.6538 18.5938 22.9679 18.5938C22.5304 18.5938 22.1804 18.5938 21.9069 18.5249L21.3272 18.3543L20.8832 18.7994L11.1411 28.5415C9.79583 29.8868 7.8052 29.8868 6.45989 28.5415L6.42489 28.5065C5.11239 27.1611 5.12333 25.1924 6.4577 23.858L16.1997 14.1171L16.6449 13.673L16.4721 13.0933C16.4065 12.8199 16.4043 12.4699 16.4043 12.0324C16.4043 8.34646 19.2808 5.4699 22.9668 5.4699L22.9679 5.4688Z" fill="white"/>
</svg>
