<svg width="30" height="24" viewBox="0 0 30 24" fill="none" xmlns="http://www.w3.org/2000/svg">
<path d="M29.4725 23.224H0.494336C0.312564 23.224 0.165039 23.0768 0.165039 22.8947C0.165039 22.7126 0.312564 22.5654 0.494336 22.5654H29.4725C29.6546 22.5654 29.8018 22.7126 29.8018 22.8947C29.8018 23.0768 29.6546 23.224 29.4725 23.224Z" fill="#000" fill-opacity="1"/>
<path d="M14.9836 5.69845C14.8018 5.69845 14.6543 5.55092 14.6543 5.36915V1.07051C14.6543 0.888736 14.8018 0.741211 14.9836 0.741211C15.1654 0.741211 15.3129 0.888736 15.3129 1.07051V5.36915C15.3129 5.55092 15.1654 5.69845 14.9836 5.69845Z" fill="#000" fill-opacity="1"/>
<path d="M19.8927 23.2243C19.7106 23.2243 19.5634 23.0771 19.5634 22.895V8.53701L14.9836 5.75445L10.4037 8.53701V22.895C10.4037 23.0771 10.2562 23.2243 10.0744 23.2243C9.89264 23.2243 9.74512 23.0771 9.74512 22.895V8.35161C9.74512 8.23669 9.80505 8.13 9.90351 8.07039L14.8127 5.08795C14.9174 5.02407 15.0498 5.02407 15.1545 5.08795L20.064 8.07039C20.1621 8.13 20.222 8.23669 20.222 8.35161V22.895C20.222 23.0768 20.0748 23.2243 19.8927 23.2243Z" fill="#000" fill-opacity="1"/>
<path d="M17.1938 23.224C17.0117 23.224 16.8645 23.0768 16.8645 22.8947V17.723H13.102V22.8947C13.102 23.0768 12.9544 23.224 12.7727 23.224C12.5909 23.224 12.4434 23.0768 12.4434 22.8947V17.3937C12.4434 17.2116 12.5909 17.0645 12.7727 17.0645H17.1938C17.3759 17.0645 17.5231 17.2116 17.5231 17.3937V22.8947C17.5231 23.0764 17.3759 23.224 17.1938 23.224Z" fill="#000" fill-opacity="1"/>
<path d="M1.91816 23.2244C1.73639 23.2244 1.58887 23.0772 1.58887 22.8951V12.7014C1.58887 12.5193 1.73639 12.3721 1.91816 12.3721H10.0739C10.2556 12.3721 10.4032 12.5193 10.4032 12.7014C10.4032 12.8835 10.2556 13.0307 10.0739 13.0307H2.24746V22.8951C2.24746 23.0769 2.09994 23.2244 1.91816 23.2244Z" fill="#000" fill-opacity="1"/>
<path d="M28.0485 23.2244C27.8664 23.2244 27.7192 23.0772 27.7192 22.8951V13.0307H19.8928C19.7107 13.0307 19.5635 12.8835 19.5635 12.7014C19.5635 12.5193 19.7107 12.3721 19.8928 12.3721H28.0485C28.2306 12.3721 28.3778 12.5193 28.3778 12.7014V22.8951C28.3778 23.0769 28.2306 23.2244 28.0485 23.2244Z" fill="#000" fill-opacity="1"/>
<path d="M14.9832 15.1413C13.5827 15.1413 12.4434 14.0019 12.4434 12.6014C12.4434 11.2009 13.5827 10.0615 14.9832 10.0615C16.3837 10.0615 17.5231 11.2009 17.5231 12.6014C17.5231 14.0019 16.3837 15.1413 14.9832 15.1413ZM14.9832 10.7201C13.9459 10.7201 13.102 11.5641 13.102 12.6014C13.102 13.6387 13.9459 14.4827 14.9832 14.4827C16.0205 14.4827 16.8645 13.6387 16.8645 12.6014C16.8645 11.5641 16.0205 10.7201 14.9832 10.7201Z" fill="#000" fill-opacity="1"/>
<path d="M18.9977 4.29498H14.9836C14.8018 4.29498 14.6543 4.14746 14.6543 3.96569V1.07051C14.6543 0.888736 14.8018 0.741211 14.9836 0.741211H18.9977C19.1166 0.741211 19.2263 0.805424 19.2845 0.908823C19.3432 1.01255 19.3408 1.13966 19.2793 1.24108L18.5048 2.51777L19.2793 3.79445C19.3408 3.8962 19.3428 4.02298 19.2845 4.12671C19.2266 4.23077 19.1169 4.29498 18.9977 4.29498ZM15.3129 3.63639H18.4129L17.8383 2.689C17.775 2.58396 17.775 2.45257 17.8383 2.34752L18.4129 1.40013H15.3129V3.63639Z" fill="#000" fill-opacity="1"/>
<path d="M28.0485 13.0301H19.8928C19.7107 13.0301 19.5635 12.8829 19.5635 12.7008V9.39668C19.5635 9.21491 19.7107 9.06738 19.8928 9.06738H23.658C23.7294 9.06738 23.7989 9.09043 23.8562 9.13357L28.2467 12.4377C28.36 12.523 28.4058 12.6709 28.361 12.8052C28.3159 12.9393 28.1897 13.0301 28.0485 13.0301ZM20.2221 12.3715H27.0629L23.5476 9.72598H20.2217L20.2221 12.3715Z" fill="#000" fill-opacity="1"/>
<path d="M10.0739 13.0301H1.91816C1.77656 13.0301 1.65077 12.9396 1.60598 12.8052C1.56087 12.6709 1.60697 12.523 1.72025 12.4377L6.11077 9.13357C6.16773 9.09043 6.23722 9.06738 6.30867 9.06738H10.0735C10.2553 9.06738 10.4028 9.21491 10.4028 9.39668V12.7008C10.4032 12.8826 10.2556 13.0301 10.0739 13.0301ZM2.90341 12.3715H9.74423V9.72598H6.41899L2.90341 12.3715Z" fill="#000" fill-opacity="1"/>
<path d="M7.31367 17.1397C7.1319 17.1397 6.98438 16.9925 6.98438 16.8104V15.4221C6.98438 15.24 7.1319 15.0928 7.31367 15.0928C7.49544 15.0928 7.64297 15.24 7.64297 15.4221V16.8104C7.64297 16.9925 7.49577 17.1397 7.31367 17.1397Z" fill="#000" fill-opacity="1"/>
<path d="M7.31367 20.7618C7.1319 20.7618 6.98438 20.6146 6.98438 20.4325V19.0441C6.98438 18.862 7.1319 18.7148 7.31367 18.7148C7.49544 18.7148 7.64297 18.862 7.64297 19.0441V20.4325C7.64297 20.6146 7.49577 20.7618 7.31367 20.7618Z" fill="#000" fill-opacity="1"/>
<path d="M4.67891 17.1397C4.49713 17.1397 4.34961 16.9925 4.34961 16.8104V15.4221C4.34961 15.24 4.49713 15.0928 4.67891 15.0928C4.86068 15.0928 5.0082 15.24 5.0082 15.4221V16.8104C5.0082 16.9925 4.86101 17.1397 4.67891 17.1397Z" fill="#000" fill-opacity="1"/>
<path d="M4.67891 20.7618C4.49713 20.7618 4.34961 20.6146 4.34961 20.4325V19.0441C4.34961 18.862 4.49713 18.7148 4.67891 18.7148C4.86068 18.7148 5.0082 18.862 5.0082 19.0441V20.4325C5.0082 20.6146 4.86101 20.7618 4.67891 20.7618Z" fill="#000" fill-opacity="1"/>
<path d="M25.2873 17.1397C25.1052 17.1397 24.958 16.9925 24.958 16.8104V15.4221C24.958 15.24 25.1052 15.0928 25.2873 15.0928C25.4694 15.0928 25.6166 15.24 25.6166 15.4221V16.8104C25.6166 16.9925 25.4694 17.1397 25.2873 17.1397Z" fill="#000" fill-opacity="1"/>
<path d="M25.2873 20.7618C25.1052 20.7618 24.958 20.6146 24.958 20.4325V19.0441C24.958 18.862 25.1052 18.7148 25.2873 18.7148C25.4694 18.7148 25.6166 18.862 25.6166 19.0441V20.4325C25.6166 20.6146 25.4694 20.7618 25.2873 20.7618Z" fill="#000" fill-opacity="1"/>
<path d="M22.6535 17.1397C22.4714 17.1397 22.3242 16.9925 22.3242 16.8104V15.4221C22.3242 15.24 22.4714 15.0928 22.6535 15.0928C22.8356 15.0928 22.9828 15.24 22.9828 15.4221V16.8104C22.9828 16.9925 22.8356 17.1397 22.6535 17.1397Z" fill="#000" fill-opacity="1"/>
<path d="M22.6535 20.7618C22.4714 20.7618 22.3242 20.6146 22.3242 20.4325V19.0441C22.3242 18.862 22.4714 18.7148 22.6535 18.7148C22.8356 18.7148 22.9828 18.862 22.9828 19.0441V20.4325C22.9828 20.6146 22.8356 20.7618 22.6535 20.7618Z" fill="#000" fill-opacity="1"/>
</svg>
