<svg width="25" height="25" viewBox="0 0 25 25" fill="none" xmlns="http://www.w3.org/2000/svg">
<path d="M12.4863 0.137207C5.66632 0.137207 0.137695 5.66583 0.137695 12.4858C0.137695 19.3059 5.66632 24.8345 12.4863 24.8345C19.3063 24.8345 24.835 19.3059 24.835 12.4858C24.835 5.66583 19.3063 0.137207 12.4863 0.137207ZM12.4863 6.17624C14.9283 6.17624 16.9154 8.16327 16.9154 10.6053C16.9154 13.0476 14.9283 15.0343 12.4863 15.0343C10.044 15.0343 8.05729 13.0476 8.05729 10.6053C8.05729 8.16327 10.044 6.17624 12.4863 6.17624ZM12.4863 23.1449C9.43073 23.1449 6.68988 21.8044 4.81453 19.681C5.68635 18.1031 7.04936 16.8062 8.67005 16.02C9.22135 15.7527 9.86485 15.7571 10.4359 16.0313C11.0789 16.3403 11.7687 16.4967 12.4866 16.4967C13.2042 16.4967 13.8943 16.34 14.5373 16.0313C15.1089 15.7569 15.7524 15.7527 16.3032 16.02C17.9238 16.8059 19.2866 18.1031 20.1584 19.681C18.2828 21.8041 15.5419 23.1449 12.4863 23.1449Z" fill="white"/>
</svg>
