<svg xmlns="http://www.w3.org/2000/svg" width="20" height="20" viewBox="0 0 20 20" fill="none">
  <path d="M4.16682 2.49983V17.4998C4.1673 17.6517 4.20918 17.8006 4.28797 17.9304C4.36676 18.0602 4.47946 18.1661 4.61395 18.2367C4.74844 18.3072 4.89962 18.3397 5.05122 18.3307C5.20283 18.3218 5.34911 18.2716 5.47432 18.1857L16.3077 10.6857C16.7568 10.3748 16.7568 9.6265 16.3077 9.31483L5.47432 1.81483C5.34937 1.72801 5.20301 1.67711 5.05116 1.66763C4.8993 1.65816 4.74776 1.69048 4.61298 1.76109C4.47821 1.8317 4.36536 1.93789 4.2867 2.06813C4.20804 2.19837 4.16658 2.34768 4.16682 2.49983Z" fill="#F2A742"/>
</svg>