<svg id="tablet-mobile-layout-ir" xmlns="http://www.w3.org/2000/svg" width="378.282" height="274.467" viewBox="0 0 378.282 274.467">
  <g id="a" transform="translate(1.047 234.669)">
    <g id="b">
      <rect id="Rectangle_4196" data-name="Rectangle 4196" width="376.904" height="39.798" rx="11.3" fill="#ccc" opacity="0.5"/>
    </g>
  </g>
  <g id="c" transform="translate(11.521 0.2)">
    <rect id="Rectangle_4197" data-name="Rectangle 4197" width="339.201" height="237.48" rx="3" transform="translate(13.746 27.623)" fill="#e9ecff"/>
    <path id="Path_6610" data-name="Path 6610" d="M358.5,20.619H19.3V12.633A1.656,1.656,0,0,1,21.133,10.8H357.453c1.178,0,1.047.785,1.047,1.833Z" transform="translate(-5.554 3.077)" fill="#cbcbca"/>
    <path id="Path_6611" data-name="Path 6611" d="M26.127,15.264A1.964,1.964,0,1,1,24.164,13.3,2.013,2.013,0,0,1,26.127,15.264Z" transform="translate(-4.657 3.85)" fill="#e54c3c" opacity="0.7"/>
    <circle id="Ellipse_505" data-name="Ellipse 505" cx="1.964" cy="1.964" r="1.964" transform="translate(23.827 17.15)" fill="#efc319" opacity="0.7"/>
    <path id="Path_6612" data-name="Path 6612" d="M35.627,15.264A1.964,1.964,0,1,1,33.664,13.3,2.013,2.013,0,0,1,35.627,15.264Z" transform="translate(-1.72 3.85)" fill="#4eb96f" opacity="0.7"/>
    <path id="Path_6613" data-name="Path 6613" d="M80.5,13.685a1.053,1.053,0,0,0-1.178-.785H42.535a1.053,1.053,0,0,0-1.178.785l-1.571,5.368a2.965,2.965,0,0,1-.785.916H83.118a2.965,2.965,0,0,1-.785-.916l-1.571-5.368Z" transform="translate(0.536 3.726)" fill="#e5e5e4"/>
    <rect id="Rectangle_4198" data-name="Rectangle 4198" width="339.201" height="7.069" transform="translate(13.746 23.696)" fill="#e5e5e4"/>
    <rect id="Rectangle_4199" data-name="Rectangle 4199" width="299.926" height="214.831" transform="translate(32.86 43.333)" fill="#fff" stroke="#cccbcb" stroke-width="0.6"/>
    <text id="Page_2_of_5" data-name="Page 2 of 5" transform="translate(39.274 71.992)" fill="#333" font-size="3" font-family="Arial"><tspan x="0" y="0">Page 2 of 5</tspan></text>
    <line id="Line_395" data-name="Line 395" x2="282.776" transform="translate(39.405 79.727)" fill="none" stroke="#cccbcb" stroke-width="0.3"/>
    <g id="Group_2806" data-name="Group 2806" transform="translate(299.664 68.599)">
      <rect id="Rectangle_4201" data-name="Rectangle 4201" width="3.142" height="6.677" fill="#3f53d9"/>
      <rect id="Rectangle_4202" data-name="Rectangle 4202" width="3.142" height="6.677" transform="translate(3.927)" fill="#3f53d9"/>
      <path id="Path_6614" data-name="Path 6614" d="M246.349,52.993v6.022h-2.487V52.993h2.487m.393-.393H243.6v6.677h3.142V52.6Z" transform="translate(-235.876 -52.6)" fill="#3f53d9"/>
      <path id="Path_6615" data-name="Path 6615" d="M249.349,52.993v6.022h-2.487V52.993h2.487m.393-.393H246.6v6.677h3.142V52.6Z" transform="translate(-234.949 -52.6)" fill="#3f53d9"/>
      <path id="Path_6616" data-name="Path 6616" d="M252.349,52.993v6.022h-2.487V52.993h2.487m.393-.393H249.6v6.677h3.142V52.6Z" transform="translate(-234.021 -52.6)" fill="#3f53d9"/>
      <path id="Path_6617" data-name="Path 6617" d="M255.349,52.993v6.022h-2.487V52.993h2.487m.393-.393H252.6v6.677h3.142V52.6Z" transform="translate(-233.094 -52.6)" fill="#3f53d9"/>
    </g>
    <text id="What_replaces_the_question_mark_" data-name="What replaces the question mark?" transform="translate(40.453 150.148)" fill="#2b2e31" font-size="3" font-family="Arial"><tspan x="0" y="0">What replaces the question mark?</tspan></text>
    <g id="Group_2808" data-name="Group 2808" transform="translate(40.453 95.306)">
      <rect id="Rectangle_4203" data-name="Rectangle 4203" width="41.369" height="41.369" fill="#fff" stroke="#cccbcb" stroke-width="0.5"/>
      <rect id="Rectangle_4204" data-name="Rectangle 4204" width="41.369" height="41.369" transform="translate(48.177)" fill="#fff" stroke="#cccbcb" stroke-width="0.5"/>
      <rect id="Rectangle_4205" data-name="Rectangle 4205" width="41.369" height="41.369" transform="translate(96.092)" fill="#fff" stroke="#cccbcb" stroke-width="0.5"/>
      <rect id="Rectangle_4206" data-name="Rectangle 4206" width="41.369" height="41.369" transform="translate(144.268)" fill="#fff" stroke="#cccbcb" stroke-width="0.5"/>
      <rect id="Rectangle_4207" data-name="Rectangle 4207" width="41.369" height="41.369" transform="translate(192.445)" fill="#fff" stroke="#cccbcb" stroke-width="0.5"/>
      <rect id="Rectangle_4208" data-name="Rectangle 4208" width="41.369" height="41.369" transform="translate(240.491)" fill="#fff" stroke="#cccbcb" stroke-width="0.5"/>
    </g>
    <g id="Group_2809" data-name="Group 2809" transform="translate(40.453 164.167)">
      <rect id="Rectangle_4209" data-name="Rectangle 4209" width="41.369" height="41.369" fill="#fff" stroke="#cccbcb" stroke-width="0.5"/>
      <rect id="Rectangle_4210" data-name="Rectangle 4210" width="41.369" height="41.369" transform="translate(48.177)" fill="#fff" stroke="#cccbcb" stroke-width="0.5"/>
      <rect id="Rectangle_4211" data-name="Rectangle 4211" width="41.369" height="41.369" transform="translate(96.092)" fill="#fff" stroke="#cccbcb" stroke-width="0.5"/>
      <rect id="Rectangle_4212" data-name="Rectangle 4212" width="41.369" height="41.369" transform="translate(144.268)" fill="#fff" stroke="#cccbcb" stroke-width="0.5"/>
      <rect id="Rectangle_4213" data-name="Rectangle 4213" width="41.369" height="41.369" transform="translate(192.445)" fill="#fff" stroke="#cccbcb" stroke-width="0.5"/>
    </g>
    <g id="Group_2810" data-name="Group 2810" transform="translate(94.259 101.066)">
      <text id="_" data-name="?" transform="translate(11.128 20.677)" font-size="18" font-family="Myriad Pro"><tspan x="0" y="0">?</tspan></text>
      <rect id="Rectangle_4214" data-name="Rectangle 4214" width="29.98" height="29.98" fill="none"/>
    </g>
    <path id="Path_6619" data-name="Path 6619" d="M59.457,109.483H42.7V76.1H76.214V92.726Z" transform="translate(1.68 23.264)" fill="none" stroke="#000" stroke-linejoin="round" stroke-width="0.3"/>
    <path id="Path_6620" data-name="Path 6620" d="M63.268,90.284v6.284H50.7V84h6.284Z" transform="translate(4.153 25.707)" fill="none" stroke="#000" stroke-linejoin="round" stroke-width="0.3"/>
    <path id="Path_6621" data-name="Path 6621" d="M132.857,76.1h16.626v33.383H116.1V92.726Z" transform="translate(24.372 23.264)" fill="none" stroke="#000" stroke-linejoin="round" stroke-width="0.3"/>
    <path id="Path_6622" data-name="Path 6622" d="M124.1,90.284V84h12.568V96.568h-6.284Z" transform="translate(26.845 25.707)" fill="#abb2e7" stroke="#abb2e7" stroke-linejoin="round" stroke-width="0.3"/>
    <path id="Path_6623" data-name="Path 6623" d="M206.326,109.483H189.7V76.1h33.383V92.726Z" transform="translate(47.125 23.264)" fill="none" stroke="#000" stroke-linejoin="round" stroke-width="0.3"/>
    <path id="Path_6624" data-name="Path 6624" d="M210.3,90.284v6.284H197.6V84h6.415Z" transform="translate(49.567 25.707)" fill="#abb2e7" stroke="#abb2e7" stroke-linejoin="round" stroke-width="0.3"/>
    <path id="Path_6625" data-name="Path 6625" d="M218.876,144.553v13.222H192.3V131.2h13.353Z" transform="translate(47.929 40.299)" fill="none" stroke="#000" stroke-linejoin="round" stroke-width="0.3"/>
    <path id="Path_6626" data-name="Path 6626" d="M204.015,136.5H210.3v12.7H197.6v-6.284Z" transform="translate(49.567 41.937)" fill="#abb2e7" stroke="#abb2e7" stroke-linejoin="round" stroke-width="0.3"/>
    <path id="Path_6627" data-name="Path 6627" d="M155.5,144.422V131.2h26.576v26.576H168.853Z" transform="translate(36.552 40.299)" fill="none" stroke="#000" stroke-linejoin="round" stroke-width="0.3"/>
    <path id="Path_6628" data-name="Path 6628" d="M167.215,136.5H173.5v12.7H160.8v-6.284Z" transform="translate(38.191 41.937)" fill="#abb2e7" stroke="#abb2e7" stroke-linejoin="round" stroke-width="0.3"/>
    <path id="Path_6629" data-name="Path 6629" d="M118.7,144.422V131.2h26.576v26.576H132.053Z" transform="translate(25.176 40.299)" fill="none" stroke="#000" stroke-linejoin="round" stroke-width="0.3"/>
    <path id="Path_6630" data-name="Path 6630" d="M130.384,149.2H124.1V136.5h12.568v6.284Z" transform="translate(26.845 41.937)" fill="#abb2e7" stroke="#abb2e7" stroke-linejoin="round" stroke-width="0.3"/>
    <path id="Path_6631" data-name="Path 6631" d="M113.014,145.357v16.626H79.5V128.6H96.257Z" transform="translate(13.057 39.495)" fill="#abb2e7" stroke="#abb2e7" stroke-linejoin="round" stroke-width="0.3"/>
    <path id="Path_6632" data-name="Path 6632" d="M56.984,149.2H50.7V136.5H63.268v6.284Z" transform="translate(4.153 41.937)" stroke="#000" stroke-linejoin="round" stroke-width="0.3"/>
    <path id="Path_6633" data-name="Path 6633" d="M155.5,91.922V78.7h26.576v26.576H168.853Z" transform="translate(36.552 24.068)" fill="none" stroke="#000" stroke-linejoin="round" stroke-width="0.3"/>
    <path id="Path_6634" data-name="Path 6634" d="M167.215,84H173.5V96.568H160.8V90.284Z" transform="translate(38.191 25.707)" fill="none" stroke="#000" stroke-linejoin="round" stroke-width="0.3"/>
    <path id="Path_6635" data-name="Path 6635" d="M255.676,92.053v13.222H229.1V78.7h13.222Z" transform="translate(59.306 24.068)" fill="none" stroke="#000" stroke-linejoin="round" stroke-width="0.3"/>
    <path id="Path_6636" data-name="Path 6636" d="M240.815,84H247.1V96.568H234.4V90.284Z" transform="translate(60.944 25.707)" fill="#abb2e7" stroke="#abb2e7" stroke-linejoin="round" stroke-width="0.3"/>
    <path id="Path_6637" data-name="Path 6637" d="M42.7,145.226V128.6H76.214v33.383H59.457Z" transform="translate(1.68 39.495)" fill="none" stroke="#000" stroke-linejoin="round" stroke-width="0.3"/>
    <path id="Path_6638" data-name="Path 6638" d="M56.984,149.2H50.7V136.5H63.268v6.284Z" transform="translate(4.153 41.937)" fill="#8d9092" stroke="#000" stroke-linejoin="round" stroke-width="0.3"/>
    <path id="Path_6639" data-name="Path 6639" d="M92.615,136.5H98.9v12.7H86.2v-6.284Z" transform="translate(15.128 41.937)" fill="none" stroke="#000" stroke-linejoin="round" stroke-width="0.3"/>
    <g id="d" transform="translate(39.536 54.068)">
      <g id="Group_2811" data-name="Group 2811" transform="translate(8.509 0.393)">
        <path id="Path_6640" data-name="Path 6640" d="M47.856,41.8v.785h-.262c0-.393-.131-.524-.393-.524H46.94v2.487c0,.131,0,.262.262.262h0c0,.131-1.047.131-1.047.131h0c.262-.131.262-.262.262-.393V42.062h-.262c-.262,0-.393.131-.393.524H45.5V41.8h2.356Z" transform="translate(-45.5 -41.8)" fill="#404041"/>
        <path id="Path_6641" data-name="Path 6641" d="M48.416,44.695c-.655,0-.916-.393-.916-1.047a.934.934,0,0,1,.916-1.047c.655,0,.916.393.916,1.047H48.024c0,.524.131.916.524.916s.524-.131.524-.393h0a.83.83,0,0,1-.785.655Zm.393-1.309c0-.393-.131-.655-.393-.655s-.393.262-.524.655Z" transform="translate(-44.882 -41.553)" fill="#404041"/>
        <path id="Path_6642" data-name="Path 6642" d="M50.509,43.224h-.131c0-.262,0-.393-.131-.393h-.262c-.131,0-.262,0-.262.262,0,.131.131.262.524.393a.668.668,0,0,1,.524.655c0,.524-.262.655-.916.655s-.524,0-.655-.262v-.524h.262c0,.262,0,.393.131.393a1.013,1.013,0,0,1,.393.131.347.347,0,0,0,.393-.393s0-.262-.131-.262a1.319,1.319,0,0,0-.393-.131c-.393,0-.524-.262-.655-.524,0-.131,0-.393.262-.393a5.67,5.67,0,0,1,.655-.131c.262,0,.524,0,.655.262v.524Z" transform="translate(-44.356 -41.522)" fill="#404041"/>
        <path id="Path_6643" data-name="Path 6643" d="M51.316,42.824v1.7h.262a.418.418,0,0,1-.393.393c-.262,0-.524-.131-.524-.393v-1.44H50.4a1.669,1.669,0,0,0,.524-.785h.262v.524h.393c0,.131-.393.131-.393.131Z" transform="translate(-43.985 -41.645)" fill="#404041"/>
      </g>
      <g id="Group_2812" data-name="Group 2812" transform="translate(8.771 4.262)">
        <path id="Path_6644" data-name="Path 6644" d="M46.355,46.6v.785c0,.262,0,.393.393.524h0c0,.131-1.047.131-1.047.131h0c.262-.131.262-.262.262-.393V45.293c0-.131,0-.262-.262-.262h0c0-.131,1.047-.131,1.047-.131.785,0,1.309.262,1.309.916,0,.524-.393.916-1.309.916h-.262Zm0-1.571v1.178s0,.131.262.131h0c.524,0,.785-.262.785-.655s-.262-.655-.785-.655Z" transform="translate(-45.7 -44.711)" fill="#404041"/>
        <path id="Path_6645" data-name="Path 6645" d="M48.409,45.6c.524,0,.785.262.785.655v1.178h0c0,.262-.262.262-.393.262a.481.481,0,0,1-.393-.131,5.669,5.669,0,0,1-.655.131.6.6,0,0,1-.655-.524c0-.393.131-.524.524-.655.393,0,.655-.131.655-.262v-.262c0-.131,0-.262-.262-.262s-.262,0-.262.131a.405.405,0,0,1-.131.262h-.131c-.131,0-.262,0-.262-.262a.256.256,0,0,1,.262-.262h.916Zm.393.916-.524.262a.418.418,0,0,0-.393.393c0,.262.131.393.524.393H48.8V46.516Z" transform="translate(-45.267 -44.494)" fill="#404041"/>
        <path id="Path_6646" data-name="Path 6646" d="M49.755,46.155c.131-.393.262-.524.524-.524s.262,0,.393.262c0,.131,0,.262-.262.262-.131,0-.262,0-.262-.262h0a1.62,1.62,0,0,0-.262.393V47.2c0,.131,0,.262.262.262h0c0,.131-.916.131-.916.131h0c.131-.131.262-.262.262-.393V45.893c0-.131,0-.262-.393-.262h0c0-.131.393-.131.393-.131h.393v.524Z" transform="translate(-44.649 -44.525)" fill="#404041"/>
        <path id="Path_6647" data-name="Path 6647" d="M51.116,45.924v1.7h.262a.418.418,0,0,1-.393.393c-.262,0-.524-.131-.524-.393v-1.44H50.2a1.669,1.669,0,0,0,.524-.785h.262v.524h.393c0,.131-.393.131-.393.131Z" transform="translate(-44.309 -44.556)" fill="#404041"/>
        <path id="Path_6648" data-name="Path 6648" d="M52.085,47.4c0,.131,0,.262.262.262h0c0,.131-.916.131-.916.131h0c.131-.131.262-.262.262-.393V46.093c0-.131,0-.262-.393-.262h0c0-.131.131-.131.262-.131h.524v.262c.131-.262.393-.262.785-.262a.618.618,0,0,1,.655.655V47.4c0,.131,0,.262.262.262h0c0,.131-.916.131-.916.131h0c.131-.131.262-.262.262-.393V46.355c0-.262,0-.393-.393-.393s-.393,0-.524.393v1.178Z" transform="translate(-43.969 -44.464)" fill="#404041"/>
        <path id="Path_6649" data-name="Path 6649" d="M54.316,47.795c-.655,0-.916-.393-.916-1.047a.934.934,0,0,1,.916-1.047c.655,0,.916.393.916,1.047H53.924c0,.524.131.916.524.916s.524-.131.524-.393h0a.83.83,0,0,1-.785.655Zm.393-1.309c0-.393-.131-.655-.393-.655s-.393.262-.524.655Z" transform="translate(-43.32 -44.464)" fill="#404041"/>
        <path id="Path_6650" data-name="Path 6650" d="M55.655,46.155c.131-.393.262-.524.524-.524s.262,0,.393.262c0,.131,0,.262-.262.262-.131,0-.262,0-.262-.262h0a1.621,1.621,0,0,0-.262.393V47.2c0,.131,0,.262.262.262h0c0,.131-.916.131-.916.131h0c.131-.131.262-.262.262-.393V45.893c0-.131,0-.262-.393-.262h0c0-.131.393-.131.393-.131h.393v.524Z" transform="translate(-42.825 -44.525)" fill="#404041"/>
        <path id="Path_6651" data-name="Path 6651" d="M57.809,46.324h-.131c0-.262,0-.393-.131-.393h-.262c-.131,0-.262,0-.262.262,0,.131.131.262.524.393a.668.668,0,0,1,.524.655c0,.524-.262.655-.916.655s-.524,0-.655-.262v-.524h.262c0,.262,0,.393.131.393a1.013,1.013,0,0,1,.393.131.347.347,0,0,0,.393-.393s0-.262-.131-.262a1.319,1.319,0,0,0-.393-.131c-.393,0-.524-.262-.655-.524,0-.131,0-.393.262-.393a5.67,5.67,0,0,1,.655-.131c.262,0,.524,0,.655.262v.524Z" transform="translate(-42.361 -44.433)" fill="#404041"/>
        <path id="Path_6652" data-name="Path 6652" d="M58.516,47.68c0,.131,0,.262.262.262h0c0,.131-1.047.131-1.047.131h0c.131-.131.262-.262.262-.393V45.324s0-.262-.393-.262h0c.262-.131.524-.131.785-.262v1.44c.131-.262.393-.262.785-.262s.524.262.524.655V47.68c0,.131,0,.262.262.262h0c0,.131-.916.131-.916.131h0c.131-.131.262-.262.262-.393V46.633c0-.262,0-.393-.393-.393s-.393,0-.524.393v1.178Z" transform="translate(-42.021 -44.742)" fill="#404041"/>
        <path id="Path_6653" data-name="Path 6653" d="M60.093,46.385c0-.131,0-.262-.393-.262h0c0-.131.393-.131.393-.131h.393v1.7c0,.131,0,.262.262.262h0c0,.131-1.047.131-1.047.131h0c.131-.131.262-.262.262-.393V46.385Zm.393-1.309v.262c0,.131-.131,0-.262,0h-.262v-.524c0-.131.131,0,.262,0h.262Z" transform="translate(-41.372 -44.756)" fill="#404041"/>
        <path id="Path_6654" data-name="Path 6654" d="M61.516,48.318c0,.131,0,.262.262.262h0c0,.131-1.047.131-1.047.131h0c.131-.131.262-.262.262-.393V46.093c0-.131,0-.262-.393-.262h0a.481.481,0,0,1,.393-.131h.393v.262a.68.68,0,0,1,.524-.262c.655,0,.916.393.916,1.047,0,.785-.262,1.047-.916,1.047h-.524v.655Zm0-1.047a.418.418,0,0,0,.393.393c.393,0,.524-.262.524-.916,0-.524-.131-.916-.524-.916s-.393,0-.393.262v1.178Z" transform="translate(-41.094 -44.464)" fill="#404041"/>
      </g>
      <g id="Group_2813" data-name="Group 2813">
        <path id="Path_6655" data-name="Path 6655" d="M39.785,44.287,39,43.895A4.088,4.088,0,0,1,41.095,41.8l.393.785a3.066,3.066,0,0,0-1.571,1.571Z" transform="translate(-39 -41.407)" fill="#be1e2d"/>
        <path id="Path_6656" data-name="Path 6656" d="M43.795,43.333a3.089,3.089,0,0,0-2.095-.916V41.5a3.768,3.768,0,0,1,2.749,1.178Z" transform="translate(-38.165 -41.5)" fill="#ffdd15"/>
        <path id="Path_6657" data-name="Path 6657" d="M43.955,44.071a2.348,2.348,0,0,0-.655-.916l.655-.655a3.091,3.091,0,0,1,.785,1.178Z" transform="translate(-37.671 -41.191)" fill="#f05a28"/>
        <path id="Path_6658" data-name="Path 6658" d="M44.878,44.871h-.916a1.946,1.946,0,0,0-.262-1.178l.785-.393a5.568,5.568,0,0,1,.262,1.44Z" transform="translate(-37.547 -40.944)" fill="#ffdd15"/>
        <path id="Path_6659" data-name="Path 6659" d="M41.7,47.933v-.916a2.6,2.6,0,0,0,2.095-.916l.655.655A3.768,3.768,0,0,1,41.7,47.933Z" transform="translate(-38.165 -40.078)" fill="#009345"/>
        <path id="Path_6660" data-name="Path 6660" d="M42.04,47.747a2.589,2.589,0,0,1-1.44-.262l.393-.785a3.822,3.822,0,0,0,1.178.262v.916Z" transform="translate(-38.505 -39.892)" fill="#8bc53f"/>
        <path id="Path_6661" data-name="Path 6661" d="M41.095,47.787A4.089,4.089,0,0,1,39,45.693l.785-.393a3.066,3.066,0,0,0,1.571,1.571l-.393.785Z" transform="translate(-39 -40.325)" fill="#009345"/>
      </g>
      <g id="Group_2814" data-name="Group 2814" transform="translate(0.524 1.178)">
        <path id="Path_6662" data-name="Path 6662" d="M40.316,44.995H39.4a2.6,2.6,0,0,1,.916-2.095l.655.655A2.1,2.1,0,0,0,40.316,44.995Z" transform="translate(-39.4 -42.245)" fill="#f05a28"/>
        <path id="Path_6663" data-name="Path 6663" d="M40.316,46.595A3.089,3.089,0,0,1,39.4,44.5h.916a2.1,2.1,0,0,0,.655,1.44Z" transform="translate(-39.4 -41.751)" fill="#be1e2d"/>
        <path id="Path_6664" data-name="Path 6664" d="M42.195,47.171a2.6,2.6,0,0,1-2.095-.916l.655-.655a2.1,2.1,0,0,0,1.44.655Z" transform="translate(-39.184 -41.411)" fill="#f05a28"/>
        <path id="Path_6665" data-name="Path 6665" d="M43.985,45.956l-.785-.393c0-.262.131-.524.131-.785a1.66,1.66,0,0,0-.131-.785l.785-.393a3.823,3.823,0,0,1,.262,1.178,1.946,1.946,0,0,1-.262,1.178Z" transform="translate(-38.225 -42.029)" fill="#8bc53f"/>
        <path id="Path_6666" data-name="Path 6666" d="M43.378,44.364A2.569,2.569,0,0,0,42.2,43.185l.393-.785a3.066,3.066,0,0,1,1.571,1.571Z" transform="translate(-38.534 -42.4)" fill="#009345"/>
      </g>
      <g id="Group_2815" data-name="Group 2815" transform="translate(1.44 1.833)">
        <path id="Path_6667" data-name="Path 6667" d="M40.985,44.6l-.785-.393A2.015,2.015,0,0,1,42.164,42.9v.916A1.258,1.258,0,0,0,40.985,44.6Z" transform="translate(-40.069 -42.9)" fill="#009345"/>
        <path id="Path_6668" data-name="Path 6668" d="M43.609,44.871h-.916a.975.975,0,0,0-.393-.916l.655-.655a2.1,2.1,0,0,1,.655,1.44Z" transform="translate(-39.42 -42.776)" fill="#26a9e0"/>
        <path id="Path_6669" data-name="Path 6669" d="M42.516,44.209a1.189,1.189,0,0,0-.916-.393V42.9a2.1,2.1,0,0,1,1.44.655l-.655.655Z" transform="translate(-39.636 -42.9)" fill="#8bc53f"/>
        <path id="Path_6670" data-name="Path 6670" d="M43.285,45.316l-.785-.393V44.4h.916a1.66,1.66,0,0,1-.131.785Z" transform="translate(-39.358 -42.436)" fill="#2b388f"/>
        <path id="Path_6671" data-name="Path 6671" d="M41.7,46.409v-.916a.975.975,0,0,0,.916-.393l.655.655a2.1,2.1,0,0,1-1.44.655Z" transform="translate(-39.605 -42.22)" fill="#be1e2d"/>
        <path id="Path_6672" data-name="Path 6672" d="M42.164,46.5A2.292,2.292,0,0,1,40.2,45.193l.785-.393a1.326,1.326,0,0,0,1.178.785Z" transform="translate(-40.069 -42.313)" fill="#00adee"/>
        <path id="Path_6673" data-name="Path 6673" d="M40.231,45.285c0-.262-.131-.524-.131-.785h.916v.524l-.785.393Z" transform="translate(-40.1 -42.405)" fill="#2b388f"/>
      </g>
    </g>
    <path id="Path_6674" data-name="Path 6674" d="M360.438.2H23.724A15.144,15.144,0,0,0,8.8,15.386V256.27a15.059,15.059,0,0,0,14.924,15.186H360.438a15.059,15.059,0,0,0,14.924-15.186V15.386A15.059,15.059,0,0,0,360.438.2Zm1.178,252.928a4.554,4.554,0,0,1-4.582,4.582H27.128a4.639,4.639,0,0,1-4.582-4.582V18.528a4.554,4.554,0,0,1,4.582-4.582H357.034a4.639,4.639,0,0,1,4.582,4.582v234.6Z" transform="translate(-8.8 -0.2)" fill="#fff" stroke="#a4a4a4" stroke-width="0.4"/>
  </g>
  <g id="e" transform="translate(0 41.045)">
    <text id="_2011" data-name="2011" transform="translate(42.416 146.577)" fill="#f8f8f8" font-size="1" font-family="Calibri"><tspan x="0" y="0">2011</tspan></text>
    <text id="_2012" data-name="2012" transform="translate(59.697 146.446)" fill="#f8f8f8" font-size="1" font-family="Calibri"><tspan x="0" y="0">2012</tspan></text>
    <text id="_2013" data-name="2013" transform="translate(76.847 146.446)" fill="#f8f8f8" font-size="1" font-family="Calibri"><tspan x="0" y="0">2013</tspan></text>
    <text id="_2014" data-name="2014" transform="translate(94.913 146.577)" fill="#f8f8f8" font-size="1" font-family="Calibri"><tspan x="0" y="0">2014</tspan></text>
    <rect id="Rectangle_4215" data-name="Rectangle 4215" width="101.983" height="180.532" transform="translate(7.462 25.267)" fill="#fff"/>
    <text id="Next" transform="translate(56.817 220.235)" fill="#fff" font-size="2" font-family="Arial"><tspan x="0" y="0">Next</tspan></text>
    <rect id="Rectangle_4216" data-name="Rectangle 4216" width="26.576" height="26.576" transform="translate(14.401 49.748)" fill="#fff" stroke="#cccbcb" stroke-width="0.4"/>
    <rect id="Rectangle_4217" data-name="Rectangle 4217" width="26.576" height="26.576" transform="translate(45.297 49.748)" fill="#fff" stroke="#cccbcb" stroke-width="0.4"/>
    <rect id="Rectangle_4218" data-name="Rectangle 4218" width="26.576" height="26.576" transform="translate(76.062 49.748)" fill="#fff" stroke="#cccbcb" stroke-width="0.4"/>
    <rect id="Rectangle_4219" data-name="Rectangle 4219" width="26.576" height="26.576" transform="translate(14.401 86.928)" fill="#fff" stroke="#cccbcb" stroke-width="0.4"/>
    <rect id="Rectangle_4220" data-name="Rectangle 4220" width="26.576" height="26.576" transform="translate(45.297 86.928)" fill="#fff" stroke="#cccbcb" stroke-width="0.4"/>
    <rect id="Rectangle_4221" data-name="Rectangle 4221" width="26.576" height="26.576" transform="translate(76.192 86.928)" fill="#fff" stroke="#cccbcb" stroke-width="0.4"/>
    <rect id="Rectangle_4222" data-name="Rectangle 4222" width="26.576" height="26.576" transform="translate(14.401 135.235)" fill="#fff" stroke="#cccbcb" stroke-width="0.4"/>
    <rect id="Rectangle_4223" data-name="Rectangle 4223" width="26.576" height="26.576" transform="translate(45.297 135.235)" fill="#fff" stroke="#cccbcb" stroke-width="0.4"/>
    <rect id="Rectangle_4224" data-name="Rectangle 4224" width="26.576" height="26.576" transform="translate(76.062 135.235)" fill="#fff" stroke="#cccbcb" stroke-width="0.4"/>
    <rect id="Rectangle_4225" data-name="Rectangle 4225" width="26.576" height="26.576" transform="translate(14.401 170.451)" fill="#fff" stroke="#cccbcb" stroke-width="0.4"/>
    <rect id="Rectangle_4226" data-name="Rectangle 4226" width="26.576" height="26.576" transform="translate(45.297 170.451)" fill="#fff" stroke="#cccbcb" stroke-width="0.4"/>
    <g id="Group_2816" data-name="Group 2816" transform="translate(48.962 53.413)">
      <text id="_2" data-name="?" transform="translate(7.069 9.927)" font-size="8" font-family="Myriad Pro"><tspan x="0" y="0">?</tspan></text>
      <rect id="Rectangle_4227" data-name="Rectangle 4227" width="19.244" height="19.244" fill="none"/>
    </g>
    <path id="Path_6675" data-name="Path 6675" d="M23.6,92.739H13V71.4H34.339V82.135Z" transform="translate(4.019 -19.034)" fill="none" stroke="#000" stroke-linejoin="round" stroke-width="0.2"/>
    <path id="Path_6676" data-name="Path 6676" d="M26.217,80.558v3.927H18.1V76.5h4.058Z" transform="translate(5.596 -17.457)" fill="none" stroke="#000" stroke-linejoin="round" stroke-width="0.2"/>
    <path id="Path_6677" data-name="Path 6677" d="M70.735,71.4H81.47V92.739H60v-10.6Z" transform="translate(18.549 -19.034)" fill="none" stroke="#000" stroke-linejoin="round" stroke-width="0.2"/>
    <path id="Path_6678" data-name="Path 6678" d="M65.1,80.558V76.5h8.117v7.986H69.158Z" transform="translate(20.126 -17.457)" fill="#abb2e7" stroke="#abb2e7" stroke-linejoin="round" stroke-width="0.2"/>
    <path id="Path_6679" data-name="Path 6679" d="M47.2,121.139H36.6V99.8H57.939v10.6Z" transform="translate(11.315 -10.254)" fill="none" stroke="#000" stroke-linejoin="round" stroke-width="0.2"/>
    <path id="Path_6680" data-name="Path 6680" d="M49.686,108.858v4.058H41.7V104.8h3.927Z" transform="translate(12.892 -8.708)" fill="#abb2e7" stroke="#abb2e7" stroke-linejoin="round" stroke-width="0.2"/>
    <path id="Path_6681" data-name="Path 6681" d="M55.219,173.709v8.509H38.2V165.2h8.509Z" transform="translate(11.81 9.964)" fill="none" stroke="#000" stroke-linejoin="round" stroke-width="0.2"/>
    <path id="Path_6682" data-name="Path 6682" d="M45.758,168.6h3.927v8.117H41.7v-4.058Z" transform="translate(12.892 11.015)" fill="#abb2e7" stroke="#abb2e7" stroke-linejoin="round" stroke-width="0.2"/>
    <path id="Path_6683" data-name="Path 6683" d="M14.7,173.709V165.2H31.719v17.019H23.209Z" transform="translate(4.544 9.964)" fill="none" stroke="#000" stroke-linejoin="round" stroke-width="0.2"/>
    <path id="Path_6684" data-name="Path 6684" d="M22.158,168.6h3.927v8.117H18.1v-4.058Z" transform="translate(5.596 11.015)" fill="#abb2e7" stroke="#000" stroke-linejoin="round" stroke-width="0.2"/>
    <path id="Path_6685" data-name="Path 6685" d="M61.7,146.809V138.3H78.719v17.019H70.209Z" transform="translate(19.075 1.648)" fill="none" stroke="#000" stroke-linejoin="round" stroke-width="0.2"/>
    <path id="Path_6686" data-name="Path 6686" d="M69.158,149.817H65.1V141.7h8.117v4.058Z" transform="translate(20.126 2.699)" fill="#abb2e7" stroke="#abb2e7" stroke-linejoin="round" stroke-width="0.2"/>
    <path id="Path_6687" data-name="Path 6687" d="M57.939,147.335V158.07H36.6V136.6H47.2Z" transform="translate(11.315 1.123)" fill="#abb2e7" stroke="#abb2e7" stroke-linejoin="round" stroke-width="0.2"/>
    <path id="Path_6688" data-name="Path 6688" d="M22.158,149.817H18.1V141.7h8.117v4.058Z" transform="translate(5.596 2.699)" stroke="#000" stroke-linejoin="round" stroke-width="0.2"/>
    <path id="Path_6689" data-name="Path 6689" d="M14.7,109.909V101.4H31.719v17.019H23.209Z" transform="translate(4.544 -9.76)" fill="none" stroke="#000" stroke-linejoin="round" stroke-width="0.2"/>
    <path id="Path_6690" data-name="Path 6690" d="M22.158,104.8h3.927v8.117H18.1v-4.058Z" transform="translate(5.596 -8.708)" fill="none" stroke="#000" stroke-linejoin="round" stroke-width="0.2"/>
    <path id="Path_6691" data-name="Path 6691" d="M78.819,109.909v8.509H61.8V101.4h8.509Z" transform="translate(19.105 -9.76)" fill="none" stroke="#000" stroke-linejoin="round" stroke-width="0.2"/>
    <path id="Path_6692" data-name="Path 6692" d="M69.258,104.8h4.058v8.117H65.2v-4.058Z" transform="translate(20.157 -8.708)" fill="#abb2e7" stroke="#abb2e7" stroke-linejoin="round" stroke-width="0.2"/>
    <path id="Path_6693" data-name="Path 6693" d="M13,147.335V136.6H34.339v21.47h-10.6Z" transform="translate(4.019 1.123)" fill="none" stroke="#000" stroke-linejoin="round" stroke-width="0.2"/>
    <path id="Path_6694" data-name="Path 6694" d="M22.158,149.817H18.1V141.7h8.117v4.058Z" transform="translate(5.596 2.699)" fill="#abb2e7" stroke="#abb2e7" stroke-linejoin="round" stroke-width="0.2"/>
    <path id="Path_6695" data-name="Path 6695" d="M44.958,141.7h3.927v8.117H40.9v-4.058Z" transform="translate(12.644 2.699)" fill="none" stroke="#000" stroke-linejoin="round" stroke-width="0.2"/>
    <text id="What_replaces_the_question_mark_2" data-name="What replaces the question mark?" transform="translate(14.924 123.358)" fill="#2b2e31" font-size="2" font-family="Arial"><tspan x="0" y="0">What replaces the question mark?</tspan></text>
    <text id="Time_remaining_for_this_page:_00:14" data-name="Time remaining for this page: 00:14" transform="translate(38.751 42.322)" fill="#333" font-size="2" font-family="Arial"><tspan x="0" y="0">Time remaining for this page: 00:14</tspan></text>
    <text id="Page_2_of_5-2" data-name="Page 2 of 5" transform="translate(13.222 33.598)" fill="#333" font-size="1" font-family="Arial"><tspan x="0" y="0">Page 2 of 5</tspan></text>
    <line id="Line_398" data-name="Line 398" x1="88.891" transform="translate(13.222 37.442)" fill="none" stroke="#cccbcb" stroke-width="0.2"/>
    <g id="Group_2817" data-name="Group 2817" transform="translate(90.855 31.943)">
      <rect id="Rectangle_4228" data-name="Rectangle 4228" width="1.571" height="3.273" transform="translate(0 0.131)" fill="#3f53d9"/>
      <rect id="Rectangle_4229" data-name="Rectangle 4229" width="1.571" height="3.273" transform="translate(1.964 0.131)" fill="#3f53d9"/>
      <path id="Path_6696" data-name="Path 6696" d="M73.609,56.062v2.88H72.562v-2.88h1.047m.262-.262H72.3v3.273h1.571V55.8Z" transform="translate(-68.503 -55.67)" fill="#3f53d9"/>
      <path id="Path_6697" data-name="Path 6697" d="M75.009,56.062v2.88H73.962v-2.88h1.047m.262-.262H73.7v3.273h1.571V55.8Z" transform="translate(-68.071 -55.67)" fill="#3f53d9"/>
      <path id="Path_6698" data-name="Path 6698" d="M76.509,56.062v2.88H75.462v-2.88h1.047m.262-.262H75.2v3.273h1.571V55.8Z" transform="translate(-67.607 -55.67)" fill="#3f53d9"/>
      <path id="Path_6699" data-name="Path 6699" d="M78.009,56.062v2.88H76.962v-2.88h1.047m.262-.262H76.7v3.273h1.571V55.8Z" transform="translate(-67.143 -55.67)" fill="#3f53d9"/>
    </g>
    <g id="Group_2821" data-name="Group 2821">
      <path id="Path_6700" data-name="Path 6700" d="M100.926,31.5H14A12.711,12.711,0,0,0,1.3,44.2V248.95a12.711,12.711,0,0,0,12.7,12.7h86.928a12.711,12.711,0,0,0,12.7-12.7V44.2A12.711,12.711,0,0,0,100.926,31.5Zm5.629,203.965H8.238V58.6h98.317V235.465Z" transform="translate(0.402 -31.369)" fill="#fff"/>
      <path id="Path_6701" data-name="Path 6701" d="M99.015,259.745H15.361A12.99,12.99,0,0,1,2.4,246.784V45.961A12.99,12.99,0,0,1,15.361,33H99.015a12.99,12.99,0,0,1,12.961,12.961V246.784a12.99,12.99,0,0,1-12.961,12.961ZM15.361,33.393A12.571,12.571,0,0,0,2.793,45.961V246.784a12.571,12.571,0,0,0,12.568,12.568H99.015a12.571,12.571,0,0,0,12.568-12.568V45.961A12.571,12.571,0,0,0,99.015,33.393Z" transform="translate(0.742 -30.905)" fill="#a4a4a4"/>
      <g id="Group_2818" data-name="Group 2818" transform="translate(40.453 6.153)">
        <path id="Path_6702" data-name="Path 6702" d="M44.44,38.98a1.44,1.44,0,1,1,1.44-1.44A1.453,1.453,0,0,1,44.44,38.98Zm0-2.487a1.047,1.047,0,1,0,1.047,1.047A1.126,1.126,0,0,0,44.44,36.493Z" transform="translate(-27.159 -36.1)" fill="#a4a4a4"/>
        <path id="Path_6703" data-name="Path 6703" d="M32.864,44.627a1.964,1.964,0,1,1,1.964-1.964A2.013,2.013,0,0,1,32.864,44.627Zm0-3.535a1.571,1.571,0,1,0,1.571,1.571A1.513,1.513,0,0,0,32.864,41.093Z" transform="translate(-30.9 -34.678)" fill="#a4a4a4"/>
        <path id="Path_6704" data-name="Path 6704" d="M52.47,43.395H39.247A1.033,1.033,0,0,1,38.2,42.347.964.964,0,0,1,39.247,41.3H52.47a1.033,1.033,0,0,1,1.047,1.047A.964.964,0,0,1,52.47,43.395Zm-13.222-1.7a.655.655,0,1,0,0,1.309H52.47a.655.655,0,1,0,0-1.309Z" transform="translate(-28.643 -34.492)" fill="#a4a4a4"/>
      </g>
      <g id="Group_2819" data-name="Group 2819" transform="translate(49.879 209.071)">
        <path id="Path_6705" data-name="Path 6705" d="M45.777,205.453a6.677,6.677,0,1,1,6.677-6.677A6.7,6.7,0,0,1,45.777,205.453Zm0-12.961a6.285,6.285,0,0,0-6.284,6.284,6.284,6.284,0,1,0,6.284-6.284Z" transform="translate(-37.791 -190.791)" fill="#a4a4a4"/>
        <path id="Path_6706" data-name="Path 6706" d="M46.086,207.072a7.986,7.986,0,1,1,7.986-7.986A7.934,7.934,0,0,1,46.086,207.072Zm0-15.579a7.593,7.593,0,1,0,7.593,7.593A7.6,7.6,0,0,0,46.086,191.493Z" transform="translate(-38.1 -191.1)" fill="#a4a4a4"/>
      </g>
      <g id="Group_2820" data-name="Group 2820" transform="translate(0.131 26.838)">
        <path id="Path_6707" data-name="Path 6707" d="M1.54,61.326H.1V51.9H1.409v9.426ZM.493,60.933h.655v-8.64H.493v8.64Z" transform="translate(-0.1 -51.9)" fill="#a4a4a4"/>
        <path id="Path_6708" data-name="Path 6708" d="M1.54,80.193H.1V65.4H1.409V80.193ZM.493,79.8h.655V65.793H.493V79.8Z" transform="translate(-0.1 -47.726)" fill="#a4a4a4"/>
        <path id="Path_6709" data-name="Path 6709" d="M1.54,93.693H.1V78.9H1.409V93.693ZM.493,93.3h.655V79.293H.493V93.3Z" transform="translate(-0.1 -43.553)" fill="#a4a4a4"/>
      </g>
      <path id="Path_6710" data-name="Path 6710" d="M105.372,229.29H6.4V51.9h98.841V229.29Zm-98.448-.262h98.317V52.293H6.662V229.028Z" transform="translate(1.979 -25.062)" fill="#a4a4a4"/>
      <path id="Path_6711" data-name="Path 6711" d="M101.2,262.465H14.662A13.689,13.689,0,0,1,1.047,248.85V108.509H0V93.323H1.047V90.835H0V75.649H1.047V67.794H0V58.107H1.047V45.015A13.689,13.689,0,0,1,14.662,31.4h86.666a13.689,13.689,0,0,1,13.615,13.615V248.85a13.689,13.689,0,0,1-13.615,13.615ZM.655,107.854H1.7V248.981a12.851,12.851,0,0,0,12.83,12.83H101.2a12.851,12.851,0,0,0,12.83-12.83V45.015a12.85,12.85,0,0,0-12.83-12.83H14.662a12.85,12.85,0,0,0-12.83,12.83V58.761H.785V67.14H1.833v9.295H.785V90.181H1.833v3.927H.785v13.746Z" transform="translate(0 -31.4)" fill="#a4a4a4"/>
    </g>
  </g>
</svg>
