<svg xmlns="http://www.w3.org/2000/svg" xmlns:xlink="http://www.w3.org/1999/xlink" width="388" height="258.628" viewBox="0 0 388 258.628">
  <defs>
    <clipPath id="clip-path">
      <ellipse id="SVGID" cx="21.075" cy="19.133" rx="21.075" ry="19.133" transform="translate(0 28.403) rotate(-42.365)" fill="none"/>
    </clipPath>
  </defs>
  <g id="Group_3169" data-name="Group 3169" transform="translate(-768 -1295)">
    <path id="Path_7392" data-name="Path 7392" d="M263.012,964.637h-57.7a.312.312,0,0,1-.312-.312V941.882a.312.312,0,0,1,.624,0v22.131h57.388a.312.312,0,1,1,0,.624Z" transform="translate(563 588.063)"/>
    <g id="Employee_assessment" data-name="Employee assessment" transform="translate(433.561 960)">
      <path id="Path_7306" data-name="Path 7306" d="M391.882,481.467H334.756a.317.317,0,0,1-.317-.318l.056-72.973a.317.317,0,0,1,.317-.317h0a.317.317,0,0,1,.317.318l-.056,72.656h56.808a.317.317,0,0,1,0,.635Z" transform="translate(0 -62.361)"/>
      <g id="Group_3117" data-name="Group 3117" transform="translate(342.928 335)">
        <g id="Group_3115" data-name="Group 3115">
          <g id="Group_3110" data-name="Group 3110" transform="translate(23.542 7.749)">
            <g id="Group_3109" data-name="Group 3109">
              <path id="Path_7307" data-name="Path 7307" d="M563.705,445c.337-.194,13.03-22.017,10.667-49.1a5.343,5.343,0,0,0-5.706-4.9l-.138.012a5.262,5.262,0,0,0-4.514,3.678c-1.6,5.147-4.419,18.563-5.06,50.312Z" transform="translate(-558.637 -390.662)" fill="#fff"/>
              <path id="Path_7308" data-name="Path 7308" d="M561.819,443.433h-4.751a.318.318,0,0,1-.317-.324c.641-31.728,3.455-45.2,5.075-50.4a5.565,5.565,0,0,1,4.787-3.9l.142-.013a5.664,5.664,0,0,1,6.049,5.192,88.441,88.441,0,0,1-4.336,34.759c-2.835,8.608-6.166,14.456-6.489,14.642A.318.318,0,0,1,561.819,443.433Zm-4.427-.635h4.273a71.92,71.92,0,0,0,6.316-14.605,87.727,87.727,0,0,0,4.19-34.149,5.026,5.026,0,0,0-5.364-4.615l-.133.012a4.932,4.932,0,0,0-4.242,3.457C560.827,398.053,558.044,411.382,557.392,442.8Z" transform="translate(-556.751 -388.779)"/>
            </g>
            <path id="Path_7309" data-name="Path 7309" d="M585.519,510.587a.318.318,0,0,1-.309-.391,212.272,212.272,0,0,0,5.388-35.415.317.317,0,1,1,.633.042,212.946,212.946,0,0,1-5.4,35.521A.318.318,0,0,1,585.519,510.587Z" transform="translate(-581.102 -462.136)"/>
          </g>
          <g id="Group_3112" data-name="Group 3112" transform="translate(14.383)">
            <g id="Group_3111" data-name="Group 3111">
              <path id="Path_7310" data-name="Path 7310" d="M506.94,398.962h-8.793s-2.029-34.442-2.706-47.321,4.79-14.939,7.723-14.363C505.214,337.68,514.038,340.386,506.94,398.962Z" transform="translate(-495.066 -336.876)"/>
              <path id="Path_7311" data-name="Path 7311" d="M505.056,397.4h-8.793a.317.317,0,0,1-.317-.3c-.02-.344-2.037-34.591-2.706-47.323-.43-8.189,1.64-11.783,3.452-13.356a5.461,5.461,0,0,1,4.649-1.336c7.273,1.427,8.7,23.458,4.03,62.034A.317.317,0,0,1,505.056,397.4Zm-8.494-.635h8.213c2.972-24.629,3.481-42.218,1.512-52.279-1.051-5.37-2.756-8.323-5.068-8.776a4.829,4.829,0,0,0-4.111,1.192c-1.705,1.48-3.651,4.91-3.234,12.843C494.509,361.842,496.361,393.353,496.562,396.769Z" transform="translate(-493.183 -335)"/>
            </g>
          </g>
          <g id="Group_3114" data-name="Group 3114" transform="translate(0 21.686)">
            <g id="Group_3113" data-name="Group 3113">
              <path id="Path_7312" data-name="Path 7312" d="M411.483,527.789h-7.135a145.469,145.469,0,0,1-6.418-18.518c-2.613-9.823-3.678-20.984,0-21.525S407.573,491.622,411.483,527.789Z" transform="translate(-395.238 -487.389)" fill="#fff"/>
              <path id="Path_7313" data-name="Path 7313" d="M409.6,526.225h-7.135a.317.317,0,0,1-.291-.19,147.131,147.131,0,0,1-6.435-18.563c-2.154-8.1-3.4-17.682-1.321-20.835A2.267,2.267,0,0,1,396,485.551a4.255,4.255,0,0,1,3.3.959c4.6,3.562,8.175,16.806,10.614,39.363a.317.317,0,0,1-.316.351Zm-6.926-.634h6.573c-2.418-22.165-5.894-35.144-10.333-38.578a3.593,3.593,0,0,0-2.821-.834,1.64,1.64,0,0,0-1.144.806c-1.958,2.973-.645,12.619,1.4,20.323A146.866,146.866,0,0,0,402.678,525.59Z" transform="translate(-393.358 -485.507)"/>
            </g>
            <path id="Path_7314" data-name="Path 7314" d="M439.514,607.519a.317.317,0,0,1-.306-.234l-6.862-25.271a.317.317,0,1,1,.612-.166l6.862,25.271a.318.318,0,0,1-.306.4Z" transform="translate(-426.719 -567.766)"/>
          </g>
          <path id="Path_7315" data-name="Path 7315" d="M547.339,459.088a.317.317,0,0,1-.317-.316l-.265-50.594a.317.317,0,0,1,.316-.319h0a.317.317,0,0,1,.317.316l.265,50.594a.317.317,0,0,1-.316.319Z" transform="translate(-524.655 -397.361)" fill="#fff"/>
        </g>
        <g id="Group_3116" data-name="Group 3116" transform="translate(4.095 59.025)">
          <path id="Path_7316" data-name="Path 7316" d="M426.362,746.862h25.025a2.384,2.384,0,0,1,2.354,2.764L450.248,771.3H427.5l-3.492-21.677A2.384,2.384,0,0,1,426.362,746.862Z" transform="translate(-423.66 -746.545)" fill="#abb2e7"/>
          <path id="Path_7317" data-name="Path 7317" d="M448.365,769.735H425.616a.317.317,0,0,1-.313-.267l-3.492-21.677a2.7,2.7,0,0,1,2.668-3.132H449.5a2.7,2.7,0,0,1,2.667,3.132l-3.492,21.677A.317.317,0,0,1,448.365,769.735Zm-22.479-.635h22.208l3.449-21.41a2.067,2.067,0,0,0-2.041-2.4H424.479a2.067,2.067,0,0,0-2.041,2.4Z" transform="translate(-421.776 -744.66)"/>
        </g>
      </g>
      <g id="Group_3135" data-name="Group 3135" transform="translate(527.112 335.321)">
        <g id="Group_3119" data-name="Group 3119">
          <g id="Group_3118" data-name="Group 3118" transform="translate(0 5.867)">
            <path id="Path_7318" data-name="Path 7318" d="M1896.384,596.509H1729.677a3.172,3.172,0,0,1-3.257-3.524l20.739-209.311a4.027,4.027,0,0,1,3.955-3.524h166.706a3.172,3.172,0,0,1,3.257,3.524l-20.739,209.311A4.027,4.027,0,0,1,1896.384,596.509Z" transform="translate(-1726.086 -379.833)" fill="#fff"/>
            <path id="Path_7319" data-name="Path 7319" d="M1894.5,594.942H1727.792a3.6,3.6,0,0,1-2.677-1.128,3.456,3.456,0,0,1-.9-2.736l20.739-209.325a4.353,4.353,0,0,1,4.271-3.8h166.706a3.6,3.6,0,0,1,2.677,1.128,3.456,3.456,0,0,1,.9,2.736L1898.77,591.137A4.353,4.353,0,0,1,1894.5,594.942ZM1749.23,378.568a3.711,3.711,0,0,0-3.64,3.244l-20.739,209.325a2.855,2.855,0,0,0,.734,2.26,2.966,2.966,0,0,0,2.207.925H1894.5a3.711,3.711,0,0,0,3.64-3.244l20.739-209.325a2.855,2.855,0,0,0-.734-2.26,2.967,2.967,0,0,0-2.207-.925Z" transform="translate(-1724.201 -377.948)"/>
          </g>
          <path id="Path_7320" data-name="Path 7320" d="M2229.911,355.858h-70.79a10.466,10.466,0,0,1-10.6-11.732l.668-6.9h94.255l-.668,6.9A13.214,13.214,0,0,1,2229.911,355.858Z" transform="translate(-2087.338 -337.229)" fill="#3f53d9"/>
        </g>
        <g id="Group_3127" data-name="Group 3127" transform="translate(20.393 78.72)">
          <g id="Group_3120" data-name="Group 3120" transform="translate(10.306)">
            <path id="Path_7321" data-name="Path 7321" d="M1958.923,958.81H1937.58a.317.317,0,0,1-.316-.348l2.067-21.343a.317.317,0,0,1,.316-.287h20.12a.317.317,0,1,1,0,.635h-19.832l-2.005,20.708h20.7l1.484-15.322a.317.317,0,1,1,.631.061l-1.511,15.609A.317.317,0,0,1,1958.923,958.81Z" transform="translate(-1937.263 -934.205)"/>
            <path id="Path_7322" data-name="Path 7322" d="M1971.166,939.536h-.021a.318.318,0,0,1-.249-.15l-7.228-11.707a.317.317,0,1,1,.54-.333l6.994,11.327,16.258-19.962a.317.317,0,1,1,.492.4l-16.54,20.308A.317.317,0,0,1,1971.166,939.536Z" transform="translate(-1959.822 -918.594)" fill="#3f53d9" stroke="#3f53d9" stroke-width="0.5"/>
          </g>
          <g id="Group_3121" data-name="Group 3121" transform="translate(6.874 35.439)">
            <path id="Path_7323" data-name="Path 7323" d="M1935.107,1204.773h-21.343a.317.317,0,0,1-.316-.348l2.067-21.343a.317.317,0,0,1,.316-.287h20.12a.317.317,0,1,1,0,.634h-19.832l-2.005,20.708h20.705l1.484-15.322a.317.317,0,1,1,.631.061l-1.511,15.609A.317.317,0,0,1,1935.107,1204.773Z" transform="translate(-1913.447 -1180.168)"/>
            <path id="Path_7324" data-name="Path 7324" d="M1947.351,1185.5h-.021a.318.318,0,0,1-.249-.15l-7.228-11.707a.317.317,0,1,1,.54-.333l6.994,11.327,16.258-19.962a.317.317,0,1,1,.492.4l-16.54,20.307A.317.317,0,0,1,1947.351,1185.5Z" transform="translate(-1936.007 -1164.557)" fill="#3f53d9" stroke="#3f53d9" stroke-width="0.5"/>
          </g>
          <g id="Group_3122" data-name="Group 3122" transform="translate(3.443 70.879)">
            <path id="Path_7325" data-name="Path 7325" d="M1911.292,1450.736h-21.343a.317.317,0,0,1-.316-.348l2.066-21.343a.318.318,0,0,1,.316-.287h20.121a.317.317,0,0,1,0,.635H1892.3L1890.3,1450.1H1911l1.484-15.322a.317.317,0,1,1,.631.061l-1.511,15.609A.317.317,0,0,1,1911.292,1450.736Z" transform="translate(-1889.631 -1426.131)"/>
            <path id="Path_7326" data-name="Path 7326" d="M1923.536,1431.463h-.021a.317.317,0,0,1-.249-.15l-7.228-11.707a.317.317,0,1,1,.54-.333l6.994,11.327,16.258-19.961a.317.317,0,1,1,.492.4l-16.54,20.307A.317.317,0,0,1,1923.536,1431.463Z" transform="translate(-1912.193 -1410.521)" fill="#3f53d9" stroke="#3f53d9" stroke-width="0.5"/>
          </g>
          <path id="Path_7327" data-name="Path 7327" d="M1887.395,1697.548h-21.343a.317.317,0,0,1-.316-.348l2.066-21.343a.318.318,0,0,1,.316-.287h21.343a.317.317,0,0,1,.316.348l-2.066,21.343A.318.318,0,0,1,1887.395,1697.548Zm-20.993-.635h20.7l2.005-20.708h-20.705Z" transform="translate(-1865.735 -1566.502)"/>
          <g id="Group_3123" data-name="Group 3123" transform="translate(41.339 6.517)">
            <path id="Path_7328" data-name="Path 7328" d="M2705.064,964.463h-33.151a.317.317,0,1,1,0-.635h33.151a.317.317,0,0,1,0,.635Z" transform="translate(-2596.823 -963.828)"/>
            <path id="Path_7329" data-name="Path 7329" d="M2438.064,964.463h-31.9a.317.317,0,0,1,0-.635h31.9a.317.317,0,1,1,0,.635Z" transform="translate(-2369.362 -963.828)"/>
            <path id="Path_7330" data-name="Path 7330" d="M2191.236,964.463h-28.718a.317.317,0,0,1,0-.635h28.718a.317.317,0,0,1,0,.635Z" transform="translate(-2160.824 -963.828)"/>
            <path id="Path_7331" data-name="Path 7331" d="M2777.957,1013.818h-12.614a.317.317,0,0,1,0-.635h12.614a.317.317,0,0,1,0,.635Z" transform="translate(-2676.792 -1006.072)"/>
            <path id="Path_7332" data-name="Path 7332" d="M2396.34,1013.818h-54.655a.317.317,0,0,1,0-.635h54.655a.317.317,0,1,1,0,.635Z" transform="translate(-2314.175 -1006.072)"/>
            <path id="Path_7333" data-name="Path 7333" d="M2177.856,1013.818h-20.116a.317.317,0,0,1,0-.635h20.116a.317.317,0,1,1,0,.635Z" transform="translate(-2156.733 -1006.072)"/>
            <path id="Path_7334" data-name="Path 7334" d="M2576.83,1063.174H2523.7a.317.317,0,1,1,0-.635h53.129a.317.317,0,1,1,0,.635Z" transform="translate(-2469.966 -1048.316)"/>
            <path id="Path_7335" data-name="Path 7335" d="M2199.99,1063.174h-47.031a.317.317,0,1,1,0-.635h47.031a.317.317,0,0,1,0,.635Z" transform="translate(-2152.642 -1048.316)"/>
          </g>
          <g id="Group_3124" data-name="Group 3124" transform="translate(31.209 112.628)">
            <path id="Path_7336" data-name="Path 7336" d="M2634.759,1700.914h-33.152a.317.317,0,0,1,0-.635h33.152a.317.317,0,1,1,0,.635Z" transform="translate(-2526.518 -1700.279)"/>
            <path id="Path_7337" data-name="Path 7337" d="M2367.761,1700.914h-31.9a.317.317,0,1,1,0-.635h31.9a.317.317,0,1,1,0,.635Z" transform="translate(-2299.059 -1700.279)"/>
            <path id="Path_7338" data-name="Path 7338" d="M2120.931,1700.914h-28.718a.317.317,0,1,1,0-.635h28.718a.317.317,0,1,1,0,.635Z" transform="translate(-2090.519 -1700.279)"/>
            <path id="Path_7339" data-name="Path 7339" d="M2707.655,1750.269h-12.613a.317.317,0,0,1,0-.635h12.613a.317.317,0,0,1,0,.635Z" transform="translate(-2606.49 -1742.523)"/>
            <path id="Path_7340" data-name="Path 7340" d="M2475.981,1750.269h-29.413a.317.317,0,1,1,0-.635h29.413a.317.317,0,1,1,0,.635Z" transform="translate(-2393.816 -1742.523)"/>
            <path id="Path_7341" data-name="Path 7341" d="M2123.583,1750.269h-36.147a.317.317,0,1,1,0-.635h36.147a.317.317,0,0,1,0,.635Z" transform="translate(-2086.429 -1742.523)"/>
            <path id="Path_7342" data-name="Path 7342" d="M2506.526,1799.625H2453.4a.317.317,0,1,1,0-.635h53.129a.317.317,0,1,1,0,.635Z" transform="translate(-2399.662 -1784.767)"/>
            <path id="Path_7343" data-name="Path 7343" d="M2129.687,1799.625h-47.031a.317.317,0,0,1,0-.635h47.031a.317.317,0,0,1,0,.635Z" transform="translate(-2082.339 -1784.767)"/>
          </g>
          <g id="Group_3125" data-name="Group 3125" transform="translate(34.615 77.447)">
            <path id="Path_7344" data-name="Path 7344" d="M2658.4,1456.74H2625.25a.317.317,0,1,1,0-.635H2658.4a.317.317,0,0,1,0,.635Z" transform="translate(-2550.16 -1456.105)"/>
            <path id="Path_7345" data-name="Path 7345" d="M2391.4,1456.74h-31.9a.317.317,0,1,1,0-.635h31.9a.317.317,0,0,1,0,.635Z" transform="translate(-2322.7 -1456.105)"/>
            <path id="Path_7346" data-name="Path 7346" d="M2144.574,1456.74h-28.718a.317.317,0,1,1,0-.635h28.718a.317.317,0,1,1,0,.635Z" transform="translate(-2114.162 -1456.105)"/>
            <path id="Path_7347" data-name="Path 7347" d="M2375.066,1506.1h-80.043a.317.317,0,0,1,0-.635h80.043a.317.317,0,0,1,0,.635Z" transform="translate(-2267.513 -1498.35)"/>
            <path id="Path_7348" data-name="Path 7348" d="M2131.194,1506.1h-20.116a.317.317,0,0,1,0-.635h20.116a.317.317,0,1,1,0,.635Z" transform="translate(-2110.072 -1498.35)"/>
            <path id="Path_7349" data-name="Path 7349" d="M2170.115,1555.452H2106.3a.317.317,0,0,1,0-.635h63.817a.317.317,0,1,1,0,.635Z" transform="translate(-2105.98 -1540.594)"/>
          </g>
          <g id="Group_3126" data-name="Group 3126" transform="translate(37.896 42.074)">
            <path id="Path_7350" data-name="Path 7350" d="M2562.494,1211.241h-53.129a.317.317,0,1,1,0-.635h53.129a.317.317,0,1,1,0,.635Z" transform="translate(-2454.253 -1210.606)"/>
            <path id="Path_7351" data-name="Path 7351" d="M2185.654,1211.241h-47.03a.317.317,0,1,1,0-.635h47.03a.317.317,0,0,1,0,.635Z" transform="translate(-2136.929 -1210.606)"/>
            <path id="Path_7352" data-name="Path 7352" d="M2620.349,1260.6h-42.585a.317.317,0,0,1,0-.634h42.585a.317.317,0,0,1,0,.634Z" transform="translate(-2512.797 -1252.851)"/>
            <path id="Path_7353" data-name="Path 7353" d="M2363.7,1260.6h-28.573a.317.317,0,1,1,0-.634H2363.7a.317.317,0,0,1,0,.634Z" transform="translate(-2305.116 -1252.851)"/>
            <path id="Path_7354" data-name="Path 7354" d="M2156.459,1260.6h-22.614a.317.317,0,0,1,0-.634h22.614a.317.317,0,0,1,0,.634Z" transform="translate(-2132.839 -1252.851)"/>
            <path id="Path_7355" data-name="Path 7355" d="M2455.274,1309.952h-24.792a.317.317,0,0,1,0-.635h24.792a.317.317,0,0,1,0,.635Z" transform="translate(-2386.735 -1295.094)"/>
            <path id="Path_7356" data-name="Path 7356" d="M2166.106,1309.952h-37.042a.317.317,0,0,1,0-.635h37.042a.317.317,0,1,1,0,.635Z" transform="translate(-2128.747 -1295.094)"/>
          </g>
        </g>
        <path id="Path_7357" data-name="Path 7357" d="M2401.864,645.349h-77.75a3.189,3.189,0,0,1-3.22-3.565,4.029,4.029,0,0,1,3.911-3.565h77.75a3.189,3.189,0,0,1,3.22,3.565A4.029,4.029,0,0,1,2401.864,645.349Z" transform="translate(-2234.905 -596.86)" fill="#e2eaff"/>
        <path id="Path_7358" data-name="Path 7358" d="M2364.347,734.893h-48.905a3.189,3.189,0,0,1-3.22-3.566,4.028,4.028,0,0,1,3.911-3.565h48.905a3.189,3.189,0,0,1,3.22,3.565A4.029,4.029,0,0,1,2364.347,734.893Z" transform="translate(-2227.483 -673.797)" fill="#e2eaff"/>
        <g id="Group_3134" data-name="Group 3134" transform="translate(22.198 16.772)">
          <g id="Group_3128" data-name="Group 3128" transform="translate(0 0)">
            <ellipse id="Ellipse_528" data-name="Ellipse 528" cx="24.062" cy="21.844" rx="24.062" ry="21.844" transform="translate(0 32.428) rotate(-42.365)" fill="#fff"/>
            <path id="Path_7359" data-name="Path 7359" d="M1962.586,563.59a20.768,20.768,0,0,1-21.075-23.226,26.177,26.177,0,0,1,25.506-23.165,20.768,20.768,0,0,1,21.075,23.226A26.176,26.176,0,0,1,1962.586,563.59Zm4.43-45.756a25.529,25.529,0,0,0-24.874,22.591,20.134,20.134,0,0,0,20.444,22.53,25.529,25.529,0,0,0,24.874-22.591,20.134,20.134,0,0,0-20.444-22.53Z" transform="translate(-1932.302 -508.041)"/>
          </g>
          <g id="Group_3133" data-name="Group 3133" transform="translate(4.034 2.998)">
            <g id="Group_3132" data-name="Group 3132" transform="translate(0 0)" clip-path="url(#clip-path)">
              <g id="Group_3131" data-name="Group 3131" transform="translate(5.148 11.26)">
                <path id="Path_7360" data-name="Path 7360" d="M2019.42,559.66c-6.769.053-11.511,8.553-13.177,11.538-1.428,2.559-4.164,7.462-2.373,9.981,1.45,2.04,4.51.6,13.442.493,9.043-.111,11.889,1.289,13.733-.821,2.242-2.565.432-7.378-.514-9.892C2029.5,568.228,2026.261,559.606,2019.42,559.66Z" transform="translate(-1994.45 -559.659)" fill="#050038"/>
                <g id="Group_3129" data-name="Group 3129" transform="translate(0 15.714)">
                  <path id="Path_7361" data-name="Path 7361" d="M1977.632,681.63l-6.33-1.485.883-9.039-9.758-.187-.94,9.225-6.618,1.485a9.863,9.863,0,0,0-6.954,6l-3.728,12.993h40.448l-1.212-12.993A7.584,7.584,0,0,0,1977.632,681.63Z" transform="translate(-1943.87 -670.603)" fill="#fff"/>
                  <path id="Path_7362" data-name="Path 7362" d="M1982.751,699.061H1942.3a.317.317,0,0,1-.3-.4l3.728-12.993a10.2,10.2,0,0,1,7.189-6.227L1959.31,678l.917-9a.318.318,0,0,1,.316-.285h.006l9.758.187a.317.317,0,0,1,.309.348l-.856,8.762,6.06,1.422a7.9,7.9,0,0,1,6.03,6.253l1.216,13.024a.318.318,0,0,1-.316.347Zm-40.027-.635H1982.4l-1.18-12.646a7.267,7.267,0,0,0-5.548-5.725l-6.33-1.485a.317.317,0,0,1-.243-.34l.85-8.7-9.123-.175-.91,8.935a.318.318,0,0,1-.247.277l-6.618,1.485a9.548,9.548,0,0,0-6.728,5.81Z" transform="translate(-1941.986 -668.718)"/>
                </g>
                <g id="Group_3130" data-name="Group 3130" transform="translate(16.187 2.942)">
                  <path id="Path_7363" data-name="Path 7363" d="M2071.125,589.869c-.106-3.317-2.423-7.616-6.43-7.588-3.866.026-6.75,4.063-7.7,6.946a8.874,8.874,0,0,0-.059,5.42c.075.235,1.817,5.4,6.038,5.357,4.387-.044,7.045-5.668,7.244-6.1A8.9,8.9,0,0,0,2071.125,589.869Z" transform="translate(-2056.228 -581.963)" fill="#fff"/>
                  <path id="Path_7364" data-name="Path 7364" d="M2061.028,598.437c-4.453,0-6.214-5.35-6.287-5.578a9.157,9.157,0,0,1,.059-5.616c.939-2.864,3.843-7.136,7.995-7.165,4.442-.033,6.647,4.694,6.749,7.9a9.273,9.273,0,0,1-.931,4.174c-.292.639-2.984,6.244-7.529,6.29Zm1.807-17.725h-.035c-3.791.026-6.548,4.14-7.4,6.728a8.513,8.513,0,0,0-.058,5.225c.016.052,1.689,5.137,5.685,5.137h.048c4.225-.042,6.849-5.679,6.958-5.919a8.542,8.542,0,0,0,.873-3.89C2068.813,584.934,2066.647,580.712,2062.835,580.712Z" transform="translate(-2054.33 -580.078)" fill="#fff"/>
                </g>
                <path id="Path_7365" data-name="Path 7365" d="M2056.476,581.23l15.356.061c.024-.443.179-4.369-2.8-6.415a7.2,7.2,0,0,0-4.279-1.137,8.463,8.463,0,0,0-4.63,1.5A9.206,9.206,0,0,0,2056.476,581.23Z" transform="translate(-2039.98 -571.706)" fill="#050038"/>
              </g>
            </g>
          </g>
        </g>
      </g>
      <g id="Group_3144" data-name="Group 3144" transform="translate(360.469 389.841)">
        <g id="Group_3136" data-name="Group 3136" transform="translate(17.172)">
          <circle id="Ellipse_529" data-name="Ellipse 529" cx="14.915" cy="14.915" r="14.915" transform="matrix(0.055, -0.998, 0.998, 0.055, 27.331, 29.785)" fill="#050038"/>
          <path id="Path_7366" data-name="Path 7366" d="M734.918,961.718c-17.927,4.707-89.417,22.628-99.378,2.895-3.027-6,.084-14.571,2.185-20.361,6.683-18.418,22.991-27.378,29.867-40.579a69.546,69.546,0,0,0,6.161-18c.165-.989,1.718-9.924,10.181-14.141,4.378-2.182,10.54-2.718,19.148.742,0,0,7.546-1.956,14.158,2.346,4.713,3.066,6.847,7.93,8.186,12.28C731.592,906.926,734.729,958.509,734.918,961.718Z" transform="translate(-634.28 -852.618)" fill="#050038"/>
          <path id="Path_7367" data-name="Path 7367" d="M911.366,881.576a.318.318,0,0,1-.3-.422c1.456-4.169,6.127-13.834,18.075-13.563a.317.317,0,0,1-.007.634h-.007c-.165,0-.331-.006-.493-.006-10.756,0-15.242,8.2-16.968,13.143A.318.318,0,0,1,911.366,881.576Z" transform="translate(-871.171 -850.735)" fill="#fff"/>
        </g>
        <g id="Group_3138" data-name="Group 3138" transform="translate(0 90.245)">
          <g id="Group_3137" data-name="Group 3137" transform="translate(100.913 60.811)">
            <path id="Path_7368" data-name="Path 7368" d="M1284.046,1846.851h-66.372l4.737-38.547,36.349-7.071Z" transform="translate(-1217.356 -1800.916)" fill="#fee6c2"/>
            <path id="Path_7369" data-name="Path 7369" d="M1282.161,1845.283h-66.372a.317.317,0,0,1-.315-.356l4.737-38.547a.317.317,0,0,1,.254-.273l36.349-7.071a.317.317,0,0,1,.338.158l25.286,45.618a.317.317,0,0,1-.278.471Zm-66.013-.635h65.475l-24.913-44.945-35.9,6.983Z" transform="translate(-1215.471 -1799.031)" fill="#fee6c2"/>
          </g>
          <path id="Path_7370" data-name="Path 7370" d="M660.157,1450.244l33.65-.709s-15.052-30.864-24.512-49.106a34.645,34.645,0,0,0-21.945-17.574c-15.663-4.113-41.841-8.743-68.644-3.609a22.885,22.885,0,0,0-14.412,9.272c-9.082,12.875-13.827,39.145-19.581,58.237l37.143.68-8.847,30.911,71.721-.412Z" transform="translate(-540.446 -1376.978)" fill="#3f53d9"/>
          <path id="Path_7371" data-name="Path 7371" d="M657.2,1889.389H540.585A23.293,23.293,0,0,1,517.88,1860.9l3.355-14.651s25.815-6.111,42.663.68l-3.517,14.127h54.674a46.721,46.721,0,0,1,28.774,9.665A37.974,37.974,0,0,1,657.2,1889.389Z" transform="translate(-516.968 -1776.47)" fill="#fee6c2"/>
          <path id="Path_7372" data-name="Path 7372" d="M655.327,1902.819H538.714a23.61,23.61,0,0,1-23.015-28.88l3.355-14.65a.317.317,0,1,1,.618.142l-3.354,14.65a22.976,22.976,0,0,0,22.4,28.1H654.893a37.552,37.552,0,0,0-13.131-18.1,44.752,44.752,0,0,0-13.468-7.177.317.317,0,1,1,.2-.6,45.391,45.391,0,0,1,13.658,7.279,38.075,38.075,0,0,1,13.477,18.827.317.317,0,0,1-.3.411Z" transform="translate(-515.096 -1789.584)"/>
          <path id="Path_7373" data-name="Path 7373" d="M1300.639,2051.579a.317.317,0,0,1-.294-.2,21.6,21.6,0,0,0-13.858-12.388.317.317,0,1,1,.172-.61,22.242,22.242,0,0,1,14.273,12.759.317.317,0,0,1-.174.414A.312.312,0,0,1,1300.639,2051.579Z" transform="translate(-1175.145 -1943.074)"/>
          <path id="Path_7374" data-name="Path 7374" d="M1227.694,2063.866a.318.318,0,0,1-.29-.188,20,20,0,0,0-11.718-10.649.318.318,0,0,1,.2-.6,20.65,20.65,0,0,1,12.1,10.992.317.317,0,0,1-.289.447Z" transform="translate(-1114.557 -1955.092)"/>
          <path id="Path_7375" data-name="Path 7375" d="M853.328,1680.519a.312.312,0,0,1-.093-.014.317.317,0,0,1-.211-.4l7.638-24.98a11.278,11.278,0,0,1,1.724-3.821,3.994,3.994,0,0,1,3.9-1.613.317.317,0,1,1-.146.618,3.44,3.44,0,0,0-3.26,1.391,10.636,10.636,0,0,0-1.614,3.611l-7.638,24.98A.317.317,0,0,1,853.328,1680.519Z" transform="translate(-804.323 -1610.333)"/>
          <path id="Path_7376" data-name="Path 7376" d="M979.477,1430.195a9.821,9.821,0,0,1-5.312-1.687,20.14,20.14,0,0,1-5.213-5.44c-9.3-13.173-12.293-29.863-14.935-44.587a.317.317,0,1,1,.625-.112c2.63,14.66,5.611,31.275,14.829,44.333a19.553,19.553,0,0,0,5.042,5.274,8.433,8.433,0,0,0,6.842,1.327c4.288-1.23,6.135-6.372,6.929-10.47a67.747,67.747,0,0,0-3.343-37.011.317.317,0,1,1,.591-.23,68.384,68.384,0,0,1,3.375,37.362c-1.187,6.126-3.738,9.916-7.377,10.959A7.43,7.43,0,0,1,979.477,1430.195Z" transform="translate(-890.771 -1377.945)"/>
          <path id="Path_7377" data-name="Path 7377" d="M1253.652,1732.114a10.363,10.363,0,0,1-2.341-.262.317.317,0,1,1,.143-.618,11.87,11.87,0,0,0,11.28-4.033,16.544,16.544,0,0,0,3.611-11.835,27.616,27.616,0,0,0-4.023-12.019.317.317,0,0,1,.548-.32,28.245,28.245,0,0,1,4.109,12.3,17.184,17.184,0,0,1-3.763,12.29A12.911,12.911,0,0,1,1253.652,1732.114Z" transform="translate(-1145.024 -1655.914)"/>
        </g>
        <g id="Group_3141" data-name="Group 3141" transform="translate(63.779 34.979)">
          <path id="Path_7378" data-name="Path 7378" d="M986.2,1200.5l-2.494,22.429-23.762-24.756a10.587,10.587,0,0,0,7.091-7.243l6.465-22.861,17.983,9.028Z" transform="translate(-959.631 -1142.906)" fill="#fee6c2"/>
          <path id="Path_7379" data-name="Path 7379" d="M984.318,1198.938a.318.318,0,0,1-.31-.387l5.228-23.162-17.418-8.744-6.36,22.492a10.86,10.86,0,0,1-7.3,7.46.317.317,0,1,1-.185-.607,10.23,10.23,0,0,0,6.878-7.026l6.464-22.861a.317.317,0,0,1,.448-.2l17.983,9.028a.317.317,0,0,1,.168.353l-5.283,23.4A.318.318,0,0,1,984.318,1198.938Z" transform="translate(-957.745 -1141.022)"/>
          <g id="Group_3139" data-name="Group 3139" transform="translate(0.731)">
            <path id="Path_7380" data-name="Path 7380" d="M978.95,1014.973s-4.357-7.361-9.129-5.875c-7.273,2.264-6.8,15.261,5.182,14.635,0,0,14.179,18.114,27.783,13.087s3.627-35.661.988-40.913c0,0-18.07-2.406-19.421,8.488C983.569,1010.733,985.093,1014.973,978.95,1014.973Z" transform="translate(-964.715 -995.354)" fill="#fee6c2"/>
            <path id="Path_7381" data-name="Path 7381" d="M995.957,1036.062c-4.428,0-9.265-1.885-14.248-5.59a52.343,52.343,0,0,1-8.747-8.359c-6.444.279-9.4-3.263-10.015-6.689a7.476,7.476,0,0,1,4.884-8.573c4.615-1.437,8.712,4.753,9.4,5.859,4.319-.06,4.427-2.338,4.621-6.43.055-1.156.117-2.466.291-3.868a8.432,8.432,0,0,1,3.313-5.833c5.594-4.32,16.023-2.99,16.464-2.931a.317.317,0,0,1,.242.172c2.121,4.221,8.92,24.549,4.669,35.327a9.911,9.911,0,0,1-5.83,6.025A14.47,14.47,0,0,1,995.957,1036.062Zm-22.848-14.59a.317.317,0,0,1,.25.122c.14.179,14.192,17.874,27.423,12.985a9.3,9.3,0,0,0,5.46-5.663c4.125-10.461-2.4-30.173-4.57-34.657-1.37-.154-10.817-1.046-15.828,2.824a7.818,7.818,0,0,0-3.07,5.408c-.171,1.378-.232,2.675-.286,3.82-.194,4.085-.334,7.036-5.432,7.036a.317.317,0,0,1-.273-.156c-.042-.071-4.284-7.128-8.762-5.734-3.6,1.121-4.979,4.884-4.448,7.856.57,3.188,3.369,6.478,9.52,6.16Z" transform="translate(-962.82 -993.41)"/>
          </g>
          <path id="Path_7382" data-name="Path 7382" d="M1002.062,1144.987a.316.316,0,0,1-.218-.087,7.428,7.428,0,0,0-6.47-1.868.317.317,0,0,1-.124-.622,8.072,8.072,0,0,1,7.031,2.03.317.317,0,0,1-.218.547Z" transform="translate(-989.628 -1120.814)"/>
          <g id="Group_3140" data-name="Group 3140" transform="translate(14.512 8.639)">
            <path id="Path_7383" data-name="Path 7383" d="M1150.115,1087.143c-2.5,0-4.879-2.075-5.569-5.055a6.908,6.908,0,0,1,.5-4.663,4.74,4.74,0,0,1,7.343-1.7,7.168,7.168,0,0,1,2,8.634,4.888,4.888,0,0,1-3.252,2.666A4.49,4.49,0,0,1,1150.115,1087.143Zm-.8-11.867a3.9,3.9,0,0,0-.881.1,4.265,4.265,0,0,0-2.828,2.334,6.27,6.27,0,0,0-.444,4.234c.7,3.041,3.315,5.044,5.823,4.464a4.266,4.266,0,0,0,2.828-2.335,6.536,6.536,0,0,0-1.814-7.842A4.445,4.445,0,0,0,1149.317,1075.276Z" transform="translate(-1131.977 -1071.576)"/>
            <path id="Path_7384" data-name="Path 7384" d="M1242.068,1065.871a5.068,5.068,0,0,1-3.064-1.086,7.168,7.168,0,0,1-2-8.634,4.74,4.74,0,0,1,7.344-1.7,7.168,7.168,0,0,1,2,8.634,4.889,4.889,0,0,1-3.251,2.667A4.547,4.547,0,0,1,1242.068,1065.871Zm-.786-11.869a3.9,3.9,0,0,0-.882.1,4.266,4.266,0,0,0-2.828,2.334,6.536,6.536,0,0,0,1.814,7.842,4.107,4.107,0,0,0,6.394-1.479,6.536,6.536,0,0,0-1.814-7.842A4.445,4.445,0,0,0,1241.283,1054Z" transform="translate(-1210.692 -1053.367)"/>
            <path id="Path_7385" data-name="Path 7385" d="M1213.37,1101.719a.317.317,0,0,1-.244-.519,3.123,3.123,0,0,1,3.943-.89.317.317,0,0,1-.323.547c-1.67-.987-3.073.676-3.132.747A.316.316,0,0,1,1213.37,1101.719Z" transform="translate(-1190.779 -1093.208)"/>
            <path id="Path_7386" data-name="Path 7386" d="M1071.342,1119.654h-.02l-12.561-.775a.317.317,0,1,1,.039-.633l12.561.775a.317.317,0,0,1-.019.634Z" transform="translate(-1058.463 -1108.896)"/>
          </g>
        </g>
        <g id="Group_3143" data-name="Group 3143" transform="translate(85.826 126.475)">
          <path id="Path_7387" data-name="Path 7387" d="M1245.023,2102.719H1114.036a3.274,3.274,0,0,1-3.274-3.274v-.771a6.44,6.44,0,0,1,6.44-6.44h137.261l-1.1,4.094A8.635,8.635,0,0,1,1245.023,2102.719Z" transform="translate(-1110.762 -2025.407)" fill="#050038"/>
          <g id="Group_3142" data-name="Group 3142" transform="translate(51.604)">
            <path id="Path_7388" data-name="Path 7388" d="M1556.339,1701.937h-81a5.324,5.324,0,0,1-5.168-6.605l15.309-61.758a5.324,5.324,0,0,1,5.168-4.043h81a5.324,5.324,0,0,1,5.168,6.605l-15.309,61.758A5.324,5.324,0,0,1,1556.339,1701.937Z" transform="translate(-1469.852 -1629.372)" fill="#050038"/>
            <path id="Path_7389" data-name="Path 7389" d="M1555.4,1701.153h-81a5.483,5.483,0,0,1-5.322-6.8l15.309-61.758a5.473,5.473,0,0,1,5.322-4.164h81a5.483,5.483,0,0,1,5.322,6.8l-15.309,61.759A5.473,5.473,0,0,1,1555.4,1701.153Zm-65.693-72.407a5.156,5.156,0,0,0-5.014,3.922l-15.309,61.759a5.166,5.166,0,0,0,5.014,6.408h81a5.156,5.156,0,0,0,5.014-3.923l15.309-61.758a5.166,5.166,0,0,0-5.014-6.409Z" transform="translate(-1468.911 -1628.429)" fill="#050038"/>
          </g>
          <path id="Path_7390" data-name="Path 7390" d="M1865.11,1779.037a2.675,2.675,0,1,1-2.675-2.675A2.675,2.675,0,0,1,1865.11,1779.037Z" transform="translate(-1751.842 -1755.047)" fill="#3f53d9"/>
        </g>
      </g>
    </g>
  </g>
</svg>
