<svg xmlns="http://www.w3.org/2000/svg" width="497.538" height="419.817" viewBox="0 0 497.538 419.817">
  <g id="Group_2805" data-name="Group 2805" transform="translate(-125.561 -103.502)">
    <g id="Group_2797" data-name="Group 2797" transform="translate(125.561 122.319)">
      <g id="Group_2787" data-name="Group 2787" transform="translate(0 19.069)">
        <g id="Group_2780" data-name="Group 2780" transform="translate(252.765)" opacity="0.3">
          <path id="Path_6567" data-name="Path 6567" d="M1344.394,239.745h14.977L1330.7,211.073l-28.672,28.672h42.367Z" transform="translate(-1302.027 -211.073)" fill="none" stroke="#abb2e7" stroke-linecap="round" stroke-linejoin="round" stroke-width="1"/>
        </g>
        <path id="Path_6569" data-name="Path 6569" d="M1568.929,1088.031v65.58h27.392v-65.58a23.686,23.686,0,0,1,23.667-23.667h7.829c1.112,0,2.221-.041,3.319-.118a46.412,46.412,0,0,0,43.088-46.289v-14.151a36.391,36.391,0,0,1,36.351-36.35h17.111v14.973l28.672-28.67-28.672-28.672v14.977h-17.111a63.7,63.7,0,0,0-63.742,63.742v14.151a19,19,0,0,1-19.015,19.013h-7.829a51.118,51.118,0,0,0-16.171,2.6q-.711.236-1.415.5a50.527,50.527,0,0,0-11.768,6.17q-1.286.908-2.52,1.9a52.051,52.051,0,0,0-4.23,3.794,50.663,50.663,0,0,0-14.58,29.857A52.062,52.062,0,0,0,1568.929,1088.031Z" transform="translate(-1258.819 -771.68)" fill="#e9ecff"/>
        <path id="Path_6570" data-name="Path 6570" d="M794.537,239.745h14.977V278.7a25.2,25.2,0,0,0,25.173,25.175,15.3,15.3,0,0,1,15.288,15.286h27.392a43.013,43.013,0,0,0-.986-9.191q-.364-1.669-.86-3.3a42.2,42.2,0,0,0-4.477-9.9,42.877,42.877,0,0,0-5.026-6.6q-.562-.609-1.15-1.2A42.386,42.386,0,0,0,836.9,276.533V239.745h14.977l-28.672-28.672Z" transform="translate(-650.807 -191.073)" fill="none" stroke="#abb2e7" stroke-linecap="round" stroke-linejoin="round" stroke-width="1" opacity="0.3"/>
        <g id="Group_2782" data-name="Group 2782" transform="translate(262.599 14.115)">
          <path id="Path_6571" data-name="Path 6571" d="M2129.455,627.255l28.671,28.672L2129.455,684.6Z" transform="translate(-1961.514 -551.953)" fill="#ffb655"/>
          <g id="Group_2781" data-name="Group 2781">
            <path id="Path_6572" data-name="Path 6572" d="M1347.8,428.471V644.586h27.39V428.471a2.89,2.89,0,0,1,2.115-2.983,1.528,1.528,0,0,1,.275-.023c1.3,0,2.391,1.376,2.391,3.006v124.5a35.1,35.1,0,0,0,6.06,19.792,33.99,33.99,0,0,0,21.941,14.428,33.322,33.322,0,0,0,5.076.528c.3.008.6.01.906.01a33.178,33.178,0,0,0,5.987-.541,34.553,34.553,0,0,0,27.922-31.964q.071-1.119.073-2.254V309.315c0-2.84,2-5.153,4.455-5.153s4.454,2.312,4.454,5.153v32.5a52.96,52.96,0,0,0,14.781,36.951,51.835,51.835,0,0,0,5.536,4.981c.377.294.756.58,1.141.862q.8.587,1.626,1.144,1.616,1.091,3.309,2.051c.209.118.42.236.63.352q1.6.877,3.265,1.641c.245.11.489.222.734.329.6.263,1.2.512,1.8.752q.69.27,1.386.52c.13.047.261.1.391.139q.83.292,1.666.553c.1.029.19.06.286.087.046.017.093.029.141.043.327.1.657.195.986.288.437.12.873.234,1.312.344.209.054.423.106.638.155.472.112.949.218,1.425.315.066.015.13.027.2.039.133.027.265.052.4.077s.29.056.435.081q2.288.423,4.618.624,2.169.186,4.376.188h16.241V366.942h-16.241c-13.063,0-23.691-11.271-23.691-25.125v-32.5c0-17.944-14.285-32.544-31.844-32.544s-31.846,14.6-31.846,32.544V552.968c0,4.065-2.959,7.369-6.59,7.369s-6.593-3.3-6.593-7.369v-124.5q0-1.458-.132-2.882a30.567,30.567,0,0,0-7.477-17.391c-.607-.694-1.25-1.359-1.918-2-.11-.1-.22-.207-.331-.309a29.985,29.985,0,0,0-4.747-3.572,29.244,29.244,0,0,0-25.579-2.335q-1.073.41-2.1.9a29.758,29.758,0,0,0-4.492,2.637q-1.191.849-2.292,1.807a30.6,30.6,0,0,0-10.407,20.872C1347.823,426.951,1347.8,427.709,1347.8,428.471Z" transform="translate(-1347.796 -276.771)" fill="#ffb655"/>
          </g>
        </g>
        <g id="Group_2786" data-name="Group 2786" transform="translate(0 57.294)">
          <g id="Group_2785" data-name="Group 2785">
            <g id="Group_2784" data-name="Group 2784" transform="translate(23.119)">
              <g id="Group_2783" data-name="Group 2783">
                <path id="Path_6576" data-name="Path 6576" d="M233.166,568.429v27.392H261.9a43.15,43.15,0,0,0,43.148-43.148V513.818a8.683,8.683,0,1,1,17.366,0V711.142a32.222,32.222,0,1,0,64.444,0v-136.7a2.94,2.94,0,0,1,5.88,0V802.379h27.39V574.442a30.146,30.146,0,0,0-2.412-11.851c-.224-.528-.466-1.05-.717-1.562q-.531-1.072-1.142-2.09a30.575,30.575,0,0,0-7.939-8.8q-.64-.479-1.305-.924a30.294,30.294,0,0,0-31.287-1.421,30.61,30.61,0,0,0-8.6,6.98c-.143.166-.282.333-.421.5-.039.048-.079.1-.118.145A30.193,30.193,0,0,0,363,560.248v0c-.019.033-.037.064-.054.1-.238.448-.462.9-.675,1.359q-.121.261-.236.528c-.029.062-.058.124-.085.187a30.311,30.311,0,0,0-1.525,4.448v0a30.305,30.305,0,0,0-.957,7.571v136.7a4.832,4.832,0,0,1-9.663,0V513.818a36.075,36.075,0,1,0-72.15,0v38.855A15.774,15.774,0,0,1,261.9,568.429Z" transform="translate(-233.166 -477.743)" fill="#abb2e7"/>
              </g>
            </g>
            <path id="Path_6577" data-name="Path 6577" d="M154.232,834.625,125.561,863.3l28.671,28.671Z" transform="translate(-125.561 -757.949)" fill="#abb2e7"/>
          </g>
        </g>
      </g>
      <g id="Group_2796" data-name="Group 2796" transform="translate(40.22 0)">
        <g id="Group_2789" data-name="Group 2789" transform="translate(17.459 -7.894) rotate(2)">
          <g id="Group_2788" data-name="Group 2788" transform="translate(-0.53 0.848)">
            <path id="Path_6579" data-name="Path 6579" d="M1149.105,139.053a16.923,16.923,0,0,0-5.488-12.011q-5.262-5.058-16.4-4.7-10.562.345-16.106,6.23t-5.46,15.121l13.638,1.193q-.317-11.178,7.384-11.429a6.739,6.739,0,0,1,4.4,1.358,5.5,5.5,0,0,1,2.008,4.484,10.43,10.43,0,0,1-1.33,5.752,27.148,27.148,0,0,1-5.308,5.879q-4.642,4.158-5.279,6.656a32.743,32.743,0,0,0-.454,8.179l.068,2.041,12.734-.41q-.14-4.316.684-5.96t4.8-4.907a36.384,36.384,0,0,0,7.961-8.331A15.99,15.99,0,0,0,1149.105,139.053ZM1134.4,171.917l-14.22.463.432,13.222,14.216-.463Z" transform="translate(-1105.649 -122.319)" fill="#fff"/>
          </g>
        </g>
        <g id="Group_2792" data-name="Group 2792" transform="translate(398.514 259.925)">
          <g id="Group_2791" data-name="Group 2791">
            <path id="Path_6581" data-name="Path 6581" d="M2202.817,1339.136q-3.691-5.183-13.3-6.671-9.1-1.408-14.8,2.74t-7.117,12.074l11.492,3.226q1.537-9.627,8.17-8.6a5.838,5.838,0,0,1,3.55,1.873,4.786,4.786,0,0,1,1,4.167,9.105,9.105,0,0,1-2.066,4.716,23.789,23.789,0,0,1-5.494,4.182q-4.658,2.807-5.6,4.849a28.431,28.431,0,0,0-1.707,6.937l-.275,1.761,10.981,1.7q.576-3.725,1.547-5t4.908-3.431a31.9,31.9,0,0,0,8.172-5.855,13.979,13.979,0,0,0,3.316-7.49A14.777,14.777,0,0,0,2202.817,1339.136Zm-27.4,35.071-1.768,11.4,12.26,1.9,1.765-11.4Z" transform="translate(-2167.596 -1332.109)" fill="#ffb655"/>
          </g>
        </g>
        <g id="Group_2793" data-name="Group 2793" transform="translate(369.204 -4.502) rotate(-20)" opacity="0.3">
          <path id="Path_6582" data-name="Path 6582" d="M2062.276,248.6q-2.692-5.942-12.053-9.328-8.873-3.214-15.424-.164t-9.529,10.737l10.914,5.506q3.441-9.378,9.909-7.038a6.03,6.03,0,0,1,3.2,2.581,4.924,4.924,0,0,1,.18,4.388,9.31,9.31,0,0,1-3.007,4.33,24.24,24.24,0,0,1-6.346,3.122q-5.23,1.911-6.583,3.773a29.085,29.085,0,0,0-3.085,6.632l-.623,1.717,10.7,3.871q1.316-3.625,2.54-4.715c.82-.721,2.687-1.553,5.612-2.479a32.612,32.612,0,0,0,9.361-4.277,14.3,14.3,0,0,0,4.811-6.875A15.111,15.111,0,0,0,2062.276,248.6Zm-34.449,29.849-4.023,11.11,11.95,4.326,4.019-11.11Z" transform="translate(-2023.804 -237.623)" fill="none" stroke="#abb2e7" stroke-linecap="round" stroke-linejoin="round" stroke-width="1"/>
        </g>
        <g id="Group_2795" data-name="Group 2795" transform="translate(0 276.472)" opacity="0.3">
          <path id="Path_6584" data-name="Path 6584" d="M353.5,1437.736a38.1,38.1,0,0,0,2.136-11.855,16.7,16.7,0,0,0-3.4-9.211,17.69,17.69,0,0,0-11.714-7.309q-7.5-1.377-17.012,5.364-9.006,6.389-10.446,14.72t3.961,16.33l12.576-6.822q-6.716-9.569-.151-14.223a7.028,7.028,0,0,1,4.618-1.353,5.751,5.751,0,0,1,4.334,2.755,10.885,10.885,0,0,1,2.157,5.776,28.393,28.393,0,0,1-1.233,8.19q-1.657,6.3-.769,8.847a34.2,34.2,0,0,0,4.324,7.392l1.237,1.742,10.865-7.7q-2.614-3.686-2.84-5.59T353.5,1437.736Zm4.865,16.069-12.133,8.6,8,11.279,12.133-8.6Z" transform="translate(-312.76 -1409.127)" fill="none" stroke="#abb2e7" stroke-linecap="round" stroke-linejoin="round" stroke-width="1"/>
        </g>
      </g>
    </g>
    <g id="Group_2804" data-name="Group 2804" transform="translate(211.234 188.435)">
      <g id="Group_2803" data-name="Group 2803" transform="translate(0 0)">
        <path id="Path_6585" data-name="Path 6585" d="M1097.481,1466.9h-58.113l-.524-8.126-3.163-48.982-4,57.108H975.29l3.381-57.4,1.33-22.6a222.583,222.583,0,0,1,1.8-25.484,139.313,139.313,0,0,1,8.54-33.278q.8-2.017,1.668-4.04l14.662.226,4.782.073,27.389.423,15.466.238,24.98.383.883.015,1.473,5.834.056.222,5.2,20.594a242.24,242.24,0,0,1,7.4,41.225Z" transform="translate(-878.397 -1132.011)"/>
        <path id="Path_6586" data-name="Path 6586" d="M1205.836,664.558V648.515l-29.323-13.262c.4,11.373,1.558,22.317-1.286,29.061l-2.132.417,7.79,6.1c8.846,6.931,22.916,3.94,27.113-5.763h0Z" transform="translate(-1033.704 -591.164)" fill="#fee6c2"/>
        <g id="Group_2798" data-name="Group 2798" transform="translate(162.382 22.321)">
          <circle id="Ellipse_503" data-name="Ellipse 503" cx="11.167" cy="11.167" r="11.167" transform="translate(0 19.804) rotate(-62.463)" fill="#fee6c2"/>
        </g>
        <g id="Group_2799" data-name="Group 2799" transform="translate(125.596 22.038)">
          <circle id="Ellipse_504" data-name="Ellipse 504" cx="11.167" cy="11.167" r="11.167" transform="translate(0 11.625) rotate(-31.366)" fill="#fee6c2"/>
        </g>
        <g id="Group_2800" data-name="Group 2800" transform="translate(0 60.125)">
          <path id="Path_6587" data-name="Path 6587" d="M584.953,817.138a6.428,6.428,0,0,1-.657-.211,34.458,34.458,0,0,1-5.543-3.211c-2.293-1.415-4.575-1.662-7.009-2.681a7.312,7.312,0,0,1-4.419-6.338c11.982.6,22.687,9.37,34.661,8.834,2.739-.122,5.972-.56,7.787,1.474a4.693,4.693,0,0,1,.305,5.34c-2.506,4.4-9.162,5.611-13.6,3.193-2.462-1.341-3.767-4.284-6.343-5.4C588.515,817.444,586.65,817.59,584.953,817.138Z" transform="translate(-558.084 -784.327)" fill="#fee6c2"/>
          <path id="Path_6588" data-name="Path 6588" d="M525.473,731.718a11.287,11.287,0,0,1-1.128-5.482,1.808,1.808,0,0,1,.362-1.072,1.459,1.459,0,0,1,1.674-.206,4.172,4.172,0,0,1,1.337,1.192c3.794,4.547,13.1,14.2,11.285,20.628a1.856,1.856,0,0,1-1.906,1.431,2.53,2.53,0,0,1-1.066-.528c-2.918-2.143-4.178-5.412-6.141-8.295A49.625,49.625,0,0,1,525.473,731.718Z" transform="translate(-524.314 -721.588)" fill="#fee6c2"/>
          <path id="Path_6589" data-name="Path 6589" d="M552.114,721.932c-1.367-3.271-2.288-6.7-3.661-9.972-.653-1.555-2.307-2.848-3.761-1.522-1.2,1.095-.486,5.19-.412,6.586.271,5.132,1.349,10.4,4.441,14.684a11.859,11.859,0,0,0,3.952,3.642,6.861,6.861,0,0,0,5.265.6c3.1-1.026.912-4.559-.383-6.052C555.32,727.324,553.446,725.15,552.114,721.932Z" transform="translate(-539.772 -709.887)" fill="#fee6c2"/>
          <path id="Path_6590" data-name="Path 6590" d="M885.294,752.4c7.922,8.9,13.692,21.461,1.435,40.417l-25.477,59q-.123.286-.256.565c-5.747,12.075-19.962,15.5-26.853,4.169l-6.009-13.318,26.717-58.711C861.892,759.163,874.479,749.9,885.294,752.4Z" transform="translate(-762.858 -742.96)" fill="#fee6c2"/>
          <path id="Path_6591" data-name="Path 6591" d="M935.385,817.57l-31.537-14.138,9.234-21.044c7.041-25.369,20.844-32.733,31.659-30.226,7.922,8.9,13.692,21.461,1.435,40.417Z" transform="translate(-822.305 -742.716)" fill="#3f53d9"/>
          <path id="Path_6592" data-name="Path 6592" d="M757.376,898.253,716.471,833l-17.532,11.788L729.1,911.235Z" transform="translate(-661.42 -806.548)" fill="#fee6c2"/>
          <path id="Path_6593" data-name="Path 6593" d="M642.918,739.793c-1.367-3.27-2.288-6.7-3.661-9.972-.653-1.555-2.307-2.848-3.761-1.523-1.2,1.095-.486,5.19-.412,6.586.271,5.132,1.349,10.4,4.441,14.684a11.858,11.858,0,0,0,3.952,3.642,6.861,6.861,0,0,0,5.264.6c3.1-1.026.912-4.559-.384-6.052C646.124,745.185,644.251,743.011,642.918,739.793Z" transform="translate(-611.067 -723.911)" fill="#fee6c2"/>
          <path id="Path_6594" data-name="Path 6594" d="M597.3,731.851c-1.367-3.271-2.288-6.7-3.661-9.972-.653-1.555-2.306-2.848-3.761-1.522-1.2,1.095-.486,5.19-.412,6.586.271,5.132,1.349,10.4,4.441,14.684a11.858,11.858,0,0,0,3.952,3.641,6.858,6.858,0,0,0,5.265.6c3.1-1.026.911-4.559-.384-6.052C600.5,737.243,598.632,735.068,597.3,731.851Z" transform="translate(-575.249 -717.675)" fill="#fee6c2"/>
          <path id="Path_6595" data-name="Path 6595" d="M590.683,772.595A91.086,91.086,0,0,0,566,767.244c-2.757-.236-6.047-.17-7.207,1.621-1.345,2.077,1.229,4.732,3.8,6.425,8.921,5.883,19.967,8.952,30.737,11.343,3.534.785,10.466,3.335,13.452,1.453,2.541-1.6,1.307-4.846-.632-6.792C602.446,777.584,595.952,774.612,590.683,772.595Z" transform="translate(-551.094 -754.844)" fill="#fee6c2"/>
        </g>
        <path id="Path_6596" data-name="Path 6596" d="M1120.419,805.253l-12.1-53.553-12.269,1.039-9.216.991-28.226-1.329-16.928-.474-11.318-.161L1020.04,804.4c-.09,2.89,1.735,20.858,1.623,23.8-.964,25.189-4.843,48.77,4,50.564L1117.5,881.9c7-2.335,2.783-23.649,2.914-39.447Z" transform="translate(-913.489 -682.592)" fill="#3f53d9"/>
        <path id="Path_6597" data-name="Path 6597" d="M1176.664,454.294a10.294,10.294,0,0,0-1.435-3.741c-.509-.8-1.911-1.755-2.222-2.394-1.266-2.607-.3-5.417-2.686-7.847-2.957-3.012-9.884-4.563-13.833-5.887a96.591,96.591,0,0,0-17.709-4.133c-2.637-.358-5.55-.542-7.723.992s-2.631,5.462-.228,6.6c-2.441-1.362-5.818-1.38-7.78.611s-1.433,6.049,1.233,6.89c-.739-1.7-3.611-1.239-4.375.447s.039,3.693,1.217,5.121,2.718,2.54,3.785,4.052a16.638,16.638,0,0,1,2.17,5.51c2.577,9.859,2.38,20.177,10.8,27.607a6.09,6.09,0,0,0,4.517,1.642,21.151,21.151,0,0,0,2.919-.758,8.667,8.667,0,0,1,4.614.129c1.279.395,2.454,1.083,3.739,1.461,5.077,1.491,10.852-2.315,13.565-6.364,3.052-4.554,4.165-10.06,6.454-14.98,2.172-4.668,3.486-8.539,3.123-13.775A11.437,11.437,0,0,0,1176.664,454.294Z" transform="translate(-991.707 -430.045)"/>
        <line id="Line_391" data-name="Line 391" x1="13.107" y2="25.242" transform="translate(219.77 127.12)" fill="none" stroke="#231f20" stroke-linecap="round" stroke-linejoin="round" stroke-width="2.801"/>
        <g id="Group_2802" data-name="Group 2802" transform="translate(180.213 59.841)">
          <path id="Path_6598" data-name="Path 6598" d="M1380.2,752.4c-7.922,8.9-13.692,21.461-1.436,40.417l25.477,59q.123.286.256.565c5.747,12.075,19.962,15.5,26.853,4.169l6.01-13.318-26.718-58.711C1403.6,759.163,1391.016,749.9,1380.2,752.4Z" transform="translate(-1369.839 -742.676)" fill="#fee6c2"/>
          <path id="Path_6599" data-name="Path 6599" d="M1378.488,820.626l36.995-17.893-10.37-20.345c-7.041-25.369-20.844-32.733-31.659-30.226-7.922,8.9-16.47,21.763-4.214,40.719Z" transform="translate(-1363.092 -742.432)" fill="#3f53d9"/>
          <path id="Path_6600" data-name="Path 6600" d="M1391.707,943.371l9.249,27.746,6.166-3.083" transform="translate(-1385.559 -892.923)" fill="none" stroke="#231f20" stroke-linecap="round" stroke-linejoin="round" stroke-width="1"/>
          <path id="Path_6601" data-name="Path 6601" d="M1534.571,900.174l38.262-64.729,20.839,9.8-30.826,67.91Z" transform="translate(-1497.729 -808.185)" fill="#fee6c2"/>
          <g id="Group_2801" data-name="Group 2801" transform="translate(72.975)">
            <path id="Path_6602" data-name="Path 6602" d="M1750.634,819.1a6.581,6.581,0,0,0,.677-.218,35.487,35.487,0,0,0,5.712-3.309c2.364-1.459,4.715-1.713,7.224-2.763a7.536,7.536,0,0,0,4.554-6.532c-12.348.623-23.381,9.657-35.722,9.1-2.823-.126-6.155-.577-8.025,1.52a4.836,4.836,0,0,0-.314,5.5c2.583,4.537,9.442,5.782,14.018,3.291,2.538-1.382,3.882-4.415,6.537-5.561C1746.962,819.414,1748.885,819.564,1750.634,819.1Z" transform="translate(-1719.461 -785.284)" fill="#fee6c2"/>
            <path id="Path_6603" data-name="Path 6603" d="M1919.334,731.065a11.629,11.629,0,0,0,1.163-5.65,1.863,1.863,0,0,0-.374-1.105,1.5,1.5,0,0,0-1.725-.213,4.294,4.294,0,0,0-1.378,1.229c-3.91,4.686-13.5,14.635-11.63,21.259a1.913,1.913,0,0,0,1.964,1.475,2.608,2.608,0,0,0,1.1-.544c3.007-2.208,4.306-5.578,6.329-8.549A51.117,51.117,0,0,0,1919.334,731.065Z" transform="translate(-1861.665 -720.625)" fill="#fee6c2"/>
            <path id="Path_6604" data-name="Path 6604" d="M1889.624,720.98c1.409-3.371,2.358-6.91,3.773-10.278.673-1.6,2.377-2.936,3.877-1.569,1.237,1.128.5,5.348.425,6.787-.279,5.289-1.39,10.72-4.576,15.133a12.225,12.225,0,0,1-4.073,3.753,7.07,7.07,0,0,1-5.426.62c-3.2-1.057-.939-4.7.4-6.237C1886.321,726.537,1888.251,724.3,1889.624,720.98Z" transform="translate(-1843.48 -708.566)" fill="#fee6c2"/>
            <path id="Path_6605" data-name="Path 6605" d="M1796.041,739.387c1.409-3.371,2.358-6.91,3.773-10.278.673-1.6,2.377-2.935,3.876-1.569,1.238,1.128.5,5.349.425,6.787-.279,5.289-1.391,10.72-4.576,15.133a12.228,12.228,0,0,1-4.073,3.753,7.069,7.069,0,0,1-5.426.62c-3.2-1.058-.94-4.7.4-6.237C1792.738,744.945,1794.668,742.7,1796.041,739.387Z" transform="translate(-1770.003 -723.019)" fill="#fee6c2"/>
            <path id="Path_6606" data-name="Path 6606" d="M1843.056,731.2c1.409-3.371,2.358-6.909,3.773-10.278.673-1.6,2.377-2.935,3.876-1.569,1.238,1.128.5,5.349.425,6.787-.279,5.289-1.391,10.72-4.577,15.133a12.218,12.218,0,0,1-4.073,3.753,7.07,7.07,0,0,1-5.426.62c-3.2-1.058-.94-4.7.4-6.237C1839.753,736.759,1841.683,734.518,1843.056,731.2Z" transform="translate(-1806.917 -716.592)" fill="#fee6c2"/>
            <path id="Path_6607" data-name="Path 6607" d="M1720.808,773.192a93.887,93.887,0,0,1,25.441-5.515c2.841-.243,6.232-.175,7.427,1.671,1.386,2.141-1.266,4.876-3.913,6.622-9.194,6.063-20.577,9.226-31.678,11.69-3.642.809-10.786,3.437-13.864,1.5-2.618-1.65-1.347-4.994.652-7C1708.685,778.334,1715.378,775.271,1720.808,773.192Z" transform="translate(-1702.745 -754.898)" fill="#fee6c2"/>
          </g>
        </g>
        <line id="Line_392" data-name="Line 392" x1="9.249" y2="21.58" transform="translate(72.295 125.703)" fill="none" stroke="#231f20" stroke-linecap="round" stroke-linejoin="round" stroke-width="1"/>
        <line id="Line_393" data-name="Line 393" x2="12.503" y2="21.751" transform="translate(232.603 125.703)" fill="none" stroke="#231f20" stroke-linecap="round" stroke-linejoin="round" stroke-width="1"/>
        <line id="Line_394" data-name="Line 394" x1="1.477" y1="15.683" transform="translate(106.248 116.895)" fill="none" stroke="#231f20" stroke-linecap="round" stroke-linejoin="round" stroke-width="1"/>
        <path id="Path_6608" data-name="Path 6608" d="M1229.013,1709.256l-3.345-61.595-.406-6.583-7.554-6.885" transform="translate(-1068.731 -1375.48)" fill="none" stroke="#3d3d3f" stroke-linecap="square" stroke-linejoin="round" stroke-width="1"/>
      </g>
    </g>
  </g>
</svg>
