<svg xmlns="http://www.w3.org/2000/svg" width="383.5" height="254.991" viewBox="0 0 383.5 254.991">
  <g id="Sitemap_creation" data-name="Sitemap creation" transform="translate(-1731.493 -186.683)">
    <g id="Group_2963" data-name="Group 2963" transform="translate(1768.699 186.683)">
      <g id="Group_2957" data-name="Group 2957">
        <rect id="Rectangle_4238" data-name="Rectangle 4238" width="313.584" height="239.476" rx="22.204" transform="translate(0.318 0.318)" fill="#fff"/>
        <path id="Path_7067" data-name="Path 7067" d="M2155.577,426.795H1855.551a7.123,7.123,0,0,1-7.1-7.132V193.816a7.123,7.123,0,0,1,7.1-7.133h300.027a7.122,7.122,0,0,1,7.1,7.133V419.662A7.122,7.122,0,0,1,2155.577,426.795ZM1855.551,187.3a6.508,6.508,0,0,0-6.485,6.518V419.662a6.509,6.509,0,0,0,6.485,6.518h300.027a6.509,6.509,0,0,0,6.485-6.518V193.816a6.508,6.508,0,0,0-6.485-6.518Z" transform="translate(-1848.454 -186.683)"/>
      </g>
      <g id="Group_2961" data-name="Group 2961" transform="translate(8.117 8.648)">
        <g id="Group_2958" data-name="Group 2958">
          <ellipse id="Ellipse_514" data-name="Ellipse 514" cx="5.146" cy="5.142" rx="5.146" ry="5.142" transform="translate(0.318 0.318)" fill="#fff"/>
          <path id="Path_7068" data-name="Path 7068" d="M1879.434,224.787a5.46,5.46,0,1,1,5.464-5.46A5.468,5.468,0,0,1,1879.434,224.787Zm0-10.283a4.823,4.823,0,1,0,4.828,4.823A4.831,4.831,0,0,0,1879.434,214.5Z" transform="translate(-1873.97 -213.868)"/>
        </g>
        <g id="Group_2959" data-name="Group 2959" transform="translate(15.018)">
          <ellipse id="Ellipse_515" data-name="Ellipse 515" cx="5.146" cy="5.142" rx="5.146" ry="5.142" transform="translate(0.318 0.318)" fill="#fff"/>
          <path id="Path_7069" data-name="Path 7069" d="M1926.643,224.787a5.46,5.46,0,1,1,5.464-5.46A5.468,5.468,0,0,1,1926.643,224.787Zm0-10.283a4.823,4.823,0,1,0,4.828,4.823A4.831,4.831,0,0,0,1926.643,214.5Z" transform="translate(-1921.179 -213.868)"/>
        </g>
        <g id="Group_2960" data-name="Group 2960" transform="translate(30.035)">
          <ellipse id="Ellipse_516" data-name="Ellipse 516" cx="5.146" cy="5.142" rx="5.146" ry="5.142" transform="translate(0.318 0.318)" fill="#fff"/>
          <path id="Path_7070" data-name="Path 7070" d="M1973.852,224.787a5.46,5.46,0,1,1,5.464-5.46A5.468,5.468,0,0,1,1973.852,224.787Zm0-10.283a4.823,4.823,0,1,0,4.828,4.823A4.831,4.831,0,0,0,1973.852,214.5Z" transform="translate(-1968.388 -213.868)"/>
        </g>
      </g>
      <g id="Group_2962" data-name="Group 2962" transform="translate(84.603 10.07)">
        <path id="Path_7071" data-name="Path 7071" d="M2334.024,225.85H2158.278a3.255,3.255,0,0,1,0-6.51h175.746a3.255,3.255,0,1,1,0,6.51Z" transform="translate(-2154.705 -219.022)" fill="#fff"/>
        <path id="Path_7072" data-name="Path 7072" d="M2333.342,225.487H2157.6a3.573,3.573,0,0,1,0-7.147h175.746a3.573,3.573,0,1,1,0,7.147Zm-175.746-6.51a2.937,2.937,0,1,0,0,5.874h175.746a2.937,2.937,0,1,0,0-5.874Z" transform="translate(-2154.023 -218.34)"/>
      </g>
      <path id="Path_7073" data-name="Path 7073" d="M2168.734,476.694H1866.258a.305.305,0,0,1-.306-.306V271.736a.305.305,0,0,1,.306-.306h302.476a.306.306,0,0,1,.306.306V476.389A.306.306,0,0,1,2168.734,476.694Zm-302.17-.611h301.865V272.041H1866.564Z" transform="translate(-1860.386 -244.471)"/>
    </g>
    <g id="Group_2967" data-name="Group 2967" transform="translate(1731.493 236.706)">
      <g id="Group_2964" data-name="Group 2964" transform="translate(0 0)">
        <rect id="Rectangle_4239" data-name="Rectangle 4239" width="99.163" height="65.431" transform="translate(0.328 17.186) rotate(-9.795)" fill="#fff"/>
        <path id="Path_7074" data-name="Path 7074" d="M1742.961,433.529a.318.318,0,0,1-.313-.264l-11.15-64.474a.318.318,0,0,1,.259-.368l97.718-16.87a.318.318,0,0,1,.368.259l11.151,64.474a.318.318,0,0,1-.26.368l-97.718,16.87A.319.319,0,0,1,1742.961,433.529ZM1732.179,369l11.042,63.847,97.091-16.762-11.042-63.847Z" transform="translate(-1731.493 -351.549)"/>
      </g>
      <g id="Group_2965" data-name="Group 2965" transform="translate(0 0)">
        <rect id="Rectangle_4240" data-name="Rectangle 4240" width="99.163" height="35.113" transform="translate(0.323 17.187) rotate(-9.795)" fill="#fff"/>
        <path id="Path_7075" data-name="Path 7075" d="M1737.795,403.654a.318.318,0,0,1-.313-.264l-5.984-34.6a.318.318,0,0,1,.259-.368l97.718-16.87a.318.318,0,0,1,.368.259l5.984,34.6a.317.317,0,0,1-.259.368l-97.717,16.87A.308.308,0,0,1,1737.795,403.654ZM1732.179,369l5.875,33.972,97.09-16.761-5.875-33.973Z" transform="translate(-1731.493 -351.549)"/>
      </g>
      <path id="Path_7076" data-name="Path 7076" d="M1742.961,451.445a.318.318,0,0,1-.313-.264l-11.15-64.474a.318.318,0,0,1,.259-.367l49.3-8.512a.319.319,0,0,1,.368.259l11.15,64.474a.318.318,0,0,1-.259.367l-49.3,8.512A.319.319,0,0,1,1742.961,451.445Zm-10.782-64.533,11.042,63.847,48.675-8.4-11.042-63.847Z" transform="translate(-1731.493 -369.466)"/>
      <g id="Group_2966" data-name="Group 2966" transform="translate(0 0)">
        <rect id="Rectangle_4241" data-name="Rectangle 4241" width="99.163" height="5.974" transform="translate(0.319 17.188) rotate(-9.795)" fill="#fff"/>
        <path id="Path_7077" data-name="Path 7077" d="M1732.829,374.941a.318.318,0,0,1-.313-.264l-1.018-5.886a.318.318,0,0,1,.259-.368l97.718-16.87a.318.318,0,0,1,.368.259l1.018,5.886a.318.318,0,0,1-.259.368l-97.718,16.87A.318.318,0,0,1,1732.829,374.941Zm-.65-5.945.91,5.259,97.09-16.762-.909-5.259Z" transform="translate(-1731.493 -351.549)"/>
      </g>
    </g>
    <g id="Group_2980" data-name="Group 2980" transform="translate(1830.427 226.424)">
      <rect id="Rectangle_4242" data-name="Rectangle 4242" width="54.542" height="40.554" transform="translate(115.826 0)" fill="#abb2e7"/>
      <g id="Group_2969" data-name="Group 2969" transform="translate(88.862 40.235)">
        <path id="Path_7078" data-name="Path 7078" d="M2361.777,504.951a.318.318,0,0,1-.318-.318V474.807a.318.318,0,0,1,.318-.318h107.834a.318.318,0,0,1,.318.318v28.242a.318.318,0,0,1-.636,0V475.125H2362.1v29.507A.318.318,0,0,1,2361.777,504.951Z" transform="translate(-2361.459 -466.295)"/>
        <g id="Group_2968" data-name="Group 2968" transform="translate(53.589)">
          <path id="Path_7079" data-name="Path 7079" d="M2530.92,449.733v0Z" transform="translate(-2530.602 -449.415)" fill="#fff"/>
          <path id="Path_7080" data-name="Path 7080" d="M2530.238,457.289a.318.318,0,0,1-.318-.318V449.05a.318.318,0,1,1,.636,0v7.921A.318.318,0,0,1,2530.238,457.289Z" transform="translate(-2529.92 -448.732)"/>
        </g>
      </g>
      <g id="Group_2970" data-name="Group 2970" transform="translate(61.975 57.058)">
        <rect id="Rectangle_4243" data-name="Rectangle 4243" width="54.542" height="40.554" transform="translate(0.318 0.318)" fill="#fff"/>
        <path id="Path_7081" data-name="Path 7081" d="M2331.8,542.806h-54.542a.318.318,0,0,1-.318-.318V501.934a.318.318,0,0,1,.318-.318H2331.8a.318.318,0,0,1,.318.318v40.553A.318.318,0,0,1,2331.8,542.806Zm-54.224-.636h53.906V502.252h-53.906Z" transform="translate(-2276.939 -501.616)"/>
      </g>
      <rect id="Rectangle_4244" data-name="Rectangle 4244" width="54.542" height="40.554" transform="translate(169.359 57.376)" fill="#abb2e7"/>
      <g id="Group_2974" data-name="Group 2974" transform="translate(0 98.584)">
        <g id="Group_2972" data-name="Group 2972" transform="translate(26.569)">
          <path id="Path_7082" data-name="Path 7082" d="M2165.954,688.375a.318.318,0,0,1-.318-.318V658.231a.318.318,0,0,1,.318-.318h83.5a.318.318,0,0,1,.318.318v28.241a.318.318,0,1,1-.636,0V658.549h-82.865v29.507A.318.318,0,0,1,2165.954,688.375Z" transform="translate(-2165.636 -649.719)"/>
          <g id="Group_2971" data-name="Group 2971" transform="translate(67.216)">
            <path id="Path_7083" data-name="Path 7083" d="M2377.933,633.156v0Z" transform="translate(-2377.615 -632.838)" fill="#fff"/>
            <path id="Path_7084" data-name="Path 7084" d="M2377.252,640.713a.318.318,0,0,1-.318-.318v-7.921a.318.318,0,1,1,.636,0v7.921A.318.318,0,0,1,2377.252,640.713Z" transform="translate(-2376.934 -632.156)"/>
          </g>
        </g>
        <rect id="Rectangle_4245" data-name="Rectangle 4245" width="54.542" height="40.554" transform="translate(0 17.141)" fill="#abb2e7"/>
        <g id="Group_2973" data-name="Group 2973" transform="translate(82.415 16.823)">
          <rect id="Rectangle_4246" data-name="Rectangle 4246" width="54.542" height="40.554" transform="translate(0.318 0.318)" fill="#fff"/>
          <path id="Path_7085" data-name="Path 7085" d="M2396.053,726.229h-54.541a.318.318,0,0,1-.318-.318V685.357a.318.318,0,0,1,.318-.318h54.541a.317.317,0,0,1,.318.318v40.553A.318.318,0,0,1,2396.053,726.229Zm-54.223-.636h53.905V685.675h-53.905Z" transform="translate(-2341.193 -685.039)"/>
        </g>
      </g>
      <g id="Group_2979" data-name="Group 2979" transform="translate(150.548 98.584)">
        <g id="Group_2976" data-name="Group 2976" transform="translate(26.887)">
          <path id="Path_7086" data-name="Path 7086" d="M2718.848,688.375a.318.318,0,0,1-.318-.318V658.549h-78v27.923a.318.318,0,0,1-.636,0V658.231a.318.318,0,0,1,.318-.318h78.635a.318.318,0,0,1,.318.318v29.826A.318.318,0,0,1,2718.848,688.375Z" transform="translate(-2639.895 -649.719)"/>
          <g id="Group_2975" data-name="Group 2975" transform="translate(16.286)">
            <path id="Path_7087" data-name="Path 7087" d="M2692.09,633.156v0Z" transform="translate(-2691.772 -632.838)" fill="#fff"/>
            <path id="Path_7088" data-name="Path 7088" d="M2691.408,640.713a.318.318,0,0,1-.318-.318v-7.921a.318.318,0,0,1,.636,0v7.921A.318.318,0,0,1,2691.408,640.713Z" transform="translate(-2691.09 -632.156)"/>
          </g>
        </g>
        <g id="Group_2977" data-name="Group 2977" transform="translate(78.84 16.823)">
          <rect id="Rectangle_4247" data-name="Rectangle 4247" width="54.542" height="40.554" transform="translate(54.86 40.872) rotate(180)" fill="#fff"/>
          <path id="Path_7089" data-name="Path 7089" d="M2858.073,726.229h-54.542a.318.318,0,0,1-.318-.318V685.357a.318.318,0,0,1,.318-.318h54.542a.318.318,0,0,1,.318.318v40.553A.318.318,0,0,1,2858.073,726.229Zm-54.224-.636h53.906V685.675h-53.906Z" transform="translate(-2803.213 -685.039)"/>
        </g>
        <g id="Group_2978" data-name="Group 2978" transform="translate(0 16.823)">
          <rect id="Rectangle_4248" data-name="Rectangle 4248" width="54.542" height="40.554" transform="translate(54.86 40.872) rotate(180)" fill="#fff"/>
          <path id="Path_7090" data-name="Path 7090" d="M2610.234,726.229h-54.542a.318.318,0,0,1-.318-.318V685.357a.318.318,0,0,1,.318-.318h54.542a.318.318,0,0,1,.319.318v40.553A.318.318,0,0,1,2610.234,726.229Zm-54.223-.636h53.906V685.675H2556.01Z" transform="translate(-2555.374 -685.039)"/>
        </g>
      </g>
    </g>
    <g id="Group_2988" data-name="Group 2988" transform="translate(1839.948 238.984)">
      <g id="Group_2981" data-name="Group 2981" transform="translate(0 0)">
        <rect id="Rectangle_4249" data-name="Rectangle 4249" width="99.138" height="65.448" transform="translate(37.097 0.303) rotate(34.168)" fill="#fff"/>
        <path id="Path_7091" data-name="Path 7091" d="M2171.046,471.061a.316.316,0,0,1-.179-.055l-82.026-55.678a.319.319,0,0,1-.085-.442l36.8-54.121a.318.318,0,0,1,.441-.084l82.027,55.678a.317.317,0,0,1,.084.442l-36.8,54.121A.318.318,0,0,1,2171.046,471.061Zm-81.584-56.081,81.5,55.321,36.443-53.595-81.5-55.321Z" transform="translate(-2088.701 -360.625)"/>
      </g>
      <g id="Group_2982" data-name="Group 2982" transform="translate(0 0)">
        <rect id="Rectangle_4250" data-name="Rectangle 4250" width="49.463" height="65.448" transform="matrix(0.827, 0.562, -0.562, 0.827, 37.097, 0.303)" fill="#fff"/>
        <path id="Path_7092" data-name="Path 7092" d="M2129.944,443.161a.315.315,0,0,1-.178-.055l-40.925-27.779a.319.319,0,0,1-.085-.442l36.8-54.121a.318.318,0,0,1,.441-.084l40.926,27.779a.317.317,0,0,1,.084.442l-36.8,54.12A.318.318,0,0,1,2129.944,443.161Zm-40.483-28.182,40.4,27.422,36.442-53.594-40.4-27.422Z" transform="translate(-2088.701 -360.625)"/>
      </g>
      <g id="Group_2983" data-name="Group 2983" transform="translate(0 35.288)">
        <rect id="Rectangle_4251" data-name="Rectangle 4251" width="33.012" height="22.774" transform="matrix(0.827, 0.562, -0.562, 0.827, 13.116, 0.313)" fill="#fff"/>
        <path id="Path_7093" data-name="Path 7093" d="M2116.333,509.566a.316.316,0,0,1-.178-.055l-27.314-18.54a.319.319,0,0,1-.085-.442l12.806-18.833a.319.319,0,0,1,.442-.084l27.313,18.54a.318.318,0,0,1,.084.442L2116.6,509.427A.319.319,0,0,1,2116.333,509.566Zm-26.871-18.942,26.788,18.182L2128.7,490.5l-26.787-18.183Z" transform="translate(-2088.701 -471.557)"/>
      </g>
      <g id="Group_2984" data-name="Group 2984" transform="translate(27.346 53.85)">
        <rect id="Rectangle_4252" data-name="Rectangle 4252" width="33.012" height="22.774" transform="matrix(0.827, 0.562, -0.562, 0.827, 13.116, 0.313)" fill="#fff"/>
        <path id="Path_7094" data-name="Path 7094" d="M2202.3,567.916a.315.315,0,0,1-.178-.055l-27.313-18.54a.313.313,0,0,1-.134-.2.317.317,0,0,1,.049-.239l12.806-18.832a.318.318,0,0,1,.441-.084l27.314,18.54a.317.317,0,0,1,.084.442l-12.805,18.833A.318.318,0,0,1,2202.3,567.916Zm-26.871-18.943,26.787,18.183,12.448-18.307-26.788-18.182Z" transform="translate(-2174.664 -529.908)"/>
      </g>
      <g id="Group_2985" data-name="Group 2985" transform="translate(54.691 72.412)">
        <rect id="Rectangle_4253" data-name="Rectangle 4253" width="33.012" height="22.774" transform="matrix(0.827, 0.562, -0.562, 0.827, 13.116, 0.313)" fill="#fff"/>
        <path id="Path_7095" data-name="Path 7095" d="M2288.259,626.266a.315.315,0,0,1-.178-.055l-27.313-18.54a.321.321,0,0,1-.134-.2.317.317,0,0,1,.05-.239l12.805-18.833a.319.319,0,0,1,.442-.084l27.314,18.54a.317.317,0,0,1,.084.442l-12.806,18.832A.317.317,0,0,1,2288.259,626.266Zm-26.871-18.942,26.787,18.183,12.447-18.306-26.787-18.183Z" transform="translate(-2260.627 -588.257)"/>
      </g>
      <g id="Group_2986" data-name="Group 2986" transform="translate(33.441 0)">
        <rect id="Rectangle_4254" data-name="Rectangle 4254" width="99.138" height="5.975" transform="translate(3.676 0.317) rotate(34.168)" fill="#fff"/>
        <path id="Path_7096" data-name="Path 7096" d="M2276.171,421.88a.314.314,0,0,1-.179-.055l-82.027-55.678a.319.319,0,0,1-.085-.442l3.36-4.941a.319.319,0,0,1,.442-.084l82.027,55.678a.317.317,0,0,1,.084.442l-3.36,4.941A.318.318,0,0,1,2276.171,421.88Zm-81.584-56.08,81.5,55.321,3-4.415-81.5-55.321Z" transform="translate(-2193.826 -360.625)"/>
      </g>
      <g id="Group_2987" data-name="Group 2987" transform="translate(12.867 26.485)">
        <rect id="Rectangle_4255" data-name="Rectangle 4255" width="99.138" height="10.537" transform="matrix(0.827, 0.562, -0.562, 0.827, 6.24, 0.316)" fill="#fff"/>
        <path id="Path_7097" data-name="Path 7097" d="M2211.492,508.912a.315.315,0,0,1-.178-.055l-82.027-55.678a.318.318,0,0,1-.084-.442l5.925-8.714a.318.318,0,0,1,.442-.084l82.026,55.678a.319.319,0,0,1,.085.442l-5.925,8.713A.319.319,0,0,1,2211.492,508.912Zm-81.584-56.081,81.5,55.321,5.567-8.187-81.5-55.321Z" transform="translate(-2129.148 -443.884)"/>
      </g>
    </g>
    <g id="Group_2999" data-name="Group 2999" transform="translate(1738.831 257.806)">
      <g id="Group_2992" data-name="Group 2992" transform="translate(0 89.004)">
        <path id="Path_7098" data-name="Path 7098" d="M1837.21,724.437l12.35,87.186H1807.9l-4.975-16.464-4.353,16.464h-43.009s9.606-44.111,20.355-65.856,24.472-28.372,24.472-28.372Z" transform="translate(-1755.244 -717.078)" fill="#fff"/>
        <g id="Group_2989" data-name="Group 2989">
          <path id="Path_7099" data-name="Path 7099" d="M1755.562,811.623s9.606-44.111,20.355-65.856,24.472-28.372,24.472-28.372l36.822,7.041,12.35,87.186Z" transform="translate(-1755.244 -717.078)" fill="#050038"/>
          <path id="Path_7100" data-name="Path 7100" d="M1754.881,811.259a.313.313,0,0,1-.068-.007.318.318,0,0,1-.243-.378c.1-.442,9.737-44.4,20.38-65.929,10.674-21.593,24.48-28.45,24.619-28.517a.319.319,0,0,1,.2-.026l36.822,7.041a.319.319,0,0,1,.255.268l12.35,87.186a.318.318,0,1,1-.63.089l-12.318-86.961-36.492-6.978c-1.212.63-14.119,7.719-24.234,28.18-10.609,21.462-20.234,65.342-20.329,65.782A.318.318,0,0,1,1754.881,811.259Z" transform="translate(-1754.562 -716.396)"/>
        </g>
        <g id="Group_2990" data-name="Group 2990" transform="translate(43.009 77.763)">
          <path id="Path_7101" data-name="Path 7101" d="M1900.093,978.315l-4.974-16.464-4.353,16.464Z" transform="translate(-1890.448 -961.533)" fill="#fff"/>
          <path id="Path_7102" data-name="Path 7102" d="M1899.411,977.951a.318.318,0,0,1-.3-.226l-4.649-15.389-4.066,15.378a.318.318,0,0,1-.615-.163l4.353-16.464a.317.317,0,0,1,.3-.237.324.324,0,0,1,.31.226l4.974,16.464a.317.317,0,0,1-.3.41Z" transform="translate(-1889.765 -960.851)"/>
        </g>
        <g id="Group_2991" data-name="Group 2991" transform="translate(36.791 42.661)">
          <path id="Path_7103" data-name="Path 7103" d="M1881.789,886.606l-5.907-24.851s-4.353-8.387-4.664-10.251Z" transform="translate(-1870.9 -851.186)" fill="#3c3c3c"/>
          <path id="Path_7104" data-name="Path 7104" d="M1881.106,886.242a.318.318,0,0,1-.309-.245l-5.9-24.813c-.348-.671-4.369-8.461-4.677-10.31a.318.318,0,0,1,.628-.1c.3,1.794,4.589,10.074,4.633,10.157a.323.323,0,0,1,.027.073l5.907,24.851a.318.318,0,0,1-.236.383A.309.309,0,0,1,1881.106,886.242Z" transform="translate(-1870.218 -850.503)" fill="#67666e"/>
        </g>
      </g>
      <g id="Group_2996" data-name="Group 2996" transform="translate(28.25 41.35)">
        <g id="Group_2993" data-name="Group 2993" transform="translate(0 1.144)">
          <path id="Path_7105" data-name="Path 7105" d="M1851.917,584.813c.654-2.117,5.934-8.781,7.254-10.562,3.04-4.1,15.152-2.4,20.226-2.961,6.375-.709,19.363-2.941,27.758,2.133,8.216,4.965,11.276,15.145,15.2,20.558,3.866-2.7,6.975-5.078,11.017-8.081l13.524,14.859c-.725.88-14.768,21.538-27.516,20.088-7.42-.844-9.638-4.97-14.406-9.94,0,0-.1,20.709-6.737,18.638-27.352-8.54-42.278,5.623-54.3,1.481C1841.03,630.023,1850.056,590.831,1851.917,584.813Z" transform="translate(-1843.368 -570.188)" fill="#3f53d9"/>
          <path id="Path_7106" data-name="Path 7106" d="M2020.043,663.882a.318.318,0,0,1-.273-.153,95.633,95.633,0,0,1-7.49-15.593.318.318,0,0,1,.6-.208,94.846,94.846,0,0,0,7.433,15.471.318.318,0,0,1-.271.483Z" transform="translate(-1958.536 -623.052)" fill="#3f53d9"/>
        </g>
        <g id="Group_2995" data-name="Group 2995" transform="translate(89.189)">
          <g id="Group_2994" data-name="Group 2994">
            <path id="Path_7107" data-name="Path 7107" d="M2138.524,599.115c2.263-4.807,11.179-15.047,15.409-16.878,7.11-3.079,2.254-4.318,2.254-4.318s3.186-.941,2.808-2.693c-.445-2.063-6.522.391-8.5,1-.533.177-.866.28-.866.28s.335-.117.866-.28c2.172-.722,7.852-2.853,7.987-4.347.169-1.86-2.392-1.632-2.392-1.632a1.4,1.4,0,0,0,.406-2.223c-1.006-1.253-14.045-.086-23.113,8.011-1.288,1.15-7.637,7.748-8.648,8.738Z" transform="translate(-2124.422 -567.273)" fill="#fee6c2"/>
            <path id="Path_7108" data-name="Path 7108" d="M2137.841,598.752a.314.314,0,0,1-.135-.031.318.318,0,0,1-.152-.423c2.347-4.987,11.264-15.17,15.57-17.035,3.4-1.471,3.706-2.385,3.68-2.71-.043-.544-1.034-.919-1.378-1.008a.318.318,0,0,1-.011-.613c.029-.009,2.894-.9,2.587-2.321a.549.549,0,0,0-.288-.382c-1.138-.644-4.74.582-6.676,1.24-.446.152-.833.284-1.128.374-.53.176-.866.28-.866.28a.318.318,0,0,1-.2-.6s.34-.119.879-.284c3.692-1.229,7.673-3.075,7.763-4.072a.981.981,0,0,0-.254-.832,2.62,2.62,0,0,0-1.793-.455.313.313,0,0,1-.333-.225.318.318,0,0,1,.152-.371,1.381,1.381,0,0,0,.635-.8,1.177,1.177,0,0,0-.324-.949c-.007-.008-.171-.2-1.11-.279-3.9-.321-14.218,1.787-21.544,8.327-.842.751-3.912,3.9-6.154,6.2-1.194,1.224-2.137,2.191-2.483,2.531a.318.318,0,1,1-.446-.454c.342-.335,1.33-1.348,2.474-2.521,2.249-2.305,5.327-5.462,6.185-6.228,7.909-7.061,18.432-8.788,22.02-8.487a2.265,2.265,0,0,1,1.553.514,1.772,1.772,0,0,1,.452,1.475,1.612,1.612,0,0,1-.3.653,2.512,2.512,0,0,1,1.467.615,1.6,1.6,0,0,1,.438,1.34c-.068.751-1.17,1.567-2.571,2.31a3.994,3.994,0,0,1,2.477.144,1.191,1.191,0,0,1,.6.8c.3,1.411-1.229,2.327-2.228,2.765a1.7,1.7,0,0,1,1.042,1.261c.082,1.032-1.246,2.126-4.061,3.345-4.089,1.771-12.974,11.892-15.248,16.721A.317.317,0,0,1,2137.841,598.752Z" transform="translate(-2123.74 -566.591)"/>
          </g>
          <path id="Path_7109" data-name="Path 7109" d="M2205.617,601.89a.318.318,0,0,1-.154-.6c.143-.079,3.481-1.908,5.235-1.908h.072a.318.318,0,0,1-.02.636c-1.564-.037-4.947,1.809-4.981,1.828A.316.316,0,0,1,2205.617,601.89Z" transform="translate(-2179.354 -588.954)"/>
          <path id="Path_7110" data-name="Path 7110" d="M2195.3,578.834a.318.318,0,0,1-.144-.6,34.39,34.39,0,0,1,8.224-2.676.318.318,0,0,1,.128.623,33.723,33.723,0,0,0-8.063,2.62A.321.321,0,0,1,2195.3,578.834Z" transform="translate(-2172.32 -572.7)"/>
        </g>
      </g>
      <g id="Group_2998" data-name="Group 2998" transform="translate(33.615 0)">
        <g id="Group_2997" data-name="Group 2997" transform="translate(36.018 10.451)">
          <path id="Path_7111" data-name="Path 7111" d="M1988.383,470.739s8.835,13.208,3.57,19.553-17.495-.155-17.495-.155S1980.739,467.7,1988.383,470.739Z" transform="translate(-1974.141 -470.137)" fill="#050038"/>
          <path id="Path_7112" data-name="Path 7112" d="M1984.5,492.73c-5.157,0-10.54-2.814-10.877-2.993a.318.318,0,0,1-.157-.366c.187-.668,4.645-16.383,10.757-19.408a4.258,4.258,0,0,1,3.591-.2.314.314,0,0,1,.146.119c.366.547,8.906,13.479,3.551,19.933A8.685,8.685,0,0,1,1984.5,492.73Zm-10.349-3.439c1.689.836,12.22,5.721,16.871.116,4.842-5.835-2.806-17.964-3.536-19.09a3.6,3.6,0,0,0-2.981.215C1979.056,473.231,1974.76,487.237,1974.156,489.291Z" transform="translate(-1973.459 -469.456)" fill="#050038"/>
        </g>
        <path id="Path_7113" data-name="Path 7113" d="M1868.915,518.187a21.54,21.54,0,0,0,10.955,3.454,26.918,26.918,0,0,0,13.13-3,21.379,21.379,0,0,0,8.254-6.966,13.357,13.357,0,0,0,2.036-4.8,15.445,15.445,0,0,0-.257-6.4c-.494-2.19-1.3-4.289-1.884-6.453a11.9,11.9,0,0,1-.377-6.008c.959-3.72,4.856-5.53,6.529-8.842,1.75-3.463.893-7.558-.374-11.026a49.281,49.281,0,0,1-2.181-5.792,5.614,5.614,0,0,1,1.151-5.085,15.652,15.652,0,0,1,3.673-2.81,20.108,20.108,0,0,0,3.769-2.779c2.659-2.7,2.912-6.881,1.751-10.327a6.7,6.7,0,0,0-3.371-4.166,8.228,8.228,0,0,0-4.948-.371,28.36,28.36,0,0,0-5.322,1.742c-1.592.64-3.178,1.294-4.763,1.95-.39-.06-.781-.115-1.174-.156a16.067,16.067,0,0,0-6.281.469,12.449,12.449,0,0,0-5.194,3.187,27.487,27.487,0,0,0-6.137,10.521,33.622,33.622,0,0,0-1.455,6,53.079,53.079,0,0,0-.426,6.121,35.055,35.055,0,0,1-.568,6.185,13.937,13.937,0,0,1-2.388,5.4,37.432,37.432,0,0,1-4.053,4.4,36.637,36.637,0,0,0-3.908,4.39,25.318,25.318,0,0,0-4.569,10.637C1859.223,505.432,1862.229,513.758,1868.915,518.187Z" transform="translate(-1860.233 -436.603)" fill="#050038"/>
      </g>
    </g>
    <g id="Group_3001" data-name="Group 3001" transform="translate(1954.771 363.78)">
      <g id="Group_3000" data-name="Group 3000" transform="translate(0 28.925)">
        <ellipse id="Ellipse_517" data-name="Ellipse 517" cx="4.966" cy="4.971" rx="4.966" ry="4.971" fill="#e9ecff"/>
        <ellipse id="Ellipse_518" data-name="Ellipse 518" cx="4.966" cy="4.971" rx="4.966" ry="4.971" transform="translate(14.492)" fill="#e9ecff"/>
        <ellipse id="Ellipse_519" data-name="Ellipse 519" cx="4.966" cy="4.971" rx="4.966" ry="4.971" transform="translate(28.983)" fill="#e9ecff"/>
      </g>
      <path id="Path_7114" data-name="Path 7114" d="M2629.323,803.955h-29.41a.318.318,0,0,1,0-.636H2629v-33.26a.318.318,0,0,1,.636,0v33.578A.318.318,0,0,1,2629.323,803.955Z" transform="translate(-2555.808 -769.741)"/>
    </g>
    <g id="Group_3003" data-name="Group 3003" transform="translate(1892.979 232.878)">
      <g id="Group_3002" data-name="Group 3002" transform="translate(0)">
        <ellipse id="Ellipse_520" data-name="Ellipse 520" cx="4.966" cy="4.971" rx="4.966" ry="4.971" fill="#e2eaff"/>
        <ellipse id="Ellipse_521" data-name="Ellipse 521" cx="4.966" cy="4.971" rx="4.966" ry="4.971" transform="translate(14.492)" fill="#e2eaff"/>
        <ellipse id="Ellipse_522" data-name="Ellipse 522" cx="4.966" cy="4.971" rx="4.966" ry="4.971" transform="translate(28.983)" fill="#e2eaff"/>
      </g>
      <path id="Path_7115" data-name="Path 7115" d="M2427.17,352.129h-29.41a.318.318,0,1,1,0-.636h29.41a.318.318,0,0,1,0,.636Z" transform="translate(-2353.654 -346.841)"/>
    </g>
  </g>
</svg>
