<svg xmlns="http://www.w3.org/2000/svg" width="381.196" height="254" viewBox="0 0 381.196 254">
  <g id="Group_2956" data-name="Group 2956" transform="translate(-241.666 -2377.672)">
    <g id="Group_2955" data-name="Group 2955" transform="translate(241.666 2377.672)">
      <g id="Provide_and_update_your_personal_information" data-name="Provide and update your personal information" transform="translate(0 0)">
        <g id="Group_2932" data-name="Group 2932" transform="translate(191.997 14.859)">
          <g id="Group_2924" data-name="Group 2924">
            <g id="Group_2921" data-name="Group 2921">
              <rect id="Rectangle_4231" data-name="Rectangle 4231" width="158.506" height="197.25" rx="11.365" transform="translate(158.817 210.505) rotate(180)" fill="#fff"/>
              <path id="Path_7020" data-name="Path 7020" d="M947.064,474.522H849.559a4.484,4.484,0,0,1-4.529-4.428V281.076a4.484,4.484,0,0,1,4.529-4.428H999.63a4.484,4.484,0,0,1,4.529,4.428v143.6a.312.312,0,0,1-.624,0v-143.6a3.867,3.867,0,0,0-3.905-3.818H849.559a3.867,3.867,0,0,0-3.905,3.818V470.094a3.867,3.867,0,0,0,3.905,3.818h97.506a.3.3,0,1,1,0,.61Z" transform="translate(-845.03 -263.705)"/>
              <rect id="Rectangle_4232" data-name="Rectangle 4232" width="180.77" height="142.025" transform="translate(150.577 21.495) rotate(90)" fill="#fff"/>
              <path id="Path_7021" data-name="Path 7021" d="M983.043,484.465H871.765a.308.308,0,0,1-.312-.3V303.375a.308.308,0,0,1,.312-.3H1013.79a.308.308,0,0,1,.312.3V427.533a.312.312,0,0,1-.624,0V303.68h-141.4V483.856H983.043a.3.3,0,1,1,0,.609Z" transform="translate(-863.213 -281.887)"/>
              <g id="Group_2920" data-name="Group 2920" transform="translate(36.302)">
                <path id="Path_7391" data-name="Path 7391" d="M0,0H85.9V29.076H0V0Z" transform="translate(86.214 29.387) rotate(180)" fill="#3f53d9"/>
                <path id="Path_7022" data-name="Path 7022" d="M1047.648,264.844h-85.9a.312.312,0,0,1-.312-.312V235.457a.312.312,0,0,1,.312-.312h85.9a.312.312,0,0,1,.312.312v29.076A.312.312,0,0,1,1047.648,264.844Zm-85.59-.624h85.278V235.769H962.058Z" transform="translate(-961.434 -235.145)"/>
              </g>
            </g>
            <g id="Group_2922" data-name="Group 2922" transform="translate(22.595 87.824)">
              <rect id="Rectangle_4234" data-name="Rectangle 4234" width="113.253" height="27.018" fill="#e9ecff"/>
            </g>
            <g id="Group_2923" data-name="Group 2923" transform="translate(22.595 123.411)">
              <rect id="Rectangle_4235" data-name="Rectangle 4235" width="113.253" height="27.018" fill="#e9ecff"/>
            </g>
          </g>
          <g id="Group_2925" data-name="Group 2925" transform="translate(22.408 40.67)">
            <rect id="Rectangle_4236" data-name="Rectangle 4236" width="120.581" height="25.164" transform="translate(34.59)" fill="#e9ecff"/>
            <rect id="Rectangle_4237" data-name="Rectangle 4237" width="25.164" height="25.164" fill="#e9ecff"/>
          </g>
          <g id="Group_2931" data-name="Group 2931" transform="translate(128.512 171.942)">
            <g id="Group_2926" data-name="Group 2926" transform="translate(5.072)">
              <path id="Path_7023" data-name="Path 7023" d="M1328.8,831.657a.312.312,0,0,1-.312-.312,29.726,29.726,0,0,0-54.365-16.6.312.312,0,0,1-.517-.35,30.35,30.35,0,0,1,55.505,16.954A.312.312,0,0,1,1328.8,831.657Z" transform="translate(-1273.5 -801.022)"/>
              <path id="Path_7024" data-name="Path 7024" d="M1273.686,830.594a.312.312,0,0,1-.309-.353l.841-6.311a.312.312,0,0,1,.618.082l-.773,5.8,5.637-2.109a.312.312,0,0,1,.219.584l-6.124,2.291A.31.31,0,0,1,1273.686,830.594Z" transform="translate(-1273.374 -816.6)"/>
            </g>
            <g id="Group_2927" data-name="Group 2927" transform="translate(0 30.011)">
              <path id="Path_7025" data-name="Path 7025" d="M1287.454,927.89a30.368,30.368,0,0,1-30.344-30.323.312.312,0,0,1,.624,0,29.727,29.727,0,0,0,54.365,16.6.312.312,0,0,1,.517.35A30.34,30.34,0,0,1,1287.454,927.89Z" transform="translate(-1257.11 -897.255)"/>
              <path id="Path_7026" data-name="Path 7026" d="M1419.4,957.549l-.042,0a.312.312,0,0,1-.268-.35l.773-5.8-5.637,2.108a.312.312,0,0,1-.218-.584l6.124-2.29a.312.312,0,0,1,.418.333l-.841,6.311A.312.312,0,0,1,1419.4,957.549Z" transform="translate(-1364.94 -933.974)"/>
            </g>
            <g id="Group_2930" data-name="Group 2930" transform="translate(4.001 3.98)">
              <g id="Group_2928" data-name="Group 2928" transform="translate(0 0)">
                <circle id="Ellipse_509" data-name="Ellipse 509" cx="21.898" cy="21.898" r="21.898" transform="matrix(0.23, -0.973, 0.973, 0.23, 0, 42.624)" fill="#fff"/>
                <path id="Path_7027" data-name="Path 7027" d="M1305.4,871.457a22.21,22.21,0,1,1,22.21-22.21A22.235,22.235,0,0,1,1305.4,871.457Zm0-43.8a21.586,21.586,0,1,0,21.586,21.586A21.611,21.611,0,0,0,1305.4,827.661Z" transform="translate(-1279.059 -822.904)"/>
              </g>
              <g id="Group_2929" data-name="Group 2929" transform="translate(21.644 13.149)">
                <path id="Path_7028" data-name="Path 7028" d="M1347.058,900.069V886.317h-6.035v13.752a1.682,1.682,0,0,1-1.682,1.682v1.484h9.4v-1.484A1.682,1.682,0,0,1,1347.058,900.069Z" transform="translate(-1339.341 -876.845)" fill="#3f53d9"/>
                <circle id="Ellipse_510" data-name="Ellipse 510" cx="3.4" cy="3.4" r="3.4" transform="translate(1.299)" fill="#3f53d9"/>
              </g>
            </g>
          </g>
        </g>
        <g id="Group_2934" data-name="Group 2934" transform="translate(271.249)">
          <g id="Group_2933" data-name="Group 2933" transform="translate(76.374)">
            <ellipse id="Ellipse_511" data-name="Ellipse 511" cx="4.235" cy="4.228" rx="4.235" ry="4.228" transform="translate(24.72)" fill="#3f53d9"/>
            <ellipse id="Ellipse_512" data-name="Ellipse 512" cx="4.235" cy="4.228" rx="4.235" ry="4.228" transform="translate(12.36 0)" fill="#e9ecff"/>
            <ellipse id="Ellipse_513" data-name="Ellipse 513" cx="4.235" cy="4.228" rx="4.235" ry="4.228" transform="translate(0 0)" fill="#e9ecff"/>
          </g>
          <path id="Path_7029" data-name="Path 7029" d="M1099.47,205.382a.312.312,0,0,1-.312-.312v-4.7a.312.312,0,0,1,.312-.312h69.821a.312.312,0,1,1,0,.624h-69.509v4.389A.312.312,0,0,1,1099.47,205.382Z" transform="translate(-1099.158 -196.141)"/>
        </g>
        <g id="Group_2945" data-name="Group 2945" transform="translate(0 72.714)">
          <g id="Group_2944" data-name="Group 2944" transform="translate(34.798)">
            <g id="Group_2943" data-name="Group 2943">
              <path id="Path_7030" data-name="Path 7030" d="M537.726,489.437q-1.9-11.6-4.6-23.063-.683-2.894-1.416-5.777c-.344-1.353-1.716-4.146-1.349-5.478.313-1.135,1.937-2.206,2.408-3.478a8.105,8.105,0,0,0,.279-4.612,12.764,12.764,0,0,0-5.332-7.2c-6.177-4.364-14.437-4.89-22.133-4.536-8.044.37-16.6,1.757-22.472,6.974-5.493,4.878-7.642,12.235-8.669,19.3-1.619,11.135-1.051,22.423-.225,33.652a4.864,4.864,0,0,0,4.829,4.508c17.985.075,36.037-.067,53.748-2.949a7.2,7.2,0,0,0,3.984-1.529C538.267,493.781,538.056,491.448,537.726,489.437Z" transform="translate(-424.497 -435.199)" fill="#050038"/>
              <g id="Group_2936" data-name="Group 2936" transform="translate(0 69.687)">
                <g id="Group_2935" data-name="Group 2935" transform="translate(99.186 59.77)">
                  <path id="Path_7031" data-name="Path 7031" d="M700.862,896.149H635.626l4.656-37.887,35.727-6.95Z" transform="translate(-635.314 -850.999)" fill="#fee6c2"/>
                  <path id="Path_7032" data-name="Path 7032" d="M700.174,895.772H634.938a.312.312,0,0,1-.31-.35l4.656-37.888a.312.312,0,0,1,.25-.268l35.727-6.95a.311.311,0,0,1,.332.155l24.853,44.837a.312.312,0,0,1-.273.463Zm-64.884-.624h64.354l-24.486-44.176-35.282,6.863Z" transform="translate(-634.625 -850.311)" fill="#fee6c2"/>
                </g>
                <path id="Path_7033" data-name="Path 7033" d="M443.5,730.667l33.074-.7S461.779,699.634,452.48,681.7a34.052,34.052,0,0,0-21.569-17.274c-15.4-4.043-41.125-8.594-67.469-3.547A22.494,22.494,0,0,0,349.277,670c-8.926,12.654-13.591,38.475-19.246,57.24l36.507.668-8.7,30.382,70.494-.405Z" transform="translate(-325.837 -658.655)" fill="#3f53d9"/>
                <path id="Path_7034" data-name="Path 7034" d="M455.1,915.491H340.479a22.894,22.894,0,0,1-22.317-28l3.3-14.4s25.373-6.006,41.933.668l-3.456,13.885h53.738a45.922,45.922,0,0,1,28.281,9.5A37.326,37.326,0,0,1,455.1,915.491Z" transform="translate(-317.265 -804.506)" fill="#fee6c2"/>
                <path id="Path_7035" data-name="Path 7035" d="M454.412,920.592H339.8a23.206,23.206,0,0,1-22.621-28.386l3.3-14.4a.312.312,0,0,1,.608.139l-3.3,14.4A22.582,22.582,0,0,0,339.8,919.969H453.986a36.907,36.907,0,0,0-12.906-17.793,44,44,0,0,0-13.237-7.055.312.312,0,1,1,.2-.592,44.6,44.6,0,0,1,13.425,7.155,37.42,37.42,0,0,1,13.246,18.5.312.312,0,0,1-.3.4Z" transform="translate(-316.582 -809.295)"/>
                <path id="Path_7036" data-name="Path 7036" d="M680.907,971.98a.312.312,0,0,1-.289-.194A21.223,21.223,0,0,0,667,959.61a.312.312,0,0,1,.169-.6A21.86,21.86,0,0,1,681.2,971.551a.312.312,0,0,1-.171.406A.307.307,0,0,1,680.907,971.98Z" transform="translate(-557.56 -865.332)"/>
                <path id="Path_7037" data-name="Path 7037" d="M646.64,976.631a.312.312,0,0,1-.285-.185,19.661,19.661,0,0,0-11.517-10.466.312.312,0,1,1,.2-.591,20.3,20.3,0,0,1,11.889,10.8.312.312,0,0,1-.285.439Z" transform="translate(-535.44 -869.719)"/>
                <path id="Path_7038" data-name="Path 7038" d="M470.342,812.834a.3.3,0,0,1-.091-.014.312.312,0,0,1-.207-.389l7.507-24.552a11.084,11.084,0,0,1,1.695-3.756,3.923,3.923,0,0,1,3.835-1.586.312.312,0,0,1-.143.607,3.377,3.377,0,0,0-3.2,1.367,10.455,10.455,0,0,0-1.586,3.549l-7.507,24.552A.312.312,0,0,1,470.342,812.834Z" transform="translate(-422.176 -743.849)"/>
                <path id="Path_7039" data-name="Path 7039" d="M540.925,710.364a9.652,9.652,0,0,1-5.221-1.658,19.8,19.8,0,0,1-5.124-5.347c-9.14-12.948-12.083-29.352-14.679-43.824a.312.312,0,0,1,.614-.11c2.585,14.409,5.515,30.74,14.575,43.575a19.231,19.231,0,0,0,4.956,5.184,8.294,8.294,0,0,0,6.725,1.3c4.215-1.209,6.03-6.264,6.81-10.292a66.581,66.581,0,0,0-3.286-36.378.312.312,0,1,1,.581-.226,67.213,67.213,0,0,1,3.317,36.723c-1.167,6.021-3.674,9.746-7.25,10.772A7.314,7.314,0,0,1,540.925,710.364Z" transform="translate(-453.737 -659.008)"/>
                <path id="Path_7040" data-name="Path 7040" d="M653.332,835.388a10.182,10.182,0,0,1-2.3-.258.312.312,0,0,1,.141-.608,11.666,11.666,0,0,0,11.086-3.963,16.263,16.263,0,0,0,3.549-11.633,27.143,27.143,0,0,0-3.955-11.813.312.312,0,0,1,.539-.314,27.756,27.756,0,0,1,4.039,12.086,16.89,16.89,0,0,1-3.7,12.08A12.69,12.69,0,0,1,653.332,835.388Z" transform="translate(-546.563 -760.492)"/>
              </g>
              <g id="Group_2940" data-name="Group 2940" transform="translate(62.687 15.368)">
                <path id="Path_7041" data-name="Path 7041" d="M544.4,595.667l-2.451,22.045-23.355-24.333a10.407,10.407,0,0,0,6.97-7.119l6.354-22.47,17.675,8.873Z" transform="translate(-518.28 -539.055)" fill="#fee6c2"/>
                <path id="Path_7042" data-name="Path 7042" d="M543.71,595.291a.313.313,0,0,1-.3-.38l5.139-22.766-17.12-8.595-6.251,22.107a10.676,10.676,0,0,1-7.178,7.333.312.312,0,1,1-.182-.6,10.055,10.055,0,0,0,6.76-6.906l6.354-22.47a.312.312,0,0,1,.44-.194l17.675,8.874a.312.312,0,0,1,.164.347l-5.192,23A.312.312,0,0,1,543.71,595.291Z" transform="translate(-517.591 -538.367)"/>
                <g id="Group_2937" data-name="Group 2937" transform="translate(0.718)">
                  <path id="Path_7043" data-name="Path 7043" d="M534.579,504.468s-4.283-7.235-8.973-5.774c-7.148,2.225-6.686,15,5.094,14.384,0,0,13.936,17.8,27.307,12.863s3.565-35.051.971-40.213c0,0-17.761-2.365-19.088,8.343C539.119,500.3,540.617,504.468,534.579,504.468Z" transform="translate(-520.587 -485.185)" fill="#fee6c2"/>
                  <path id="Path_7044" data-name="Path 7044" d="M552.466,526.4c-4.352,0-9.107-1.852-14-5.494a51.5,51.5,0,0,1-8.6-8.216c-6.338.265-9.241-3.207-9.843-6.575a7.348,7.348,0,0,1,4.8-8.426c4.536-1.41,8.563,4.671,9.24,5.759,4.245-.059,4.351-2.3,4.542-6.32.054-1.136.115-2.424.286-3.8a8.287,8.287,0,0,1,3.257-5.733c5.5-4.246,15.749-2.939,16.182-2.881a.313.313,0,0,1,.238.169c2.085,4.149,8.767,24.128,4.589,34.723a9.742,9.742,0,0,1-5.731,5.923A14.215,14.215,0,0,1,552.466,526.4Zm-22.457-14.34a.312.312,0,0,1,.245.12c.138.176,13.951,17.566,26.954,12.763a9.145,9.145,0,0,0,5.367-5.566c4.054-10.281-2.355-29.657-4.493-34.065-1.346-.15-10.631-1.028-15.556,2.776a7.685,7.685,0,0,0-3.018,5.316c-.168,1.354-.228,2.63-.282,3.755-.191,4.015-.328,6.916-5.339,6.916a.312.312,0,0,1-.268-.153c-.042-.07-4.211-7-8.612-5.636A6.748,6.748,0,0,0,520.635,506c.561,3.134,3.314,6.376,9.357,6.054Z" transform="translate(-519.895 -484.476)"/>
                </g>
                <path id="Path_7045" data-name="Path 7045" d="M541.452,554.749a.312.312,0,0,1-.215-.085,7.305,7.305,0,0,0-6.359-1.837.312.312,0,1,1-.122-.612,7.936,7.936,0,0,1,6.91,2,.312.312,0,0,1-.215.538Z" transform="translate(-529.231 -530.99)"/>
                <g id="Group_2939" data-name="Group 2939" transform="translate(14.264 8.814)">
                  <path id="Path_7046" data-name="Path 7046" d="M607.983,533.652a4.983,4.983,0,0,1-3.012-1.067,7.045,7.045,0,0,1-1.963-8.486,4.658,4.658,0,0,1,7.217-1.67,7.045,7.045,0,0,1,1.963,8.486,4.8,4.8,0,0,1-3.2,2.621A4.455,4.455,0,0,1,607.983,533.652Zm-.772-11.666a3.831,3.831,0,0,0-.867.1,4.192,4.192,0,0,0-2.779,2.294,6.424,6.424,0,0,0,1.783,7.708,4.037,4.037,0,0,0,6.284-1.454,6.423,6.423,0,0,0-1.783-7.708A4.37,4.37,0,0,0,607.211,521.986Z" transform="translate(-590.167 -518.672)"/>
                  <g id="Group_2938" data-name="Group 2938" transform="translate(25.203)">
                    <path id="Path_7047" data-name="Path 7047" d="M654.064,518.439c.718,3.1-.654,6.071-3.064,6.629s-4.947-1.506-5.664-4.61.654-6.071,3.064-6.629S653.346,515.336,654.064,518.439Z" transform="translate(-644.832 -513.426)" fill="none"/>
                    <path id="Path_7048" data-name="Path 7048" d="M649.506,524.783a4.538,4.538,0,0,1-2.86-1.094,7.306,7.306,0,0,1-1.925-8.32,4.125,4.125,0,0,1,6.652-1.539,6.968,6.968,0,0,1,2.3,3.849c.756,3.267-.724,6.408-3.3,7A3.879,3.879,0,0,1,649.506,524.783Zm-1-11.422a3.227,3.227,0,0,0-.73.084,3.715,3.715,0,0,0-2.493,2.187,6.685,6.685,0,0,0,1.752,7.574,3.714,3.714,0,0,0,3.2.87c2.239-.518,3.509-3.324,2.831-6.255a6.342,6.342,0,0,0-2.09-3.506A3.931,3.931,0,0,0,648.51,513.36Z" transform="translate(-644.142 -512.737)"/>
                  </g>
                  <path id="Path_7049" data-name="Path 7049" d="M633.84,534.613a.312.312,0,0,1-.24-.51,3.071,3.071,0,0,1,3.876-.874.312.312,0,0,1-.317.537c-1.635-.965-3.02.665-3.078.735A.312.312,0,0,1,633.84,534.613Z" transform="translate(-611.635 -526.571)"/>
                  <path id="Path_7050" data-name="Path 7050" d="M575.986,542.549h-.019l-12.346-.762a.312.312,0,0,1-.292-.33.317.317,0,0,1,.33-.292l12.346.762a.312.312,0,0,1-.019.623Z" transform="translate(-563.328 -532.299)"/>
                </g>
              </g>
              <g id="Group_2942" data-name="Group 2942" transform="translate(84.357 105.298)">
                <path id="Path_7051" data-name="Path 7051" d="M719.041,993.762H590.295a3.218,3.218,0,0,1-3.218-3.218v-.757a6.33,6.33,0,0,1,6.33-6.329H728.319l-1.083,4.024A8.487,8.487,0,0,1,719.041,993.762Z" transform="translate(-587.077 -917.774)" fill="#050038"/>
                <g id="Group_2941" data-name="Group 2941" transform="translate(50.72)">
                  <path id="Path_7052" data-name="Path 7052" d="M835.064,844.508H755.449a5.233,5.233,0,0,1-5.08-6.492l15.047-60.7a5.233,5.233,0,0,1,5.079-3.974h79.615a5.233,5.233,0,0,1,5.08,6.492l-15.047,60.7A5.233,5.233,0,0,1,835.064,844.508Z" transform="translate(-750.057 -773.185)" fill="#050038"/>
                  <path id="Path_7053" data-name="Path 7053" d="M834.72,844.32H755.105a5.389,5.389,0,0,1-5.231-6.686l15.047-60.7a5.379,5.379,0,0,1,5.231-4.092h79.616A5.389,5.389,0,0,1,855,779.526l-15.047,60.7A5.379,5.379,0,0,1,834.72,844.32Zm-64.568-71.167a5.068,5.068,0,0,0-4.928,3.855l-15.047,60.7a5.077,5.077,0,0,0,4.928,6.3H834.72a5.068,5.068,0,0,0,4.928-3.855l15.047-60.7a5.077,5.077,0,0,0-4.928-6.3Z" transform="translate(-749.714 -772.841)" fill="#050038"/>
                </g>
                <path id="Path_7054" data-name="Path 7054" d="M932.459,842.646a2.629,2.629,0,1,1-2.629-2.629A2.629,2.629,0,0,1,932.459,842.646Z" transform="translate(-821.129 -819.067)" fill="#3f53d9"/>
              </g>
            </g>
          </g>
          <path id="Path_7055" data-name="Path 7055" d="M263.012,964.637h-57.7a.312.312,0,0,1-.312-.312V941.882a.312.312,0,0,1,.624,0v22.131h57.388a.312.312,0,1,1,0,.624Z" transform="translate(-205 -783.652)"/>
        </g>
        <g id="Group_2954" data-name="Group 2954" transform="translate(0 20.208)">
          <path id="Path_7056" data-name="Path 7056" d="M205.312,579.811A.312.312,0,0,1,205,579.5V540.607a.312.312,0,0,1,.312-.312h44.4a.312.312,0,0,1,0,.624H205.624V579.5A.312.312,0,0,1,205.312,579.811Z" transform="translate(-205 -450.48)"/>
          <g id="Group_2953" data-name="Group 2953" transform="translate(3.011)">
            <g id="Group_2951" data-name="Group 2951">
              <g id="Group_2946" data-name="Group 2946" transform="translate(20.596 20.379)">
                <path id="Path_7057" data-name="Path 7057" d="M302.392,349.578a7.576,7.576,0,0,0,1.823-2.779,2.724,2.724,0,0,0-.847-3.015c-.656-.442-1.534-.47-2.164-.948a2.556,2.556,0,0,1-.567-2.955,8.766,8.766,0,0,1,1.935-2.567,18.438,18.438,0,0,0,4.547-7.418,9.8,9.8,0,0,0-1.224-8.4,6.73,6.73,0,0,0-7.774-2.391c-1.98.865-3.277,2.763-4.467,4.569a107.628,107.628,0,0,0-8.285,14.078,36.027,36.027,0,0,0-3.665,15.793,12.6,12.6,0,0,0,1.288,5.752,6.165,6.165,0,0,0,4.64,3.329c3.193.281,4.417-3.072,6.446-4.851A100.033,100.033,0,0,0,302.392,349.578Z" transform="translate(-281.384 -318.34)" fill="#fff"/>
                <path id="Path_7058" data-name="Path 7058" d="M287.324,362.263c-.132,0-.267-.006-.406-.018a6.467,6.467,0,0,1-4.887-3.49,12.665,12.665,0,0,1-1.326-5.894A36.207,36.207,0,0,1,284.4,336.93a108.235,108.235,0,0,1,8.309-14.12c1.1-1.672,2.472-3.753,4.6-4.683a6.991,6.991,0,0,1,8.15,2.491,10.061,10.061,0,0,1,1.273,8.666,18.527,18.527,0,0,1-4.62,7.547l-.214.227a7.61,7.61,0,0,0-1.659,2.243,2.25,2.25,0,0,0,.465,2.59,3.39,3.39,0,0,0,1.029.455,4.307,4.307,0,0,1,1.121.483,3.027,3.027,0,0,1,.971,3.363,7.815,7.815,0,0,1-1.891,2.9,100.713,100.713,0,0,1-8.339,8.225,14.032,14.032,0,0,0-1.631,1.828C290.743,360.68,289.482,362.263,287.324,362.263Zm12.319-43.983a5.2,5.2,0,0,0-2.084.418c-1.96.857-3.275,2.852-4.331,4.455a107.881,107.881,0,0,0-8.262,14.037,35.6,35.6,0,0,0-3.636,15.655,12.083,12.083,0,0,0,1.25,5.61,5.841,5.841,0,0,0,4.394,3.168c2.076.183,3.256-1.3,4.5-2.867a14.667,14.667,0,0,1,1.708-1.909,100.127,100.127,0,0,0,8.287-8.174h0a7.321,7.321,0,0,0,1.755-2.66,2.43,2.43,0,0,0-.722-2.668,3.758,3.758,0,0,0-.963-.406,3.9,3.9,0,0,1-1.216-.553,2.874,2.874,0,0,1-.668-3.32,8.077,8.077,0,0,1,1.785-2.439l.212-.225a17.932,17.932,0,0,0,4.475-7.289,9.438,9.438,0,0,0-1.174-8.127A6.774,6.774,0,0,0,299.642,318.28Z" transform="translate(-280.696 -317.645)"/>
              </g>
              <g id="Group_2948" data-name="Group 2948" transform="translate(0 17.357)">
                <g id="Group_2947" data-name="Group 2947">
                  <path id="Path_7059" data-name="Path 7059" d="M222.006,345.512c-2.575-3.944-2.795-9.747.6-13.012,1.388-1.335,3.453-2.587,3.22-4.5a3.832,3.832,0,0,0-1.04-1.963c-1.765-2.032-4.138-3.433-6.08-5.3s-3.506-4.521-2.912-7.146a6.294,6.294,0,0,1,4.854-4.452,10.73,10.73,0,0,1,6.75,1.017c6.306,2.938,10.23,9.622,11.555,16.456s.423,13.886-.632,20.767a10.492,10.492,0,0,1-1.387,4.434C233.338,357.052,224.2,348.871,222.006,345.512Z" transform="translate(-215.349 -308.642)" fill="#fff"/>
                  <path id="Path_7060" data-name="Path 7060" d="M233,353.146h-.061c-4.284-.049-10.1-5.411-11.893-8.151-2.521-3.861-2.97-9.932.643-13.407.286-.275.6-.549.91-.814,1.171-1.013,2.383-2.061,2.217-3.423a3.593,3.593,0,0,0-.966-1.8,24.657,24.657,0,0,0-3.445-3.076c-.88-.692-1.79-1.407-2.615-2.2-1.158-1.109-3.767-4.055-3-7.44a6.593,6.593,0,0,1,5.091-4.688,11.15,11.15,0,0,1,6.949,1.039c5.849,2.725,10.233,8.961,11.729,16.679,1.325,6.841.458,13.777-.63,20.874a10.886,10.886,0,0,1-1.439,4.564A4.02,4.02,0,0,1,233,353.146Zm-11.27-44.569a7.952,7.952,0,0,0-1.716.182,5.962,5.962,0,0,0-4.617,4.217c-.7,3.075,1.743,5.816,2.823,6.852.8.77,1.7,1.476,2.569,2.158a25.13,25.13,0,0,1,3.531,3.157,4.149,4.149,0,0,1,1.114,2.13c.206,1.692-1.193,2.9-2.428,3.97-.314.272-.612.529-.885.792-3.38,3.251-2.935,8.968-.553,12.616,1.795,2.748,7.478,7.824,11.378,7.869a3.43,3.43,0,0,0,3.029-1.569,10.249,10.249,0,0,0,1.337-4.306c1.08-7.04,1.94-13.918.634-20.66-1.458-7.523-5.712-13.592-11.38-16.233A11.725,11.725,0,0,0,221.734,308.577Z" transform="translate(-214.654 -307.954)"/>
                </g>
                <path id="Path_7061" data-name="Path 7061" d="M247.228,367.392a.31.31,0,0,1-.21-.081c-3.461-3.148-3.411-8.493-3.073-11.4.151-1.3.383-2.6.607-3.869a30.731,30.731,0,0,0,.709-7.942c-.331-3.809-2.689-7.928-6.557-8.432a.312.312,0,1,1,.081-.618c4.193.547,6.744,4.94,7.1,9a31.181,31.181,0,0,1-.716,8.105c-.223,1.256-.453,2.554-.6,3.832-.324,2.787-.382,7.905,2.873,10.866a.312.312,0,0,1-.21.543Z" transform="translate(-231.018 -326.599)"/>
              </g>
              <g id="Group_2950" data-name="Group 2950" transform="translate(11.104)">
                <g id="Group_2949" data-name="Group 2949">
                  <path id="Path_7062" data-name="Path 7062" d="M257.844,296.468c.993-2.28,2.482-4.479,2.478-6.965-.006-3.6-3.045-6.328-5.191-9.218-3.846-5.179-5.088-12.419-2.426-18.3s9.478-9.808,15.777-8.428a8.136,8.136,0,0,1,5.611,3.824c1.241,2.388.7,5.293-.1,7.862s-1.854,5.185-1.539,7.858c.559,4.741,5.189,8.117,6.159,12.792,1.007,4.855-2.167,9.532-5.462,13.234a54.489,54.489,0,0,0-5.338,6.478c-1.742,2.7-1.947,5.11-2.555,8.147-.648,3.234-2.82,3.607-4.938,1.286a16.518,16.518,0,0,1-3.641-8.217A18.311,18.311,0,0,1,257.844,296.468Z" transform="translate(-250.967 -252.976)" fill="#050038"/>
                  <path id="Path_7063" data-name="Path 7063" d="M262.218,316.162a4.094,4.094,0,0,1-2.838-1.589,17.12,17.12,0,0,1-3.718-8.374,18.736,18.736,0,0,1,1.19-10.533c.248-.569.53-1.14.8-1.692a11.983,11.983,0,0,0,1.65-5.148c0-2.716-1.859-4.98-3.652-7.17-.5-.608-1.012-1.236-1.478-1.863-4.109-5.532-5.074-12.838-2.46-18.611,2.8-6.192,9.889-9.972,16.128-8.6a8.386,8.386,0,0,1,5.821,3.985c1.356,2.608.669,5.7-.081,8.1-.116.37-.237.741-.358,1.113-.7,2.161-1.431,4.394-1.169,6.616.284,2.409,1.637,4.432,3.069,6.574a18.136,18.136,0,0,1,3.086,6.19c1.1,5.3-2.632,10.245-5.534,13.5q-.473.531-.952,1.06a43.372,43.372,0,0,0-4.357,5.38,16.631,16.631,0,0,0-2.238,6.6c-.086.466-.175.944-.274,1.44-.325,1.62-1.06,2.666-2.07,2.947A2.11,2.11,0,0,1,262.218,316.162Zm3-63.241a14.672,14.672,0,0,0-12.933,8.518c-2.523,5.57-1.584,12.628,2.392,17.982.457.615.967,1.238,1.46,1.84,1.863,2.274,3.789,4.626,3.793,7.564a12.435,12.435,0,0,1-1.715,5.425c-.269.545-.548,1.11-.79,1.665a18.1,18.1,0,0,0-1.147,10.179,16.5,16.5,0,0,0,3.564,8.06c.974,1.067,1.987,1.551,2.777,1.332.772-.214,1.349-1.091,1.625-2.469.1-.492.186-.967.272-1.431a17.117,17.117,0,0,1,2.327-6.824,43.838,43.838,0,0,1,4.418-5.46q.477-.528.95-1.057c2.813-3.159,6.432-7.941,5.39-12.963a17.676,17.676,0,0,0-2.994-5.97c-1.41-2.109-2.868-4.29-3.17-6.848-.278-2.357.471-4.657,1.2-6.882.12-.37.241-.739.356-1.107.715-2.286,1.375-5.219.124-7.625a7.772,7.772,0,0,0-5.4-3.663A11.638,11.638,0,0,0,265.216,252.921Zm-8.078,42.869h0Z" transform="translate(-250.261 -252.298)"/>
                </g>
                <path id="Path_7064" data-name="Path 7064" d="M283.93,329.7a.31.31,0,0,1-.236-.108c-2.564-2.953-2.3-7.367-1.189-10.514a36.664,36.664,0,0,1,3.136-6.244c.631-1.079,1.284-2.2,1.858-3.32,1.987-3.893,2.531-7.3,1.617-10.118a16.824,16.824,0,0,0-3.033-4.989,27.255,27.255,0,0,1-2.308-3.3,13.853,13.853,0,0,1,.921-14.594.312.312,0,1,1,.5.371,13.21,13.21,0,0,0-.878,13.918,26.768,26.768,0,0,0,2.256,3.225,17.539,17.539,0,0,1,3.133,5.178c.966,2.984.41,6.548-1.654,10.594-.582,1.141-1.24,2.265-1.876,3.352a36.213,36.213,0,0,0-3.086,6.136c-1.048,2.981-1.316,7.147,1.072,9.9a.312.312,0,0,1-.235.516Z" transform="translate(-271.896 -268.87)" fill="#fff"/>
              </g>
            </g>
            <g id="Group_2952" data-name="Group 2952" transform="translate(4.108 59.447)">
              <path id="Path_7065" data-name="Path 7065" d="M268.511,443.918H228.825l2.7,30.368h34.279Z" transform="translate(-228.514 -443.606)" fill="#abb2e7"/>
              <path id="Path_7066" data-name="Path 7066" d="M265.12,473.91H230.841a.312.312,0,0,1-.311-.284l-2.7-30.368a.312.312,0,0,1,.311-.34h39.686a.312.312,0,0,1,.311.34l-2.7,30.368A.312.312,0,0,1,265.12,473.91Zm-33.993-.624h33.708l2.648-29.744h-39Z" transform="translate(-227.826 -442.918)"/>
            </g>
          </g>
        </g>
      </g>
      <text id="Resume" transform="translate(243.158 34.784)" fill="#fff" font-size="17" font-family="Roboto-Light, Roboto" font-weight="300"><tspan x="0" y="0">Resume</tspan></text>
    </g>
  </g>
</svg>
